<svg width="428" height="478" viewBox="0 0 428 478" fill="none" xmlns="http://www.w3.org/2000/svg">
<g clip-path="url(#clip0_2_2)">
<path d="M38.3634 343.539C38.3634 343.539 38.4302 342.664 38.6174 341.061" stroke="#00AEEE" stroke-linecap="round" stroke-linejoin="round"/>
<path d="M42.058 321.58C51.8452 277.696 87.2534 181.959 210.451 168.36C346.723 153.339 377.383 282.997 315.492 339.248C276.269 374.821 181.558 376.579 161.275 261.483C141.847 151.307 194.707 49.1676 280.094 15.5079" stroke="#00AEEE" stroke-linecap="round" stroke-linejoin="round" stroke-dasharray="1.99 7.96"/>
<path d="M289.401 12.1622L291.749 11.4126" stroke="#00AEEE" stroke-linecap="round" stroke-linejoin="round"/>
</g>
<path d="M49 122C53.9706 122 58 117.971 58 113C58 108.029 53.9706 104 49 104C44.0294 104 40 108.029 40 113C40 117.971 44.0294 122 49 122Z" fill="#A2E9FC"/>
<g clip-path="url(#clip1_2_2)">
<path d="M191 291.883H81.1577V366.019H191V291.883Z" fill="#A2E9FC"/>
<path fill-rule="evenodd" clip-rule="evenodd" d="M184.635 359.916H74V285H184.635V359.916ZM74.7931 359.136H183.842V285.78H74.7931V359.136Z" fill="#0A9CE5"/>
<path fill-rule="evenodd" clip-rule="evenodd" d="M172.402 329.419H90.7144C90.6616 329.422 90.6088 329.414 90.5594 329.395C90.51 329.377 90.4651 329.348 90.4277 329.311C90.3903 329.274 90.3612 329.23 90.3423 329.182C90.3233 329.133 90.3151 329.081 90.3179 329.029C90.3151 328.977 90.3233 328.925 90.3423 328.877C90.3612 328.828 90.3903 328.784 90.4277 328.747C90.4651 328.71 90.51 328.682 90.5594 328.663C90.6088 328.645 90.6616 328.636 90.7144 328.639H172.402C172.455 328.636 172.508 328.645 172.557 328.663C172.607 328.682 172.652 328.71 172.689 328.747C172.726 328.784 172.756 328.828 172.775 328.877C172.793 328.925 172.802 328.977 172.799 329.029C172.799 329.133 172.757 329.232 172.683 329.305C172.608 329.378 172.507 329.419 172.402 329.419Z" fill="#0A9CE5"/>
<path fill-rule="evenodd" clip-rule="evenodd" d="M172.402 334.567H90.7144C90.6616 334.57 90.6088 334.561 90.5594 334.543C90.51 334.524 90.4651 334.495 90.4277 334.459C90.3903 334.422 90.3612 334.378 90.3423 334.329C90.3233 334.281 90.3151 334.229 90.3179 334.177C90.3151 334.125 90.3233 334.073 90.3423 334.024C90.3612 333.976 90.3903 333.931 90.4277 333.895C90.4651 333.858 90.51 333.829 90.5594 333.811C90.6088 333.792 90.6616 333.784 90.7144 333.787H172.402C172.455 333.784 172.508 333.792 172.557 333.811C172.607 333.829 172.652 333.858 172.689 333.895C172.726 333.931 172.756 333.976 172.775 334.024C172.793 334.073 172.802 334.125 172.799 334.177C172.799 334.28 172.757 334.379 172.683 334.452C172.608 334.526 172.507 334.567 172.402 334.567Z" fill="#0A9CE5"/>
<path fill-rule="evenodd" clip-rule="evenodd" d="M172.402 339.754H90.7144C90.6616 339.757 90.6088 339.749 90.5594 339.73C90.51 339.712 90.4651 339.683 90.4277 339.646C90.3903 339.609 90.3612 339.565 90.3423 339.517C90.3233 339.468 90.3151 339.416 90.3179 339.364C90.3151 339.312 90.3233 339.26 90.3423 339.212C90.3612 339.163 90.3903 339.119 90.4277 339.082C90.4651 339.045 90.51 339.017 90.5594 338.998C90.6088 338.98 90.6616 338.971 90.7144 338.974H172.402C172.455 338.971 172.508 338.98 172.557 338.998C172.607 339.017 172.652 339.045 172.689 339.082C172.726 339.119 172.756 339.163 172.775 339.212C172.793 339.26 172.802 339.312 172.799 339.364C172.799 339.468 172.757 339.567 172.683 339.64C172.608 339.713 172.507 339.754 172.402 339.754Z" fill="#0A9CE5"/>
<path fill-rule="evenodd" clip-rule="evenodd" d="M140.56 344.921H90.7144C90.6616 344.924 90.6088 344.916 90.5594 344.897C90.51 344.879 90.4651 344.85 90.4277 344.813C90.3903 344.776 90.3612 344.732 90.3423 344.684C90.3233 344.635 90.3151 344.583 90.3179 344.531C90.3151 344.479 90.3233 344.427 90.3423 344.379C90.3612 344.33 90.3903 344.286 90.4277 344.249C90.4651 344.212 90.51 344.184 90.5594 344.165C90.6088 344.146 90.6616 344.138 90.7144 344.141H140.52C140.573 344.138 140.626 344.146 140.675 344.165C140.725 344.184 140.77 344.212 140.807 344.249C140.844 344.286 140.873 344.33 140.892 344.379C140.911 344.427 140.92 344.479 140.917 344.531C140.922 344.58 140.917 344.63 140.902 344.677C140.886 344.725 140.861 344.768 140.827 344.805C140.794 344.842 140.752 344.871 140.706 344.891C140.66 344.911 140.61 344.921 140.56 344.921Z" fill="#0A9CE5"/>
<path fill-rule="evenodd" clip-rule="evenodd" d="M172.204 322.497H91.2692C91.2164 322.5 91.1635 322.492 91.114 322.473C91.0646 322.455 91.0198 322.426 90.9824 322.389C90.945 322.352 90.9159 322.308 90.8969 322.26C90.878 322.211 90.8698 322.159 90.8726 322.107V301.243C90.8698 301.191 90.878 301.139 90.8969 301.091C90.9159 301.042 90.945 300.998 90.9824 300.961C91.0198 300.924 91.0646 300.896 91.114 300.877C91.1635 300.858 91.2164 300.85 91.2692 300.853H172.204C172.256 300.85 172.309 300.858 172.359 300.877C172.408 300.896 172.453 300.924 172.49 300.961C172.528 300.998 172.557 301.042 172.576 301.091C172.595 301.139 172.603 301.191 172.6 301.243V322.049C172.613 322.105 172.612 322.164 172.597 322.22C172.582 322.276 172.555 322.327 172.516 322.371C172.478 322.415 172.43 322.449 172.375 322.471C172.321 322.493 172.262 322.502 172.204 322.497ZM91.6856 321.717H171.807V301.692H91.6856V321.717Z" fill="#0A9CE5"/>
</g>
<path d="M29.5 58C30.3284 58 31 57.3284 31 56.5C31 55.6716 30.3284 55 29.5 55C28.6716 55 28 55.6716 28 56.5C28 57.3284 28.6716 58 29.5 58Z" fill="#A2E9FC"/>
<path d="M277.5 139C279.985 139 282 136.985 282 134.5C282 132.015 279.985 130 277.5 130C275.015 130 273 132.015 273 134.5C273 136.985 275.015 139 277.5 139Z" fill="#A2E9FC"/>
<path d="M370.5 89C371.881 89 373 87.8807 373 86.5C373 85.1193 371.881 84 370.5 84C369.119 84 368 85.1193 368 86.5C368 87.8807 369.119 89 370.5 89Z" fill="#A2E9FC"/>
<path d="M368.5 81C371.538 81 374 78.5375 374 75.5C374 72.4624 371.538 70 368.5 70C365.462 70 363 72.4624 363 75.5C363 78.5375 365.462 81 368.5 81Z" fill="#A2E9FC"/>
<path d="M314.5 360C316.985 360 319 357.985 319 355.5C319 353.015 316.985 351 314.5 351C312.015 351 310 353.015 310 355.5C310 357.985 312.015 360 314.5 360Z" fill="#A2E9FC"/>
<path d="M327.5 352C328.881 352 330 350.881 330 349.5C330 348.119 328.881 347 327.5 347C326.119 347 325 348.119 325 349.5C325 350.881 326.119 352 327.5 352Z" fill="#A2E9FC"/>
<g clip-path="url(#clip2_2_2)">
<path fill-rule="evenodd" clip-rule="evenodd" d="M195.283 55.1868C195.283 55.1868 188.217 46.0171 188 45.3305C187.166 46.005 186.543 46.5772 185.735 47.2421C185.667 47.2884 185.611 47.349 185.57 47.4198L181.514 56.8264C181.488 56.8902 181.479 56.9594 181.486 57.0279C181.494 57.0963 181.518 57.1619 181.557 57.2189C181.595 57.2759 181.648 57.3226 181.709 57.3548C181.77 57.3869 181.838 57.4036 181.907 57.4034L192.722 57.2298C192.773 57.2299 192.823 57.22 192.869 57.2006C192.916 57.1812 192.958 57.1527 192.993 57.1168C193.752 56.5137 195.283 55.1868 195.283 55.1868Z" fill="#BF2652"/>
<path fill-rule="evenodd" clip-rule="evenodd" d="M187.818 45.5173L183.761 54.9154C183.734 54.9796 183.723 55.0496 183.729 55.1193C183.736 55.1889 183.76 55.2559 183.799 55.3141C183.838 55.3723 183.891 55.4198 183.953 55.4524C184.016 55.485 184.085 55.5018 184.155 55.501L194.961 55.319C195.039 55.3175 195.115 55.295 195.181 55.2538C195.247 55.2127 195.3 55.1545 195.335 55.0853C195.371 55.0162 195.386 54.9387 195.381 54.8613C195.375 54.7838 195.349 54.7094 195.304 54.6457L188.53 45.4478C188.487 45.389 188.43 45.3425 188.364 45.3126C188.298 45.2828 188.225 45.2708 188.153 45.2778C188.081 45.2849 188.012 45.3107 187.953 45.3527C187.894 45.3948 187.848 45.4516 187.818 45.5173Z" fill="#FC6C85"/>
</g>
<g clip-path="url(#clip3_2_2)">
<path d="M304.971 39.1507L304.039 37.1802L293.036 43.2492L293.911 45.3247C293.97 45.4088 294.046 45.478 294.135 45.5271L304.321 49.9629C304.383 49.9879 304.451 49.9963 304.518 49.9873C304.585 49.9782 304.648 49.9519 304.703 49.911C304.758 49.8701 304.801 49.8158 304.83 49.7529C304.86 49.69 304.873 49.6205 304.87 49.5508L304.993 39.3605C305.008 39.29 305.001 39.2161 304.971 39.1507Z" fill="#F9C973"/>
<path fill-rule="evenodd" clip-rule="evenodd" d="M303.518 37.0527L293.21 42.7322C293.143 42.7671 293.087 42.8208 293.047 42.8869C293.008 42.9531 292.987 43.0291 292.987 43.1068C292.987 43.1845 293.008 43.2607 293.047 43.3269C293.087 43.393 293.143 43.4465 293.21 43.4814L303.287 47.8123C303.35 47.8372 303.417 47.8463 303.484 47.839C303.551 47.8317 303.615 47.808 303.672 47.77C303.728 47.732 303.775 47.6808 303.809 47.6204C303.842 47.56 303.862 47.4923 303.865 47.4227L304.089 37.3899C304.082 37.3237 304.061 37.2601 304.026 37.2044C303.99 37.1487 303.943 37.1025 303.887 37.0696C303.831 37.0366 303.769 37.018 303.705 37.0151C303.641 37.0121 303.576 37.025 303.518 37.0527Z" fill="#FFF9B0"/>
</g>
<path d="M322.5 363C323.328 363 324 362.328 324 361.5C324 360.672 323.328 360 322.5 360C321.672 360 321 360.672 321 361.5C321 362.328 321.672 363 322.5 363Z" fill="#A2E9FC"/>
<g clip-path="url(#clip4_2_2)">
<path fill-rule="evenodd" clip-rule="evenodd" d="M290.623 263.766L265.049 289.225C264.686 289.591 264.223 289.842 263.717 289.945C263.211 290.049 262.686 290 262.207 289.806C261.729 289.612 261.319 289.281 261.03 288.855C260.741 288.429 260.585 287.927 260.582 287.413V253.667L290.623 263.766Z" fill="#C8F5FC"/>
<path fill-rule="evenodd" clip-rule="evenodd" d="M381.147 263.54H155.865C154.841 263.537 153.86 263.131 153.136 262.409C152.412 261.688 152.003 260.711 152 259.691V176.837C152.007 175.819 152.416 174.845 153.14 174.127C153.864 173.408 154.843 173.003 155.865 173H381.147C382.169 173.003 383.149 173.408 383.873 174.127C384.596 174.845 385.006 175.819 385.012 176.837V259.691C385.016 260.197 384.918 260.699 384.725 261.168C384.532 261.636 384.247 262.062 383.888 262.42C383.528 262.779 383.101 263.062 382.631 263.254C382.16 263.446 381.656 263.544 381.147 263.54Z" fill="#C8F5FC"/>
<path d="M350.354 209.146H188.378V213.471H350.354V209.146Z" fill="#A2E9FC"/>
<path d="M350.354 221.045H188.378V225.369H350.354V221.045Z" fill="#A2E9FC"/>
<path d="M257.357 232.931H188.378V237.256H257.357V232.931Z" fill="#A2E9FC"/>
<path d="M350.354 209.146H188.378V213.471H350.354V209.146Z" fill="#A2E9FC"/>
<path d="M350.354 221.045H188.378V225.369H350.354V221.045Z" fill="#A2E9FC"/>
<path d="M257.357 232.931H188.378V237.256H257.357V232.931Z" fill="#A2E9FC"/>
<path d="M350.354 197.047H188.378V201.372H350.354V197.047Z" fill="#A2E9FC"/>
<g clip-path="url(#clip5_2_2)">
<path fill-rule="evenodd" clip-rule="evenodd" d="M363.803 254.915C363.803 254.915 343.521 253.598 342.365 253.088C342.287 254.97 342.319 256.454 342.259 258.291C342.241 258.433 342.256 258.578 342.302 258.714L350 274.968C350.054 275.076 350.134 275.169 350.233 275.238C350.332 275.308 350.447 275.352 350.567 275.367C350.687 275.382 350.809 275.367 350.923 275.324C351.036 275.28 351.137 275.21 351.217 275.119L363.527 260.66C363.586 260.593 363.631 260.516 363.659 260.432C363.688 260.348 363.699 260.26 363.692 260.171C363.778 258.471 363.803 254.915 363.803 254.915Z" fill="#BF2652"/>
<path fill-rule="evenodd" clip-rule="evenodd" d="M342.4 253.544L350.087 269.789C350.139 269.9 350.219 269.995 350.318 270.067C350.418 270.14 350.534 270.186 350.656 270.202C350.778 270.217 350.902 270.203 351.017 270.158C351.132 270.114 351.235 270.042 351.315 269.949L363.604 255.492C363.693 255.388 363.751 255.261 363.773 255.127C363.795 254.992 363.78 254.854 363.73 254.728C363.68 254.601 363.596 254.49 363.487 254.408C363.379 254.325 363.25 254.274 363.114 254.259L343.133 252.526C343.007 252.513 342.879 252.534 342.763 252.587C342.647 252.639 342.547 252.722 342.473 252.825C342.398 252.928 342.353 253.049 342.34 253.175C342.327 253.302 342.348 253.429 342.4 253.544Z" fill="#FC6C85"/>
</g>
<path d="M222.5 281C223.881 281 225 279.881 225 278.5C225 277.119 223.881 276 222.5 276C221.119 276 220 277.119 220 278.5C220 279.881 221.119 281 222.5 281Z" fill="#A2E9FC"/>
</g>
<g clip-path="url(#clip6_2_2)">
<path d="M153.981 412.488L153.359 411.124L146.024 415.326L146.608 416.763C146.647 416.821 146.698 416.869 146.757 416.903L153.547 419.974C153.589 419.991 153.635 419.997 153.679 419.99C153.724 419.984 153.766 419.966 153.802 419.938C153.839 419.909 153.868 419.872 153.887 419.828C153.907 419.785 153.916 419.737 153.914 419.688L153.996 412.633C154.006 412.585 154.001 412.534 153.981 412.488Z" fill="#F9C973"/>
<path fill-rule="evenodd" clip-rule="evenodd" d="M153.012 411.036L146.14 414.968C146.095 414.992 146.058 415.029 146.032 415.075C146.006 415.121 145.992 415.174 145.992 415.227C145.992 415.281 146.006 415.334 146.032 415.38C146.058 415.426 146.095 415.463 146.14 415.487L152.858 418.485C152.9 418.502 152.945 418.509 152.99 418.504C153.034 418.498 153.077 418.482 153.115 418.456C153.152 418.43 153.183 418.394 153.206 418.352C153.228 418.31 153.241 418.264 153.244 418.215L153.393 411.27C153.388 411.224 153.374 411.18 153.351 411.141C153.327 411.103 153.295 411.071 153.258 411.048C153.221 411.025 153.179 411.012 153.137 411.01C153.094 411.008 153.051 411.017 153.012 411.036Z" fill="#FFF9B0"/>
</g>
<g clip-path="url(#clip7_2_2)">
<path d="M50.8409 240.893L49.551 243.838L66.9509 250.205L68.4135 247.223C68.4499 247.076 68.4528 246.924 68.4218 246.778L63.4998 231.153C63.4667 231.059 63.4104 230.976 63.3357 230.91C63.261 230.845 63.1702 230.799 63.0718 230.778C62.9735 230.757 62.8709 230.761 62.7727 230.789C62.6745 230.818 62.5839 230.87 62.5095 230.941L51.0533 240.666C50.9597 240.717 50.8849 240.797 50.8409 240.893Z" fill="#F9C973"/>
<path fill-rule="evenodd" clip-rule="evenodd" d="M49.9131 244.54L66.2079 250.512C66.3116 250.553 66.4256 250.564 66.5372 250.543C66.6488 250.523 66.7535 250.472 66.8399 250.397C66.9263 250.322 66.9911 250.225 67.0267 250.117C67.0623 250.01 67.0674 249.896 67.0415 249.787L62.1075 234.384C62.0744 234.29 62.0192 234.206 61.9463 234.139C61.8734 234.072 61.785 234.023 61.6882 233.997C61.5913 233.971 61.4889 233.969 61.3891 233.99C61.2894 234.011 61.1954 234.055 61.1145 234.118L49.7355 243.578C49.6684 243.65 49.6187 243.736 49.5908 243.829C49.5628 243.922 49.5573 244.019 49.5747 244.113C49.592 244.207 49.6318 244.295 49.6906 244.369C49.7494 244.443 49.8258 244.502 49.9131 244.54Z" fill="#FFF9B0"/>
</g>
<g clip-path="url(#clip8_2_2)">
<path fill-rule="evenodd" clip-rule="evenodd" d="M118.001 298.766C118.001 298.766 103.817 299.898 102.902 299.697C103.308 300.855 103.692 301.76 104.098 302.889C104.121 302.978 104.166 303.066 104.231 303.144L113.456 312.351C113.52 312.412 113.597 312.461 113.681 312.494C113.766 312.527 113.855 312.544 113.941 312.541C114.027 312.539 114.107 312.518 114.173 312.481C114.24 312.443 114.292 312.391 114.324 312.327L119.213 302.307C119.237 302.261 119.249 302.209 119.248 302.155C119.247 302.101 119.233 302.046 119.207 301.993C118.851 300.944 118.001 298.766 118.001 298.766Z" fill="#BF2652"/>
<path fill-rule="evenodd" clip-rule="evenodd" d="M103.037 299.973L112.252 309.175C112.315 309.238 112.393 309.289 112.478 309.324C112.564 309.358 112.655 309.375 112.742 309.374C112.829 309.372 112.91 309.351 112.978 309.313C113.046 309.275 113.099 309.221 113.131 309.156L118.005 299.139C118.04 299.067 118.049 298.984 118.032 298.9C118.014 298.815 117.97 298.732 117.905 298.66C117.84 298.587 117.755 298.527 117.661 298.487C117.567 298.447 117.466 298.428 117.37 298.432L103.29 299.28C103.201 299.284 103.119 299.309 103.052 299.353C102.986 299.396 102.937 299.456 102.912 299.526C102.886 299.596 102.884 299.674 102.906 299.753C102.928 299.831 102.974 299.907 103.037 299.973Z" fill="#FC6C85"/>
</g>
<g clip-path="url(#clip9_2_2)">
<path d="M203.986 96.7246H80.4346V196.014H203.986V96.7246Z" fill="#C8F5FC"/>
<path d="M203.986 101.366H80.4346V174.792H203.986V101.366Z" fill="#A2E9FC"/>
<path fill-rule="evenodd" clip-rule="evenodd" d="M197.864 189.849H74.2845C74.2466 189.851 74.2088 189.845 74.1733 189.832C74.1379 189.818 74.1057 189.798 74.0788 189.772C74.0519 189.745 74.0312 189.714 74.0176 189.679C74.004 189.644 73.9978 189.606 73.9999 189.569V90.3078C73.9978 90.2705 74.004 90.2334 74.0176 90.1985C74.0312 90.1637 74.0519 90.1321 74.0788 90.1057C74.1057 90.0793 74.1379 90.0586 74.1733 90.0453C74.2088 90.032 74.2466 90.0262 74.2845 90.0282H197.836C197.874 90.0262 197.912 90.032 197.947 90.0453C197.983 90.0586 198.015 90.0793 198.042 90.1057C198.069 90.1321 198.09 90.1637 198.103 90.1985C198.117 90.2334 198.123 90.2705 198.12 90.3078V189.569C198.124 189.605 198.121 189.64 198.11 189.674C198.099 189.708 198.081 189.739 198.057 189.765C198.032 189.792 198.003 189.813 197.97 189.828C197.937 189.842 197.901 189.849 197.864 189.849ZM74.5695 189.29H197.551V90.5597H74.5695V189.29Z" fill="#0A9CE5"/>
<path d="M152.424 148.494H149.477C149.065 148.494 149.05 148.494 148.937 148.075C148.703 147.176 148.276 146.337 147.684 145.614C147.062 144.821 146.264 144.177 145.352 143.732C144.439 143.286 143.436 143.05 142.417 143.042C141.123 143.015 139.848 143.347 138.737 143.997C137.626 144.648 136.723 145.593 136.132 146.723C135.541 147.853 135.285 149.124 135.394 150.39C135.502 151.656 135.97 152.866 136.746 153.883C137.521 154.901 138.571 155.684 139.778 156.143C140.984 156.602 142.297 156.719 143.568 156.481C144.839 156.243 146.016 155.659 146.965 154.795C147.914 153.932 148.597 152.824 148.937 151.598C148.93 151.542 148.93 151.486 148.937 151.43C148.937 151.164 149.05 151.136 149.321 151.136H155.727C155.772 151.136 155.816 151.154 155.848 151.186C155.88 151.217 155.898 151.26 155.898 151.304C155.898 151.402 155.898 151.5 155.898 151.612C155.466 154.695 153.965 157.537 151.647 159.658C149.329 161.78 146.337 163.052 143.176 163.259C140.014 163.466 136.877 162.596 134.293 160.795C131.709 158.994 129.837 156.373 128.992 153.373C128.223 150.607 128.358 147.673 129.377 144.985C130.501 142.007 131.626 139.015 132.736 136.037C135.583 128.46 138.43 120.911 141.278 113.347C141.534 112.662 141.562 112.648 142.146 113.054C144.286 114.491 145.819 116.646 146.458 119.114C147.098 121.581 146.799 124.194 145.62 126.461C144.111 129.434 142.592 132.407 141.064 135.38C140.965 135.59 140.851 135.786 140.751 135.982C140.651 136.178 140.751 136.345 140.979 136.331C141.491 136.331 142.004 136.331 142.516 136.331C145.562 136.356 148.508 137.396 150.872 139.281C153.426 141.264 155.169 144.082 155.784 147.222C155.784 147.529 155.898 147.851 155.94 148.187C155.983 148.522 155.94 148.508 155.656 148.522H154.617L152.424 148.494Z" fill="#81DCFC"/>
<path d="M132.437 120.086C132.067 122.015 131.74 123.972 131.37 125.901C131.071 127.607 130.758 129.299 130.444 131.004C130.345 131.48 130.259 131.969 130.174 132.402C129.704 135.017 129.206 137.631 128.75 140.245L128.651 140.763L128.537 141.406C128.537 141.406 128.537 128.25 128.537 124.378C128.537 122.504 128.537 120.631 128.537 118.786C128.537 118.226 128.537 118.184 129.149 118.31C130.205 118.568 131.218 118.978 132.153 119.527C132.263 119.568 132.353 119.648 132.406 119.751C132.459 119.855 132.47 119.974 132.437 120.086Z" fill="#81DCFC"/>
<path d="M138.146 117.262L137.078 120.058C135.925 123.134 134.758 126.21 133.619 129.299L131.441 135.073V135.171L131.014 136.29L131.227 135.171L132.039 130.781C132.039 130.529 132.124 130.278 132.181 130.012C132.779 126.685 133.405 123.358 133.989 120.03C134.26 118.52 134.53 117.01 134.814 115.515C134.928 114.913 134.815 114.788 135.583 115.109C136.438 115.472 137.242 115.942 137.975 116.507C138.288 116.871 138.288 116.885 138.146 117.262Z" fill="#81DCFC"/>
</g>
<defs>
<clipPath id="clip0_2_2">
<rect width="407.122" height="285.833" fill="white" transform="translate(462.225 224.977) rotate(141.662)"/>
</clipPath>
<clipPath id="clip1_2_2">
<rect width="117" height="81" fill="white" transform="translate(74 285)"/>
</clipPath>
<clipPath id="clip2_2_2">
<rect width="12.1365" height="13.9959" fill="white" transform="matrix(0.0401242 0.999195 -0.999299 0.0374489 194.986 45)"/>
</clipPath>
<clipPath id="clip3_2_2">
<rect width="12" height="13" fill="white" transform="translate(293 37)"/>
</clipPath>
<clipPath id="clip4_2_2">
<rect width="233" height="117" fill="white" transform="translate(152 173)"/>
</clipPath>
<clipPath id="clip5_2_2">
<rect width="21.3078" height="24.5722" fill="white" transform="matrix(0.7768 0.629747 -0.631825 0.775111 350.029 243.495)"/>
</clipPath>
<clipPath id="clip6_2_2">
<rect width="8" height="9" fill="white" transform="translate(146 411)"/>
</clipPath>
<clipPath id="clip7_2_2">
<rect width="17.6949" height="19.1694" fill="white" transform="translate(60.0337 256.293) rotate(-131.018)"/>
</clipPath>
<clipPath id="clip8_2_2">
<rect width="16.0201" height="14.4253" fill="white" transform="translate(105.801 293.098) rotate(24.436)"/>
</clipPath>
<clipPath id="clip9_2_2">
<rect width="130" height="106" fill="white" transform="translate(74 90)"/>
</clipPath>
</defs>
</svg>
