<svg width="396" height="373" viewBox="0 0 396 373" fill="none" xmlns="http://www.w3.org/2000/svg">
<g clip-path="url(#clip0_2_2)">
<path fill-rule="evenodd" clip-rule="evenodd" d="M285.445 277.566H139.915C139.359 277.565 138.827 277.342 138.434 276.946C138.041 276.551 137.82 276.015 137.818 275.456V250.218C137.82 249.659 138.041 249.123 138.434 248.727C138.827 248.332 139.359 248.109 139.915 248.107H285.445C286.001 248.109 286.533 248.332 286.926 248.727C287.318 249.123 287.54 249.659 287.541 250.218V275.474C287.535 276.03 287.312 276.561 286.919 276.953C286.527 277.344 285.997 277.565 285.445 277.566Z" fill="#A2E9FC"/>
<path d="M275.509 267.649C280.013 267.649 283.664 263.973 283.664 259.439C283.664 254.905 280.013 251.23 275.509 251.23C271.005 251.23 267.354 254.905 267.354 259.439C267.354 263.973 271.005 267.649 275.509 267.649Z" fill="#C8F5FC"/>
<path fill-rule="evenodd" clip-rule="evenodd" d="M261.653 269.296L270.644 261.525L273.067 263.965L265.398 273.114C262.617 276.657 258.006 272.498 261.653 269.296Z" fill="#C8F5FC"/>
<path d="M275.509 266.234C279.237 266.234 282.259 263.192 282.259 259.439C282.259 255.687 279.237 252.645 275.509 252.645C271.782 252.645 268.76 255.687 268.76 259.439C268.76 263.192 271.782 266.234 275.509 266.234Z" fill="#A2E9FC"/>
<path fill-rule="evenodd" clip-rule="evenodd" d="M254.444 274.632H142.932C142.376 274.631 141.844 274.408 141.451 274.013C141.058 273.617 140.837 273.081 140.835 272.522V252.895C140.837 252.336 141.058 251.8 141.451 251.405C141.844 251.009 142.376 250.786 142.932 250.785H254.444C254.999 250.786 255.532 251.009 255.924 251.405C256.317 251.8 256.539 252.336 256.54 252.895V272.522C256.539 273.081 256.317 273.617 255.924 274.013C255.532 274.408 254.999 274.631 254.444 274.632Z" fill="#C8F5FC"/>
<path d="M209.944 257.732H148.36V267.588H209.944V257.732Z" fill="#A2E9FC"/>
<path d="M248.24 257.72H213.779V267.576H248.24V257.72Z" fill="#A2E9FC"/>
<path d="M317.216 253.456C319.3 253.456 320.99 251.755 320.99 249.657C320.99 247.558 319.3 245.857 317.216 245.857C315.131 245.857 313.441 247.558 313.441 249.657C313.441 251.755 315.131 253.456 317.216 253.456Z" fill="#A2E9FC"/>
<path d="M266.682 235.769C269.68 235.769 272.11 233.322 272.11 230.304C272.11 227.286 269.68 224.839 266.682 224.839C263.684 224.839 261.253 227.286 261.253 230.304C261.253 233.322 263.684 235.769 266.682 235.769Z" fill="#FFF9B0"/>
<path d="M187.88 181.81C189.154 181.81 190.188 180.769 190.188 179.486C190.188 178.202 189.154 177.162 187.88 177.162C186.605 177.162 185.571 178.202 185.571 179.486C185.571 180.769 186.605 181.81 187.88 181.81Z" fill="#A2E9FC"/>
<path d="M144.779 238.154C146.934 238.154 148.681 236.395 148.681 234.226C148.681 232.056 146.934 230.298 144.779 230.298C142.624 230.298 140.877 232.056 140.877 234.226C140.877 236.395 142.624 238.154 144.779 238.154Z" fill="#A2E9FC"/>
<path d="M60.7483 172.533C62.2139 172.533 63.402 171.337 63.402 169.861C63.402 168.386 62.2139 167.19 60.7483 167.19C59.2828 167.19 58.0947 168.386 58.0947 169.861C58.0947 171.337 59.2828 172.533 60.7483 172.533Z" fill="#A2E9FC"/>
<path d="M176.853 206.267C183.164 206.267 188.279 201.117 188.279 194.764C188.279 188.411 183.164 183.261 176.853 183.261C170.542 183.261 165.427 188.411 165.427 194.764C165.427 201.117 170.542 206.267 176.853 206.267Z" fill="#A2E9FC"/>
<path d="M107.574 89.9566L105.369 85.4614L79.3599 99.3859L81.4561 104.155C81.5844 104.36 81.776 104.516 82.0013 104.601L105.708 114.689C105.885 114.775 106.081 114.814 106.277 114.802C106.473 114.791 106.663 114.73 106.829 114.625C106.995 114.519 107.132 114.373 107.226 114.199C107.32 114.026 107.369 113.831 107.368 113.633L107.659 90.4018C107.684 90.248 107.654 90.09 107.574 89.9566Z" fill="#F9C973"/>
<path fill-rule="evenodd" clip-rule="evenodd" d="M104.133 85.126L79.802 98.1843C79.641 98.2704 79.5076 98.4006 79.4172 98.56C79.3269 98.7194 79.2833 98.9013 79.2915 99.0846C79.2998 99.2679 79.3595 99.445 79.4638 99.5955C79.5681 99.746 79.7126 99.8636 79.8806 99.9347L103.697 109.895C103.841 109.955 103.998 109.979 104.154 109.965C104.309 109.951 104.459 109.899 104.591 109.814C104.722 109.729 104.831 109.613 104.909 109.476C104.986 109.339 105.03 109.186 105.035 109.029L105.563 86.0287C105.57 85.856 105.533 85.6845 105.453 85.5314C105.373 85.3783 105.255 85.2492 105.109 85.1574C104.964 85.0656 104.797 85.0143 104.625 85.0088C104.454 85.0033 104.284 85.0437 104.133 85.126Z" fill="#FFF9B0"/>
<path fill-rule="evenodd" clip-rule="evenodd" d="M358.65 119.989C358.65 119.989 347.096 117.921 346.466 117.549C346.345 118.604 346.236 119.495 346.091 120.55C346.073 120.633 346.073 120.718 346.091 120.8L349.507 130.675C349.531 130.742 349.57 130.802 349.622 130.85C349.675 130.898 349.738 130.932 349.807 130.949C349.875 130.966 349.947 130.965 350.015 130.947C350.084 130.929 350.147 130.894 350.198 130.846L358.123 123.27C358.162 123.236 358.193 123.194 358.215 123.147C358.237 123.099 358.249 123.048 358.25 122.996C358.413 122.032 358.65 119.989 358.65 119.989Z" fill="#BF2652"/>
<path fill-rule="evenodd" clip-rule="evenodd" d="M346.466 117.836L349.859 127.735C349.883 127.802 349.923 127.862 349.976 127.91C350.029 127.958 350.093 127.992 350.162 128.008C350.231 128.025 350.303 128.025 350.371 128.007C350.44 127.989 350.503 127.954 350.555 127.906L358.474 120.33C358.531 120.276 358.572 120.207 358.593 120.131C358.614 120.055 358.614 119.975 358.592 119.899C358.571 119.823 358.53 119.754 358.473 119.7C358.415 119.646 358.345 119.609 358.268 119.592L346.908 117.293C346.84 117.287 346.771 117.299 346.708 117.326C346.645 117.352 346.589 117.394 346.546 117.448C346.502 117.501 346.472 117.564 346.459 117.632C346.445 117.699 346.447 117.769 346.466 117.836Z" fill="#FC6C85"/>
<path d="M129.543 147.167L128.767 145.562L119.54 150.497L120.279 152.186C120.323 152.261 120.389 152.32 120.467 152.357L128.997 155.962C129.05 155.982 129.107 155.989 129.163 155.981C129.219 155.974 129.272 155.953 129.318 155.919C129.363 155.886 129.4 155.842 129.425 155.791C129.449 155.739 129.46 155.683 129.458 155.626L129.561 147.331C129.569 147.304 129.571 147.275 129.568 147.247C129.565 147.219 129.556 147.192 129.543 147.167Z" fill="#F9C973"/>
<path fill-rule="evenodd" clip-rule="evenodd" d="M128.325 145.453L119.691 150.076C119.635 150.104 119.588 150.148 119.555 150.202C119.522 150.256 119.505 150.318 119.505 150.381C119.505 150.444 119.522 150.506 119.555 150.56C119.588 150.614 119.635 150.657 119.691 150.686L128.137 154.211C128.189 154.233 128.247 154.241 128.303 154.236C128.36 154.231 128.414 154.212 128.462 154.18C128.509 154.149 128.549 154.107 128.577 154.057C128.605 154.007 128.62 153.951 128.622 153.894L128.809 145.727C128.804 145.673 128.786 145.62 128.756 145.574C128.726 145.528 128.686 145.49 128.638 145.463C128.59 145.436 128.537 145.421 128.483 145.419C128.428 145.417 128.374 145.429 128.325 145.453Z" fill="#FFF9B0"/>
<path fill-rule="evenodd" clip-rule="evenodd" d="M101.812 240.288L115.832 224.589L113.717 221.424C113.655 221.253 113.534 221.11 113.376 221.021C113.219 220.931 113.035 220.901 112.857 220.936L91.9189 225.242C91.7993 225.268 91.6876 225.323 91.5934 225.402C91.4992 225.48 91.4253 225.581 91.3777 225.694C91.3302 225.808 91.3105 225.932 91.3203 226.055C91.3302 226.177 91.3692 226.296 91.4342 226.401L100.722 240.349C100.777 240.45 100.859 240.533 100.959 240.589C101.059 240.644 101.172 240.67 101.286 240.664C101.4 240.658 101.51 240.619 101.603 240.553C101.696 240.486 101.769 240.395 101.812 240.288Z" fill="#BF2652"/>
<path fill-rule="evenodd" clip-rule="evenodd" d="M103.927 243.265L115.79 225.345C115.87 225.224 115.913 225.081 115.913 224.935C115.914 224.79 115.871 224.647 115.79 224.525C115.71 224.404 115.596 224.309 115.462 224.253C115.328 224.197 115.18 224.182 115.038 224.211L94.0761 228.48C93.9573 228.504 93.8462 228.558 93.7529 228.635C93.6596 228.713 93.5868 228.813 93.5412 228.926C93.4956 229.039 93.4786 229.161 93.4915 229.283C93.5045 229.404 93.5472 229.52 93.6156 229.621L102.703 243.277C102.771 243.378 102.863 243.461 102.97 243.518C103.078 243.574 103.197 243.603 103.318 243.602C103.44 243.601 103.559 243.57 103.665 243.511C103.771 243.452 103.861 243.367 103.927 243.265Z" fill="#FC6C85"/>
<path fill-rule="evenodd" clip-rule="evenodd" d="M310.43 198.747L322.819 204.102L323.353 201.852C323.396 201.734 323.407 201.606 323.383 201.482C323.36 201.359 323.303 201.244 323.219 201.15L313.023 188.178C312.768 187.854 312.417 187.854 312.326 188.178L309.969 198.052C309.944 198.205 309.977 198.362 310.063 198.491C310.148 198.621 310.28 198.712 310.43 198.747Z" fill="#BF2652"/>
<path fill-rule="evenodd" clip-rule="evenodd" d="M309.982 200.924L322.474 204.255C322.85 204.346 322.983 203.852 322.668 203.449L312.478 190.452C312.223 190.129 311.872 190.123 311.805 190.452L309.497 200.119C309.474 200.289 309.51 200.462 309.598 200.608C309.686 200.754 309.822 200.866 309.982 200.924Z" fill="#FC6C85"/>
<path d="M241.26 143.592L237.85 144.812L245.683 164.897L249.27 163.756C249.428 163.677 249.559 163.552 249.645 163.396L258.915 146.746C258.979 146.643 259.016 146.525 259.021 146.403C259.026 146.282 259 146.161 258.945 146.053C258.89 145.945 258.809 145.853 258.708 145.786C258.607 145.719 258.49 145.68 258.37 145.672L241.576 143.519C241.468 143.533 241.363 143.557 241.26 143.592Z" fill="#F9C973"/>
<path fill-rule="evenodd" clip-rule="evenodd" d="M237.51 145.721L244.871 164.5C244.918 164.625 244.999 164.734 245.106 164.813C245.212 164.893 245.339 164.94 245.471 164.949C245.603 164.958 245.735 164.928 245.851 164.864C245.967 164.8 246.062 164.703 246.125 164.586L255.213 148.081C255.269 147.982 255.299 147.869 255.301 147.755C255.303 147.641 255.278 147.528 255.226 147.426C255.175 147.324 255.099 147.236 255.006 147.171C254.913 147.105 254.805 147.064 254.692 147.05L238.213 144.769C238.095 144.757 237.975 144.776 237.866 144.824C237.758 144.872 237.663 144.948 237.592 145.044C237.521 145.14 237.476 145.252 237.462 145.371C237.448 145.49 237.464 145.611 237.51 145.721Z" fill="#FFF9B0"/>
<path d="M164.693 295.047C164.693 295.047 170.606 302.414 170.837 302.939C171.442 302.372 171.988 301.884 172.618 301.317C172.674 301.282 172.718 301.231 172.745 301.17L175.823 293.382C175.845 293.329 175.853 293.271 175.846 293.214C175.839 293.157 175.819 293.102 175.785 293.056C175.752 293.009 175.707 292.972 175.655 292.948C175.603 292.924 175.546 292.914 175.489 292.918L166.729 293.32C166.688 293.32 166.648 293.329 166.611 293.347C166.574 293.365 166.542 293.392 166.517 293.424C165.911 293.93 164.693 295.047 164.693 295.047Z" fill="#F9C973"/>
<path fill-rule="evenodd" clip-rule="evenodd" d="M170.94 302.78L174.023 294.992C174.044 294.939 174.05 294.881 174.043 294.825C174.036 294.769 174.015 294.715 173.982 294.669C173.948 294.623 173.904 294.586 173.854 294.562C173.803 294.537 173.747 294.525 173.69 294.528L164.924 294.931C164.862 294.935 164.803 294.955 164.752 294.99C164.701 295.025 164.661 295.074 164.636 295.13C164.61 295.187 164.6 295.249 164.607 295.31C164.614 295.372 164.638 295.431 164.675 295.48L170.352 302.884C170.392 302.929 170.442 302.963 170.499 302.982C170.555 303.002 170.616 303.007 170.674 302.997C170.733 302.986 170.788 302.961 170.835 302.923C170.881 302.885 170.917 302.836 170.94 302.78Z" fill="#FFF9B0"/>
<path d="M320.172 131.724C322.256 131.724 323.946 130.022 323.946 127.924C323.946 125.825 322.256 124.124 320.172 124.124C318.087 124.124 316.397 125.825 316.397 127.924C316.397 130.022 318.087 131.724 320.172 131.724Z" fill="#A2E9FC"/>
<path d="M177.804 147.258C202.253 147.258 222.073 131.83 222.073 112.798C222.073 93.7658 202.253 78.3374 177.804 78.3374C153.355 78.3374 133.535 93.7658 133.535 112.798C133.535 131.83 153.355 147.258 177.804 147.258Z" fill="#C8F5FC"/>
<path d="M155.897 118.214C158.868 118.214 161.276 115.789 161.276 112.798C161.276 109.807 158.868 107.382 155.897 107.382C152.925 107.382 150.517 109.807 150.517 112.798C150.517 115.789 152.925 118.214 155.897 118.214Z" fill="white"/>
<path d="M177.804 118.214C180.775 118.214 183.184 115.789 183.184 112.798C183.184 109.807 180.775 107.382 177.804 107.382C174.833 107.382 172.424 109.807 172.424 112.798C172.424 115.789 174.833 118.214 177.804 118.214Z" fill="white"/>
<path d="M199.718 118.214C202.689 118.214 205.098 115.789 205.098 112.798C205.098 109.807 202.689 107.382 199.718 107.382C196.747 107.382 194.338 109.807 194.338 112.798C194.338 115.789 196.747 118.214 199.718 118.214Z" fill="white"/>
<path fill-rule="evenodd" clip-rule="evenodd" d="M76.991 246.814C53.0721 231.475 34.3696 213.183 22.8948 193.916C11.0747 174.094 7.42745 153.918 12.3469 135.626L12.7831 135.742C7.93635 153.918 11.5351 173.954 23.2886 193.684C34.7149 212.884 53.3689 231.127 77.209 246.424L76.991 246.814Z" stroke="#0A9CE5" stroke-width="2" stroke-miterlimit="10"/>
<path fill-rule="evenodd" clip-rule="evenodd" d="M326.055 277.81L325.916 277.371C357.819 267.094 379.109 248.18 385.894 224.125C391.347 204.852 387.167 183.517 373.893 162.463L374.28 162.207C387.609 183.377 391.783 204.852 386.337 224.241C382.871 236.555 375.74 247.479 365.132 256.731C354.869 265.654 341.728 272.742 326.055 277.81Z" stroke="#0A9CE5" stroke-width="2" stroke-miterlimit="10"/>
<path fill-rule="evenodd" clip-rule="evenodd" d="M287.414 82.9542C272.153 75.4155 256.243 69.2911 239.879 64.6567C222.309 59.6371 206.866 56.618 191.302 55.1542L191.351 54.6846C206.933 56.1545 222.4 59.1735 240.018 64.1931C256.415 68.8347 272.356 74.9736 287.644 82.5334L287.414 82.9542Z" stroke="#0A9CE5" stroke-width="2" stroke-miterlimit="10"/>
<path fill-rule="evenodd" clip-rule="evenodd" d="M88.0718 264.41C73.3803 256.373 59.5942 246.762 46.953 235.744C35.0602 225.284 25.203 214.104 17.6542 202.534C1.95666 178.479 -3.02935 154.003 3.22905 131.784C6.40978 120.678 12.1871 110.501 20.0776 102.105L20.4229 102.429C12.5998 110.785 6.86407 120.895 3.6895 131.924C-2.52043 154.052 2.44145 178.388 18.0723 202.327C25.5969 213.854 35.4298 225.01 47.2984 235.445C59.9206 246.431 73.6821 256.015 88.3445 264.032L88.0718 264.41Z" stroke="#0A9CE5" stroke-width="2" stroke-miterlimit="10"/>
<path fill-rule="evenodd" clip-rule="evenodd" d="M309.57 291.686L309.479 291.222C354.821 282.135 385.919 258.775 394.806 227.12L395.243 227.236C386.312 259.08 355.075 282.555 309.57 291.686Z" stroke="#0A9CE5" stroke-width="2" stroke-miterlimit="10"/>
<path fill-rule="evenodd" clip-rule="evenodd" d="M304.959 82.5335C284.826 70.9955 263.364 61.983 241.054 55.6972C229.903 52.5094 218.574 49.9861 207.127 48.1403L207.2 47.6768C218.645 49.5309 229.973 52.0541 241.127 55.2336C263.47 61.5086 284.962 70.5215 305.123 82.0699L304.959 82.5335Z" stroke="#0A9CE5" stroke-width="2" stroke-miterlimit="10"/>
</g>
<path d="M39 339C41.7614 339 44 336.761 44 334C44 331.239 41.7614 329 39 329C36.2386 329 34 331.239 34 334C34 336.761 36.2386 339 39 339Z" fill="#A2E9FC"/>
<path d="M44 10C46.7614 10 49 7.76143 49 5C49 2.23857 46.7614 0 44 0C41.2386 0 39 2.23857 39 5C39 7.76143 41.2386 10 44 10Z" fill="#A2E9FC"/>
<path d="M330.5 361C335.747 361 340 356.747 340 351.5C340 346.253 335.747 342 330.5 342C325.253 342 321 346.253 321 351.5C321 356.747 325.253 361 330.5 361Z" fill="#A2E9FC"/>
<path d="M314.5 367C316.433 367 318 365.433 318 363.5C318 361.567 316.433 360 314.5 360C312.567 360 311 361.567 311 363.5C311 365.433 312.567 367 314.5 367Z" fill="#A2E9FC"/>
<path fill-rule="evenodd" clip-rule="evenodd" d="M192.668 353.817C192.668 353.817 177.503 357.145 176.56 357.005C176.837 358.445 177.125 359.56 177.406 360.962C177.419 361.074 177.455 361.18 177.513 361.274L186.067 371.924C186.126 371.994 186.201 372.047 186.286 372.079C186.371 372.11 186.464 372.119 186.555 372.105C186.646 372.09 186.733 372.053 186.809 371.996C186.885 371.939 186.947 371.864 186.989 371.778L193.485 358.221C193.516 358.158 193.535 358.09 193.541 358.02C193.547 357.951 193.54 357.881 193.52 357.816C193.281 356.512 192.668 353.817 192.668 353.817Z" fill="#BF2652"/>
<path fill-rule="evenodd" clip-rule="evenodd" d="M176.668 357.343L185.211 367.989C185.27 368.062 185.345 368.117 185.431 368.15C185.517 368.184 185.611 368.194 185.703 368.18C185.796 368.166 185.885 368.128 185.962 368.07C186.039 368.012 186.101 367.936 186.144 367.848L192.624 354.297C192.671 354.199 192.691 354.091 192.684 353.984C192.676 353.878 192.641 353.777 192.581 353.692C192.522 353.607 192.44 353.541 192.346 353.502C192.251 353.462 192.147 353.451 192.045 353.469L177.027 356.416C176.931 356.434 176.841 356.477 176.765 356.542C176.689 356.606 176.63 356.69 176.593 356.783C176.557 356.877 176.545 356.978 176.558 357.077C176.571 357.175 176.609 357.267 176.668 357.343Z" fill="#FC6C85"/>
<defs>
<clipPath id="clip0_2_2">
<rect width="396" height="256" fill="white" transform="translate(0 47)"/>
</clipPath>
</defs>
</svg>
