<svg width="1280" height="247" viewBox="0 0 1280 247" fill="none" xmlns="http://www.w3.org/2000/svg">
<path d="M1170 92C1174.97 92 1179 87.9706 1179 83C1179 78.0294 1174.97 74 1170 74C1165.03 74 1161 78.0294 1161 83C1161 87.9706 1165.03 92 1170 92Z" fill="#A2E9FC"/>
<path d="M187.786 53.9248C187.786 53.9248 200.416 19.2074 201.816 17.3409L192.71 14.5815C192.504 14.4267 192.271 14.3125 192.023 14.2451L159.687 19.5554C159.461 19.5822 159.244 19.6652 159.058 19.797C158.872 19.9288 158.722 20.1052 158.622 20.3099C158.522 20.5147 158.474 20.7414 158.484 20.9692C158.494 21.197 158.561 21.4186 158.679 21.614L177.745 50.3427C177.83 50.4699 177.948 50.5726 178.086 50.64C178.223 50.7075 178.376 50.7374 178.529 50.727V50.727L187.786 53.9248Z" fill="#F9C973"/>
<path fill-rule="evenodd" clip-rule="evenodd" d="M201.034 17.2003L168.698 22.5106C168.472 22.5374 168.256 22.6205 168.07 22.7523C167.884 22.8841 167.733 23.0605 167.633 23.2652C167.533 23.47 167.486 23.6965 167.495 23.9243C167.505 24.1521 167.572 24.3739 167.69 24.5693L186.756 53.2978C186.903 53.4978 187.1 53.6557 187.328 53.7556C187.555 53.8556 187.805 53.8941 188.052 53.8674C188.299 53.8408 188.534 53.7498 188.735 53.6036C188.936 53.4574 189.094 53.261 189.195 53.0342L202.465 18.9954C202.513 18.7805 202.513 18.5578 202.463 18.3432C202.413 18.1287 202.317 17.9279 202.179 17.7557C202.042 17.5835 201.868 17.4442 201.67 17.3481C201.472 17.252 201.254 17.2015 201.034 17.2003V17.2003Z" fill="#FFF9B0"/>
<path d="M-46.5 159.5C156.5 117.333 538.553 -23.5995 727 200.499C893.5 398.5 1068.5 -153.5 1335 104.584" stroke="#36ACE2" stroke-width="4"/>
<path fill-rule="evenodd" clip-rule="evenodd" d="M641.346 118.166L617.81 124.626L617.896 129.028C617.851 129.231 617.88 129.444 617.978 129.628C618.076 129.812 618.236 129.955 618.43 130.031L641.624 138.99C641.76 139.047 641.909 139.068 642.056 139.051C642.202 139.034 642.342 138.98 642.462 138.893C642.582 138.807 642.677 138.691 642.739 138.557C642.801 138.423 642.828 138.275 642.817 138.128L642.437 118.803C642.453 118.67 642.43 118.535 642.37 118.414C642.31 118.294 642.217 118.194 642.101 118.126C641.985 118.058 641.851 118.026 641.717 118.033C641.583 118.04 641.454 118.086 641.346 118.166V118.166Z" fill="#BF2652"/>
<path fill-rule="evenodd" clip-rule="evenodd" d="M641.156 113.951L618.374 123.912C618.222 123.982 618.094 124.095 618.005 124.236C617.915 124.378 617.87 124.543 617.872 124.71C617.875 124.878 617.927 125.041 618.021 125.179C618.115 125.318 618.247 125.426 618.402 125.491L641.579 134.524C641.715 134.581 641.863 134.602 642.01 134.585C642.157 134.568 642.297 134.514 642.416 134.427C642.536 134.341 642.631 134.225 642.694 134.091C642.756 133.957 642.782 133.809 642.771 133.662L642.436 114.721C642.435 114.571 642.395 114.424 642.321 114.294C642.247 114.164 642.14 114.055 642.012 113.978C641.883 113.901 641.737 113.858 641.587 113.853C641.438 113.848 641.289 113.882 641.156 113.951Z" fill="#F95070"/>
</svg>
