<svg width="376" height="352" viewBox="0 0 376 352" fill="none" xmlns="http://www.w3.org/2000/svg">
<g clip-path="url(#clip0_2_2)">
<path d="M122.004 352C147.287 352 167.784 350.019 167.784 347.576C167.784 345.132 147.287 343.151 122.004 343.151C96.72 343.151 76.2236 345.132 76.2236 347.576C76.2236 350.019 96.72 352 122.004 352Z" fill="#979695"/>
<path d="M260.672 352C310.119 352 350.204 349.526 350.204 346.474C350.204 343.423 310.119 340.949 260.672 340.949C211.225 340.949 171.14 343.423 171.14 346.474C171.14 349.526 211.225 352 260.672 352Z" fill="#979695"/>
<path fill-rule="evenodd" clip-rule="evenodd" d="M309.865 127.803C312.721 125.086 316.026 122.213 319.054 118.603C323.188 113.676 326.879 108.392 330.085 102.814C337.621 109.444 345.706 115.422 354.252 120.683C359.543 123.95 364.841 126.509 369.653 128.882C365.756 134.795 360.22 139.44 353.724 142.248C341.587 147.33 330.663 143.721 327.978 142.777C322.052 137.874 315.841 132.706 309.865 127.803Z" fill="#A2E9FC"/>
<path fill-rule="evenodd" clip-rule="evenodd" d="M369.682 128.911C365.784 134.821 360.248 139.464 353.753 142.27C341.615 147.359 330.691 143.749 328 142.799C325.294 140.561 322.524 138.267 319.732 135.973C336.589 132.098 347.962 140.161 369.682 128.911Z" fill="#81DCFC"/>
<path fill-rule="evenodd" clip-rule="evenodd" d="M368.389 129.082C360.913 128.689 353.331 128.367 345.856 128.16L337.324 127.924C337.274 127.924 337.217 127.867 337.188 127.817C336.509 123.799 335.613 119.822 334.504 115.901C333.279 111.576 331.803 107.325 330.084 103.171C330.07 103.136 330.07 103.097 330.085 103.062C330.1 103.027 330.128 103 330.163 102.985C330.241 102.985 330.291 102.985 330.348 103.064C332.081 107.225 333.566 111.486 334.796 115.823C335.906 119.714 336.793 123.666 337.452 127.66C340.244 127.71 343.064 127.788 345.877 127.895C353.36 128.131 360.942 128.446 368.417 128.817C368.435 128.816 368.452 128.819 368.469 128.825C368.485 128.831 368.5 128.84 368.513 128.852C368.526 128.864 368.536 128.879 368.543 128.895C368.55 128.911 368.553 128.929 368.553 128.946C368.545 128.984 368.524 129.018 368.495 129.043C368.465 129.067 368.427 129.081 368.389 129.082Z" fill="#0A9CE5"/>
<path fill-rule="evenodd" clip-rule="evenodd" d="M310.964 127.653C310.907 127.653 310.829 127.603 310.829 127.553C310.83 127.519 310.841 127.486 310.859 127.459C310.878 127.431 310.905 127.409 310.936 127.395C313.963 127.024 317.019 126.681 320.046 126.23C325.522 125.466 331.055 124.601 336.467 123.65C336.486 123.644 336.505 123.642 336.524 123.644C336.544 123.646 336.562 123.652 336.579 123.662C336.596 123.672 336.61 123.685 336.621 123.701C336.632 123.717 336.64 123.735 336.644 123.754C336.647 123.773 336.647 123.792 336.642 123.811C336.637 123.83 336.629 123.847 336.617 123.863C336.605 123.878 336.59 123.89 336.573 123.899C336.556 123.908 336.537 123.913 336.517 123.914C331.07 124.865 325.536 125.73 320.096 126.495C317.069 126.888 314.02 127.288 310.964 127.653Z" fill="#0A9CE5"/>
<path fill-rule="evenodd" clip-rule="evenodd" d="M341.301 139.482C341.283 139.483 341.265 139.48 341.248 139.474C341.231 139.467 341.216 139.457 341.203 139.445C341.19 139.432 341.18 139.416 341.174 139.399C341.167 139.382 341.164 139.364 341.165 139.346C341.115 137.424 341.115 133.07 341.165 131.148C341.165 130.068 341.222 128.961 341.272 127.881C341.271 127.864 341.274 127.846 341.28 127.83C341.286 127.813 341.295 127.798 341.307 127.786C341.32 127.773 341.334 127.763 341.35 127.756C341.366 127.749 341.383 127.745 341.401 127.745C341.419 127.744 341.437 127.747 341.454 127.754C341.471 127.76 341.486 127.77 341.499 127.783C341.512 127.796 341.522 127.811 341.529 127.828C341.535 127.845 341.538 127.863 341.537 127.881C341.487 128.961 341.458 130.068 341.429 131.148C341.38 133.07 341.38 137.424 341.429 139.318C341.429 139.396 341.38 139.482 341.301 139.482Z" fill="#0A9CE5"/>
<path fill-rule="evenodd" clip-rule="evenodd" d="M326.95 142.27C328.057 142.534 331.056 143.514 333.455 142.692C336.639 141.591 339.166 138.975 340.273 137.874C341.388 138.78 342.608 139.548 343.907 140.161C350.618 143.063 355.045 141.798 356.809 140.983C347.12 146.909 332.319 145.908 326.95 142.27Z" fill="#0A9CE5"/>
<path fill-rule="evenodd" clip-rule="evenodd" d="M330.741 143.378C329.978 143.381 329.221 143.255 328.5 143.006C327.72 142.732 326.995 142.323 326.358 141.798C324.537 140.297 321.824 138.103 319.982 136.602C316.562 133.807 313.142 130.991 309.715 128.196C309.666 128.146 309.639 128.079 309.639 128.01C309.639 127.94 309.666 127.874 309.715 127.824C309.739 127.799 309.768 127.779 309.8 127.765C309.831 127.752 309.866 127.745 309.9 127.745C309.935 127.745 309.97 127.752 310.001 127.765C310.033 127.779 310.062 127.799 310.086 127.824C313.506 130.612 316.933 133.435 320.353 136.23C322.174 137.731 324.887 139.947 326.729 141.419C327.314 141.911 327.981 142.296 328.699 142.556C329.693 142.882 330.747 142.982 331.784 142.849C333.186 142.661 334.527 142.155 335.703 141.369C337.362 140.401 338.84 139.154 340.073 137.681C340.096 137.655 340.125 137.634 340.157 137.621C340.189 137.607 340.224 137.601 340.259 137.602C340.324 137.602 340.388 137.619 340.444 137.652C341.018 138.162 341.634 138.621 342.286 139.025C343.911 140.043 345.702 140.769 347.577 141.169C349.315 141.656 351.128 141.816 352.925 141.641C354.617 141.382 356.25 140.82 357.744 139.982C362.877 137.188 367.59 131.405 369.382 129.01C369.424 128.955 369.487 128.918 369.557 128.909C369.626 128.899 369.697 128.918 369.753 128.961C369.809 129.003 369.845 129.066 369.855 129.136C369.864 129.206 369.845 129.276 369.803 129.332C367.982 131.727 363.22 137.609 357.98 140.454C356.435 141.334 354.74 141.916 352.982 142.17C351.126 142.361 349.251 142.198 347.456 141.691C345.526 141.287 343.682 140.547 342.008 139.504C341.404 139.128 340.831 138.705 340.294 138.238C339.059 139.669 337.589 140.878 335.946 141.812C334.702 142.633 333.289 143.163 331.812 143.363C331.555 143.378 331.191 143.378 330.741 143.378Z" fill="#0A9CE5"/>
<path d="M58.3032 350.613C66.1737 350.613 72.5541 349.352 72.5541 347.797C72.5541 346.241 66.1737 344.98 58.3032 344.98C50.4326 344.98 44.0522 346.241 44.0522 347.797C44.0522 349.352 50.4326 350.613 58.3032 350.613Z" fill="#979695"/>
<path fill-rule="evenodd" clip-rule="evenodd" d="M71.0117 321.55L40.6606 321.507L44.2305 346.525H44.2734C44.2455 346.593 44.2309 346.665 44.2305 346.739C44.2305 348.283 49.4855 349.527 55.9612 349.527C62.437 349.527 67.6989 348.283 67.6989 346.739C67.6985 346.665 67.684 346.593 67.656 346.525H67.7275L71.0117 321.55Z" fill="#A2E9FC"/>
<path fill-rule="evenodd" clip-rule="evenodd" d="M71.0118 321.55H58.3888C53.1982 336.99 63.9079 341.128 55.9399 349.527C62.43 349.527 67.6776 348.283 67.6776 346.739C67.6773 346.666 67.6627 346.593 67.6347 346.525H67.7062L71.0118 321.55Z" fill="#A2E9FC"/>
<path d="M55.8401 323.823C64.2154 323.823 71.0049 322.793 71.0049 321.522C71.0049 320.251 64.2154 319.22 55.8401 319.22C47.4648 319.22 40.6753 320.251 40.6753 321.522C40.6753 322.793 47.4648 323.823 55.8401 323.823Z" fill="#C8F5FC"/>
<path d="M55.84 323.051C63.1427 323.051 69.0628 322.322 69.0628 321.422C69.0628 320.522 63.1427 319.792 55.84 319.792C48.5372 319.792 42.6172 320.522 42.6172 321.422C42.6172 322.322 48.5372 323.051 55.84 323.051Z" fill="#353437"/>
<path d="M50.0067 279.393C49.1902 277.121 48.1623 274.931 46.9366 272.852C46.5939 272.938 46.2226 273.01 45.8799 273.11C44.4206 273.487 42.9893 273.964 41.5961 274.539C42.3529 273.868 43.4097 272.981 44.7305 271.966L45.9014 271.087C44.0165 267.913 41.8103 264.504 39.6684 260.644L39.1115 260.773C37.897 261.073 36.7043 261.455 35.5416 261.916C36.3418 260.994 37.256 260.178 38.2619 259.486L38.8474 259.1C37.5528 256.674 36.3873 254.18 35.356 251.631C34.0938 251.823 32.8547 252.144 31.6576 252.589C32.3242 251.958 33.0405 251.382 33.7995 250.866C34.1423 250.637 34.5135 250.437 34.8133 250.251C32.2956 243.53 30.8781 236.446 30.6153 229.272C27.4212 233.133 25.0432 237.602 23.6254 242.41C19.9913 254.904 23.4683 267.942 24.8106 271.159C31.9503 288.864 49.3356 295.718 53.7551 310.986C54.8832 296.948 52.5413 286.176 50.0067 279.393Z" fill="#54D391"/>
<path d="M57.7889 233.954C58.9456 233.197 60.1737 232.439 61.4874 231.667C61.5225 231.642 61.5609 231.623 61.6016 231.61C60.959 229.616 60.2593 227.7 59.4597 225.842L58.5601 226.127C57.1321 226.599 55.7828 227.1 54.5262 227.6C55.5818 226.448 56.7408 225.395 57.9889 224.455C58.2173 224.276 58.4317 224.119 58.6601 223.962C56.588 219.282 54.0347 214.831 51.0419 210.681C50.0785 210.844 49.125 211.061 48.186 211.332C47.0161 211.669 45.8749 212.099 44.7732 212.618C45.6402 211.236 46.645 209.945 47.772 208.765C48.1147 208.408 48.486 208.051 48.8001 207.751C47.2803 205.874 45.6545 204.087 43.9308 202.397C38.0405 196.679 31.7931 192.754 27.7877 190.246C27.3137 197.751 27.8178 205.286 29.2872 212.661C30.251 217.857 32.0646 222.604 40.4109 240.838C41.9388 243.382 43.3668 246.02 44.6948 248.7C46.6979 248.053 48.7811 247.687 50.8849 247.614C49.2523 248.486 47.6762 249.46 46.1656 250.53L45.7514 250.83C47.0509 253.523 48.2645 256.248 49.3926 259.007C49.6353 258.907 49.8924 258.821 50.1709 258.736C51.3285 258.357 52.5268 258.117 53.7408 258.021C52.5462 258.8 51.4059 259.66 50.3279 260.594L50.128 260.766C54.3016 271.244 57.4414 282.105 59.5026 293.195C67.4348 269.679 66.9635 249.201 61.9443 232.775C60.5398 233.096 59.1528 233.49 57.7889 233.954Z" fill="#54D391"/>
<path d="M54.1549 321.222C54.0692 321.222 53.9979 321.15 54.0121 321.065C54.3406 317.727 54.012 312.823 53.1409 307.212C51.0847 297.091 47.008 290.408 42.6884 283.324C39.6041 278.249 36.3983 272.996 33.728 266.17C30.2543 257.038 28.6165 247.31 28.9087 237.543C28.9119 237.506 28.9281 237.471 28.9542 237.445C28.9803 237.419 29.0147 237.403 29.0515 237.4C29.0893 237.4 29.1258 237.415 29.1526 237.442C29.1793 237.469 29.1944 237.505 29.1944 237.543C28.9032 247.271 30.5362 256.961 33.9994 266.055C36.6697 272.896 39.8612 278.135 42.9455 283.21C47.2294 290.308 51.3561 297.019 53.4266 307.198C54.3262 312.838 54.6261 317.769 54.2977 321.122C54.2872 321.151 54.2678 321.177 54.2422 321.195C54.2166 321.213 54.1861 321.222 54.1549 321.222Z" fill="#828282" fill-opacity="0.3"/>
<path d="M57.0609 321.408C57.0256 321.401 56.9942 321.381 56.973 321.351C56.9519 321.322 56.9424 321.286 56.9467 321.25C58.6409 309.694 59.4667 298.027 59.417 286.348C59.2457 270.916 59.0315 251.717 50.2996 229.88C46.6424 220.793 41.9184 212.175 36.2272 204.205C36.2045 204.175 36.1948 204.137 36.2002 204.099C36.2055 204.062 36.2255 204.028 36.2558 204.005C36.2861 203.982 36.3241 203.973 36.3616 203.978C36.3991 203.983 36.433 204.004 36.4557 204.034C48.3211 220.564 55.8216 239.828 58.2605 260.037C59.4029 269.107 59.5742 277.32 59.6884 286.355C59.7381 298.049 58.9123 309.73 57.2181 321.3C57.2156 321.318 57.2094 321.335 57.2 321.35C57.1906 321.366 57.178 321.379 57.1632 321.389C57.1484 321.399 57.1317 321.406 57.1141 321.409C57.0965 321.412 57.0783 321.412 57.0609 321.408Z" fill="#828282" fill-opacity="0.3"/>
<path d="M51.342 321.358C51.3065 321.358 51.272 321.345 51.2456 321.321C51.2192 321.297 51.2026 321.264 51.199 321.229C49.9924 305.876 37.8763 296.583 28.1519 289.128C24.0823 285.998 20.5481 283.303 18.3348 280.551C15.193 276.611 12.8612 272.088 11.4736 267.242C9.52447 260.716 8.82477 253.003 9.33169 244.283C9.33169 244.245 9.34675 244.209 9.37353 244.182C9.40031 244.155 9.43658 244.14 9.47445 244.14C9.51233 244.14 9.5486 244.155 9.57538 244.182C9.60216 244.209 9.61721 244.245 9.61721 244.283C9.07459 252.96 9.77441 260.659 11.7093 267.156C13.0852 271.968 15.4028 276.458 18.5276 280.365C20.7124 283.067 24.2395 285.762 28.2877 288.878C38.0692 296.376 50.2352 305.711 51.449 321.193C51.449 321.236 51.4062 321.308 51.3062 321.322L51.342 321.358Z" fill="#828282" fill-opacity="0.3"/>
<path d="M59.9022 321.122C59.8643 321.122 59.8279 321.107 59.8011 321.08C59.7743 321.053 59.7593 321.017 59.7593 320.979C59.7989 317.625 60.2449 314.289 61.0873 311.043C62.1485 306.509 64.0891 302.227 66.7991 298.442C68.4127 296.233 72.1896 291.065 79.2222 288.106C84.5128 285.89 91.6312 285.333 98.264 286.634C98.3013 286.642 98.3339 286.665 98.3552 286.697C98.3764 286.729 98.3846 286.767 98.3782 286.805C98.3758 286.825 98.3693 286.843 98.359 286.86C98.3488 286.877 98.335 286.891 98.3187 286.902C98.3025 286.913 98.284 286.92 98.2647 286.923C98.2454 286.926 98.2257 286.925 98.2068 286.92C91.6311 285.633 84.5843 286.162 79.3366 288.349C74.3549 290.53 70.0921 294.079 67.0419 298.585C64.3416 302.34 62.4122 306.594 61.3657 311.101C60.5235 314.322 60.0777 317.635 60.0378 320.965C60.0382 321.003 60.0246 321.04 59.9997 321.069C59.9747 321.098 59.9401 321.117 59.9022 321.122Z" fill="#828282" fill-opacity="0.3"/>
<path d="M27.7948 190.231C28.8086 194.156 30.3866 198.923 31.6718 204.491C35.0846 222.618 32.1001 221.045 40.5178 241.038C26.3383 218.286 25.4101 202.411 27.7948 190.231Z" fill="#29AA63"/>
<path d="M28.6231 273.21C28.9289 272.85 29.2529 272.507 29.594 272.181C28.1019 268.736 26.9818 265.142 26.2527 261.459C25.1817 261.831 23.8681 262.388 22.7757 262.888C22.7757 262.888 24.5963 260.859 25.9243 259.701C25.8814 259.472 25.8528 259.243 25.8242 259.043C24.6938 252.346 24.9859 245.485 26.6811 238.908C27.4891 235.847 28.6087 232.877 30.0225 230.044C27.1344 233.731 24.9688 237.932 23.6396 242.424C20.0055 254.919 23.4824 267.956 24.8247 271.173C25.4583 272.751 26.1929 274.286 27.0238 275.769C27.4353 274.845 27.9736 273.984 28.6231 273.21Z" fill="#29AA63"/>
<path d="M34.799 281.58C33.183 279.173 31.7327 276.658 30.4582 274.053C29.9655 274.253 29.4514 274.468 28.9087 274.725C28.209 275.068 27.5808 275.411 27.0239 275.754C31.8432 284.439 39.09 290.407 44.9803 296.804L45.0661 296.847C44.7805 295.975 37.3622 285.518 34.799 281.58Z" fill="#29AA63"/>
<path d="M20.2055 282.438C17.3496 279.007 15.9216 277.434 13.8867 273.21C10.9594 267.213 10.317 261.96 9.6958 257.221C9.21432 252.891 9.15215 248.525 9.51015 244.183C5.43622 247.419 2.4469 251.823 0.94247 256.806C1.11382 257.106 1.3138 257.421 1.54227 257.75C2.37679 258.875 3.44636 259.804 4.67654 260.473C3.74379 260.744 2.75339 260.744 1.82064 260.473C1.26996 260.314 0.752441 260.058 0.292816 259.715C-0.371233 264.146 0.0852622 268.673 1.62071 272.881C2.06104 273.011 2.50953 273.111 2.96307 273.182C4.60133 273.404 6.26909 273.208 7.81081 272.61C6.6872 273.61 5.38363 274.386 3.96971 274.897C3.52001 275.058 3.0596 275.187 2.59179 275.283C2.9492 276.075 3.34712 276.848 3.78407 277.599C4.10618 278.191 4.45887 278.766 4.84074 279.322C5.47022 279.081 6.08118 278.794 6.66855 278.464C7.32581 278.091 7.94712 277.658 8.52478 277.17C7.95805 278.185 7.23522 279.104 6.38286 279.893C6.14011 280.108 5.89736 280.308 5.66889 280.494C14.3294 291.773 30.6153 291.93 31.8576 291.987C29.4229 289.807 25.0676 286.619 20.2055 282.438Z" fill="#29AA63"/>
<path d="M85.1913 296.047C84.2641 294.434 83.1126 292.961 81.7713 291.673C83.053 292.229 84.2675 292.929 85.3912 293.76C86.1896 294.357 86.9391 295.017 87.633 295.733C89.663 294.784 91.5932 293.635 93.3948 292.302C93.2092 292.03 93.0093 291.758 92.8093 291.487C92.0028 290.401 91.1124 289.381 90.1462 288.435C91.4317 288.622 92.6644 289.075 93.7661 289.764C94.25 290.069 94.7041 290.418 95.1226 290.808C95.4225 290.522 95.6939 290.236 95.9509 289.95C96.8477 288.976 97.662 287.929 98.3855 286.819C95.7563 286.291 93.0774 286.051 90.3962 286.105C87.2449 286.068 84.1092 286.551 81.1145 287.534C77.5564 288.791 74.3034 290.786 71.5686 293.388C68.4433 296.266 65.8795 299.701 64.0078 303.517C62.7383 306.061 61.7794 308.748 61.1519 311.522C61.9882 309.91 63.0429 308.421 64.2861 307.098C66.2721 305.033 68.6481 303.383 71.276 302.244C76.8592 299.557 77.8374 299.957 83.9704 297.391C84.5273 297.162 85.0556 296.924 85.5554 296.676C85.4341 296.476 85.3484 296.262 85.1913 296.047Z" fill="#29AA63"/>
<path d="M27.6025 115.866C27.6025 115.866 27.681 115.637 27.8452 115.201" stroke="#00AEEE" stroke-linecap="round" stroke-linejoin="round"/>
<path d="M30.1724 110.019C36.0484 98.4681 52.7769 74.2798 88.0971 79.3333C127.166 84.9086 126.437 123.321 105.14 134.564C91.6526 141.676 65.1571 135.379 67.7132 101.792C70.1906 69.6268 92.2452 44.9311 118.462 41.6646" stroke="#00AEEE" stroke-linecap="round" stroke-linejoin="round" stroke-dasharray="1.99 7.96"/>
<path d="M121.297 41.3932L122.011 41.3574" stroke="#00AEEE" stroke-linecap="round" stroke-linejoin="round"/>
<path d="M110.145 72.8506C112.191 72.8506 113.851 71.1897 113.851 69.1409C113.851 67.092 112.191 65.4312 110.145 65.4312C108.098 65.4312 106.439 67.092 106.439 69.1409C106.439 71.1897 108.098 72.8506 110.145 72.8506Z" fill="#A2E9FC"/>
<path d="M117.477 66.7247C118.191 66.7247 118.77 66.1455 118.77 65.431C118.77 64.7164 118.191 64.1372 117.477 64.1372C116.764 64.1372 116.185 64.7164 116.185 65.431C116.185 66.1455 116.764 66.7247 117.477 66.7247Z" fill="#A2E9FC"/>
<path d="M190.438 46.8683C191.195 46.8683 191.809 46.2539 191.809 45.4959C191.809 44.738 191.195 44.1235 190.438 44.1235C189.681 44.1235 189.067 44.738 189.067 45.4959C189.067 46.2539 189.681 46.8683 190.438 46.8683Z" fill="#A2E9FC"/>
<path d="M362.535 170.832C364.092 170.832 365.355 169.568 365.355 168.009C365.355 166.45 364.092 165.186 362.535 165.186C360.977 165.186 359.714 166.45 359.714 168.009C359.714 169.568 360.977 170.832 362.535 170.832Z" fill="#A2E9FC"/>
<path d="M354.823 163.542C355.77 163.542 356.537 162.774 356.537 161.826C356.537 160.879 355.77 160.111 354.823 160.111C353.877 160.111 353.11 160.879 353.11 161.826C353.11 162.774 353.877 163.542 354.823 163.542Z" fill="#A2E9FC"/>
<path d="M200.727 308.263C202.773 308.263 204.432 306.602 204.432 304.553C204.432 302.504 202.773 300.843 200.727 300.843C198.68 300.843 197.021 302.504 197.021 304.553C197.021 306.602 198.68 308.263 200.727 308.263Z" fill="#A2E9FC"/>
<path d="M130.236 250.916C132.282 250.916 133.941 249.255 133.941 247.206C133.941 245.157 132.282 243.497 130.236 243.497C128.189 243.497 126.53 245.157 126.53 247.206C126.53 249.255 128.189 250.916 130.236 250.916Z" fill="#A2E9FC"/>
<path d="M13.9437 212.004C14.4484 212.004 14.8576 211.594 14.8576 211.089C14.8576 210.583 14.4484 210.174 13.9437 210.174C13.4389 210.174 13.0298 210.583 13.0298 211.089C13.0298 211.594 13.4389 212.004 13.9437 212.004Z" fill="#A2E9FC"/>
<path d="M196.207 314.281C196.842 314.281 197.357 313.766 197.357 313.13C197.357 312.495 196.842 311.979 196.207 311.979C195.572 311.979 195.058 312.495 195.058 313.13C195.058 313.766 195.572 314.281 196.207 314.281Z" fill="#A2E9FC"/>
<path d="M62.0228 219.072C64.5307 219.072 66.5637 217.037 66.5637 214.526C66.5637 212.016 64.5307 209.98 62.0228 209.98C59.515 209.98 57.4819 212.016 57.4819 214.526C57.4819 217.037 59.515 219.072 62.0228 219.072Z" fill="#A2E9FC"/>
<path d="M319.674 89.8263C323.346 89.8263 326.322 86.8469 326.322 83.1717C326.322 79.4965 323.346 76.5171 319.674 76.5171C316.003 76.5171 313.027 79.4965 313.027 83.1717C313.027 86.8469 316.003 89.8263 319.674 89.8263Z" fill="#A2E9FC"/>
<path d="M362.534 231.789C369.971 231.789 376 225.753 376 218.308C376 210.863 369.971 204.827 362.534 204.827C355.098 204.827 349.069 210.863 349.069 218.308C349.069 225.753 355.098 231.789 362.534 231.789Z" fill="#A2E9FC"/>
<path fill-rule="evenodd" clip-rule="evenodd" d="M271.631 76.3675C271.631 76.3675 258.023 73.9444 257.281 73.5513C257.131 74.7878 257.009 75.8242 256.831 77.0608C256.809 77.1573 256.809 77.2573 256.831 77.3538L260.858 88.9333C260.887 89.0115 260.935 89.0812 260.997 89.1364C261.06 89.1916 261.135 89.2306 261.216 89.2497C261.298 89.2688 261.382 89.2674 261.463 89.2459C261.544 89.2243 261.618 89.1834 261.679 89.1263L271.01 80.2487C271.057 80.2089 271.094 80.1596 271.12 80.1042C271.146 80.0487 271.16 79.9883 271.16 79.927C271.36 78.7691 271.631 76.3675 271.631 76.3675Z" fill="#BF2652"/>
<path fill-rule="evenodd" clip-rule="evenodd" d="M257.281 73.8443L261.307 85.4165C261.335 85.4952 261.381 85.566 261.443 85.6221C261.505 85.6782 261.579 85.7179 261.66 85.7378C261.741 85.7577 261.826 85.757 261.906 85.7359C261.987 85.7147 262.061 85.6737 262.121 85.6167L271.46 76.7392C271.525 76.6741 271.571 76.5928 271.594 76.5038C271.617 76.4148 271.615 76.3214 271.59 76.2331C271.564 76.1448 271.515 76.065 271.449 76.0019C271.382 75.9388 271.3 75.8948 271.21 75.8743L257.823 73.1796C257.738 73.1671 257.65 73.1769 257.57 73.2082C257.489 73.2395 257.418 73.291 257.364 73.3579C257.309 73.4249 257.273 73.505 257.258 73.5902C257.244 73.6754 257.251 73.7629 257.281 73.8443Z" fill="#FC6C85"/>
<path d="M307.194 162.798L306.28 160.918L295.414 166.701L296.277 168.681C296.333 168.765 296.41 168.834 296.499 168.881L306.552 173.105C306.614 173.129 306.681 173.137 306.747 173.129C306.813 173.12 306.875 173.095 306.929 173.056C306.983 173.017 307.026 172.965 307.055 172.905C307.084 172.845 307.097 172.779 307.094 172.712L307.223 162.991C307.232 162.959 307.234 162.925 307.229 162.892C307.224 162.859 307.212 162.827 307.194 162.798Z" fill="#F9C973"/>
<path fill-rule="evenodd" clip-rule="evenodd" d="M305.759 160.79L295.585 166.208C295.519 166.241 295.463 166.292 295.425 166.355C295.386 166.418 295.365 166.491 295.365 166.565C295.365 166.639 295.386 166.712 295.425 166.775C295.463 166.838 295.519 166.889 295.585 166.922L305.538 171.054C305.599 171.078 305.666 171.087 305.732 171.08C305.797 171.073 305.86 171.05 305.916 171.014C305.971 170.977 306.017 170.928 306.049 170.871C306.081 170.813 306.1 170.748 306.102 170.682L306.33 161.111C306.324 161.047 306.302 160.985 306.267 160.932C306.232 160.878 306.185 160.833 306.129 160.802C306.072 160.77 306.01 160.752 305.945 160.75C305.881 160.748 305.817 160.762 305.759 160.79Z" fill="#FFF9B0"/>
<path d="M355.23 247.378L353.246 247.199L355.295 256.699L357.351 256.949C357.438 256.949 357.524 256.927 357.601 256.884L364.419 252.053C364.612 251.924 364.469 251.645 364.219 251.538L355.416 247.442C355.36 247.407 355.296 247.385 355.23 247.378Z" fill="#F9C973"/>
<path fill-rule="evenodd" clip-rule="evenodd" d="M352.953 247.492L354.873 256.377C354.895 256.441 354.93 256.499 354.976 256.549C355.022 256.598 355.078 256.637 355.14 256.664C355.202 256.69 355.268 256.703 355.336 256.702C355.403 256.7 355.469 256.685 355.53 256.656L362.235 251.853C362.406 251.717 362.327 251.467 362.063 251.331L353.417 247.235C353.174 247.121 352.896 247.249 352.953 247.492Z" fill="#FFF9B0"/>
<path d="M265.455 101.863H69.077C66.7782 101.863 64.9146 103.729 64.9146 106.03V229.98C64.9146 232.282 66.7782 234.147 69.077 234.147H265.455C267.754 234.147 269.618 232.282 269.618 229.98V106.03C269.618 103.729 267.754 101.863 265.455 101.863Z" fill="#C6F3FA"/>
<path d="M253.568 106.352H251.733C249.998 106.352 248.591 107.76 248.591 109.497V111.334C248.591 113.071 249.998 114.479 251.733 114.479H253.568C255.303 114.479 256.709 113.071 256.709 111.334V109.497C256.709 107.76 255.303 106.352 253.568 106.352Z" fill="#80CBEA"/>
<path opacity="0.5" d="M83.8204 110.412C83.8218 111.217 83.5847 112.004 83.1392 112.674C82.6937 113.343 82.0597 113.866 81.3175 114.175C80.5753 114.484 79.7582 114.565 78.9697 114.409C78.1812 114.253 77.4566 113.866 76.8878 113.298C76.3189 112.729 75.9312 112.004 75.7739 111.215C75.6166 110.426 75.6966 109.608 76.0038 108.864C76.3111 108.121 76.8319 107.485 77.5001 107.038C78.1683 106.591 78.954 106.352 79.7578 106.352C80.834 106.352 81.8663 106.78 82.628 107.541C83.3896 108.302 83.8185 109.335 83.8204 110.412Z" fill="#80CBEA"/>
<path opacity="0.5" d="M104.983 114.479C107.227 114.479 109.045 112.658 109.045 110.412C109.045 108.166 107.227 106.345 104.983 106.345C102.739 106.345 100.92 108.166 100.92 110.412C100.92 112.658 102.739 114.479 104.983 114.479Z" fill="white"/>
<path d="M92.374 114.479C94.6177 114.479 96.4365 112.658 96.4365 110.412C96.4365 108.166 94.6177 106.345 92.374 106.345C90.1304 106.345 88.3115 108.166 88.3115 110.412C88.3115 112.658 90.1304 114.479 92.374 114.479Z" fill="#80CBEA"/>
<path d="M264.22 118.961H70.3052V228.744H264.22V118.961Z" fill="#80CBEA"/>
<path d="M257.73 118.961H76.7952C73.2109 118.961 70.3052 121.87 70.3052 125.458V222.246C70.3052 225.835 73.2109 228.744 76.7952 228.744H257.73C261.315 228.744 264.22 225.835 264.22 222.246V125.458C264.22 121.87 261.315 118.961 257.73 118.961Z" fill="#80CBEA"/>
<path d="M127.866 123.464H74.8032V224.248H127.866V123.464Z" fill="#C6F3FA"/>
<path d="M254.896 123.464H210.137C209.655 123.464 209.193 123.655 208.852 123.995C208.511 124.336 208.318 124.797 208.316 125.279V130.769H256.702V125.279C256.702 124.799 256.512 124.338 256.173 123.998C255.835 123.658 255.375 123.466 254.896 123.464Z" fill="#05ACEC"/>
<path d="M250.598 125.673H254.91" stroke="white" stroke-width="0.5" stroke-linecap="round" stroke-linejoin="round"/>
<path d="M250.598 127.109H254.91" stroke="white" stroke-width="0.5" stroke-linecap="round" stroke-linejoin="round"/>
<path d="M254.91 128.553H250.598" stroke="white" stroke-width="0.5" stroke-linecap="round" stroke-linejoin="round"/>
<path d="M232.513 130.769L231.399 126.223C231.204 125.436 230.752 124.736 230.114 124.236C229.476 123.736 228.689 123.464 227.879 123.464H210.137C209.655 123.464 209.193 123.655 208.852 123.995C208.511 124.336 208.318 124.797 208.316 125.279V152.706C208.316 152.945 208.363 153.182 208.454 153.403C208.546 153.624 208.68 153.825 208.849 153.994C209.018 154.164 209.219 154.298 209.44 154.39C209.661 154.481 209.897 154.528 210.137 154.528H254.896C255.377 154.526 255.838 154.333 256.178 153.992C256.518 153.65 256.709 153.188 256.709 152.706V130.769H232.513Z" fill="#C6F3FA"/>
<path d="M117.906 208.222H82.1641" stroke="#00AEEE" stroke-miterlimit="10"/>
<path d="M81.2359 218.308H99.8849C100.306 218.308 100.642 218.129 100.642 217.907V198.537C100.642 198.315 100.306 198.137 99.8849 198.137H81.2359C80.8218 198.137 80.479 198.315 80.479 198.537V217.907C80.479 218.129 80.8218 218.308 81.2359 218.308Z" fill="#5AE4A7"/>
<path d="M81.2359 218.308H99.8849C100.306 218.308 100.642 218.129 100.642 217.907V198.537C100.642 198.315 100.306 198.137 99.8849 198.137H81.2359C80.8218 198.137 80.479 198.315 80.479 198.537V217.907C80.479 218.129 80.8218 218.308 81.2359 218.308Z" fill="#05ACEC"/>
<path d="M104.583 218.308H123.232C123.646 218.308 123.989 218.129 123.989 217.907V198.537C123.989 198.315 123.646 198.137 123.232 198.137H104.583C104.162 198.137 103.826 198.315 103.826 198.537V217.907C103.826 218.129 104.162 218.308 104.583 218.308Z" fill="#05ACEC"/>
<path d="M90.5605 147.795V198.137" stroke="#00AEEE" stroke-miterlimit="10"/>
<path d="M117.906 137.709H82.1641" stroke="#00AEEE" stroke-miterlimit="10"/>
<path d="M113.907 147.795V198.137" stroke="#00AEEE" stroke-miterlimit="10"/>
<path d="M81.2359 171.297H99.8849C100.306 171.297 100.642 171.118 100.642 170.897V151.526C100.642 151.305 100.306 151.126 99.8849 151.126H81.2359C80.8218 151.126 80.479 151.305 80.479 151.526V170.897C80.479 171.118 80.8218 171.297 81.2359 171.297Z" fill="#80CBEA"/>
<path d="M81.2359 171.297H99.8849C100.306 171.297 100.642 171.118 100.642 170.897V151.526C100.642 151.305 100.306 151.126 99.8849 151.126H81.2359C80.8218 151.126 80.479 151.305 80.479 151.526V170.897C80.479 171.118 80.8218 171.297 81.2359 171.297Z" fill="#A2E9FC"/>
<path d="M81.2359 147.795H99.8849C100.306 147.795 100.642 147.616 100.642 147.395V128.024C100.642 127.803 100.306 127.624 99.8849 127.624H81.2359C80.8218 127.624 80.479 127.803 80.479 128.024V147.395C80.479 147.616 80.8218 147.795 81.2359 147.795Z" fill="#05ACEC"/>
<path d="M104.583 147.795H123.232C123.646 147.795 123.989 147.616 123.989 147.395V128.024C123.989 127.803 123.646 127.624 123.232 127.624H104.583C104.162 127.624 103.826 127.803 103.826 128.024V147.395C103.826 147.616 104.162 147.795 104.583 147.795Z" fill="#5AE4A7"/>
<path d="M104.583 147.795H123.232C123.646 147.795 123.989 147.616 123.989 147.395V128.024C123.989 127.803 123.646 127.624 123.232 127.624H104.583C104.162 127.624 103.826 127.803 103.826 128.024V147.395C103.826 147.616 104.162 147.795 104.583 147.795Z" fill="#A2E9FC"/>
<path d="M254.896 192.697H210.137C209.655 192.697 209.193 192.888 208.852 193.229C208.511 193.569 208.318 194.031 208.316 194.513V200.002H256.702V194.513C256.702 194.033 256.512 193.572 256.173 193.232C255.835 192.891 255.375 192.699 254.896 192.697Z" fill="#05ACEC"/>
<path d="M250.598 194.906H254.91" stroke="white" stroke-width="0.5" stroke-linecap="round" stroke-linejoin="round"/>
<path d="M250.598 196.343H254.91" stroke="white" stroke-width="0.5" stroke-linecap="round" stroke-linejoin="round"/>
<path d="M254.91 197.779H250.598" stroke="white" stroke-width="0.5" stroke-linecap="round" stroke-linejoin="round"/>
<path d="M232.513 199.995L231.399 195.45C231.204 194.662 230.752 193.963 230.114 193.462C229.476 192.962 228.689 192.691 227.879 192.69H210.137C209.655 192.69 209.193 192.882 208.852 193.222C208.511 193.562 208.318 194.024 208.316 194.506V221.932C208.316 222.171 208.363 222.408 208.454 222.629C208.546 222.851 208.68 223.052 208.849 223.221C209.018 223.39 209.219 223.524 209.44 223.616C209.661 223.708 209.897 223.755 210.137 223.755H254.896C255.377 223.753 255.838 223.56 256.178 223.218C256.518 222.877 256.709 222.414 256.709 221.932V199.995H232.513Z" fill="#C6F3FA"/>
<path d="M254.896 157.888H210.137C209.654 157.888 209.191 158.08 208.849 158.422C208.508 158.763 208.316 159.227 208.316 159.71V165.2H256.702V159.71C256.702 159.229 256.512 158.768 256.174 158.427C255.835 158.085 255.376 157.891 254.896 157.888Z" fill="#05ACEC"/>
<path d="M250.598 160.104H254.91" stroke="white" stroke-width="0.5" stroke-linecap="round" stroke-linejoin="round"/>
<path d="M250.598 161.547H254.91" stroke="white" stroke-width="0.5" stroke-linecap="round" stroke-linejoin="round"/>
<path d="M254.91 162.984H250.598" stroke="white" stroke-width="0.5" stroke-linecap="round" stroke-linejoin="round"/>
<path d="M232.513 165.2L231.399 160.647C231.203 159.86 230.75 159.161 230.113 158.661C229.475 158.161 228.689 157.889 227.879 157.888H210.137C209.897 157.888 209.661 157.935 209.44 158.026C209.219 158.118 209.018 158.252 208.849 158.422C208.68 158.591 208.546 158.792 208.454 159.013C208.363 159.234 208.316 159.471 208.316 159.71V187.136C208.318 187.619 208.511 188.08 208.852 188.421C209.193 188.761 209.655 188.952 210.137 188.952H254.896C255.377 188.952 255.838 188.761 256.178 188.42C256.518 188.08 256.709 187.618 256.709 187.136V165.2H232.513Z" fill="#C6F3FA"/>
<path d="M328.906 261.316H316.676V260.229C316.676 259.723 316.779 259.222 316.979 258.757C317.18 258.292 317.472 257.873 317.84 257.525C318.208 257.177 318.642 256.908 319.117 256.734C319.592 256.56 320.098 256.484 320.603 256.513L325.393 256.77C326.342 256.823 327.235 257.238 327.888 257.929C328.542 258.62 328.906 259.535 328.906 260.487V261.316Z" fill="#5AE4A7"/>
<path d="M328.906 261.316H316.676V260.229C316.676 259.723 316.779 259.222 316.979 258.757C317.18 258.292 317.472 257.873 317.84 257.525C318.208 257.177 318.642 256.908 319.117 256.734C319.592 256.56 320.098 256.484 320.603 256.513L325.393 256.77C326.342 256.823 327.235 257.238 327.888 257.929C328.542 258.62 328.906 259.535 328.906 260.487V261.316Z" fill="#9FE7FA"/>
<path d="M295.892 236.006C295.868 235.542 295.668 235.105 295.332 234.784C294.996 234.464 294.55 234.284 294.086 234.283H281.727C281.263 234.284 280.817 234.464 280.481 234.784C280.145 235.105 279.944 235.542 279.92 236.006L282.855 261.788H301.304L295.892 236.006Z" fill="#0B9AE3"/>
<path d="M329.456 196.357H324.851L319.675 245.055H324.28C324.658 245.047 325.02 244.904 325.301 244.65C325.582 244.397 325.762 244.051 325.808 243.675L330.691 197.744C330.715 197.569 330.701 197.391 330.649 197.222C330.598 197.053 330.51 196.897 330.393 196.766C330.276 196.634 330.131 196.529 329.969 196.459C329.808 196.388 329.633 196.354 329.456 196.357Z" fill="#0B9AE3"/>
<path d="M322.338 245.055H253.318C253.142 245.06 252.967 245.026 252.806 244.956C252.644 244.887 252.499 244.782 252.382 244.651C252.264 244.52 252.177 244.365 252.125 244.196C252.073 244.028 252.059 243.85 252.083 243.675L256.96 197.744C257.007 197.367 257.188 197.02 257.47 196.765C257.752 196.511 258.115 196.366 258.494 196.357H327.514C327.69 196.354 327.864 196.39 328.025 196.461C328.186 196.532 328.33 196.637 328.446 196.768C328.563 196.9 328.649 197.055 328.701 197.223C328.752 197.392 328.766 197.569 328.742 197.744L323.866 243.675C323.818 244.05 323.638 244.396 323.358 244.649C323.077 244.902 322.715 245.046 322.338 245.055Z" fill="#9FE7FA"/>
<path opacity="0.4" d="M322.338 245.055H253.318C253.142 245.06 252.967 245.026 252.806 244.956C252.644 244.887 252.499 244.782 252.382 244.651C252.264 244.52 252.177 244.365 252.125 244.196C252.073 244.028 252.059 243.85 252.083 243.675L256.96 197.744C257.007 197.367 257.188 197.02 257.47 196.765C257.752 196.511 258.115 196.366 258.494 196.357H327.514C327.69 196.354 327.864 196.39 328.025 196.461C328.186 196.532 328.33 196.637 328.446 196.768C328.563 196.9 328.649 197.055 328.701 197.223C328.752 197.392 328.766 197.569 328.742 197.744L323.866 243.675C323.818 244.05 323.638 244.396 323.358 244.649C323.077 244.902 322.715 245.046 322.338 245.055Z" fill="white"/>
<path d="M301.997 259.787H279.307C279.042 259.787 278.787 259.892 278.6 260.08C278.413 260.267 278.307 260.522 278.307 260.787C278.307 261.053 278.413 261.307 278.6 261.495C278.787 261.683 279.042 261.788 279.307 261.788H301.997C302.262 261.788 302.516 261.683 302.704 261.495C302.891 261.307 302.996 261.053 302.996 260.787C302.996 260.522 302.891 260.267 302.704 260.08C302.516 259.892 302.262 259.787 301.997 259.787Z" fill="#0B9AE3"/>
<path d="M326.672 199.273L322.388 239.351C322.347 239.679 322.189 239.982 321.944 240.203C321.699 240.425 321.383 240.551 321.052 240.559H255.988C255.834 240.562 255.682 240.533 255.541 240.471C255.399 240.41 255.273 240.319 255.171 240.204C255.069 240.089 254.992 239.953 254.947 239.806C254.902 239.659 254.889 239.504 254.91 239.351L259.194 199.273C259.233 198.945 259.39 198.641 259.636 198.419C259.881 198.197 260.198 198.072 260.529 198.065H325.615C325.757 198.065 325.897 198.091 326.029 198.144C326.244 198.237 326.423 198.397 326.539 198.601C326.655 198.805 326.702 199.041 326.672 199.273Z" fill="#9FE7FA"/>
<path d="M179.536 268.278H174.217V346.603H179.536V268.278Z" fill="#C8F5FC"/>
<path d="M338.895 261.316H292.786V268.278H338.895V261.316Z" fill="#5AE4A7"/>
<path d="M338.895 261.316H292.786V268.278H338.895V261.316Z" fill="#0B9AE3"/>
<path d="M212.493 268.278H207.174V346.603H212.493V268.278Z" fill="#0B9AE3"/>
<path d="M305.938 261.316H171.14V268.278H305.938V261.316Z" fill="#C8F5FC"/>
<path d="M305.938 261.316H171.14V268.278H305.938V261.316Z" fill="#9FE7FA"/>
<path d="M302.861 268.278H297.542V346.603H302.861V268.278Z" fill="#C8F5FC"/>
<path d="M295.142 258.443H256.659V261.309H295.142V258.443Z" fill="#9FE7FA"/>
<path opacity="0.4" d="M295.142 258.443H256.659V261.309H295.142V258.443Z" fill="white"/>
<path d="M104.583 171.297H123.232C123.646 171.297 123.989 171.118 123.989 170.897V151.526C123.989 151.305 123.646 151.126 123.232 151.126H104.583C104.162 151.126 103.826 151.305 103.826 151.526V170.897C103.826 171.118 104.162 171.297 104.583 171.297Z" fill="#05ACEC"/>
<path opacity="0.5" d="M104.583 171.297H123.232C123.646 171.297 123.989 171.118 123.989 170.897V151.526C123.989 151.305 123.646 151.126 123.232 151.126H104.583C104.162 151.126 103.826 151.305 103.826 151.526V170.897C103.826 171.118 104.162 171.297 104.583 171.297Z" fill="#05ACEC"/>
<path d="M92.4167 346.604H156.546V261.173H92.4167L92.4167 346.604Z" fill="#5AE4A7"/>
<path d="M92.4172 346.604H156.546V261.173H92.4172L92.4172 346.604Z" fill="#9FE7FA"/>
<path d="M80.1796 346.604H92.417L92.417 261.173H80.1796L80.1796 346.604Z" fill="#5AE4A7"/>
<path d="M80.1791 346.604H92.4165L92.4165 261.173H80.1791L80.1791 346.604Z" fill="#0B9AE3"/>
<path d="M96.5794 288.256H152.055V267.506H96.5794V288.256Z" fill="#C8F5FC"/>
<path d="M96.5794 311.279H152.055V290.529H96.5794V311.279Z" fill="#C8F5FC"/>
<path d="M96.5794 334.288H152.055V313.538H96.5794V334.288Z" fill="#C8F5FC"/>
<path d="M122.004 277.885C122.004 278.343 122.139 278.791 122.394 279.171C122.648 279.552 123.009 279.849 123.432 280.024C123.855 280.2 124.32 280.245 124.768 280.156C125.217 280.067 125.629 279.846 125.953 279.522C126.276 279.198 126.497 278.786 126.586 278.337C126.675 277.887 126.629 277.422 126.454 276.999C126.279 276.575 125.983 276.214 125.602 275.959C125.222 275.705 124.775 275.569 124.317 275.569C123.704 275.569 123.115 275.813 122.681 276.247C122.248 276.681 122.004 277.271 122.004 277.885Z" fill="#0B9AE3"/>
<path d="M122.004 300.9C122.004 301.358 122.139 301.806 122.394 302.187C122.648 302.568 123.009 302.865 123.432 303.04C123.855 303.215 124.32 303.261 124.768 303.172C125.217 303.083 125.629 302.862 125.953 302.538C126.276 302.214 126.497 301.802 126.586 301.352C126.675 300.903 126.629 300.437 126.454 300.014C126.279 299.591 125.983 299.229 125.602 298.975C125.222 298.72 124.775 298.584 124.317 298.584C123.704 298.584 123.115 298.828 122.681 299.263C122.248 299.697 122.004 300.286 122.004 300.9Z" fill="#0B9AE3"/>
<path d="M122.004 323.909C122.003 324.368 122.137 324.816 122.39 325.198C122.644 325.58 123.004 325.878 123.427 326.054C123.85 326.23 124.315 326.277 124.764 326.189C125.213 326.1 125.626 325.88 125.95 325.556C126.275 325.233 126.496 324.82 126.585 324.371C126.675 323.921 126.63 323.455 126.455 323.032C126.28 322.608 125.984 322.246 125.603 321.991C125.223 321.737 124.775 321.601 124.317 321.601C123.705 321.601 123.118 321.844 122.684 322.276C122.25 322.709 122.006 323.296 122.004 323.909Z" fill="#0B9AE3"/>
<path fill-rule="evenodd" clip-rule="evenodd" d="M44.4451 172.941L47.401 172.633L45.1019 155.171L42.0248 155.357C41.8833 155.392 41.7545 155.467 41.6535 155.572L31.0081 166.901C30.9367 166.97 30.8848 167.057 30.8574 167.153C30.8301 167.249 30.8282 167.351 30.852 167.447C30.8759 167.544 30.9245 167.633 30.9932 167.705C31.062 167.777 31.1483 167.83 31.2437 167.859L44.1882 172.862C44.2209 172.896 44.2616 172.921 44.3065 172.935C44.3515 172.948 44.3991 172.951 44.4451 172.941Z" fill="#BD2652"/>
<path fill-rule="evenodd" clip-rule="evenodd" d="M47.872 172.026L45.7301 155.707C45.7166 155.598 45.6721 155.494 45.6018 155.409C45.5314 155.323 45.4381 155.26 45.333 155.226C45.2279 155.193 45.1154 155.19 45.0086 155.218C44.9018 155.246 44.8053 155.304 44.7306 155.386L34.2279 166.643C34.1645 166.713 34.1188 166.796 34.0945 166.887C34.0703 166.978 34.0683 167.073 34.0886 167.165C34.1089 167.257 34.151 167.343 34.2113 167.415C34.2716 167.487 34.3482 167.544 34.4349 167.58L47.108 172.633C47.1999 172.663 47.2977 172.67 47.3928 172.653C47.4879 172.635 47.5772 172.595 47.6529 172.535C47.7285 172.474 47.7881 172.396 47.8263 172.308C47.8645 172.219 47.8802 172.122 47.872 172.026Z" fill="#F75070"/>
<path d="M64.336 258.543L60.3091 259.972L69.548 283.51L73.7747 282.173C73.9629 282.083 74.1177 281.935 74.2173 281.752L85.134 262.238C85.2097 262.118 85.253 261.979 85.2593 261.837C85.2656 261.695 85.2348 261.553 85.17 261.426C85.1052 261.299 85.0086 261.192 84.8896 261.113C84.7706 261.035 84.6335 260.989 84.4915 260.98L64.7073 258.457C64.5814 258.476 64.4573 258.504 64.336 258.543Z" fill="#F9C973"/>
<path fill-rule="evenodd" clip-rule="evenodd" d="M59.9166 261.016L68.5843 283.024C68.6407 283.17 68.7375 283.297 68.8634 283.389C68.9893 283.482 69.139 283.537 69.295 283.548C69.4509 283.558 69.6066 283.524 69.7438 283.449C69.881 283.374 69.994 283.261 70.0694 283.124L80.8146 263.782C80.8803 263.665 80.916 263.533 80.9183 263.398C80.9207 263.264 80.8897 263.131 80.8282 263.011C80.7667 262.891 80.6764 262.789 80.5657 262.713C80.455 262.636 80.3271 262.589 80.1935 262.574L60.7806 259.901C60.6386 259.879 60.4931 259.896 60.3597 259.949C60.2262 260.003 60.1094 260.091 60.0213 260.204C59.9333 260.318 59.8771 260.453 59.8587 260.596C59.8403 260.738 59.8602 260.884 59.9166 261.016Z" fill="#FFF9B0"/>
<path d="M277.871 320.385L278.793 319.978L276.322 314.26L275.344 314.639C275.301 314.666 275.266 314.706 275.244 314.753L272.938 319.699C272.921 319.729 272.912 319.763 272.911 319.797C272.911 319.831 272.919 319.865 272.936 319.896C272.952 319.926 272.976 319.951 273.005 319.969C273.034 319.987 273.068 319.998 273.102 319.999L277.786 320.378L277.871 320.385Z" fill="#F9C973"/>
<path fill-rule="evenodd" clip-rule="evenodd" d="M278.871 319.721L276.551 314.396C276.535 314.362 276.511 314.334 276.48 314.314C276.449 314.294 276.412 314.284 276.376 314.284C276.339 314.284 276.303 314.294 276.272 314.314C276.241 314.334 276.216 314.362 276.201 314.396L273.93 319.292C273.915 319.321 273.907 319.354 273.907 319.388C273.908 319.421 273.917 319.454 273.933 319.483C273.949 319.512 273.972 319.537 274.001 319.554C274.029 319.572 274.061 319.583 274.095 319.585L278.685 319.999C278.72 320.004 278.755 319.999 278.787 319.985C278.819 319.971 278.846 319.948 278.866 319.919C278.885 319.889 278.896 319.855 278.897 319.82C278.898 319.785 278.889 319.751 278.871 319.721Z" fill="#FFF9B0"/>
<path d="M200.727 123.464H135.462V224.248H200.727V123.464Z" fill="#C8F5FC"/>
<path d="M196.207 147.659H178.437V199.616H196.207V147.659Z" fill="#A2E9FC"/>
<path d="M172.153 147.659H139.981V173.413H172.153V147.659Z" fill="#A2E9FC"/>
<path d="M196.207 213.855H139.981V215.427H196.207V213.855Z" fill="#A2E9FC"/>
<path d="M196.207 209.516H139.981V211.089H196.207V209.516Z" fill="#A2E9FC"/>
<path d="M196.207 205.163H172.26V206.736H196.207V205.163Z" fill="#A2E9FC"/>
<path d="M196.207 213.855H139.981V215.427H196.207V213.855Z" fill="#00AEEE"/>
<path d="M196.207 209.516H139.981V211.089H196.207V209.516Z" fill="#00AEEE"/>
<path d="M196.207 205.163H172.26V206.736H196.207V205.163Z" fill="#81DCFC"/>
<path d="M196.207 218.287H139.981V219.859H196.207V218.287Z" fill="#00AEEE"/>
<path d="M157.981 182.026H139.981V183.598H157.981V182.026Z" fill="#A2E9FC"/>
<path d="M157.981 186.365H139.981V187.937H157.981V186.365Z" fill="#A2E9FC"/>
<path d="M147.65 190.718H139.981V192.29H147.65V190.718Z" fill="#A2E9FC"/>
<path d="M157.981 182.026H139.981V183.598H157.981V182.026Z" fill="#00AEEE"/>
<path d="M157.981 186.365H139.981V187.937H157.981V186.365Z" fill="#00AEEE"/>
<path d="M147.65 190.718H139.981V192.29H147.65V190.718Z" fill="#00AEEE"/>
<path d="M157.981 177.594H139.981V179.167H157.981V177.594Z" fill="#81DCFC"/>
<path d="M196.207 136.544H139.981V138.117H196.207V136.544Z" fill="#A2E9FC"/>
<path d="M196.207 132.206H139.981V133.778H196.207V132.206Z" fill="#A2E9FC"/>
<path d="M163.928 127.853H139.981V129.425H163.928V127.853Z" fill="#A2E9FC"/>
<path d="M196.207 136.544H139.981V138.117H196.207V136.544Z" fill="#00AEEE"/>
<path d="M196.207 132.206H139.981V133.778H196.207V132.206Z" fill="#00AEEE"/>
<path d="M163.928 127.853H139.981V129.425H163.928V127.853Z" fill="#81DCFC"/>
<path d="M196.207 140.976H139.981V142.549H196.207V140.976Z" fill="#00AEEE"/>
<path d="M335.824 268.278H330.505V346.603H335.824V268.278Z" fill="#0B9AE3"/>
<path fill-rule="evenodd" clip-rule="evenodd" d="M335.954 320.571L334.004 325.574L334.797 326.139C334.825 326.175 334.865 326.199 334.91 326.207C334.955 326.214 335.001 326.206 335.04 326.182L339.666 323.265C339.693 323.248 339.714 323.224 339.729 323.196C339.744 323.168 339.752 323.137 339.752 323.105C339.752 323.073 339.744 323.042 339.729 323.013C339.714 322.985 339.693 322.961 339.666 322.944L336.189 320.464C336.168 320.448 336.143 320.439 336.117 320.437C336.091 320.434 336.065 320.439 336.041 320.45C336.017 320.46 335.996 320.477 335.981 320.498C335.966 320.52 335.956 320.545 335.954 320.571Z" fill="#BF2652"/>
<path fill-rule="evenodd" clip-rule="evenodd" d="M335.153 320.056L333.918 325.396C333.909 325.432 333.91 325.471 333.923 325.507C333.936 325.543 333.96 325.574 333.991 325.596C334.023 325.617 334.06 325.629 334.098 325.629C334.136 325.629 334.173 325.618 334.204 325.596L338.845 322.694C338.87 322.676 338.89 322.652 338.904 322.625C338.919 322.598 338.926 322.567 338.926 322.536C338.926 322.506 338.919 322.475 338.904 322.448C338.89 322.421 338.87 322.397 338.845 322.379L335.446 319.949C335.422 319.93 335.392 319.918 335.362 319.914C335.331 319.909 335.3 319.912 335.271 319.923C335.242 319.934 335.216 319.951 335.195 319.975C335.175 319.998 335.16 320.026 335.153 320.056Z" fill="#FC6C85"/>
<path fill-rule="evenodd" clip-rule="evenodd" d="M229.057 270.537L236.668 277.22L238.174 276.184C238.256 276.154 238.325 276.096 238.367 276.019C238.409 275.943 238.422 275.854 238.403 275.769L236.218 265.691C236.204 265.633 236.177 265.58 236.139 265.535C236.101 265.491 236.052 265.456 235.998 265.434C235.944 265.411 235.885 265.402 235.826 265.407C235.768 265.412 235.711 265.431 235.661 265.462L229.035 270.029C228.99 270.055 228.953 270.093 228.927 270.139C228.902 270.185 228.89 270.237 228.892 270.29C228.894 270.342 228.911 270.393 228.94 270.436C228.969 270.48 229.009 270.515 229.057 270.537Z" fill="#BF2652"/>
<path fill-rule="evenodd" clip-rule="evenodd" d="M227.643 271.588L236.297 277.213C236.357 277.248 236.426 277.265 236.495 277.263C236.565 277.26 236.632 277.237 236.689 277.197C236.746 277.158 236.791 277.102 236.817 277.038C236.844 276.973 236.852 276.903 236.839 276.834L234.697 266.741C234.685 266.684 234.659 266.63 234.621 266.586C234.584 266.541 234.536 266.506 234.482 266.484C234.427 266.462 234.368 266.454 234.31 266.46C234.252 266.466 234.196 266.487 234.148 266.52L227.665 270.987C227.613 271.018 227.571 271.061 227.54 271.112C227.51 271.163 227.493 271.222 227.49 271.281C227.488 271.341 227.501 271.4 227.528 271.454C227.555 271.507 227.594 271.553 227.643 271.588Z" fill="#FC6C85"/>
<path fill-rule="evenodd" clip-rule="evenodd" d="M160.315 90.8774C160.315 90.8774 156.496 96.0596 156.174 96.2884C156.66 96.6029 157.067 96.8672 157.545 97.196C157.582 97.2243 157.623 97.2461 157.667 97.2604L163.321 97.9751C163.36 97.979 163.398 97.9733 163.434 97.9587C163.47 97.9441 163.501 97.921 163.526 97.8914C163.551 97.8617 163.567 97.8267 163.575 97.7889C163.583 97.7512 163.582 97.712 163.571 97.675L161.801 91.9568C161.795 91.9291 161.783 91.9031 161.765 91.8809C161.748 91.8586 161.726 91.8404 161.7 91.828C161.229 91.492 160.315 90.8774 160.315 90.8774Z" fill="#BF2652"/>
<path fill-rule="evenodd" clip-rule="evenodd" d="M156.274 96.346L161.922 97.0608C161.96 97.066 161.999 97.0617 162.034 97.048C162.07 97.0344 162.102 97.012 162.127 96.9828C162.152 96.9536 162.169 96.9186 162.177 96.881C162.185 96.8435 162.183 96.8045 162.172 96.7678L160.401 91.0495C160.388 91.0095 160.363 90.9739 160.331 90.9464C160.299 90.9189 160.26 90.9005 160.219 90.8932C160.177 90.8859 160.134 90.8899 160.095 90.9049C160.055 90.9198 160.021 90.945 159.994 90.978L156.103 95.9814C156.081 96.0152 156.067 96.0542 156.065 96.0945C156.062 96.1349 156.069 96.1754 156.086 96.212C156.104 96.2486 156.13 96.2801 156.163 96.3036C156.196 96.3271 156.234 96.3417 156.274 96.346Z" fill="#FC6C85"/>
<path d="M81.2359 194.842H99.8849C100.306 194.842 100.642 194.656 100.642 194.442V175.064C100.642 174.85 100.306 174.671 99.8849 174.671H81.2359C80.8218 174.671 80.479 174.85 80.479 175.064V194.442C80.479 194.62 80.8218 194.842 81.2359 194.842Z" fill="#A2E9FC"/>
<path d="M104.583 194.842H123.232C123.646 194.842 123.989 194.656 123.989 194.442V175.064C123.989 174.85 123.646 174.671 123.232 174.671H104.583C104.162 174.671 103.826 174.85 103.826 175.064V194.442C103.826 194.62 104.162 194.842 104.583 194.842Z" fill="#A2E9FC"/>
<path d="M326.672 199.273L322.388 239.351C322.347 239.679 322.19 239.982 321.944 240.203C321.699 240.425 321.383 240.551 321.053 240.559H257.088C267.797 236.42 280.57 229.33 287.396 217.915C294.386 206.221 307.723 200.667 317.697 198.065H325.551C325.693 198.065 325.833 198.091 325.965 198.144C326.192 198.226 326.385 198.382 326.513 198.587C326.641 198.791 326.697 199.033 326.672 199.273Z" fill="#80CBEA"/>
<path fill-rule="evenodd" clip-rule="evenodd" d="M163.486 72.2929C184.896 67.6996 205.562 60.1406 224.888 49.8345C227.344 55.2954 241.345 78.0826 244.879 85.4662C236.076 90.4697 230.071 93.8078 217.441 98.7898C202.633 104.451 195.308 106.652 180.992 109.783C175.157 97.2887 169.321 84.792 163.486 72.2929Z" fill="#A2E9FC"/>
<path fill-rule="evenodd" clip-rule="evenodd" d="M163.486 72.293C165.164 71.9427 166.863 71.5424 168.591 71.1421C181.192 89.2975 195.079 80.6345 217.391 98.7898C202.583 104.451 195.258 106.652 180.942 109.783C175.14 97.2887 169.321 84.792 163.486 72.293Z" fill="#81DCFC"/>
<path fill-rule="evenodd" clip-rule="evenodd" d="M181.121 109.683C181.072 109.684 181.024 109.67 180.984 109.643C180.943 109.617 180.911 109.578 180.892 109.533L163.586 72.3646C163.566 72.3345 163.554 72.3007 163.549 72.2653C163.544 72.2299 163.546 72.194 163.557 72.1597C163.567 72.1255 163.584 72.0937 163.607 72.0667C163.631 72.0397 163.659 72.018 163.692 72.003C163.724 71.9881 163.759 71.9802 163.795 71.98C163.831 71.9798 163.866 71.9873 163.899 72.002C163.931 72.0166 163.96 72.038 163.984 72.0648C164.007 72.0916 164.025 72.1233 164.035 72.1575L181.242 109.119C190.775 107.288 200.157 104.744 209.309 101.506C221.555 97.2132 233.352 91.7285 244.529 85.1306C244.587 85.1004 244.654 85.0916 244.718 85.106C244.782 85.1204 244.839 85.1571 244.879 85.2093C244.909 85.2676 244.918 85.3346 244.903 85.3987C244.889 85.4627 244.852 85.5198 244.8 85.5595C233.589 92.1722 221.762 97.6781 209.487 101.999C200.253 105.26 190.788 107.821 181.171 109.662L181.121 109.683Z" fill="#0A9CE5"/>
<path fill-rule="evenodd" clip-rule="evenodd" d="M206.724 79.7624C202.397 79.4336 198.021 78.9832 193.744 78.4328C183.758 77.1248 173.865 75.1766 164.128 72.6003C164.096 72.5919 164.068 72.572 164.05 72.5443C164.031 72.5166 164.024 72.4832 164.028 72.4502C164.028 72.3716 164.1 72.3501 164.178 72.3501C173.908 74.9264 183.793 76.8747 193.772 78.1828C198.056 78.7332 202.376 79.1834 206.674 79.505C210.393 75.131 213.773 70.4785 216.784 65.5883C219.836 60.5887 222.502 55.3628 224.759 49.9562C224.765 49.9391 224.775 49.9234 224.787 49.9103C224.8 49.8972 224.815 49.887 224.832 49.8803C224.849 49.8735 224.867 49.8704 224.885 49.8712C224.903 49.872 224.921 49.8765 224.937 49.8846C224.954 49.89 224.97 49.8989 224.983 49.9108C224.996 49.9228 225.006 49.9374 225.013 49.9537C225.02 49.9701 225.023 49.9877 225.022 50.0054C225.021 50.0231 225.017 50.0404 225.009 50.0562C220.536 60.8342 214.41 70.8472 206.852 79.7338C206.809 79.7624 206.781 79.7624 206.724 79.7624Z" fill="#0A9CE5"/>
<path fill-rule="evenodd" clip-rule="evenodd" d="M244.565 85.4806C239.36 84.7658 221.175 81.6208 208.416 77.618C208.387 77.6076 208.363 77.586 208.349 77.5578C208.336 77.5297 208.334 77.4973 208.345 77.4679C208.355 77.4386 208.377 77.4145 208.405 77.4011C208.433 77.3877 208.465 77.386 208.495 77.3964C221.225 81.3491 239.388 84.5443 244.565 85.209C244.582 85.2103 244.599 85.2155 244.614 85.2242C244.629 85.233 244.641 85.2452 244.651 85.2597C244.661 85.2741 244.667 85.2906 244.669 85.3078C244.672 85.3251 244.67 85.3426 244.664 85.3591C244.7 85.4806 244.65 85.4806 244.565 85.4806Z" fill="#0A9CE5"/>
<path fill-rule="evenodd" clip-rule="evenodd" d="M181.221 109.483C181.196 109.493 181.168 109.493 181.142 109.483C181.119 109.459 181.106 109.427 181.106 109.394C181.106 109.36 181.119 109.328 181.142 109.304C186.797 102.943 198.992 87.0176 203.333 79.4266C203.34 79.4104 203.351 79.3959 203.364 79.3841C203.378 79.3722 203.394 79.3634 203.411 79.3581C203.428 79.3527 203.446 79.3509 203.463 79.3528C203.481 79.3548 203.498 79.3604 203.514 79.3694C203.529 79.3784 203.543 79.3905 203.553 79.405C203.564 79.4195 203.571 79.436 203.575 79.4535C203.579 79.471 203.579 79.489 203.575 79.5066C203.572 79.5241 203.564 79.5407 203.554 79.5552C199.206 87.1676 186.997 103.093 181.342 109.483C181.302 109.478 181.261 109.478 181.221 109.483Z" fill="#0A9CE5"/>
</g>
<path d="M18 37C22.9706 37 27 32.9705 27 28C27 23.0294 22.9706 19 18 19C13.0294 19 9 23.0294 9 28C9 32.9705 13.0294 37 18 37Z" fill="#A2E9FC"/>
<path d="M288.5 11C290.985 11 293 8.98526 293 6.49998C293 4.01469 290.985 2 288.5 2C286.015 2 284 4.01469 284 6.49998C284 8.98526 286.015 11 288.5 11Z" fill="#A2E9FC"/>
<g clip-path="url(#clip1_2_2)">
<path d="M185.971 2.15069L185.039 0.180176L174.036 6.24923L174.911 8.32475C174.97 8.40884 175.046 8.47802 175.135 8.52707L185.321 12.9629C185.383 12.9879 185.451 12.9963 185.518 12.9873C185.585 12.9782 185.648 12.9519 185.703 12.911C185.758 12.8701 185.801 12.8158 185.83 12.7529C185.86 12.69 185.873 12.6205 185.87 12.5508L185.993 2.36051C186.008 2.29004 186.001 2.21612 185.971 2.15069Z" fill="#F9C973"/>
<path fill-rule="evenodd" clip-rule="evenodd" d="M184.518 0.0527417L174.21 5.73216C174.143 5.76714 174.087 5.82077 174.047 5.88691C174.008 5.95306 173.987 6.02912 173.987 6.1068C173.987 6.18447 174.008 6.26071 174.047 6.32686C174.087 6.393 174.143 6.44646 174.21 6.48144L184.287 10.8123C184.35 10.8372 184.417 10.8463 184.484 10.839C184.551 10.8317 184.615 10.808 184.672 10.77C184.728 10.732 184.775 10.6808 184.809 10.6204C184.842 10.56 184.862 10.4923 184.865 10.4227L185.089 0.389881C185.082 0.323704 185.061 0.260077 185.026 0.20439C184.99 0.148704 184.943 0.10251 184.887 0.0695712C184.831 0.0366324 184.769 0.0179986 184.705 0.0150582C184.641 0.0121177 184.576 0.0250365 184.518 0.0527417Z" fill="#FFF9B0"/>
</g>
<defs>
<clipPath id="clip0_2_2">
<rect width="376" height="311" fill="white" transform="translate(0 41)"/>
</clipPath>
<clipPath id="clip1_2_2">
<rect width="12" height="13" fill="white" transform="translate(174)"/>
</clipPath>
</defs>
</svg>
