<svg width="183" height="158" viewBox="0 0 183 158" fill="none" xmlns="http://www.w3.org/2000/svg">
<g clip-path="url(#clip0_90_1365)">
<path d="M183 43.3384H26.9392V144.007H183V43.3384Z" fill="#C8F5FC"/>
<path d="M173.577 81.2007H154.55V100.132H173.577V81.2007Z" fill="#A2E9FC"/>
<path d="M173.828 59.4067H86.6804V61.8403H173.828V59.4067Z" fill="#A2E9FC"/>
<path d="M173.828 66.0986H86.6804V68.5322H173.828V66.0986Z" fill="#A2E9FC"/>
<path d="M173.828 72.791H136.71V75.2245H173.828V72.791Z" fill="#A2E9FC"/>
<path d="M173.828 59.4067H86.6804V61.8403H173.828V59.4067Z" fill="#00AEEE"/>
<path d="M173.828 66.0986H86.6804V68.5322H173.828V66.0986Z" fill="#00AEEE"/>
<path d="M173.828 72.791H136.71V75.2245H173.828V72.791Z" fill="#81DCFC"/>
<path d="M173.828 52.5713H86.6804V55.0048H173.828V52.5713Z" fill="#00AEEE"/>
<path fill-rule="evenodd" clip-rule="evenodd" d="M174.835 158H35.1396C34.6083 157.991 34.1014 157.777 33.7257 157.403C33.3499 157.029 33.1347 156.525 33.1255 155.996V132.019C33.1349 131.493 33.3514 130.993 33.7281 130.625C34.1048 130.256 34.6116 130.05 35.1396 130.05H174.835C175.363 130.05 175.87 130.256 176.247 130.625C176.624 130.993 176.84 131.493 176.85 132.019V155.996C176.84 156.525 176.625 157.029 176.249 157.403C175.874 157.777 175.367 157.991 174.835 158Z" fill="#A2E9FC"/>
<path d="M165.268 148.588C169.599 148.588 173.109 145.095 173.109 140.786C173.109 136.478 169.599 132.985 165.268 132.985C160.938 132.985 157.427 136.478 157.427 140.786C157.427 145.095 160.938 148.588 165.268 148.588Z" fill="#FC6C85"/>
<path fill-rule="evenodd" clip-rule="evenodd" d="M151.996 150.127L160.629 142.755L162.93 145.081L155.737 153.742C152.896 157.106 148.508 153.169 151.996 150.127Z" fill="#FC6C85"/>
<path d="M165.268 147.228C168.844 147.228 171.742 144.344 171.742 140.786C171.742 137.229 168.844 134.345 165.268 134.345C161.693 134.345 158.794 137.229 158.794 140.786C158.794 144.344 161.693 147.228 165.268 147.228Z" fill="#A2E9FC"/>
<path fill-rule="evenodd" clip-rule="evenodd" d="M145.055 155.209H38.0169C37.4828 155.209 36.9706 154.998 36.5929 154.622C36.2152 154.246 36.0028 153.736 36.0028 153.205V134.595C36.0028 134.064 36.2152 133.554 36.5929 133.178C36.9706 132.802 37.4828 132.591 38.0169 132.591H145.055C145.589 132.591 146.101 132.802 146.479 133.178C146.857 133.554 147.069 134.064 147.069 134.595V153.205C147.069 153.736 146.857 154.246 146.479 154.622C146.101 154.998 145.589 155.209 145.055 155.209Z" fill="#C8F5FC"/>
<path d="M102.362 139.176H43.2323V148.516H102.362V139.176Z" fill="#00AEEE"/>
<path d="M139.12 139.176H106.031V148.516H139.12V139.176Z" fill="#00AEEE"/>
<path fill-rule="evenodd" clip-rule="evenodd" d="M22.1557 120.101V4.18701H-0.0718994V106.896C0.0719685 117.811 13.5236 120.101 22.1557 120.101Z" fill="#C8F5FC"/>
<path fill-rule="evenodd" clip-rule="evenodd" d="M21.5803 0.250589C42.7289 -0.572514 81.2854 0.250589 81.2854 0.250589V104.57C68.9847 103.604 30.0325 101.743 22.2277 112.944V7.05014C13.3438 7.05014 0.647528 5.97652 0.00012207 4.18716C0.00012207 0.53688 15.7896 0.572673 21.5803 0.250589Z" fill="#A2E9FC"/>
<path fill-rule="evenodd" clip-rule="evenodd" d="M60.3526 26.7687H59.921V87.1773C62.5466 87.1773 65.1002 87.1773 67.51 87.1773V26.7329L60.3526 26.7687Z" fill="#FC6C85"/>
<path fill-rule="evenodd" clip-rule="evenodd" d="M50.03 13.957V87.5353L57.2234 87.2132V13.957H50.03Z" fill="#22C4F2"/>
<path fill-rule="evenodd" clip-rule="evenodd" d="M40.6787 11.8457V88.5374C42.9087 88.1796 45.2465 87.8933 47.6563 87.7143V11.8457H40.8585H40.6787Z" fill="#FC6C85"/>
<path fill-rule="evenodd" clip-rule="evenodd" d="M30.464 21.7227V90.8633C32.9338 89.9881 35.4721 89.3178 38.053 88.8592V21.7227H30.464Z" fill="#22C4F2"/>
<path fill-rule="evenodd" clip-rule="evenodd" d="M22.1556 16.4263V94.0485C24.0085 93.4165 25.8221 92.6756 27.5867 91.8297V16.4263H22.1556Z" fill="#FC6C85"/>
<path fill-rule="evenodd" clip-rule="evenodd" d="M22.4795 94.4063C22.4521 94.422 22.421 94.4302 22.3895 94.4302C22.3579 94.4302 22.3268 94.422 22.2994 94.4063C22.2771 94.3896 22.259 94.368 22.2465 94.3431C22.2341 94.3183 22.2277 94.2909 22.2277 94.2631C22.2277 94.2353 22.2341 94.208 22.2465 94.1831C22.259 94.1583 22.2771 94.1367 22.2994 94.12C29.7086 90.1834 43.8798 85.7816 69.6321 87.3204H70.4953V87.5352C70.4953 87.5352 70.4953 87.7499 70.4953 87.7141C70.2083 87.7441 69.9191 87.7441 69.6321 87.7141C44.0236 86.1753 29.8527 90.5413 22.4795 94.4779C22.5514 94.4063 22.4795 94.4063 22.4795 94.4063Z" fill="#81DCFC"/>
<path fill-rule="evenodd" clip-rule="evenodd" d="M22.8391 118.562H22.5873C22.4793 118.49 22.3993 118.383 22.3601 118.26C22.3209 118.136 22.3249 118.003 22.3715 117.883C27.5508 108.793 47.5485 106.896 63.1222 106.896C73.2289 106.896 81.861 107.647 84.7023 107.934V4.65217C80.0626 4.65217 65.2441 4.33007 50.2459 4.33007C40.0313 4.33007 31.723 4.33007 25.5726 4.68794H24.9252H22.9469H22.6593C17.0167 4.71748 11.382 5.11198 5.79078 5.86892C5.66353 5.88183 5.53573 5.84934 5.43032 5.77724C5.32492 5.70513 5.24864 5.5981 5.21519 5.47526C5.16509 5.34877 5.16509 5.20808 5.21519 5.0816C5.319 5.03981 5.43517 5.03981 5.53899 5.0816C11.2973 4.30447 17.1001 3.89805 22.9111 3.86485H24.8532H25.5006C31.6869 3.61434 39.8874 3.47119 50.2099 3.47119C60.5324 3.47119 72.5454 3.47119 84.5583 3.82906H85.2059C85.3395 3.82906 85.4674 3.88185 85.5618 3.97581C85.6562 4.06977 85.7093 4.1972 85.7093 4.33007V108.649C85.7065 108.727 85.6857 108.803 85.6483 108.872C85.6108 108.94 85.5577 108.999 85.4935 109.043C85.3878 109.074 85.2756 109.074 85.1699 109.043C77.8562 108.303 70.5095 107.933 63.1582 107.934C59.2737 107.934 55.5691 107.934 52.1523 108.292C36.147 109.365 26.4357 112.765 23.1987 118.384C23.1559 118.438 23.1015 118.482 23.0393 118.513C22.9771 118.544 22.9086 118.561 22.8391 118.562V118.562Z" fill="#0A9CE5"/>
<path fill-rule="evenodd" clip-rule="evenodd" d="M22.8391 118.348C22.8391 118.348 22.8391 118.348 22.8391 118.097C31.1834 103.425 78.7676 107.683 85.2417 108.363V4.58069C82.2205 4.58069 45.8939 3.79337 25.7884 4.58069H23.1629C17.4 4.62332 11.6456 5.02974 5.93453 5.79746C5.89785 5.82368 5.85391 5.83776 5.80875 5.83776C5.76358 5.83776 5.71943 5.82368 5.68274 5.79746V5.54695C11.4161 4.76155 17.1955 4.35506 22.9828 4.33018H25.6086C46.5054 3.50708 84.882 4.33018 85.2777 4.33018C85.3285 4.33872 85.3747 4.36506 85.4076 4.40444C85.4406 4.44383 85.4582 4.49364 85.4575 4.54489V108.864H85.2777C74.2954 107.771 63.245 107.52 52.224 108.113C36.1468 109.186 26.3278 112.658 23.0549 118.384C23.0199 118.402 22.9799 118.409 22.9409 118.402C22.9019 118.396 22.8661 118.377 22.8391 118.348V118.348Z" fill="#0A9CE5"/>
<path d="M149.947 10.1992L122.684 17.7145C116.821 41.2982 119.087 66.3492 136.423 77.5147C158.003 67.208 170.34 42.4792 173.972 18.8597L149.947 10.1992Z" fill="#C8F5FC"/>
<path d="M176.13 35.1072C176.13 35.1072 176.13 34.7136 176.13 34.5346L176.562 33.0673C176.562 32.8526 176.562 32.6021 176.562 32.3874C176.562 32.1727 176.562 31.9937 176.562 31.8148C176.578 31.6362 176.578 31.4566 176.562 31.278C176.562 30.777 176.814 30.3118 176.922 29.8107L177.137 28.8445L177.461 27.3772L177.677 26.4467L178.001 24.8363C177.98 24.5743 177.98 24.3111 178.001 24.049C178.001 23.2617 178.252 22.4386 178.396 21.6513L173.217 18.8599C173.217 19.6472 172.965 20.4345 172.821 21.2576C172.821 21.5081 172.821 21.7586 172.821 22.0449L172.498 23.6553C172.498 23.9416 172.498 24.2637 172.318 24.5858L171.994 26.0531L171.778 27.0193C171.778 27.5204 171.527 27.9856 171.419 28.4866C171.311 28.9876 171.203 29.2381 171.131 29.596L170.915 30.276C170.915 30.777 170.663 31.278 170.519 31.7432C170.376 32.2085 170.519 32.1369 170.519 32.3158C170.519 32.4948 170.124 33.64 169.908 34.2841V34.642C169.908 35.1788 169.584 35.6798 169.405 36.1808C169.225 36.6818 168.901 37.6839 168.613 38.3996V38.6859C168.325 39.4732 168.002 40.2963 167.678 41.1194C167.678 41.4057 167.426 41.7278 167.282 42.0499C167.138 42.372 166.959 42.873 166.779 43.2667L166.347 44.2329L165.808 45.4139L165.268 46.5233L164.837 47.418L164.261 48.5632L163.83 49.3863L162.967 50.9967V51.2472C162.643 51.8556 162.283 52.464 161.923 53.0723L161.636 53.5018C161.384 53.967 161.096 54.3965 160.808 54.8617C160.521 55.3269 160.557 55.2196 160.449 55.4343L159.586 56.7226L159.334 57.1163C158.938 57.6889 158.578 58.2257 158.183 58.7267C157.787 59.2277 157.068 60.2655 156.492 60.9813L156.025 61.5539L154.658 63.2001L154.047 63.9158L153.687 64.3095L152.5 65.6336L151.133 67.0293C151.004 67.1394 150.884 67.2591 150.774 67.3872L149.587 68.4608L149.263 68.7829L147.788 70.0712L147.393 70.3933L146.206 71.3595L145.666 71.7532L144.623 72.5405L143.94 73.0415L142.825 73.7931L142.177 74.2225L141.422 74.6877L140.163 75.4393L139.3 75.9045L138.077 76.5845L136.531 77.3718L141.674 80.1632L142.861 79.5906L143.256 79.3758L144.443 78.9822L145.271 78.517L146.53 77.7654L147.141 77.4075L147.752 76.9781L148.867 76.2266L149.551 75.7255L150.162 75.2961L150.63 74.9383L151.133 74.5446L152.32 73.5783L152.716 73.2563C153.183 72.8626 153.651 72.4689 154.083 72.0395L154.442 71.7532L155.09 71.109L155.593 70.6438C155.722 70.5337 155.842 70.414 155.953 70.2859L157.284 68.9618L158.506 67.6377L158.83 67.244L159.154 66.8862L159.442 66.5283C159.909 65.9915 160.377 65.4547 160.808 64.8821L161.132 64.5242V64.3095C161.708 63.5937 162.283 62.8422 162.822 62.0907L163.901 60.5876L164.189 60.1582L164.693 59.3708L165.016 58.8698L166.024 57.5099C166.275 57.0447 166.563 56.6152 166.851 56.1858C167.139 55.7564 166.851 55.8637 167.103 55.7206C167.462 55.1838 167.786 54.6112 168.11 54.0386V53.7881C168.397 53.3228 168.649 52.8576 168.901 52.3566L169.333 51.5335C169.333 51.1398 169.728 50.7462 169.908 50.3883L170.34 49.4936L170.699 48.7421C170.713 48.6352 170.713 48.5269 170.699 48.42L171.239 47.2033L171.67 46.237L172.21 45.0202C172.21 44.7697 172.426 44.5192 172.498 44.2687C172.857 43.4456 173.145 42.6225 173.469 41.8352C173.485 41.7404 173.485 41.6437 173.469 41.5489C173.757 40.8332 174.008 40.0816 174.26 39.3659V39.0796L174.692 37.7912V37.4692C175.735 36.4313 175.915 35.7514 176.13 35.1072Z" fill="#BBD8E0"/>
<path d="M149.155 14.2075L125.273 20.7923C122.936 30.609 122.569 40.7882 124.194 50.7461C125.425 59.6482 130.112 67.7162 137.25 73.2204C146.464 68.1547 154.074 60.6318 159.226 51.4977C164.548 42.2914 168.201 32.2248 170.016 21.7586L149.155 14.2075Z" fill="#A2E9FC"/>
<path d="M157.248 17.6069C152.415 28.2269 146.381 38.2643 139.264 47.5249C135.656 51.9797 131.725 56.166 127.503 60.0504C129.567 65.0479 132.931 69.4083 137.25 72.6833C146.274 67.6147 153.736 60.1902 158.83 51.211C164.097 42.1709 167.748 32.2904 169.62 22.0088L157.248 17.6069Z" fill="#C0E7F4"/>
<path d="M153.975 31.5997L156.636 35.751L139.048 52.1057L138.437 51.7121L135.596 36.5383L136.243 36.932L140.703 43.9463L153.327 31.2061L153.975 31.5997Z" fill="#D1AA62"/>
<path d="M153.327 31.2061L155.989 35.3574L138.437 51.7121L131.28 40.5465L135.596 36.5383L140.055 43.5526L153.327 31.2061Z" fill="#F9C973"/>
</g>
<defs>
<clipPath id="clip0_90_1365">
<rect width="183" height="158" fill="white"/>
</clipPath>
</defs>
</svg>
