<svg width="493" height="431" viewBox="0 0 493 431" fill="none" xmlns="http://www.w3.org/2000/svg">
<g clip-path="url(#clip0_2_2)">
<path d="M292.839 106.754H96.7109V255.221H292.839V106.754Z" fill="#A2E9FC"/>
<path fill-rule="evenodd" clip-rule="evenodd" d="M286.303 248.909H90.2337C90.2026 248.911 90.1713 248.906 90.1422 248.895C90.1131 248.884 90.0867 248.867 90.0647 248.845C90.0427 248.823 90.0257 248.796 90.0146 248.767C90.0034 248.738 89.9986 248.707 90.0003 248.676V100.233C89.9986 100.202 90.0034 100.171 90.0146 100.142C90.0257 100.113 90.0427 100.087 90.0647 100.065C90.0867 100.043 90.1131 100.026 90.1422 100.015C90.1713 100.004 90.2026 99.9986 90.2337 100H286.303C286.334 99.9986 286.365 100.004 286.394 100.015C286.423 100.026 286.45 100.043 286.472 100.065C286.494 100.087 286.511 100.113 286.522 100.142C286.533 100.171 286.538 100.202 286.536 100.233V248.7C286.531 248.757 286.504 248.811 286.46 248.849C286.417 248.888 286.361 248.909 286.303 248.909V248.909ZM90.4086 248.443H286.07V100.443H90.4086V248.443Z" stroke="#0A9CE5" stroke-miterlimit="10"/>
<path d="M272.286 210.634H115.267V212.73H272.286V210.634Z" fill="#81DCFC"/>
<path d="M272.286 216.433H115.267V218.529H272.286V216.433Z" fill="#81DCFC"/>
<path d="M272.286 222.197H115.267V224.293H272.286V222.197Z" fill="#81DCFC"/>
<path d="M182.153 227.961H115.267V230.057H182.153V227.961Z" fill="#81DCFC"/>
<path d="M272.286 210.634H115.267V212.73H272.286V210.634Z" fill="#81DCFC"/>
<path d="M272.286 216.433H115.267V218.529H272.286V216.433Z" fill="#81DCFC"/>
<path d="M272.286 222.197H115.267V224.293H272.286V222.197Z" fill="#81DCFC"/>
<path d="M182.153 227.961H115.267V230.057H182.153V227.961Z" fill="#81DCFC"/>
<path d="M157.096 133.257H115.384V174.874H157.096V133.257Z" fill="#81DCFC"/>
<path d="M215.998 133.257H174.287V174.874H215.998V133.257Z" fill="#81DCFC"/>
<path d="M274.165 133.257H232.454V174.874H274.165V133.257Z" fill="#81DCFC"/>
<path d="M215.975 186.961H115.524V200.946H215.975V186.961Z" fill="#81DCFC"/>
<path fill-rule="evenodd" clip-rule="evenodd" d="M249.317 210.639C249.291 210.64 249.266 210.636 249.242 210.627C249.219 210.618 249.197 210.604 249.179 210.586C249.161 210.568 249.148 210.547 249.139 210.523C249.13 210.5 249.126 210.474 249.127 210.449V177.995C249.126 177.969 249.13 177.944 249.139 177.921C249.148 177.897 249.161 177.875 249.179 177.858C249.197 177.84 249.219 177.826 249.242 177.817C249.266 177.808 249.291 177.804 249.317 177.805H314.534C314.56 177.804 314.585 177.808 314.608 177.817C314.632 177.826 314.654 177.84 314.672 177.858C314.689 177.875 314.703 177.897 314.712 177.921C314.722 177.944 314.725 177.969 314.724 177.995C314.725 178.02 314.722 178.045 314.712 178.069C314.703 178.092 314.689 178.114 314.672 178.131C314.654 178.149 314.632 178.163 314.608 178.172C314.585 178.181 314.56 178.185 314.534 178.184H249.506V210.459C249.5 210.506 249.478 210.549 249.443 210.582C249.409 210.615 249.364 210.635 249.317 210.639V210.639Z" stroke="#0A9CE5" stroke-miterlimit="10"/>
<path fill-rule="evenodd" clip-rule="evenodd" d="M399.062 210.638C399.037 210.64 399.011 210.636 398.988 210.627C398.964 210.618 398.943 210.604 398.925 210.586C398.907 210.568 398.893 210.547 398.884 210.523C398.875 210.5 398.871 210.474 398.872 210.449V178.174H333.835C333.81 178.176 333.784 178.172 333.761 178.163C333.737 178.154 333.716 178.14 333.698 178.122C333.68 178.104 333.666 178.083 333.657 178.059C333.648 178.035 333.644 178.01 333.645 177.985C333.644 177.96 333.648 177.935 333.657 177.911C333.666 177.887 333.68 177.866 333.698 177.848C333.716 177.83 333.737 177.816 333.761 177.807C333.784 177.798 333.81 177.794 333.835 177.796H399.062C399.087 177.794 399.113 177.798 399.136 177.807C399.16 177.816 399.181 177.83 399.199 177.848C399.217 177.866 399.231 177.887 399.24 177.911C399.249 177.935 399.253 177.96 399.252 177.985V210.449C399.252 210.499 399.232 210.547 399.196 210.583C399.161 210.619 399.112 210.638 399.062 210.638V210.638Z" stroke="#0A9CE5" stroke-miterlimit="10"/>
<path fill-rule="evenodd" clip-rule="evenodd" d="M203.76 277.706C203.735 277.708 203.71 277.704 203.686 277.695C203.662 277.686 203.641 277.672 203.623 277.654C203.605 277.636 203.591 277.615 203.582 277.591C203.573 277.567 203.569 277.542 203.571 277.517V226.998C203.569 226.973 203.573 226.948 203.582 226.924C203.591 226.901 203.605 226.879 203.623 226.861C203.641 226.843 203.662 226.83 203.686 226.821C203.71 226.811 203.735 226.807 203.76 226.809H268.978C269.003 226.807 269.028 226.811 269.052 226.821C269.076 226.83 269.097 226.843 269.115 226.861C269.133 226.879 269.147 226.901 269.156 226.924C269.165 226.948 269.169 226.973 269.168 226.998C269.169 227.023 269.165 227.049 269.156 227.072C269.147 227.096 269.133 227.117 269.115 227.135C269.097 227.153 269.076 227.167 269.052 227.176C269.028 227.185 269.003 227.189 268.978 227.188H203.95V277.517C203.946 277.566 203.924 277.611 203.89 277.646C203.855 277.681 203.809 277.702 203.76 277.706V277.706Z" stroke="#0A9CE5" stroke-miterlimit="10"/>
<path fill-rule="evenodd" clip-rule="evenodd" d="M324.545 172.882C324.52 172.883 324.495 172.879 324.471 172.87C324.447 172.861 324.426 172.848 324.408 172.83C324.39 172.812 324.376 172.79 324.367 172.767C324.358 172.743 324.354 172.718 324.355 172.693V140.219C324.354 140.194 324.358 140.169 324.367 140.145C324.376 140.122 324.39 140.1 324.408 140.082C324.426 140.064 324.447 140.05 324.471 140.041C324.495 140.032 324.52 140.028 324.545 140.03H402.25C402.275 140.028 402.301 140.032 402.324 140.041C402.348 140.05 402.37 140.064 402.387 140.082C402.405 140.1 402.419 140.122 402.428 140.145C402.437 140.169 402.441 140.194 402.44 140.219C402.441 140.244 402.437 140.27 402.428 140.293C402.419 140.317 402.405 140.338 402.387 140.356C402.37 140.374 402.348 140.388 402.324 140.397C402.301 140.406 402.275 140.41 402.25 140.408H324.706V172.693C324.709 172.739 324.694 172.784 324.664 172.82C324.634 172.855 324.591 172.877 324.545 172.882V172.882Z" stroke="#0A9CE5" stroke-miterlimit="10"/>
<path fill-rule="evenodd" clip-rule="evenodd" d="M279.881 246.558H223.042C222.539 246.558 222.056 246.359 221.7 246.003C221.344 245.648 221.144 245.167 221.144 244.665V209.123C221.144 208.621 221.344 208.14 221.7 207.785C222.056 207.429 222.539 207.23 223.042 207.23H279.881C280.384 207.23 280.867 207.429 281.223 207.785C281.578 208.14 281.778 208.621 281.778 209.123V244.665C281.778 244.913 281.729 245.159 281.634 245.389C281.539 245.619 281.399 245.828 281.223 246.003C281.046 246.179 280.837 246.319 280.607 246.414C280.377 246.509 280.13 246.558 279.881 246.558Z" fill="#C8F5FC"/>
<path fill-rule="evenodd" clip-rule="evenodd" d="M352.661 198.151H295.822C295.319 198.151 294.836 197.951 294.48 197.596C294.124 197.241 293.924 196.759 293.924 196.257V160.716C293.924 160.214 294.124 159.732 294.48 159.377C294.836 159.022 295.319 158.823 295.822 158.823H352.661C353.164 158.823 353.647 159.022 354.003 159.377C354.359 159.732 354.559 160.214 354.559 160.716V196.257C354.559 196.759 354.359 197.241 354.003 197.596C353.647 197.951 353.164 198.151 352.661 198.151Z" fill="#C8F5FC"/>
<path fill-rule="evenodd" clip-rule="evenodd" d="M424.426 222.946H375.672C375.168 222.946 374.686 222.747 374.33 222.392C373.974 222.037 373.774 221.555 373.774 221.053V190.757C373.774 190.255 373.974 189.773 374.33 189.418C374.686 189.063 375.168 188.863 375.672 188.863H424.426C424.929 188.863 425.412 189.063 425.768 189.418C426.124 189.773 426.324 190.255 426.324 190.757V221.053C426.324 221.555 426.124 222.037 425.768 222.392C425.412 222.747 424.929 222.946 424.426 222.946Z" fill="#C8F5FC"/>
<path fill-rule="evenodd" clip-rule="evenodd" d="M458.102 160.338H401.263C400.76 160.338 400.277 160.138 399.921 159.783C399.565 159.428 399.366 158.946 399.366 158.444V122.894C399.366 122.391 399.565 121.91 399.921 121.555C400.277 121.199 400.76 121 401.263 121H458.102C458.605 121 459.088 121.199 459.444 121.555C459.8 121.91 460 122.391 460 122.894V158.435C460.001 158.684 459.953 158.931 459.858 159.162C459.763 159.393 459.624 159.603 459.448 159.78C459.271 159.956 459.061 160.097 458.831 160.192C458.6 160.288 458.352 160.338 458.102 160.338Z" fill="#C8F5FC"/>
<path fill-rule="evenodd" clip-rule="evenodd" d="M237.019 323.974H168.898C168.394 323.974 167.912 323.775 167.556 323.419C167.2 323.064 167 322.583 167 322.081V279.221C167 278.719 167.2 278.237 167.556 277.882C167.912 277.527 168.394 277.328 168.898 277.328H237.038C237.541 277.328 238.024 277.527 238.38 277.882C238.736 278.237 238.936 278.719 238.936 279.221V322.081C238.936 322.331 238.886 322.579 238.789 322.81C238.693 323.041 238.551 323.25 238.373 323.426C238.195 323.602 237.984 323.741 237.751 323.835C237.519 323.929 237.27 323.977 237.019 323.974V323.974Z" fill="#C8F5FC"/>
<path d="M273.684 221.128H229.532V223.022H273.684V221.128Z" fill="#A2E9FC"/>
<path d="M273.684 226.335H229.532V228.229H273.684V226.335Z" fill="#A2E9FC"/>
<path d="M248.339 231.552H229.532V233.446H248.339V231.552Z" fill="#A2E9FC"/>
<path d="M273.665 221.128H229.57V223.022H273.665V221.128Z" fill="#A2E9FC"/>
<path d="M273.665 226.335H229.57V228.229H273.665V226.335Z" fill="#A2E9FC"/>
<path d="M273.665 231.552H229.57V233.446H273.665V231.552Z" fill="#A2E9FC"/>
<path d="M273.665 215.817H229.57V217.711H273.665V215.817Z" fill="#A2E9FC"/>
<path d="M245.417 236.863H229.57V238.757H245.417V236.863Z" fill="#A2E9FC"/>
<path d="M346.284 172.522H302.132V174.416H346.284V172.522Z" fill="#A2E9FC"/>
<path d="M346.284 177.739H302.132V179.632H346.284V177.739Z" fill="#A2E9FC"/>
<path d="M320.939 182.955H302.132V184.849H320.939V182.955Z" fill="#A2E9FC"/>
<path d="M346.265 172.522H302.17V174.416H346.265V172.522Z" fill="#A2E9FC"/>
<path d="M346.265 177.739H302.17V179.632H346.265V177.739Z" fill="#A2E9FC"/>
<path d="M346.265 182.955H302.17V184.849H346.265V182.955Z" fill="#A2E9FC"/>
<path d="M346.265 167.22H302.17V169.114H346.265V167.22Z" fill="#A2E9FC"/>
<path d="M326.357 188.257H302.17V190.151H326.357V188.257Z" fill="#A2E9FC"/>
<path d="M418.306 202.989H381.735V204.882H418.306V202.989Z" fill="#A2E9FC"/>
<path d="M418.306 208.196H381.735V210.089H418.306V208.196Z" fill="#A2E9FC"/>
<path d="M397.316 213.412H381.735V215.306H397.316V213.412Z" fill="#A2E9FC"/>
<path d="M418.287 202.989H381.754V204.882H418.287V202.989Z" fill="#A2E9FC"/>
<path d="M418.287 208.196H381.754V210.089H418.287V208.196Z" fill="#A2E9FC"/>
<path d="M407.46 213.412H381.754V215.306H407.46V213.412Z" fill="#A2E9FC"/>
<path d="M418.287 197.677H381.754V199.571H418.287V197.677Z" fill="#A2E9FC"/>
<path d="M451.849 134.709H407.697V136.602H451.849V134.709Z" fill="#A2E9FC"/>
<path d="M451.849 139.926H407.697V141.819H451.849V139.926Z" fill="#A2E9FC"/>
<path d="M426.504 145.133H407.697V147.026H426.504V145.133Z" fill="#A2E9FC"/>
<path d="M451.811 134.709H407.716V136.602H451.811V134.709Z" fill="#A2E9FC"/>
<path d="M451.811 139.926H407.716V141.819H451.811V139.926Z" fill="#A2E9FC"/>
<path d="M451.811 145.133H407.716V147.026H451.811V145.133Z" fill="#A2E9FC"/>
<path d="M451.811 129.407H407.716V131.301H451.811V129.407Z" fill="#A2E9FC"/>
<path d="M437.008 150.425H407.716V152.319H437.008V150.425Z" fill="#A2E9FC"/>
<path d="M224.788 296.206H174.743V298.099H224.788V296.206Z" fill="#A2E9FC"/>
<path d="M224.788 301.422H174.743V303.316H224.788V301.422Z" fill="#A2E9FC"/>
<path d="M196.055 306.629H174.743V308.523H196.055V306.629Z" fill="#A2E9FC"/>
<path d="M224.75 296.206H174.781V298.099H224.75V296.206Z" fill="#A2E9FC"/>
<path d="M224.75 301.422H174.781V303.316H224.75V301.422Z" fill="#A2E9FC"/>
<path d="M224.75 306.629H174.781V308.523H224.75V306.629Z" fill="#A2E9FC"/>
<path d="M224.75 290.904H174.781V292.797H224.75V290.904Z" fill="#A2E9FC"/>
<path d="M211.294 311.941H174.781V313.834H211.294V311.941Z" fill="#A2E9FC"/>
<g style="mix-blend-mode:multiply">
<g style="mix-blend-mode:multiply">
<path d="M316.526 431C337.506 431 354.514 428.716 354.514 425.9C354.514 423.083 337.506 420.799 316.526 420.799C295.545 420.799 278.537 423.083 278.537 425.9C278.537 428.716 295.545 431 316.526 431Z" fill="#979695"/>
</g>
</g>
<path fill-rule="evenodd" clip-rule="evenodd" d="M329.037 312.949C328.687 312.949 328.138 312.949 327.485 312.949C326.318 312.949 325.968 312.809 325.571 312.856C325.011 312.942 324.478 313.155 324.013 313.477C323.547 313.8 323.162 314.225 322.886 314.719C323.12 314.789 326.504 315.767 328.325 313.997C328.618 313.689 328.859 313.335 329.037 312.949V312.949Z" fill="#0A9CE5"/>
<path d="M286.415 147.691C286.55 147.631 286.691 147.584 286.835 147.552C287.003 147.507 287.175 147.483 287.349 147.482C287.909 147.482 288.679 147.482 288.819 147.482L287.232 148.46C286.917 148.227 286.672 147.947 286.415 147.691Z" fill="#262F69"/>
<path d="M336.46 177.396C336.759 176.769 337.213 176.226 337.778 175.819C338.343 175.413 339.001 175.154 339.692 175.067L355.413 173.064C356.23 172.552 356.72 172.249 357.164 171.9C357.52 171.596 357.944 171.38 358.401 171.271C358.767 171.218 359.141 171.242 359.498 171.341C360.035 170.712 360.595 170.107 361.132 169.478C361.132 168.756 361.038 168.034 360.968 167.312C360.966 167.096 361.007 166.882 361.089 166.682C361.172 166.482 361.293 166.3 361.447 166.148C361.665 165.951 361.932 165.819 362.221 165.766C362.509 165.712 362.807 165.74 363.081 165.845C363.151 167.009 363.244 168.174 363.314 169.245C363.475 169.241 363.632 169.291 363.759 169.389C363.887 169.487 363.977 169.625 364.014 169.781C364.047 169.935 364.025 170.095 363.952 170.235C363.88 170.375 363.762 170.486 363.618 170.549L362.614 171.551C362.357 172.11 362.1 172.715 361.82 173.251C361.635 173.65 361.341 173.988 360.971 174.227C360.602 174.466 360.172 174.596 359.731 174.602H358.004L356.44 175.463C354.946 175.743 347.839 177.408 345.785 177.943C345.399 178.078 345.03 178.257 344.688 178.479C343.741 179.147 342.991 180.056 342.517 181.111C342.143 181.833 332.632 196.912 325.477 204.982C324.124 199.742 323.914 197.611 322.583 192.371C328.092 187.119 335.316 180.121 336.46 177.396Z" fill="#F7B2B2"/>
<path d="M361.202 169.909H361.108C361.096 169.899 361.086 169.887 361.08 169.872C361.073 169.858 361.069 169.843 361.069 169.827C361.069 169.812 361.073 169.796 361.08 169.782C361.086 169.768 361.096 169.756 361.108 169.746C361.493 169.413 361.969 169.203 362.474 169.14C362.821 169.097 363.173 169.137 363.501 169.257C363.515 169.261 363.528 169.267 363.54 169.277C363.551 169.286 363.561 169.298 363.567 169.311C363.574 169.324 363.578 169.339 363.578 169.353C363.579 169.368 363.576 169.383 363.571 169.396C363.567 169.411 363.56 169.424 363.551 169.435C363.541 169.447 363.53 169.456 363.517 169.463C363.503 169.469 363.489 169.473 363.474 169.474C363.459 169.474 363.445 169.472 363.431 169.466C363.13 169.367 362.811 169.335 362.497 169.373C362.04 169.436 361.609 169.621 361.248 169.909C361.248 169.909 361.225 169.909 361.202 169.909Z" fill="#F38484"/>
<path d="M358.004 174.753C358.004 174.753 357.934 174.753 357.911 174.683C357.895 174.659 357.887 174.63 357.887 174.602C357.887 174.573 357.895 174.544 357.911 174.52C358.747 174.065 359.53 173.518 360.245 172.89C360.366 172.805 360.467 172.694 360.54 172.565C360.612 172.436 360.655 172.292 360.665 172.145C360.654 172.03 360.619 171.919 360.563 171.819C360.507 171.719 360.43 171.631 360.338 171.562C360.173 171.395 359.962 171.282 359.731 171.236C359.701 171.228 359.676 171.21 359.658 171.184C359.641 171.158 359.634 171.127 359.638 171.097C359.646 171.067 359.665 171.041 359.69 171.024C359.716 171.007 359.747 171 359.778 171.003C360.053 171.061 360.305 171.198 360.502 171.399C360.718 171.593 360.859 171.857 360.898 172.145C360.889 172.325 360.838 172.502 360.749 172.659C360.66 172.817 360.535 172.952 360.385 173.053C359.652 173.704 358.845 174.266 357.981 174.73L358.004 174.753Z" fill="#F38484"/>
<path d="M327.018 203.491C327.007 203.497 326.995 203.499 326.983 203.499C326.971 203.499 326.959 203.497 326.948 203.491C326.931 203.468 326.922 203.439 326.922 203.41C326.922 203.381 326.931 203.352 326.948 203.328C332.545 196.258 337.727 188.871 342.47 181.204C342.963 180.134 343.727 179.21 344.688 178.526C345.051 178.29 345.443 178.102 345.855 177.967C347.932 177.408 354.946 175.766 356.51 175.487L358.051 174.648H359.778C360.193 174.626 360.595 174.493 360.942 174.264C361.289 174.035 361.568 173.717 361.75 173.344L362.544 171.644L363.548 170.642C363.666 170.584 363.761 170.489 363.82 170.371C363.879 170.253 363.898 170.12 363.874 169.99C363.847 169.859 363.772 169.742 363.665 169.661C363.558 169.579 363.425 169.539 363.291 169.548C363.275 169.55 363.259 169.548 363.244 169.543C363.229 169.538 363.215 169.529 363.204 169.518C363.193 169.507 363.184 169.493 363.179 169.478C363.174 169.463 363.172 169.447 363.174 169.431L362.941 166.101C362.694 166.02 362.43 166.005 362.176 166.058C361.922 166.111 361.686 166.23 361.494 166.404C361.346 166.539 361.231 166.705 361.156 166.891C361.081 167.076 361.049 167.276 361.062 167.475L361.225 169.641C361.236 169.671 361.236 169.704 361.225 169.734L359.591 171.597C359.574 171.609 359.554 171.615 359.533 171.615C359.512 171.615 359.492 171.609 359.475 171.597C359.145 171.483 358.79 171.458 358.447 171.527C358.018 171.614 357.617 171.806 357.28 172.086V172.086C357.018 172.265 356.745 172.428 356.463 172.575L355.46 173.158C354.433 173.321 340.019 175.091 339.879 175.114C339.196 175.216 338.547 175.481 337.989 175.886C337.43 176.292 336.978 176.826 336.67 177.443C335.666 179.772 330.344 185.175 325.407 190.007C325.386 190.028 325.356 190.04 325.326 190.04C325.295 190.04 325.266 190.028 325.244 190.007C325.223 189.985 325.211 189.956 325.211 189.926C325.211 189.895 325.223 189.866 325.244 189.844C330.157 185.012 335.456 179.702 336.436 177.35C336.76 176.691 337.238 176.12 337.829 175.685C338.42 175.249 339.107 174.961 339.832 174.846C339.973 174.846 354.199 173.053 355.39 172.89L356.37 172.308C356.647 172.166 356.912 172.002 357.164 171.819V171.819C357.522 171.521 357.946 171.314 358.401 171.213C358.759 171.144 359.129 171.168 359.475 171.283L361.015 169.513L360.852 167.394C360.845 166.927 361.021 166.476 361.342 166.136C361.578 165.926 361.866 165.785 362.177 165.727C362.488 165.67 362.809 165.698 363.104 165.81C363.104 165.81 363.174 165.81 363.174 165.903L363.408 169.21C363.576 169.227 363.735 169.297 363.861 169.41C363.987 169.523 364.074 169.673 364.108 169.839C364.143 170.015 364.119 170.197 364.039 170.358C363.958 170.518 363.827 170.647 363.664 170.724L362.684 171.702L361.914 173.379C361.716 173.793 361.408 174.145 361.023 174.396C360.638 174.646 360.191 174.786 359.731 174.799H358.051L356.533 175.638C355.016 175.917 347.955 177.583 345.901 178.118C345.529 178.249 345.176 178.43 344.851 178.654C343.923 179.31 343.19 180.203 342.727 181.239C337.961 188.896 332.772 196.283 327.181 203.363C327.182 203.383 327.178 203.404 327.17 203.422C327.161 203.44 327.148 203.456 327.132 203.469C327.116 203.481 327.098 203.49 327.078 203.494C327.058 203.498 327.037 203.497 327.018 203.491V203.491Z" fill="#F38484"/>
<path d="M324.264 189.867C325.431 188.819 326.691 187.702 327.905 186.525C329.119 185.349 330.134 184.406 331.185 183.358C331.938 183.835 332.663 184.356 333.355 184.919C335.072 186.307 336.588 187.925 337.86 189.728C336.623 191.498 335.386 193.291 334.125 195.061C331.511 198.775 328.897 202.432 326.271 205.995C325.594 200.638 324.917 195.247 324.264 189.867Z" fill="#5067BC"/>
<path d="M295.857 402.611C295.519 403.682 295.857 407.583 294.842 410.378C294.982 411.542 302.066 414.22 302.859 414.244C303.116 414.244 311.297 416.153 313.608 411.612C314.612 409.609 315.195 408.398 315.055 407.49C312.581 406.325 311.834 403.17 311.718 402.168C311.565 400.932 311.487 399.688 311.484 398.442C311.114 396.676 310.12 395.101 308.683 394.006C305.544 391.863 300.969 393.097 298.424 395.647C297.554 396.58 296.879 397.675 296.438 398.871C295.997 400.067 295.8 401.338 295.857 402.611V402.611Z" fill="#F7B2B2"/>
<path fill-rule="evenodd" clip-rule="evenodd" d="M294.842 375.91C295.015 379.628 294.484 383.346 293.278 386.868C292.75 388.102 292.502 389.439 292.554 390.78C292.655 392.393 293.152 393.957 294.001 395.333C293.426 396.239 293.074 397.269 292.974 398.337C292.922 399.383 293.088 400.428 293.461 401.406C293.835 402.384 294.408 403.274 295.145 404.02C295.979 401.465 296.569 398.837 296.907 396.171C297.77 389.349 297.064 382.42 294.842 375.91V375.91Z" fill="#027BC6"/>
<path fill-rule="evenodd" clip-rule="evenodd" d="M301.856 316.71C301.045 317.266 300.368 317.994 299.871 318.841C299.375 319.689 299.072 320.635 298.985 321.612C298.964 322.27 299.067 322.925 299.288 323.545C297.351 325.408 298.634 327.784 298.424 330.217C299.573 328.439 300.461 326.506 301.062 324.477C301.86 321.97 302.131 319.326 301.856 316.71V316.71Z" fill="#027BC6"/>
<path fill-rule="evenodd" clip-rule="evenodd" d="M307.049 308.931C305.785 309.924 304.68 311.102 303.77 312.425C302.736 313.996 301.949 315.716 301.435 317.525C300.254 321.264 299.319 325.076 298.635 328.937C298.261 330.916 297.864 333.035 297.467 335.667C295.659 347.789 295.133 361.716 295.133 361.716C294.456 379.473 294.9 396.649 295.133 404.043C297.387 404.234 299.655 404.156 301.891 403.81C305.419 403.271 308.818 402.086 311.916 400.317C311.916 397.988 312.103 394.634 312.383 390.547C313.125 381.02 314.45 371.547 316.351 362.181C318.907 348.371 321.124 336.878 322.875 327.97C323.738 323.545 324.579 319.144 325.442 314.707C325.609 313.607 325.55 312.484 325.269 311.407C324.989 310.331 324.492 309.322 323.808 308.442C320.856 304.914 313.678 304.518 307.049 308.931Z" fill="#027BC6"/>
<path fill-rule="evenodd" clip-rule="evenodd" d="M300.759 239.146C299.043 239.975 297.53 241.167 296.324 242.64C294.309 245.326 293.238 248.6 293.278 251.955C292.928 260.537 294.725 268.444 296.324 276.839C296.721 279.005 297.748 285.328 299.825 298.009C300.619 302.923 301.272 306.952 301.692 309.653C301.828 310.657 301.906 311.668 301.926 312.681C302.039 314.417 301.89 316.16 301.482 317.851C301.669 321.193 305.474 322.8 306.337 323.382C307.893 324.334 309.632 324.951 311.441 325.191C313.25 325.432 315.09 325.292 316.841 324.779C318.548 324.165 320.111 323.209 321.434 321.969C322.757 320.73 323.811 319.233 324.532 317.572C325.629 315.313 325.699 313.659 326.166 307.813C327.123 295.005 326.96 299.232 327.1 295.936C327.707 280.484 327.987 272.74 327.8 269.666C327.216 260.595 326.796 254.89 323.132 248.497C321.241 245.213 318.58 240.707 313.106 238.727C309.076 237.365 304.687 237.514 300.759 239.146V239.146Z" fill="#027BC6"/>
<path d="M307.283 308.629C308.216 313.892 309.757 316.57 307.773 323.848C304.026 342.479 301.436 362.414 301.937 403.81C305.466 403.271 308.864 402.086 311.963 400.317C311.963 397.988 312.149 394.634 312.429 390.547C313.171 381.02 314.496 371.547 316.398 362.181C318.953 348.371 321.171 336.878 322.921 327.97C323.785 323.545 324.625 319.144 325.489 314.707C325.656 313.607 325.597 312.484 325.316 311.408C325.035 310.331 324.538 309.322 323.855 308.442C320.856 304.914 313.912 304.239 307.283 308.629Z" fill="#828282" fill-opacity="0.3"/>
<path d="M288.866 234.931C285.474 240.515 284.386 247.194 285.832 253.562C286.275 255.402 287.979 262.226 294.001 266.127C301.004 270.691 311.507 269.527 319.875 263.087C321.081 261.701 322.173 260.222 323.143 258.662C326.818 252.562 328.665 245.539 328.465 238.424C327.835 236.957 324.03 228.585 314.939 225.616C305.847 222.646 295.332 226.373 288.866 234.931Z" fill="#828282" fill-opacity="0.3"/>
<path d="M300.759 239.146C299.043 239.975 297.53 241.167 296.324 242.64C294.309 245.326 293.238 248.6 293.278 251.955C292.927 260.537 296.394 278.423 297.946 286.819C300.584 288.752 302.988 294.015 304.085 296.984C306.217 303.286 307.646 309.804 308.345 316.419C308.551 318.704 308.321 321.008 307.668 323.207C310.095 325.024 316.514 324.861 316.818 324.768C318.525 324.154 320.088 323.198 321.411 321.958C322.733 320.718 323.788 319.222 324.509 317.56C325.606 315.301 325.676 313.647 326.143 307.802C327.1 294.993 326.936 299.22 327.076 295.925C327.683 280.472 327.963 272.729 327.777 269.655C327.193 260.584 326.773 254.878 323.108 248.485C321.218 245.202 318.557 240.695 313.083 238.716C309.058 237.369 304.68 237.522 300.759 239.146V239.146Z" fill="#828282" fill-opacity="0.3"/>
<path d="M314.075 317.432C314.045 317.429 314.017 317.416 313.995 317.395C313.974 317.374 313.961 317.346 313.958 317.316C314.262 314.241 314.425 311.121 314.425 308C314.429 303.566 314.117 299.138 313.492 294.749C313.493 294.719 313.502 294.69 313.519 294.666C313.535 294.641 313.558 294.622 313.585 294.609C313.614 294.61 313.643 294.62 313.668 294.636C313.693 294.652 313.712 294.675 313.725 294.702C314.35 299.099 314.662 303.535 314.659 307.977C314.659 311.074 314.495 314.195 314.192 317.292C314.168 317.409 314.122 317.432 314.075 317.432Z" fill="#828282" fill-opacity="0.3"/>
<path d="M304.493 400.713C304.478 400.715 304.461 400.713 304.446 400.708C304.431 400.702 304.418 400.694 304.407 400.683C304.395 400.672 304.387 400.658 304.382 400.643C304.376 400.628 304.375 400.612 304.376 400.596C303.906 387.59 304.77 374.57 306.956 361.739C307.773 356.906 308.8 352.062 309.99 347.3C309.998 347.27 310.017 347.244 310.043 347.227C310.069 347.21 310.1 347.203 310.13 347.207C310.16 347.215 310.186 347.233 310.203 347.259C310.22 347.285 310.227 347.316 310.224 347.346C309.057 352.109 308.006 356.953 307.189 361.762C305.014 374.579 304.15 387.582 304.61 400.573C304.616 400.59 304.618 400.609 304.615 400.627C304.612 400.645 304.604 400.662 304.592 400.677C304.58 400.691 304.565 400.702 304.548 400.708C304.53 400.714 304.512 400.716 304.493 400.713V400.713Z" fill="#828282" fill-opacity="0.3"/>
<path d="M279.401 344.389C277.804 345.106 276.138 345.66 274.429 346.042C269.236 345.413 268.022 348.953 267.789 350.805C266.972 357.582 270.263 369.098 277.744 363.928C280.329 361.875 283.059 360.011 285.913 358.35C293.92 353.704 286.345 341.571 279.401 344.389Z" fill="#F7B2B2"/>
<path d="M269.049 254.727C270.838 253.65 272.707 252.712 274.639 251.92C285.143 247.728 295.145 249.172 300.735 250.523C304.611 239.61 306.657 228.134 306.793 216.556C306.848 195.979 301.027 175.811 290.01 158.416C293.628 181.216 289.24 195.759 284.42 204.924C279.378 214.484 271.243 223.135 269.049 238.89C268.323 244.144 268.323 249.473 269.049 254.727Z" fill="#262F69"/>
<path fill-rule="evenodd" clip-rule="evenodd" d="M301.832 151.767C303.746 153.141 306.291 155.085 309.15 157.507C312.482 160.272 315.603 163.28 318.487 166.509C320.839 169.15 323.014 171.943 324.999 174.869C325.616 175.831 326.088 176.879 326.399 177.978C327.025 180.533 326.968 183.207 326.236 185.733C325.676 188.121 325.209 188.284 324.999 190.24C324.843 191.799 324.946 193.372 325.302 194.898C326.469 199.893 326.913 205.04 328.407 209.942C329.901 214.845 330.542 224.323 328.593 239.053C326.609 238.751 293.581 236.165 287.501 237.353C287.874 235.443 294.503 222.809 295.157 220.806C295.542 219.703 295.732 218.54 295.717 217.371C295.717 213.389 292.682 208.056 291.585 206.065C288.927 201.096 286.844 195.842 285.377 190.403C280.86 173.612 281.117 150.486 289.578 147.319C291.644 146.434 295.308 146.434 301.832 151.767Z" fill="#FFF9B0"/>
<path d="M300.082 237.097C295.885 236.846 291.674 236.924 287.489 237.33C287.862 235.42 294.491 222.786 295.145 220.783C295.538 219.661 295.727 218.478 295.705 217.29C295.705 213.307 292.671 207.974 291.574 205.983C288.915 201.014 286.832 195.76 285.365 190.321C280.848 173.53 278.958 152.547 287.419 149.356C292.647 154.678 299.381 161.292 302.322 177.734C306.057 199.8 306.594 222.204 300.082 237.097Z" fill="#F9C973"/>
<path d="M302.089 176.627C302.371 178.335 302.964 179.977 303.84 181.472C304.606 182.884 305.669 184.115 306.956 185.081C309.24 186.602 312.021 187.193 314.728 186.735C313.494 188.172 312.064 189.43 310.48 190.473C308.346 191.887 305.974 192.904 303.478 193.477C302.381 189.222 301.856 184.84 301.914 180.447C301.902 179.119 301.996 177.873 302.089 176.627Z" fill="#F9C973"/>
<path d="M326.294 177.676C326.411 178.63 326.372 179.598 326.178 180.54C325.894 182.1 325.155 183.542 324.053 184.685C323.491 185.241 322.846 185.704 322.14 186.06C322.044 186.108 321.962 186.177 321.897 186.262C321.833 186.347 321.789 186.445 321.769 186.55C321.749 186.654 321.753 186.762 321.78 186.865C321.808 186.967 321.859 187.062 321.929 187.142C322.248 187.479 322.6 187.783 322.98 188.051C323.654 188.497 324.406 188.813 325.197 188.982C325.337 188.633 325.501 188.144 325.711 187.538C325.827 187.189 326.178 186.106 326.411 185.209C326.789 183.782 326.947 182.306 326.878 180.831C326.826 179.758 326.63 178.697 326.294 177.676V177.676Z" fill="#F9C973"/>
<path d="M321.789 186.735C322.653 187.282 324.497 188.493 325.291 188.866C325.177 189.31 325.091 189.761 325.034 190.217C324.878 191.775 324.981 193.349 325.337 194.874C326.505 199.87 326.948 205.017 328.442 209.919C325.804 203.293 321.603 187.282 321.789 186.735Z" fill="#F9C973"/>
<path d="M328.617 239.053L320.366 238.424C313.865 237.912 312.511 237.819 310.294 237.679C306.454 237.423 303.91 237.26 300.385 237.167C295.355 237.027 292.484 237.167 290.337 237.26C289.403 237.306 288.469 237.376 287.536 237.47C287.52 237.471 287.504 237.47 287.489 237.464C287.474 237.459 287.46 237.451 287.449 237.44C287.438 237.428 287.429 237.415 287.424 237.4C287.419 237.385 287.417 237.369 287.419 237.353C287.417 237.337 287.419 237.321 287.424 237.306C287.429 237.291 287.438 237.278 287.449 237.267C287.46 237.255 287.474 237.247 287.489 237.242C287.504 237.236 287.52 237.235 287.536 237.237L290.337 237.027C292.484 236.887 295.379 236.794 300.409 236.934C303.91 237.027 306.477 237.19 310.317 237.446C312.535 237.586 313.888 237.702 320.389 238.191L328.559 238.82C328.589 238.823 328.617 238.836 328.638 238.857C328.659 238.879 328.673 238.907 328.675 238.937C328.68 238.96 328.677 238.984 328.666 239.005C328.656 239.026 328.638 239.043 328.617 239.053V239.053Z" fill="#F9C973"/>
<path d="M302.089 151.371C303.373 152.279 304.727 153.327 306.081 154.48C307.876 155.983 309.587 157.585 311.204 159.277C309.78 158.206 308.193 157.112 306.454 156.017C304.913 155.062 303.443 154.2 302.019 153.444C302.089 152.768 302.089 152.07 302.089 151.371Z" fill="#35489E"/>
<path fill-rule="evenodd" clip-rule="evenodd" d="M292.227 418.529C291.894 419.088 291.642 419.692 291.48 420.322C291.308 420.928 291.222 421.555 291.223 422.185C291.174 423.209 291.475 424.219 292.077 425.048C292.68 425.878 293.548 426.478 294.538 426.75C296.44 427.483 334.219 427.646 338.957 425.981C340.323 425.725 341.957 424.398 341.957 422.954C341.854 422.094 341.65 421.25 341.35 420.439L292.227 418.529Z" fill="#BF2652"/>
<path fill-rule="evenodd" clip-rule="evenodd" d="M313.842 409.597C313.508 409.179 313.025 408.906 312.493 408.836C311.962 408.767 311.424 408.906 310.994 409.225C307.726 411.158 307.143 411.67 304.983 412.066C303.43 412.307 301.844 412.243 300.315 411.88C298.243 411.467 296.265 410.677 294.48 409.551C293.811 410.506 293.277 411.548 292.892 412.648C292.021 415.048 291.587 417.583 291.609 420.135C296.755 421.469 302 422.388 307.294 422.883C326.119 423.955 331.546 423.303 334.907 422.883C337.197 422.57 339.468 422.135 341.711 421.579C341.731 420.828 341.562 420.084 341.221 419.413C340.8 418.633 340.175 417.981 339.412 417.527C338.245 416.782 335.491 416.572 333.577 416.211C325.921 417.201 314.775 410.762 313.842 409.597Z" fill="#F95070"/>
<path fill-rule="evenodd" clip-rule="evenodd" d="M333.6 416.188C331.659 415.857 329.755 415.334 327.917 414.628C325.68 413.779 323.556 412.66 321.591 411.297C319.128 409.578 316.944 407.493 315.114 405.114C314.626 405.455 314.227 405.906 313.947 406.43C313.72 406.944 313.602 407.499 313.602 408.06C313.602 408.622 313.72 409.177 313.947 409.691C315.512 411.221 317.237 412.58 319.093 413.743C321.219 415.077 323.49 416.167 325.863 416.992C328.247 417.805 330.719 418.336 333.227 418.575C333.285 417.748 333.402 416.968 333.6 416.188Z" fill="#BF2652"/>
<path fill-rule="evenodd" clip-rule="evenodd" d="M333.519 416.165C333.332 416.875 333.169 417.621 333.028 418.412C332.764 419.99 332.647 421.588 332.678 423.187C334.553 423.03 336.416 422.758 338.257 422.371C339.424 422.115 340.591 421.836 341.758 421.533C341.791 421.103 341.752 420.67 341.642 420.252C341.501 419.949 341.455 416.969 335.538 416.456L333.519 416.165Z" fill="#FC6C85"/>
<path d="M329.671 419.348C329.747 418.97 329.317 418.565 328.71 418.443C328.104 418.321 327.55 418.529 327.474 418.908C327.398 419.286 327.828 419.691 328.434 419.813C329.041 419.935 329.595 419.727 329.671 419.348Z" fill="white"/>
<path d="M324.755 418.116C324.885 417.752 324.519 417.289 323.937 417.08C323.354 416.872 322.776 416.997 322.646 417.36C322.515 417.724 322.881 418.187 323.464 418.396C324.046 418.604 324.624 418.479 324.755 418.116Z" fill="white"/>
<path d="M319.882 416.078C320.013 415.715 319.646 415.251 319.064 415.043C318.482 414.834 317.904 414.96 317.773 415.323C317.642 415.686 318.009 416.149 318.591 416.358C319.173 416.567 319.752 416.441 319.882 416.078Z" fill="white"/>
<path d="M315.303 413.185C315.509 412.843 315.245 412.308 314.715 411.99C314.185 411.672 313.588 411.692 313.382 412.033C313.176 412.375 313.439 412.91 313.97 413.228C314.5 413.546 315.097 413.526 315.303 413.185Z" fill="white"/>
<path fill-rule="evenodd" clip-rule="evenodd" d="M328.78 419.344C328.75 419.336 328.725 419.317 328.707 419.292C328.69 419.266 328.683 419.235 328.687 419.204C328.896 418.321 329.177 417.457 329.527 416.619C329.714 416.188 329.924 415.746 330.134 415.327C330.157 415.308 330.186 415.297 330.216 415.297C330.246 415.297 330.275 415.308 330.298 415.327C330.316 415.35 330.327 415.378 330.327 415.408C330.327 415.438 330.316 415.467 330.298 415.49C330.087 415.886 329.877 416.34 329.691 416.759C329.338 417.577 329.064 418.427 328.874 419.297C328.849 419.323 328.816 419.34 328.78 419.344V419.344Z" fill="white"/>
<path fill-rule="evenodd" clip-rule="evenodd" d="M323.797 417.667C323.782 417.663 323.769 417.656 323.758 417.647C323.746 417.638 323.737 417.626 323.731 417.613C323.724 417.6 323.72 417.585 323.719 417.57C323.719 417.556 323.721 417.541 323.727 417.527C324.224 416.156 324.907 414.859 325.758 413.673C325.779 413.652 325.809 413.64 325.839 413.64C325.87 413.64 325.899 413.652 325.921 413.673C325.942 413.695 325.954 413.724 325.954 413.754C325.954 413.785 325.942 413.814 325.921 413.836C325.095 415 324.421 416.264 323.913 417.597C323.905 417.621 323.889 417.641 323.868 417.653C323.847 417.666 323.821 417.671 323.797 417.667V417.667Z" fill="white"/>
<path fill-rule="evenodd" clip-rule="evenodd" d="M318.919 415.932C318.9 415.909 318.889 415.88 318.889 415.851C318.889 415.821 318.9 415.792 318.919 415.769C319.415 414.861 319.977 413.989 320.599 413.161C321.019 412.602 321.463 412.066 321.93 411.554C321.951 411.532 321.981 411.521 322.011 411.521C322.042 411.521 322.071 411.532 322.093 411.554C322.114 411.576 322.126 411.605 322.126 411.635C322.126 411.666 322.114 411.695 322.093 411.717C321.626 412.229 321.183 412.765 320.762 413.3C320.149 414.126 319.587 414.99 319.082 415.886C319.082 415.886 318.965 415.932 318.919 415.932Z" fill="white"/>
<path fill-rule="evenodd" clip-rule="evenodd" d="M314.472 412.811C314.461 412.816 314.449 412.819 314.437 412.819C314.425 412.819 314.413 412.816 314.402 412.811C314.381 412.79 314.368 412.76 314.368 412.73C314.368 412.699 314.381 412.67 314.402 412.648C314.931 411.827 315.524 411.048 316.176 410.319C316.776 409.656 317.428 409.041 318.125 408.48C318.147 408.458 318.176 408.446 318.207 408.446C318.237 408.446 318.266 408.458 318.288 408.48C318.31 408.501 318.322 408.531 318.322 408.561C318.322 408.592 318.31 408.621 318.288 408.643C317.599 409.196 316.955 409.804 316.363 410.459C315.728 411.171 315.143 411.926 314.612 412.718C314.609 412.734 314.603 412.748 314.595 412.761C314.586 412.775 314.575 412.786 314.562 412.794C314.549 412.803 314.534 412.809 314.519 412.812C314.503 412.815 314.487 412.815 314.472 412.811V412.811Z" fill="white"/>
<path fill-rule="evenodd" clip-rule="evenodd" d="M315.499 411.368C315.488 411.373 315.476 411.376 315.464 411.376C315.452 411.376 315.44 411.373 315.429 411.368C313.753 410.262 311.789 409.671 309.78 409.668C309.264 409.691 308.749 409.746 308.24 409.831C307.355 410.045 306.424 409.963 305.59 409.598C305.003 409.319 304.495 408.898 304.112 408.373C303.728 407.849 303.483 407.237 303.396 406.593C303.392 405.972 303.554 405.36 303.866 404.822C304.178 404.283 304.628 403.838 305.17 403.531C305.774 403.246 306.434 403.098 307.102 403.098C307.77 403.098 308.429 403.246 309.033 403.531C310.569 404.156 311.891 405.211 312.838 406.57C314.002 407.964 314.932 409.537 315.592 411.228C315.603 411.25 315.609 411.274 315.609 411.298C315.609 411.322 315.603 411.346 315.592 411.368H315.499ZM310.06 409.411C311.905 409.453 313.704 409.992 315.265 410.972C314.627 409.439 313.761 408.01 312.698 406.733C311.783 405.408 310.502 404.376 309.01 403.764C308.436 403.491 307.808 403.349 307.172 403.349C306.536 403.349 305.908 403.491 305.334 403.764C304.83 404.051 304.411 404.467 304.12 404.968C303.829 405.469 303.676 406.038 303.676 406.617C303.745 407.221 303.971 407.796 304.331 408.286C304.692 408.776 305.174 409.164 305.73 409.411C306.525 409.744 307.408 409.802 308.24 409.574C308.757 409.482 309.279 409.42 309.803 409.388C309.89 409.383 309.976 409.391 310.06 409.411V409.411Z" fill="white"/>
<path fill-rule="evenodd" clip-rule="evenodd" d="M315.429 411.367H315.335C314.168 409.9 312.931 408.41 311.741 406.896C310.2 404.928 309.57 404.066 309.57 402.832C309.57 402.26 309.695 401.694 309.937 401.175C310.179 400.656 310.532 400.196 310.971 399.828C311.496 399.474 312.098 399.25 312.726 399.173C313.355 399.096 313.993 399.169 314.588 399.385C315.565 399.733 316.39 400.408 316.923 401.295C318.428 403.624 317.6 406.5 317.203 407.874C316.848 409.118 316.297 410.297 315.569 411.367C315.569 411.367 315.569 411.367 315.475 411.437L315.429 411.367ZM313.095 399.339C312.375 399.323 311.669 399.544 311.087 399.968C310.674 400.311 310.342 400.742 310.116 401.23C309.89 401.717 309.775 402.249 309.78 402.786C309.78 403.95 310.317 404.672 311.904 406.686C313.071 408.154 314.238 409.621 315.406 411.041C316.08 410.032 316.591 408.924 316.923 407.758C317.319 406.407 318.09 403.601 316.666 401.365C316.167 400.534 315.402 399.894 314.495 399.548C314.048 399.416 313.584 399.346 313.118 399.339H313.095Z" fill="white"/>
<path fill-rule="evenodd" clip-rule="evenodd" d="M315.429 411.437C315.413 411.439 315.397 411.438 315.382 411.432C315.367 411.427 315.353 411.419 315.342 411.407C315.331 411.396 315.322 411.383 315.317 411.368C315.312 411.353 315.31 411.337 315.312 411.321C315.153 409.746 315.436 408.157 316.129 406.733C318.195 402.739 323.377 401.295 326.925 402.436C327.822 402.719 328.658 403.17 329.387 403.764C329.409 403.786 329.42 403.815 329.42 403.845C329.42 403.876 329.409 403.905 329.387 403.927C329.365 403.948 329.336 403.96 329.305 403.96C329.275 403.96 329.246 403.948 329.224 403.927C328.525 403.37 327.735 402.936 326.89 402.646C324.922 402.078 322.821 402.181 320.919 402.938C319.016 403.695 317.421 405.063 316.386 406.826C315.693 408.2 315.417 409.746 315.592 411.274C315.591 411.307 315.578 411.339 315.557 411.364C315.536 411.389 315.507 411.407 315.475 411.414L315.429 411.437Z" fill="white"/>
<path fill-rule="evenodd" clip-rule="evenodd" d="M315.452 411.298C315.428 411.298 315.404 411.292 315.384 411.279C315.363 411.267 315.346 411.249 315.335 411.228C314.842 409.728 314.659 408.143 314.799 406.57C315.335 401.249 319.549 398.081 320.832 397.255C320.854 397.233 320.883 397.221 320.914 397.221C320.945 397.221 320.974 397.233 320.996 397.255C321.017 397.276 321.029 397.305 321.029 397.336C321.029 397.366 321.017 397.396 320.996 397.417C319.735 398.256 315.592 401.377 315.055 406.582C314.895 408.153 315.07 409.74 315.569 411.239C315.577 411.267 315.574 411.297 315.561 411.323C315.548 411.349 315.526 411.369 315.499 411.379L315.452 411.298Z" fill="white"/>
<path d="M291.014 135.546C291.008 136.717 290.906 137.885 290.71 139.04C290.061 142.68 288.513 146.102 286.205 148.996C287.568 150.329 289.001 151.589 290.5 152.768C292.685 154.386 295.095 155.677 297.654 156.599C300.245 157.275 302.159 156.692 302.463 155.318C302.391 154.408 302.391 153.493 302.463 152.582C302.463 151.697 303.63 147.132 306.034 145.456C313.702 138.62 294.748 128.99 293.044 128.594C291.971 129.619 291.177 131.482 291.014 135.546Z" fill="#F38484"/>
<path d="M293.184 138.574C294.165 141.205 298.168 145.502 304.027 147.889C304.488 146.951 305.159 146.13 305.987 145.49C313.655 138.655 293.955 127.721 292.251 127.325C291.723 131.097 292.042 134.94 293.184 138.574V138.574Z" fill="#828282" fill-opacity="0.3"/>
<path fill-rule="evenodd" clip-rule="evenodd" d="M359.988 170.468L354.923 169.303L364.621 133.287C364.79 132.652 365.083 132.056 365.484 131.535C365.885 131.013 366.385 130.576 366.955 130.248L370.737 128.152C367.15 142.265 363.567 156.37 359.988 170.468Z" fill="#A2E9FC"/>
<path fill-rule="evenodd" clip-rule="evenodd" d="M318.942 175.242L326.131 172.843C326.312 172.782 326.5 172.743 326.691 172.727L354.923 169.35L359.078 170.212L318.942 175.242Z" fill="#A2E9FC"/>
<path fill-rule="evenodd" clip-rule="evenodd" d="M359.031 170.211L319.105 175.219C318.948 175.236 318.796 175.284 318.658 175.362C318.521 175.439 318.4 175.543 318.304 175.669C318.208 175.794 318.139 175.937 318.1 176.09C318.061 176.243 318.053 176.402 318.078 176.558C318.095 176.713 318.144 176.864 318.22 177C318.297 177.137 318.401 177.256 318.525 177.352C318.649 177.448 318.791 177.517 318.943 177.557C319.095 177.597 319.253 177.605 319.408 177.582L359.334 172.564C359.49 172.547 359.641 172.498 359.778 172.422C359.915 172.345 360.035 172.242 360.131 172.118C360.227 171.994 360.296 171.852 360.336 171.7C360.376 171.549 360.384 171.391 360.361 171.236C360.344 171.081 360.296 170.93 360.219 170.793C360.142 170.657 360.039 170.537 359.914 170.442C359.79 170.346 359.648 170.276 359.496 170.237C359.344 170.197 359.186 170.189 359.031 170.211Z" fill="#0A9CE5"/>
<path fill-rule="evenodd" clip-rule="evenodd" d="M369.78 129.107L359.544 169.303C359.499 169.456 359.486 169.617 359.505 169.775C359.524 169.934 359.576 170.086 359.657 170.224C359.738 170.361 359.847 170.481 359.976 170.575C360.105 170.669 360.252 170.736 360.408 170.77V170.77C360.719 170.849 361.048 170.803 361.326 170.642C361.603 170.48 361.805 170.217 361.89 169.909L372.114 129.712C372.159 129.559 372.173 129.399 372.154 129.24C372.134 129.082 372.082 128.929 372.001 128.792C371.92 128.654 371.812 128.535 371.683 128.44C371.554 128.346 371.406 128.28 371.25 128.245V128.245C371.097 128.2 370.936 128.186 370.777 128.206C370.618 128.225 370.465 128.277 370.328 128.357C370.19 128.438 370.07 128.546 369.976 128.675C369.881 128.804 369.815 128.951 369.78 129.107Z" fill="#0A9CE5"/>
<path d="M310.457 141.252C310.677 141.612 310.952 141.934 311.274 142.207C311.723 142.58 312.249 142.85 312.815 142.999C312.815 143.115 312.651 143.849 312.558 144.338C312.094 144.164 311.672 143.894 311.321 143.546C310.815 142.882 310.514 142.084 310.457 141.252V141.252Z" fill="#F38484"/>
<path d="M287.396 112.024C287.101 111.573 286.711 111.19 286.254 110.902C285.796 110.615 285.282 110.43 284.746 110.359C284.059 110.317 283.371 110.421 282.727 110.664C282.084 110.907 281.499 111.283 281.012 111.768C279.732 112.743 278.382 113.622 276.974 114.4C274.919 115.564 264.427 121.037 253.188 118.126C243.093 115.494 235.075 106.726 232.041 95.6523C233.692 97.1796 235.575 98.4371 237.62 99.3785C239.497 100.236 241.491 100.813 243.537 101.09C241.94 99.4739 240.577 97.6437 239.487 95.6523C236.922 90.8063 235.943 85.2806 236.686 79.8508C237.71 83.2842 239.457 86.46 241.809 89.1664C244.959 92.7417 249.045 95.3707 253.609 96.7585C252.953 95.8577 252.427 94.8701 252.045 93.8241C251.569 92.4794 251.351 91.0573 251.403 89.6321C252.407 91.2698 253.672 92.733 255.149 93.9639C257.599 95.8982 260.476 97.2233 263.54 97.8298C266.374 98.5581 269.299 98.8718 272.224 98.7614C273.63 98.7231 275.037 98.7775 276.437 98.9244C279.742 99.0801 282.984 99.8916 285.972 101.311C289.112 102.817 291.818 105.093 293.838 107.926C291.901 109.171 289.403 110.767 287.396 112.024Z" fill="#353437"/>
<path fill-rule="evenodd" clip-rule="evenodd" d="M287.699 114.912C287.175 114.004 286.993 112.938 287.185 111.908C287.492 110.804 288.188 109.849 289.146 109.218C290.638 108.116 292.477 107.587 294.328 107.727C294.74 107.792 295.136 107.935 295.495 108.147C295.818 108.338 296.1 108.591 296.324 108.892C294.937 109.323 293.614 109.938 292.391 110.72C290.598 111.84 289.012 113.258 287.699 114.912V114.912Z" fill="#FFF9B0"/>
<path d="M316.899 120.548C317.214 119.369 317.246 118.132 316.993 116.938C316.487 114.956 315.318 113.206 313.678 111.978C311.659 110.373 309.323 109.211 306.824 108.567C304.324 107.923 301.717 107.812 299.171 108.24C295.272 108.788 291.664 110.61 288.913 113.422C287.204 115.151 285.96 117.281 285.295 119.616C285.155 120.152 283.463 127.768 287.886 132.751C289.38 135.08 288.609 136.338 290.85 138.131C291.247 137.502 293.324 136.035 293.091 131.226C294.865 130.457 296.114 128.641 297.911 127.896C304.423 125.217 310.714 122.795 316.899 120.548Z" fill="#353437"/>
<path d="M316.293 117.963C316.783 120.036 317.133 121.84 317.39 123.238C317.938 126.149 317.961 127.104 317.705 128.198C317.447 129.191 316.999 130.124 316.386 130.946C316.254 131.106 316.167 131.299 316.134 131.503C316.101 131.708 316.124 131.918 316.199 132.111L317.366 135.709C317.436 135.938 317.417 136.184 317.313 136.4C317.21 136.616 317.029 136.785 316.806 136.873L315.172 137.479C315.032 137.991 315.032 138.038 314.892 138.55C315.172 139.924 314.379 140.274 314.379 140.274C314.21 140.361 314.078 140.504 314.006 140.679C313.933 140.854 313.925 141.048 313.982 141.228C314.122 141.624 313.818 142.207 313.141 142.626C312.992 142.704 312.87 142.826 312.791 142.975C312.679 143.415 312.601 143.862 312.558 144.314C312.478 144.786 312.369 145.253 312.231 145.712C311.858 147.458 309.827 147.062 309.64 147.062C305.287 146.247 299.008 141.159 299.008 141.159C299.008 141.159 296.044 138.69 295.857 136.757C295.705 135.453 295.565 134.149 295.449 132.844C294.811 132.824 294.198 132.599 293.698 132.204C292.942 131.539 292.459 130.618 292.344 129.619C291.926 128.04 291.799 126.399 291.971 124.775C292.181 123.494 294.515 121.934 296.487 125.078C297.359 124.486 298.3 124.001 299.288 123.634C301.622 122.725 302.789 123.075 306.291 122.609C309.267 122.213 311.134 121.957 313.141 120.734C314.357 120.017 315.427 119.077 316.293 117.963V117.963Z" fill="#F7B2B2"/>
<path d="M311.712 129.066C311.823 128.458 311.533 127.897 311.063 127.811C310.594 127.726 310.124 128.149 310.013 128.756C309.901 129.363 310.192 129.925 310.661 130.011C311.13 130.096 311.601 129.673 311.712 129.066Z" fill="#353437"/>
<path d="M316.857 130.846C317.035 130.363 316.935 129.882 316.632 129.771C316.33 129.659 315.94 129.96 315.762 130.443C315.584 130.926 315.684 131.408 315.987 131.519C316.289 131.63 316.679 131.329 316.857 130.846Z" fill="#353437"/>
<path d="M312.114 129.41C312.057 129.407 312.002 129.385 311.96 129.347C311.917 129.309 311.889 129.257 311.881 129.2C311.853 128.935 311.747 128.684 311.578 128.478C311.274 128.105 310.854 128.082 310.2 128.059C309.619 128.036 309.04 128.131 308.496 128.338C308.437 128.358 308.373 128.354 308.317 128.328C308.261 128.302 308.216 128.256 308.193 128.199C308.174 128.14 308.177 128.076 308.203 128.02C308.229 127.963 308.276 127.919 308.333 127.896C308.935 127.662 309.578 127.551 310.224 127.57C310.539 127.532 310.858 127.567 311.158 127.672C311.457 127.777 311.728 127.949 311.951 128.175C312.161 128.455 312.298 128.784 312.348 129.13C312.353 129.159 312.352 129.189 312.345 129.218C312.338 129.246 312.326 129.274 312.309 129.297C312.291 129.321 312.269 129.341 312.244 129.357C312.218 129.372 312.19 129.382 312.161 129.386L312.114 129.41Z" fill="#353437"/>
<path d="M312.745 126.778L312.441 126.382C312.304 126.202 312.127 126.057 311.925 125.956C311.723 125.855 311.5 125.801 311.274 125.8C310.712 125.776 310.149 125.807 309.593 125.893C308.989 125.969 308.389 126.077 307.796 126.219C307.762 126.234 307.723 126.236 307.688 126.223C307.653 126.209 307.625 126.183 307.609 126.149C307.594 126.115 307.593 126.076 307.606 126.041C307.619 126.006 307.645 125.978 307.679 125.963C308.253 125.591 308.863 125.279 309.5 125.031C310.243 124.738 311.035 124.588 311.834 124.589C312.086 124.588 312.332 124.663 312.541 124.804C312.749 124.946 312.909 125.146 313.001 125.38C313.046 125.485 313.078 125.594 313.095 125.707C313.173 126.003 313.196 126.31 313.165 126.615C313.159 126.66 313.141 126.704 313.112 126.74C313.084 126.776 313.046 126.804 313.003 126.821C312.96 126.837 312.913 126.842 312.868 126.835C312.822 126.827 312.78 126.807 312.745 126.778V126.778Z" fill="#353437"/>
<path d="M314.402 137.689C314.084 137.706 313.768 137.629 313.493 137.468C313.219 137.306 312.999 137.067 312.861 136.78C312.74 136.481 312.74 136.148 312.861 135.849C312.885 135.791 312.929 135.745 312.985 135.719C313.042 135.693 313.106 135.69 313.165 135.709C313.222 135.732 313.268 135.777 313.294 135.833C313.32 135.889 313.324 135.953 313.305 136.012C313.247 136.217 313.247 136.435 313.305 136.641C313.421 136.864 313.607 137.043 313.834 137.153C314.061 137.262 314.318 137.295 314.565 137.246C314.596 137.241 314.628 137.243 314.658 137.251C314.688 137.259 314.716 137.273 314.741 137.293C314.765 137.313 314.785 137.338 314.799 137.366C314.813 137.394 314.821 137.424 314.822 137.456C314.825 137.486 314.822 137.517 314.813 137.547C314.805 137.576 314.79 137.604 314.77 137.627C314.751 137.651 314.727 137.671 314.7 137.686C314.672 137.7 314.643 137.709 314.612 137.712C314.544 137.693 314.473 137.685 314.402 137.689Z" fill="#828282" fill-opacity="0.3"/>
<path d="M317.261 130.411C317.216 130.412 317.172 130.399 317.134 130.374C317.097 130.349 317.068 130.313 317.051 130.271C317.015 130.196 316.963 130.13 316.899 130.078C316.834 130.025 316.758 129.988 316.678 129.968C316.411 129.889 316.127 129.889 315.861 129.968C315.832 130 315.795 130.024 315.754 130.036C315.713 130.049 315.669 130.049 315.627 130.038C315.569 130.015 315.52 129.972 315.49 129.917C315.461 129.861 315.451 129.797 315.464 129.736C315.534 129.479 316.071 129.433 316.211 129.41C316.458 129.361 316.715 129.394 316.942 129.503C317.169 129.612 317.355 129.792 317.471 130.015C317.495 130.071 317.496 130.133 317.474 130.19C317.453 130.247 317.41 130.292 317.354 130.318C317.35 130.341 317.339 130.362 317.322 130.379C317.306 130.395 317.284 130.407 317.261 130.411V130.411Z" fill="#353437"/>
<path d="M316.409 127.337C316.367 127.386 316.339 127.446 316.33 127.51C316.321 127.574 316.33 127.64 316.357 127.699C316.384 127.758 316.428 127.808 316.483 127.842C316.537 127.877 316.601 127.896 316.666 127.896H316.899C317.203 127.915 317.501 127.995 317.775 128.129C317.987 127.866 318.095 127.534 318.078 127.197C318.078 126.952 318.014 126.711 317.891 126.498C317.602 126.558 317.323 126.66 317.063 126.801C316.821 126.949 316.601 127.129 316.409 127.337V127.337Z" fill="#353437"/>
<path d="M294.375 130.83C294.15 130.772 293.941 130.665 293.763 130.516C293.585 130.367 293.443 130.18 293.348 129.968C292.754 128.648 292.551 127.185 292.764 125.753C292.881 125.334 293.441 124.146 294.468 124.379C294.731 124.425 294.974 124.546 295.168 124.728C295.185 124.752 295.195 124.781 295.195 124.81C295.195 124.839 295.185 124.868 295.168 124.891C295.144 124.909 295.116 124.918 295.087 124.918C295.057 124.918 295.029 124.909 295.005 124.891C294.841 124.745 294.638 124.648 294.421 124.612C293.558 124.426 293.091 125.45 292.974 125.776C292.765 127.153 292.959 128.56 293.534 129.829C293.698 130.178 294.048 130.551 294.351 130.574C294.381 130.577 294.41 130.59 294.431 130.611C294.452 130.632 294.465 130.66 294.468 130.69C294.468 130.69 294.421 130.83 294.375 130.83Z" fill="#F38484"/>
<path d="M295.168 128.361C294.99 128.366 294.815 128.318 294.666 128.223C294.516 128.127 294.398 127.989 294.328 127.826C294.235 127.57 294.235 127.15 294.795 126.568C294.982 126.418 295.125 126.219 295.207 125.993C295.29 125.767 295.308 125.523 295.262 125.287C295.262 125.217 295.262 125.171 295.355 125.148C295.448 125.124 295.472 125.148 295.495 125.241C295.551 125.514 295.53 125.798 295.436 126.061C295.341 126.324 295.176 126.556 294.958 126.731C294.585 127.127 294.421 127.476 294.538 127.733C294.599 127.846 294.691 127.94 294.802 128.006C294.913 128.072 295.039 128.106 295.168 128.105C295.184 128.103 295.2 128.105 295.215 128.11C295.23 128.115 295.244 128.124 295.255 128.135C295.266 128.146 295.275 128.16 295.28 128.175C295.285 128.19 295.287 128.206 295.285 128.222C295.285 128.315 295.238 128.361 295.168 128.361Z" fill="#F38484"/>
<path d="M305.754 145.595C303.386 144.327 301.136 142.85 299.031 141.182C299.031 141.182 296.067 138.713 295.88 136.78C295.729 135.476 295.588 134.172 295.472 132.868C296.031 132.869 296.585 132.75 297.094 132.519C297.167 132.477 297.25 132.455 297.334 132.454C297.419 132.453 297.502 132.473 297.576 132.512C297.651 132.552 297.714 132.609 297.76 132.68C297.806 132.75 297.834 132.831 297.841 132.914C298.424 136.291 298.004 139.109 305.754 145.595Z" fill="#F38484"/>
<path d="M286.415 147.691C284.65 149.511 282.694 151.135 280.58 152.535C276.588 155.202 275.725 155.97 275.001 156.879C273.653 158.6 272.744 160.622 272.352 162.771C270.601 170.211 274.138 177.769 275.165 179.841C276.536 182.226 277.58 184.783 278.269 187.445C279.353 191.911 279.512 196.551 278.736 201.081C277.802 206.903 275.748 210.734 272.049 217.674C268.174 224.952 267.38 224.603 264.743 230.378C262.794 234.652 260.763 239.216 260.389 245.423C260.165 249.08 260.535 252.748 261.486 256.287C263.045 257.224 264.721 257.952 266.47 258.453C267.989 258.895 269.557 259.153 271.138 259.221C270.637 255.878 270.692 252.475 271.302 249.149C271.908 245.889 273.099 242.395 278.304 234.011C283.509 225.627 284.676 225.22 287.932 219.572C290.899 214.311 293.294 208.748 295.075 202.979C298.728 192.161 300.735 186.211 300.199 177.874C299.568 169.07 297.047 155.225 286.415 147.691Z" fill="#35489E"/>
<path d="M289.251 149.927C293.289 153.653 300.373 162.258 300.28 181.868C299.509 187.975 298.157 193.995 296.242 199.847C294.198 206.372 291.561 212.698 288.364 218.746C287.314 220.597 285.517 223.252 281.934 228.562C279.926 231.531 278.246 234 277.078 235.7C278.689 232.486 293.313 207.066 296.382 180.354C297.371 169.709 294.869 159.031 289.251 149.927V149.927Z" fill="#213B8E"/>
<path d="M271.103 259.152C271.077 259.147 271.053 259.137 271.033 259.12C271.012 259.104 270.996 259.083 270.986 259.058C270.784 257.95 270.651 256.83 270.59 255.705C270.505 252.999 270.82 250.296 271.523 247.682C272.165 245.31 273.053 243.011 274.172 240.823C275.718 237.73 277.481 234.749 279.448 231.904C280.241 230.739 280.708 230.006 281.292 229.167C281.875 228.329 282.716 227.118 284.256 224.835C286.018 222.204 286.905 220.9 287.536 219.875C289.252 216.97 290.758 213.947 292.041 210.827C293.371 207.695 294.678 204.062 295.927 200.056C298.541 191.614 299.848 187.375 300.105 181.937C300.276 177.706 299.915 173.469 299.031 169.327C298.258 165.013 296.763 160.86 294.608 157.042C293.667 155.396 292.582 153.837 291.364 152.384C289.952 150.662 288.355 149.1 286.602 147.726C286.581 147.704 286.569 147.675 286.569 147.645C286.569 147.614 286.581 147.585 286.602 147.563C286.624 147.542 286.653 147.53 286.684 147.53C286.714 147.53 286.744 147.542 286.765 147.563C288.533 148.937 290.145 150.499 291.574 152.221C292.799 153.674 293.892 155.233 294.842 156.879C297.004 160.721 298.507 164.896 299.288 169.233C300.176 173.391 300.544 177.643 300.385 181.891C300.128 187.352 298.798 191.591 296.184 200.056C294.935 204.062 293.628 207.695 292.297 210.851C291.021 213.988 289.515 217.027 287.792 219.945C287.185 220.969 286.298 222.274 284.513 224.905C282.996 227.234 282.179 228.329 281.549 229.237C280.918 230.145 280.498 230.762 279.704 231.973C277.725 234.803 275.961 237.776 274.429 240.87C273.294 243.059 272.394 245.362 271.745 247.74C271.043 250.331 270.728 253.011 270.811 255.693C270.86 256.804 270.993 257.909 271.208 259C271.208 259.117 271.208 259.163 271.091 259.186L271.103 259.152Z" fill="#828282" fill-opacity="0.3"/>
<path d="M338.269 150.346C338.112 150.352 337.958 150.311 337.825 150.23C337.681 150.127 337.574 149.979 337.522 149.81C337.514 149.783 337.517 149.753 337.53 149.727C337.543 149.701 337.565 149.681 337.592 149.671C337.62 149.663 337.649 149.666 337.675 149.679C337.701 149.692 337.721 149.714 337.732 149.741C337.768 149.861 337.841 149.967 337.942 150.043C338.12 150.139 338.329 150.164 338.525 150.113C338.969 150.043 339.436 149.95 339.891 149.834C339.961 149.834 340.007 149.834 340.031 149.927C340.054 150.02 340.031 150.043 339.938 150.067C339.459 150.183 338.992 150.276 338.549 150.346H338.269Z" fill="#F38484"/>
<path d="M329.971 157.042L331.931 156.948C332.158 156.928 332.387 156.969 332.592 157.067C332.798 157.165 332.973 157.318 333.098 157.507C333.238 157.776 333.278 158.085 333.209 158.38C333.141 158.674 332.969 158.935 332.725 159.114C332.398 159.231 332.071 159.347 331.745 159.487C331.711 159.267 331.64 159.054 331.534 158.858C331.297 158.471 330.997 158.124 330.647 157.833C330.484 157.647 330.251 157.391 329.971 157.042Z" fill="#F38484"/>
<path d="M307.073 178.887L310.224 161.21C310.305 160.734 310.486 160.28 310.756 159.879C311.025 159.478 311.377 159.138 311.788 158.882C315.686 156.553 319.572 154.131 323.458 151.72C323.912 151.444 324.423 151.277 324.952 151.231L327.45 150.998C333.285 150.439 334.721 150.253 336.261 149.974C337.055 149.834 338.199 149.601 339.611 149.252C339.731 149.22 339.86 149.233 339.971 149.289C340.083 149.344 340.171 149.439 340.218 149.554C340.354 149.845 340.387 150.174 340.311 150.486C340.031 151.557 338.269 151.953 337.405 152.139C334.861 152.698 331.663 153.49 327.66 154.527L331.289 158.555C331.551 158.859 331.685 159.251 331.663 159.65C331.611 160.013 331.429 160.344 331.149 160.582L330.169 161.21C330.058 161.427 329.933 161.637 329.796 161.839C329.469 162.305 328.885 163.167 328.08 163.283H327.403L326.236 164.261C325.953 164.368 325.648 164.4 325.349 164.354C324.993 164.282 324.667 164.104 324.415 163.842L322.245 162.026L319.187 164.448C318.914 164.619 318.614 164.745 318.3 164.82C318.071 164.843 317.84 164.843 317.611 164.82C317.524 164.814 317.436 164.825 317.353 164.855C317.27 164.884 317.194 164.931 317.131 164.991C317.067 165.051 317.017 165.124 316.983 165.205C316.949 165.286 316.932 165.373 316.934 165.461C316.934 167.114 316.934 168.791 316.934 170.468C316.934 174.31 317.051 178.165 317.144 181.937C315.754 181.935 314.369 181.779 313.013 181.472C310.966 181.023 308.999 180.27 307.178 179.236C307.189 179.189 307.143 179.038 307.073 178.887Z" fill="#F7B2B2"/>
<path d="M330.099 161.49C330.088 161.495 330.076 161.498 330.064 161.498C330.052 161.498 330.04 161.495 330.029 161.49C330.012 161.466 330.003 161.438 330.003 161.408C330.003 161.379 330.012 161.351 330.029 161.327C330.15 161.148 330.215 160.937 330.216 160.721C330.214 160.564 330.179 160.408 330.115 160.264C330.051 160.12 329.958 159.99 329.842 159.883L325.442 155.505C325.421 155.483 325.409 155.454 325.409 155.423C325.409 155.393 325.421 155.363 325.442 155.342C325.464 155.32 325.493 155.308 325.524 155.308C325.555 155.308 325.584 155.32 325.606 155.342L330.029 159.743C330.167 159.871 330.278 160.026 330.354 160.198C330.43 160.371 330.47 160.556 330.472 160.745C330.469 161.007 330.397 161.264 330.262 161.49H330.099Z" fill="#F38484"/>
<path d="M327.345 163.399C327.314 163.408 327.282 163.408 327.251 163.399C327.23 163.378 327.218 163.348 327.218 163.318C327.218 163.287 327.23 163.258 327.251 163.236C327.508 163.028 327.708 162.759 327.834 162.454C327.96 162.149 328.009 161.818 327.975 161.49C327.934 161.286 327.846 161.095 327.718 160.931L323.75 156.972C323.729 156.95 323.717 156.921 323.717 156.89C323.717 156.86 323.729 156.83 323.75 156.809C323.772 156.787 323.801 156.775 323.832 156.775C323.862 156.775 323.892 156.787 323.913 156.809L327.882 160.791C328.03 160.983 328.133 161.206 328.185 161.443C328.22 161.812 328.167 162.185 328.029 162.529C327.891 162.873 327.672 163.18 327.391 163.423C327.391 163.423 327.368 163.399 327.345 163.399Z" fill="#F38484"/>
<path d="M325.921 162.631C325.91 162.636 325.898 162.639 325.886 162.639C325.874 162.639 325.862 162.636 325.851 162.631L324.614 161.536C324.415 161.338 324.164 161.201 323.89 161.14C323.57 161.124 323.252 161.205 322.98 161.373C322.695 161.551 322.462 161.8 322.303 162.095C322.28 162.114 322.251 162.125 322.221 162.125C322.191 162.125 322.163 162.114 322.14 162.095C322.121 162.072 322.11 162.043 322.11 162.014C322.11 161.984 322.121 161.955 322.14 161.932C322.316 161.595 322.582 161.313 322.91 161.117C323.216 160.903 323.588 160.804 323.96 160.838C324.28 160.894 324.574 161.049 324.8 161.28L326.038 162.351C326.059 162.373 326.071 162.402 326.071 162.433C326.071 162.463 326.059 162.493 326.038 162.514C325.991 162.608 325.968 162.631 325.921 162.631Z" fill="#F38484"/>
<path d="M313.912 140.902C312.981 140.79 312.088 140.472 311.297 139.971C310.945 139.748 310.617 139.491 310.317 139.202C310.294 139.182 310.276 139.156 310.264 139.128C310.252 139.1 310.245 139.07 310.245 139.039C310.245 139.009 310.252 138.978 310.264 138.95C310.276 138.922 310.294 138.897 310.317 138.876C310.338 138.854 310.363 138.836 310.391 138.823C310.419 138.811 310.45 138.805 310.48 138.805C310.511 138.805 310.542 138.811 310.57 138.823C310.598 138.836 310.623 138.854 310.644 138.876C310.926 139.142 311.231 139.384 311.554 139.598C312.289 140.062 313.118 140.357 313.982 140.46C314.04 140.473 314.093 140.505 314.131 140.552C314.169 140.598 314.191 140.656 314.192 140.716C314.167 140.77 314.128 140.817 314.079 140.85C314.029 140.883 313.971 140.901 313.912 140.902V140.902Z" fill="#828282" fill-opacity="0.3"/>
<path d="M317.261 181.076C317.245 181.078 317.229 181.076 317.214 181.071C317.199 181.066 317.186 181.057 317.174 181.046C317.163 181.035 317.155 181.021 317.149 181.006C317.144 180.991 317.143 180.975 317.144 180.959C317.074 177.466 317.004 173.973 316.958 170.584C316.958 168.907 316.958 167.231 316.958 165.577C316.962 165.365 317.045 165.162 317.191 165.007C317.267 164.936 317.358 164.883 317.457 164.851C317.555 164.819 317.66 164.809 317.763 164.82C317.972 164.855 318.184 164.855 318.393 164.82C318.691 164.753 318.975 164.634 319.233 164.471L322.268 162.049C322.29 162.038 322.313 162.032 322.338 162.032C322.362 162.032 322.386 162.038 322.408 162.049L324.579 163.865C324.805 164.131 325.12 164.304 325.466 164.354C325.734 164.39 326.007 164.358 326.259 164.261L327.426 163.283C327.437 163.278 327.449 163.275 327.461 163.275C327.473 163.275 327.485 163.278 327.496 163.283H328.173C328.932 163.19 329.492 162.352 329.796 161.886C329.934 161.698 330.052 161.494 330.146 161.28L331.126 160.651C331.259 160.553 331.369 160.427 331.45 160.282C331.53 160.138 331.579 159.978 331.593 159.813C331.612 159.633 331.593 159.45 331.536 159.278C331.48 159.105 331.388 158.946 331.266 158.812L327.636 154.783C327.625 154.765 327.619 154.745 327.619 154.724C327.619 154.704 327.625 154.684 327.636 154.666C327.636 154.666 327.636 154.596 327.73 154.596C331.71 153.583 334.907 152.792 337.475 152.209C338.292 152.023 340.007 151.65 340.264 150.649C340.335 150.36 340.302 150.055 340.171 149.787C340.134 149.699 340.067 149.626 339.981 149.583C339.895 149.541 339.797 149.53 339.704 149.554C338.537 149.834 337.452 150.067 336.355 150.276C334.861 150.556 333.507 150.742 327.543 151.301L325.046 151.534C324.531 151.58 324.035 151.747 323.598 152.023L322.105 152.955C322.082 152.973 322.053 152.984 322.023 152.984C321.993 152.984 321.964 152.973 321.941 152.955C321.922 152.932 321.912 152.903 321.912 152.873C321.912 152.843 321.922 152.814 321.941 152.792L323.435 151.86C323.903 151.576 324.43 151.401 324.975 151.348L327.473 151.115C333.437 150.556 334.791 150.346 336.261 150.09C337.358 149.88 338.479 149.648 339.587 149.368C339.736 149.336 339.891 149.355 340.027 149.423C340.163 149.491 340.271 149.603 340.334 149.741C340.478 150.054 340.511 150.407 340.428 150.742C340.124 151.907 338.385 152.256 337.452 152.465C334.907 153.024 331.803 153.816 327.893 154.794L331.394 158.684C331.54 158.838 331.65 159.022 331.719 159.223C331.787 159.424 331.812 159.637 331.791 159.848C331.742 160.242 331.541 160.601 331.231 160.849L330.274 161.455C330.171 161.665 330.054 161.867 329.924 162.06C329.597 162.55 328.99 163.435 328.115 163.551H327.461L326.294 164.506C326.002 164.637 325.676 164.678 325.361 164.622C324.972 164.554 324.619 164.357 324.357 164.063L322.28 162.34L319.292 164.669C319.006 164.853 318.69 164.987 318.358 165.065C318.123 165.106 317.882 165.106 317.646 165.065C317.507 165.065 317.373 165.119 317.273 165.216C317.219 165.262 317.176 165.319 317.148 165.384C317.12 165.448 317.107 165.518 317.109 165.589C317.109 167.242 317.109 168.919 317.109 170.596C317.109 174.089 317.203 177.524 317.296 180.971C317.296 181.064 317.296 181.111 317.203 181.111L317.261 181.076Z" fill="#F38484"/>
<path d="M309.15 167.393C309.057 167.393 309.033 167.324 309.033 167.254L310.107 161.257C310.174 160.779 310.347 160.322 310.614 159.919C310.88 159.516 311.233 159.178 311.647 158.928C311.67 158.909 311.699 158.899 311.729 158.899C311.759 158.899 311.788 158.909 311.811 158.928C311.83 158.951 311.84 158.98 311.84 159.009C311.84 159.039 311.83 159.068 311.811 159.091C311.43 159.322 311.106 159.634 310.86 160.004C310.614 160.374 310.452 160.794 310.387 161.234L309.313 167.207C309.267 167.324 309.197 167.393 309.15 167.393Z" fill="#F38484"/>
<path d="M279.004 157.554C277.64 158.134 276.461 159.076 275.596 160.279C274.826 161.35 273.577 163.516 273.717 168.116C273.981 173.168 275.475 178.08 278.071 182.427C286.24 196.109 299.451 209.709 301.739 211.538C302.556 212.446 309.197 215.613 312.721 210.513C315.522 205.855 317.623 192.557 317.961 180.319C315.102 179.434 309.663 177.99 306.839 177.454C306.477 179.527 304.33 190.019 304.33 193.139C303.746 191.626 302.486 188.482 300.922 184.441C297.976 177.178 294.653 170.073 290.967 163.155C290.17 161.494 289.005 160.037 287.559 158.893C286.999 158.532 283.159 155.807 279.004 157.554Z" fill="#5067BC"/>
<path d="M299.872 156.995C299.481 156.992 299.091 156.961 298.705 156.902C297.788 156.75 296.894 156.484 296.044 156.11C295.345 155.828 294.676 155.477 294.048 155.062C294.031 155.038 294.022 155.01 294.022 154.981C294.022 154.951 294.031 154.923 294.048 154.899C294.072 154.882 294.1 154.873 294.13 154.873C294.159 154.873 294.188 154.882 294.211 154.899C294.829 155.297 295.482 155.64 296.16 155.924C296.999 156.28 297.876 156.538 298.775 156.692C299.542 156.872 300.341 156.872 301.109 156.692C301.414 156.597 301.699 156.447 301.949 156.25C302.192 156.036 302.377 155.763 302.486 155.458C302.49 155.444 302.497 155.431 302.506 155.419C302.515 155.408 302.527 155.398 302.54 155.392C302.554 155.385 302.568 155.381 302.583 155.381C302.598 155.38 302.612 155.383 302.626 155.388C302.64 155.392 302.654 155.399 302.665 155.408C302.676 155.417 302.686 155.429 302.692 155.442C302.699 155.456 302.703 155.47 302.703 155.485C302.704 155.499 302.701 155.514 302.696 155.528C302.562 155.858 302.355 156.152 302.089 156.39C301.816 156.616 301.498 156.783 301.155 156.879C300.743 157.019 300.303 157.059 299.872 156.995V156.995Z" fill="#F9C973"/>
<path fill-rule="evenodd" clip-rule="evenodd" d="M259.794 391.851C259.019 392.175 258.202 392.387 257.367 392.48V392.48C256.606 392.555 255.846 392.335 255.242 391.867C254.639 391.4 254.238 390.719 254.122 389.965C254.029 389.406 253.912 388.801 253.819 388.125C253.155 382.918 253.077 377.653 253.585 372.429C254.057 365.753 255.103 359.13 256.713 352.633C257.577 349.221 258.51 346.24 259.327 343.841C259.54 343.183 259.97 342.616 260.546 342.232C261.122 341.847 261.811 341.668 262.502 341.722H262.665C263.861 341.86 265.012 342.257 266.038 342.887C263.641 350.526 261.903 358.357 260.845 366.292C259.725 374.763 259.373 383.317 259.794 391.851V391.851Z" fill="#BF2652"/>
<path fill-rule="evenodd" clip-rule="evenodd" d="M276.157 358.513C276.381 358.401 276.58 358.242 276.737 358.047C276.895 357.852 277.009 357.625 277.071 357.382C277.133 357.139 277.142 356.885 277.097 356.638C277.052 356.392 276.954 356.157 276.81 355.952C274.056 352.458 273.204 350.805 273.367 349.675C273.54 348.391 273.935 347.146 274.534 345.996C273.626 345.226 272.617 344.583 271.535 344.086C269.733 343.271 267.77 342.873 265.793 342.921C265.186 344.598 264.299 347.183 263.365 350.351C260.309 359.757 258.707 369.574 258.615 379.462C258.647 383.615 258.99 387.761 259.642 391.863C260.172 392.044 260.747 392.044 261.276 391.863C261.556 391.77 262.257 391.49 263.202 389.93C263.708 389.01 264.122 388.043 264.439 387.042C265.093 385.296 265.443 384.387 265.91 383.048C266.236 382.14 266.493 381.371 266.68 380.836C266.55 380.182 266.464 379.521 266.423 378.856C265.828 369.68 272.994 361.168 276.157 358.513Z" fill="#F95070"/>
<path fill-rule="evenodd" clip-rule="evenodd" d="M280.778 361.925C280.787 361.436 280.7 360.949 280.522 360.493C280.238 359.849 279.766 359.305 279.168 358.933C278.572 358.518 277.863 358.298 277.137 358.304C276.071 358.403 275.076 358.882 274.336 359.655C268.501 365.349 264.999 375.84 263.832 379.31C264.443 379.536 265.017 379.85 265.536 380.242C265.906 380.547 266.242 380.891 266.54 381.267C267.053 379.785 267.646 378.331 268.314 376.912C269.58 374.211 271.146 371.66 272.982 369.308C275.198 366.473 277.826 363.985 280.778 361.925Z" fill="#BF2652"/>
<path fill-rule="evenodd" clip-rule="evenodd" d="M266.598 381.104C266.204 380.68 265.774 380.291 265.314 379.939C263.357 378.519 261.022 377.708 258.604 377.61C258.534 379.287 258.534 381.104 258.604 383.013C258.746 386.002 259.089 388.978 259.631 391.921C260.059 392.034 260.509 392.034 260.938 391.921C261.531 391.766 262.066 391.443 262.478 390.99C263.014 390.392 263.412 389.684 263.646 388.917C264.533 386.681 264.976 385.563 264.929 385.633C265.338 384.678 265.91 383.107 266.598 381.104Z" fill="#FC6C85"/>
<path d="M263.868 375.899C264.086 375.322 263.97 374.743 263.608 374.606C263.247 374.47 262.776 374.828 262.557 375.405C262.339 375.983 262.455 376.562 262.817 376.698C263.178 376.834 263.649 376.477 263.868 375.899Z" fill="white"/>
<path d="M265.958 370.325C266.177 369.747 266.061 369.169 265.699 369.032C265.337 368.896 264.867 369.254 264.648 369.831C264.429 370.409 264.546 370.987 264.907 371.124C265.269 371.26 265.74 370.902 265.958 370.325Z" fill="white"/>
<path d="M268.267 365.219C268.575 364.64 268.529 364.014 268.165 363.821C267.8 363.628 267.255 363.942 266.947 364.522C266.639 365.101 266.686 365.727 267.05 365.92C267.415 366.113 267.96 365.799 268.267 365.219Z" fill="white"/>
<path d="M272.076 360.313C272.497 359.729 272.543 359.042 272.176 358.779C271.81 358.516 271.172 358.776 270.75 359.361C270.328 359.945 270.283 360.632 270.649 360.895C271.015 361.158 271.654 360.898 272.076 360.313Z" fill="white"/>
<path fill-rule="evenodd" clip-rule="evenodd" d="M267.415 378.984C267.385 378.993 267.352 378.993 267.322 378.984C266.864 378.427 266.356 377.912 265.805 377.447C265.022 376.798 264.149 376.265 263.214 375.864C263.197 375.859 263.183 375.85 263.17 375.839C263.158 375.828 263.148 375.814 263.141 375.798C263.134 375.783 263.131 375.766 263.132 375.749C263.132 375.732 263.136 375.716 263.144 375.701C263.149 375.685 263.157 375.67 263.168 375.657C263.18 375.645 263.194 375.635 263.209 375.628C263.225 375.621 263.241 375.618 263.258 375.619C263.275 375.619 263.292 375.623 263.307 375.631C264.265 376.039 265.161 376.58 265.968 377.238C266.533 377.705 267.049 378.227 267.509 378.798C267.53 378.82 267.542 378.849 267.542 378.88C267.542 378.91 267.53 378.939 267.509 378.961C267.462 378.984 267.439 378.984 267.415 378.984Z" fill="white"/>
<path fill-rule="evenodd" clip-rule="evenodd" d="M269.703 374.28C269.688 374.286 269.672 374.29 269.656 374.29C269.64 374.29 269.624 374.286 269.609 374.28C269.21 373.677 268.765 373.104 268.279 372.568C267.398 371.617 266.374 370.807 265.244 370.169C265.225 370.146 265.215 370.118 265.215 370.088C265.215 370.058 265.225 370.029 265.244 370.006C265.267 369.987 265.296 369.977 265.326 369.977C265.356 369.977 265.385 369.987 265.408 370.006C266.552 370.662 267.591 371.486 268.489 372.452C268.983 372.996 269.435 373.576 269.843 374.187C269.864 374.208 269.876 374.238 269.876 374.268C269.876 374.299 269.864 374.328 269.843 374.35C269.831 374.362 269.815 374.371 269.797 374.374C269.78 374.377 269.762 374.375 269.746 374.367C269.731 374.359 269.718 374.346 269.71 374.331C269.702 374.315 269.7 374.297 269.703 374.28Z" fill="white"/>
<path fill-rule="evenodd" clip-rule="evenodd" d="M272.597 369.913C272.582 369.92 272.566 369.923 272.55 369.923C272.534 369.923 272.518 369.92 272.504 369.913C272.053 369.263 271.561 368.64 271.033 368.05C270.047 366.953 268.934 365.976 267.719 365.139C267.697 365.117 267.685 365.088 267.685 365.058C267.685 365.027 267.697 364.998 267.719 364.976C267.74 364.955 267.77 364.943 267.8 364.943C267.831 364.943 267.86 364.955 267.882 364.976C269.119 365.822 270.247 366.815 271.243 367.934C271.779 368.532 272.278 369.162 272.737 369.82C272.758 369.842 272.77 369.871 272.77 369.902C272.77 369.932 272.758 369.961 272.737 369.983L272.597 369.913Z" fill="white"/>
<path fill-rule="evenodd" clip-rule="evenodd" d="M276.297 365.791C276.282 365.798 276.266 365.801 276.25 365.801C276.234 365.801 276.218 365.798 276.203 365.791C275.611 364.807 274.94 363.872 274.196 362.997C273.288 361.926 272.284 360.939 271.197 360.051C271.179 360.027 271.17 359.998 271.17 359.969C271.17 359.94 271.179 359.911 271.197 359.888C271.22 359.87 271.249 359.861 271.278 359.861C271.307 359.861 271.336 359.87 271.36 359.888C272.469 360.786 273.489 361.788 274.406 362.88C275.15 363.769 275.829 364.711 276.437 365.698C276.456 365.721 276.466 365.75 276.466 365.78C276.466 365.809 276.456 365.838 276.437 365.861L276.297 365.791Z" fill="white"/>
<path fill-rule="evenodd" clip-rule="evenodd" d="M275.993 361.762C274.927 361.755 273.869 361.586 272.854 361.261C272.83 361.253 272.81 361.237 272.797 361.216C272.784 361.195 272.78 361.17 272.784 361.145C272.783 361.121 272.79 361.097 272.802 361.077C272.814 361.056 272.832 361.039 272.854 361.029C274.162 360.455 275.242 359.464 275.923 358.211C276.259 357.571 276.48 356.877 276.577 356.161C276.531 355.216 276.786 354.281 277.306 353.49C277.826 352.699 278.584 352.094 279.471 351.76C280.057 351.602 280.673 351.587 281.266 351.717C281.86 351.846 282.413 352.117 282.879 352.505C283.34 352.951 283.687 353.501 283.89 354.109C284.093 354.717 284.147 355.365 284.046 355.998C283.877 357.455 283.149 358.79 282.015 359.724C280.404 361.127 278.317 361.864 276.18 361.785L275.993 361.762ZM273.204 361.122C274.171 361.401 275.174 361.534 276.18 361.518C278.244 361.581 280.258 360.875 281.829 359.538C282.927 358.645 283.631 357.357 283.789 355.952C283.872 355.364 283.816 354.765 283.625 354.203C283.435 353.641 283.115 353.131 282.692 352.714C282.254 352.36 281.739 352.112 281.188 351.991C280.637 351.869 280.065 351.878 279.518 352.016C278.674 352.332 277.954 352.91 277.462 353.664C276.971 354.418 276.734 355.31 276.787 356.208C276.686 356.955 276.457 357.68 276.11 358.35C275.446 359.547 274.432 360.514 273.204 361.122V361.122Z" fill="white"/>
<path fill-rule="evenodd" clip-rule="evenodd" d="M272.912 361.355C272.897 361.361 272.881 361.364 272.865 361.364C272.849 361.364 272.833 361.361 272.819 361.355C272.807 361.337 272.801 361.317 272.801 361.296C272.801 361.276 272.807 361.255 272.819 361.238C273.674 359.967 274.111 358.461 274.067 356.93C274.042 356.424 273.951 355.923 273.799 355.439C273.567 354.717 273.526 353.946 273.682 353.203C273.764 352.682 273.963 352.186 274.264 351.753C274.565 351.319 274.961 350.959 275.421 350.7C275.849 350.518 276.311 350.433 276.775 350.451C277.239 350.469 277.694 350.59 278.106 350.805C278.543 351.053 278.926 351.388 279.231 351.788C279.536 352.188 279.757 352.646 279.88 353.134C280.279 354.526 280.129 356.018 279.459 357.302C277.802 360.796 273.402 361.331 272.912 361.378V361.355ZM276.588 350.63C276.218 350.638 275.852 350.721 275.515 350.875C275.085 351.114 274.717 351.448 274.438 351.852C274.158 352.256 273.976 352.718 273.904 353.203C273.738 353.906 273.779 354.642 274.021 355.323C274.167 355.815 274.254 356.323 274.278 356.837C274.316 358.333 273.91 359.808 273.111 361.075C274.149 360.935 277.779 360.213 279.214 357.163C279.871 355.941 280.022 354.511 279.634 353.18C279.398 352.253 278.802 351.457 277.977 350.968C277.549 350.755 277.078 350.64 276.6 350.63H276.588Z" fill="white"/>
<path fill-rule="evenodd" clip-rule="evenodd" d="M277.184 378.961H277.09C277.078 378.951 277.068 378.939 277.061 378.925C277.055 378.91 277.051 378.895 277.051 378.879C277.051 378.864 277.055 378.848 277.061 378.834C277.068 378.82 277.078 378.808 277.09 378.798C278.482 377.603 279.529 376.059 280.125 374.326C280.7 372.572 280.795 370.697 280.401 368.893C280.007 367.09 279.138 365.424 277.884 364.068C276.538 362.717 274.819 361.797 272.947 361.424C272.917 361.416 272.891 361.398 272.874 361.372C272.857 361.346 272.85 361.315 272.854 361.285C272.862 361.255 272.881 361.229 272.906 361.212C272.932 361.195 272.963 361.188 272.994 361.191C274.913 361.569 276.674 362.514 278.047 363.905C279.333 365.288 280.227 366.987 280.638 368.829C281.048 370.671 280.959 372.588 280.382 374.385C279.784 376.161 278.72 377.746 277.3 378.973C277.3 378.973 277.207 378.961 277.184 378.961Z" fill="white"/>
<path fill-rule="evenodd" clip-rule="evenodd" d="M287.489 369.122C287.465 369.122 287.441 369.116 287.421 369.103C287.4 369.091 287.383 369.073 287.372 369.052C287.256 368.749 284.49 361.646 278.117 360.61C276.345 360.352 274.536 360.603 272.9 361.331C272.887 361.339 272.872 361.344 272.856 361.344C272.841 361.345 272.825 361.341 272.811 361.334C272.798 361.327 272.786 361.317 272.777 361.305C272.768 361.292 272.762 361.277 272.76 361.262C272.753 361.248 272.748 361.233 272.748 361.218C272.747 361.202 272.75 361.187 272.757 361.173C272.764 361.159 272.775 361.147 272.788 361.138C272.8 361.129 272.815 361.124 272.831 361.122C274.501 360.372 276.351 360.113 278.164 360.377C284.676 361.425 287.501 368.656 287.606 368.959C287.614 368.972 287.618 368.987 287.618 369.003C287.619 369.018 287.616 369.033 287.609 369.047C287.602 369.061 287.591 369.073 287.579 369.082C287.566 369.091 287.551 369.097 287.536 369.098L287.489 369.122Z" fill="white"/>
<path fill-rule="evenodd" clip-rule="evenodd" d="M296.604 333.012C294.886 334.099 292.996 334.887 291.014 335.341C288.563 335.853 286.859 335.621 285.622 336.901C284.877 337.731 284.462 338.804 284.455 339.917C283.699 339.651 282.876 339.651 282.12 339.917C281.388 340.21 280.755 340.705 280.296 341.344C279.837 341.984 279.571 342.742 279.529 343.527C281.894 343.254 284.204 342.626 286.38 341.664C290.52 339.772 294.057 336.778 296.604 333.012V333.012Z" fill="#0A9CE5"/>
<path fill-rule="evenodd" clip-rule="evenodd" d="M287.606 237.33C286.133 240.362 285.299 243.663 285.155 247.03C284.873 252.248 285.908 257.453 288.166 262.168C289.787 265.542 292.083 268.549 294.912 271.006C302.671 278.82 309.914 287.129 316.596 295.878C321.264 301.968 325.337 307.895 328.967 313.554C331.048 316.11 333.671 318.174 336.646 319.598C339.284 320.832 343.649 322.928 348.317 321.228C348.947 320.995 353.977 319.202 355.425 315.406C357.292 306.265 337.008 264.776 327.566 251.711C323.645 246.285 320.12 242.069 317.786 239.379C317.457 238.97 317.102 238.581 316.724 238.215C297.958 236.398 288.516 237.144 287.606 237.33Z" fill="#0A9CE5"/>
<path fill-rule="evenodd" clip-rule="evenodd" d="M328.733 313.1C328.255 313.193 327.566 313.356 326.621 313.566C323.283 314.381 315.942 316.57 307.049 323.569C302.883 326.829 302.836 327.574 298.88 331.009C293.04 336.003 286.526 340.154 279.529 343.341C278.706 346.608 279.035 350.058 280.463 353.11C281.837 356.009 284.13 358.374 286.987 359.841C288.854 358.793 291.655 357.163 295.157 355.183C310.936 346.135 314.623 343.69 321.031 340.313C327.833 336.712 334.848 333.527 342.038 330.776C344.173 330.23 346.211 329.362 348.084 328.203C350.083 327.102 351.828 325.594 353.207 323.778C355.681 320.285 356.475 314.963 354.841 312.134C352.168 307.581 341.186 306.544 328.733 313.1Z" fill="#0A9CE5"/>
<path d="M287.746 261.318C288.664 263.397 289.84 265.353 291.247 267.14C292.595 268.73 294.045 270.232 295.589 271.635C296.557 272.589 297.841 273.963 300.409 276.746C302.229 278.703 307.119 283.966 311.904 289.777C315.522 294.155 320.296 300.501 325.477 308.221C323.606 302.728 321.198 297.431 318.288 292.408C310.706 279.787 300.241 269.134 287.746 261.318V261.318Z" fill="white" fill-opacity="0.3"/>
<path d="M322.863 314.614C319.943 315.66 317.12 316.957 314.425 318.492C310.502 320.617 306.893 323.274 303.7 326.387C303.7 326.387 302.346 327.784 300.432 329.589C299.226 330.805 297.914 331.912 296.51 332.896C295.659 333.446 294.774 333.944 293.861 334.386C295.077 334.039 296.273 333.627 297.444 333.152C303.513 330.637 306.909 326.992 310.387 323.836C314.26 320.396 318.436 317.309 322.863 314.614V314.614Z" fill="white" fill-opacity="0.3"/>
<path d="M282.365 348.604C282.341 348.605 282.318 348.598 282.297 348.586C282.276 348.574 282.26 348.556 282.249 348.534C282.233 348.51 282.225 348.482 282.225 348.453C282.225 348.424 282.233 348.396 282.249 348.371C285.79 346.667 289.21 344.721 292.484 342.549C294.927 340.931 297.266 339.162 299.487 337.251C300.467 336.459 301.471 335.621 302.708 334.643C308.543 330.055 315.791 324.337 325.582 320.914C329.664 319.495 333.898 318.557 338.198 318.119C338.212 318.118 338.226 318.119 338.24 318.122C338.253 318.126 338.266 318.133 338.276 318.141C338.287 318.15 338.296 318.161 338.303 318.173C338.31 318.185 338.314 318.198 338.315 318.212C338.317 318.226 338.316 318.24 338.312 318.253C338.308 318.267 338.302 318.279 338.293 318.29C338.284 318.301 338.273 318.31 338.261 318.316C338.249 318.323 338.236 318.327 338.222 318.329C333.938 318.759 329.719 319.689 325.652 321.1C315.907 324.5 308.671 330.218 302.848 334.806C301.611 335.784 300.607 336.622 299.627 337.414C297.408 339.327 295.069 341.097 292.624 342.712C289.334 344.884 285.898 346.829 282.342 348.534C282.342 348.534 282.365 348.604 282.365 348.604Z" fill="#828282" fill-opacity="0.3"/>
<path d="M341.256 312.565C341.229 312.565 341.202 312.556 341.181 312.539C341.16 312.522 341.145 312.498 341.14 312.472C340.031 308.568 338.678 304.737 337.09 301.002C334.522 294.958 331.581 289.998 319.245 272.485C317.915 270.598 316.689 268.898 315.569 267.315C310.787 260.845 306.349 254.129 302.276 247.193C300.875 244.794 299.521 242.349 298.238 239.892C298.222 239.868 298.214 239.839 298.214 239.81C298.214 239.782 298.222 239.753 298.238 239.729C298.262 239.713 298.29 239.705 298.319 239.705C298.348 239.705 298.377 239.713 298.401 239.729C299.685 242.163 301.039 244.608 302.439 247.007C306.514 253.928 310.943 260.637 315.709 267.105C316.829 268.658 318.055 270.381 319.385 272.275C331.745 289.812 334.686 294.772 337.253 300.839C338.845 304.58 340.198 308.419 341.303 312.332C341.311 312.36 341.308 312.389 341.295 312.415C341.282 312.441 341.26 312.461 341.233 312.472C341.233 312.472 341.28 312.565 341.256 312.565Z" fill="#828282" fill-opacity="0.3"/>
<path fill-rule="evenodd" clip-rule="evenodd" d="M355.413 315.382C357.28 306.242 336.996 264.753 327.555 251.688C323.633 246.261 320.109 242.046 317.775 239.356C317.445 238.946 317.091 238.557 316.713 238.192C310.434 237.586 305.042 237.307 300.572 237.19C314.518 246.401 341.583 271.506 355.413 315.382Z" fill="#027BC6"/>
<path d="M304.423 250.546C304.423 250.546 304.33 250.546 304.33 250.476C304.314 250.452 304.306 250.424 304.306 250.395C304.306 250.366 304.314 250.338 304.33 250.313C307.302 248.864 309.793 246.592 311.507 243.769C312.471 242.171 313.173 240.43 313.585 238.611C313.593 238.581 313.612 238.555 313.637 238.538C313.663 238.521 313.694 238.514 313.725 238.518C313.755 238.526 313.781 238.544 313.798 238.57C313.815 238.596 313.822 238.627 313.818 238.657C313.398 240.5 312.689 242.264 311.718 243.886C309.981 246.747 307.457 249.051 304.447 250.523L304.423 250.546Z" fill="#828282" fill-opacity="0.3"/>
</g>
<path d="M41.0176 263.19L38.6963 258.408L11.1648 273.233L13.314 278.275C13.4666 278.488 13.6751 278.654 13.9158 278.754L39.0405 289.491C39.2262 289.581 39.4314 289.62 39.6365 289.606C39.8417 289.593 40.0397 289.526 40.2121 289.412C40.3846 289.299 40.5256 289.143 40.6214 288.959C40.7172 288.775 40.7646 288.569 40.7594 288.361L41.0606 263.647C41.1057 263.495 41.0902 263.331 41.0176 263.19V263.19Z" fill="#F9C973"/>
<path fill-rule="evenodd" clip-rule="evenodd" d="M37.364 258.061L11.5735 271.972C11.4014 272.058 11.2566 272.192 11.1553 272.357C11.054 272.522 11 272.712 11 272.907C11 273.101 11.054 273.291 11.1553 273.457C11.2566 273.622 11.4014 273.755 11.5735 273.841L36.7837 284.427C36.9364 284.485 37.1001 284.506 37.2622 284.489C37.4243 284.471 37.5802 284.416 37.7177 284.328C37.8552 284.239 37.9705 284.12 38.0545 283.979C38.1386 283.837 38.189 283.678 38.202 283.514L38.7608 259.017C38.7577 258.85 38.7148 258.686 38.6359 258.539C38.5571 258.392 38.4444 258.266 38.3074 258.172C38.1705 258.079 38.0136 258.02 37.8494 258C37.6851 257.981 37.5187 258.002 37.364 258.061V258.061Z" fill="#FFF9B0"/>
<path fill-rule="evenodd" clip-rule="evenodd" d="M7.20636 373.347L0.758728 375.956L17.1785 413.972L23.9488 411.538C24.249 411.371 24.4893 411.112 24.6362 410.799L41.185 378.195C41.3005 377.992 41.3622 377.763 41.3639 377.53C41.3655 377.296 41.3071 377.066 41.1944 376.863C41.0817 376.659 40.9187 376.488 40.7211 376.367C40.5236 376.246 40.2987 376.179 40.0679 376.173L7.82971 373.26C7.61816 373.243 7.40524 373.272 7.20636 373.347V373.347Z" fill="#BF2652"/>
<path fill-rule="evenodd" clip-rule="evenodd" d="M0.178167 377.586L15.5663 413.103C15.6745 413.333 15.8449 413.528 16.058 413.664C16.271 413.8 16.518 413.872 16.77 413.872C17.022 413.872 17.269 413.8 17.482 413.664C17.6951 413.528 17.8655 413.333 17.9737 413.103L34.2213 380.759C34.3208 380.562 34.371 380.344 34.3672 380.123C34.3634 379.901 34.306 379.685 34.1998 379.491C34.0936 379.298 33.9421 379.134 33.7585 379.014C33.5749 378.894 33.3646 378.822 33.1467 378.803L1.5104 375.608C1.26569 375.57 1.0155 375.602 0.788404 375.702C0.561306 375.802 0.366905 375.965 0.227489 376.172C0.0880738 376.379 0.00953545 376.621 0.000814965 376.871C-0.00790552 377.122 0.0535016 377.369 0.178167 377.586V377.586Z" fill="#F95070"/>
<path fill-rule="evenodd" clip-rule="evenodd" d="M114.914 27.0098L117.604 29.9859L134.619 13.3237L131.958 10.1368C131.808 10.0075 131.622 9.92942 131.425 9.91323L110.675 7.54432C110.544 7.52261 110.409 7.5356 110.284 7.58221C110.159 7.62881 110.048 7.70735 109.962 7.81009C109.875 7.91283 109.817 8.03624 109.792 8.16826C109.767 8.30029 109.777 8.4362 109.82 8.56301L114.742 26.6885C114.775 26.8072 114.834 26.9169 114.914 27.0098V27.0098Z" fill="#BF2652"/>
<path fill-rule="evenodd" clip-rule="evenodd" d="M118.593 29.9763L134.479 14.3879C134.581 14.2822 134.65 14.15 134.68 14.0065C134.71 13.863 134.699 13.714 134.649 13.577C134.598 13.44 134.51 13.3204 134.394 13.2322C134.279 13.1441 134.14 13.0909 133.996 13.0789L113.448 10.8215C113.322 10.8074 113.196 10.8246 113.078 10.8716C112.961 10.9186 112.856 10.9939 112.774 11.091C112.693 11.188 112.635 11.3037 112.608 11.4279C112.581 11.5522 112.584 11.6813 112.618 11.8035L117.269 29.6541C117.298 29.795 117.365 29.9243 117.464 30.0275C117.563 30.1307 117.689 30.2033 117.828 30.237C117.967 30.2707 118.112 30.2641 118.247 30.218C118.383 30.1718 118.503 30.0881 118.593 29.9763V29.9763Z" fill="#F95070"/>
<defs>
<clipPath id="clip0_2_2">
<rect width="405" height="410" fill="white" transform="translate(88 21)"/>
</clipPath>
</defs>
</svg>
