<svg width="619" height="637" viewBox="0 0 619 637" fill="none" xmlns="http://www.w3.org/2000/svg">
<path d="M24.5 637C27.5376 637 30 634.538 30 631.5C30 628.462 27.5376 626 24.5 626C21.4624 626 19 628.462 19 631.5C19 634.538 21.4624 637 24.5 637Z" fill="#A2E9FC"/>
<g clip-path="url(#clip0_2_2)">
<path d="M454.093 53.7737C468.949 53.7737 480.992 41.736 480.992 26.8868C480.992 12.0376 468.949 0 454.093 0C439.237 0 427.194 12.0376 427.194 26.8868C427.194 41.736 439.237 53.7737 454.093 53.7737Z" fill="#A2E9FC"/>
<path d="M310.576 166.371L308.022 161.155L277.625 177.276L280.068 182.825C280.14 182.948 280.236 183.056 280.351 183.141C280.465 183.227 280.595 183.289 280.734 183.325L308.743 195.117C308.92 195.198 309.115 195.232 309.309 195.216C309.503 195.2 309.69 195.135 309.851 195.026C310.013 194.918 310.144 194.77 310.232 194.596C310.32 194.422 310.361 194.229 310.353 194.035L310.686 166.926C310.719 166.832 310.727 166.731 310.707 166.633C310.688 166.536 310.642 166.445 310.576 166.371Z" fill="#F9C973"/>
<path fill-rule="evenodd" clip-rule="evenodd" d="M306.578 160.766L278.18 175.888C277.986 175.981 277.822 176.126 277.708 176.308C277.593 176.49 277.532 176.7 277.532 176.915C277.532 177.13 277.593 177.34 277.708 177.522C277.822 177.703 277.986 177.849 278.18 177.942L305.94 189.484C306.108 189.551 306.289 189.576 306.469 189.558C306.648 189.541 306.821 189.481 306.973 189.383C307.125 189.285 307.251 189.153 307.342 188.997C307.433 188.841 307.485 188.666 307.494 188.485L308.105 161.821C308.097 161.641 308.047 161.466 307.96 161.309C307.873 161.152 307.751 161.017 307.603 160.915C307.455 160.813 307.286 160.746 307.108 160.721C306.93 160.695 306.749 160.71 306.578 160.766V160.766Z" fill="#FFF9B0"/>
<path fill-rule="evenodd" clip-rule="evenodd" d="M582.559 404.806L530.335 419.142L530.525 428.908C530.425 429.36 530.49 429.832 530.707 430.24C530.924 430.649 531.28 430.966 531.711 431.135L583.176 451.014C583.478 451.14 583.808 451.187 584.133 451.149C584.459 451.111 584.769 450.991 585.035 450.799C585.3 450.607 585.512 450.35 585.65 450.053C585.788 449.756 585.847 449.428 585.822 449.101L584.979 406.22C585.015 405.925 584.963 405.625 584.831 405.358C584.698 405.091 584.491 404.869 584.233 404.718C583.976 404.568 583.68 404.496 583.383 404.512C583.085 404.527 582.799 404.63 582.559 404.806V404.806Z" fill="#BF2652"/>
<path fill-rule="evenodd" clip-rule="evenodd" d="M582.138 395.455L531.586 417.556C531.249 417.711 530.964 417.962 530.766 418.276C530.568 418.591 530.467 418.956 530.473 419.328C530.48 419.699 530.594 420.061 530.803 420.369C531.011 420.676 531.305 420.917 531.647 421.061L583.075 441.104C583.377 441.23 583.707 441.277 584.033 441.239C584.358 441.201 584.668 441.08 584.934 440.889C585.199 440.697 585.411 440.44 585.549 440.143C585.687 439.846 585.746 439.518 585.721 439.191L584.979 397.161C584.976 396.829 584.887 396.503 584.722 396.214C584.557 395.926 584.321 395.684 584.036 395.513C583.751 395.342 583.427 395.247 583.095 395.236C582.762 395.226 582.433 395.301 582.138 395.455Z" fill="#F95070"/>
<path fill-rule="evenodd" clip-rule="evenodd" d="M0.249939 473.696C11.9364 471.673 23.4388 468.703 34.6441 464.817C54.4339 457.909 73.1305 448.201 90.1635 435.988L126.695 494.618C111.566 500.167 93.6613 508.103 79.5038 514.734C77.7519 515.527 75.871 515.997 73.9519 516.122C73.9519 516.122 47.2747 521.172 25.8165 506.771C13.9099 498.832 4.93056 487.216 0.249939 473.696V473.696Z" fill="#A2E9FC"/>
<path fill-rule="evenodd" clip-rule="evenodd" d="M105.57 502.942C101.573 504.607 80.7807 515.234 74.7846 516.177C69.9267 517.065 47.0249 521.394 25.7055 506.993C16.2374 500.68 8.58236 492.005 3.49774 481.827C26.4828 502.137 74.1738 509.518 105.57 502.942Z" fill="#81DCFC"/>
<path fill-rule="evenodd" clip-rule="evenodd" d="M14.796 498.974C19.7209 503.386 25.5184 506.713 31.8127 508.741C38.0952 510.923 44.7415 511.865 51.3832 511.516C54.8795 511.247 58.3393 510.624 61.7097 509.657C62.5749 510.755 63.5621 511.751 64.6523 512.626C66.6305 514.238 68.9594 515.364 71.4519 515.913C73.9444 516.462 76.5311 516.42 79.0041 515.789C49.9397 525.472 23.2071 508.797 14.796 498.974Z" fill="#0A9CE5"/>
<path fill-rule="evenodd" clip-rule="evenodd" d="M73.7853 516.594C73.4527 516.621 73.1183 516.621 72.7858 516.594C69.8518 516.269 67.0604 515.157 64.7078 513.375C63.5117 512.527 62.4295 511.529 61.4877 510.406C58.7548 511.103 55.9697 511.576 53.1598 511.821C45.6443 512.47 38.0765 511.525 30.9521 509.046C27.0284 507.584 23.2992 505.646 19.8482 503.275C10.1156 496.024 3.1366 485.682 0.0555143 473.946C0.0346913 473.877 0.0283569 473.804 0.0368768 473.733C0.0453967 473.661 0.068538 473.592 0.104988 473.529C0.141439 473.467 0.190328 473.412 0.248667 473.37C0.307005 473.327 0.373467 473.297 0.444021 473.281C0.583353 473.253 0.727986 473.277 0.850658 473.349C0.973329 473.42 1.06574 473.534 1.1104 473.669C4.16329 485.158 11.011 495.278 20.5422 502.387C23.9478 504.676 27.6209 506.54 31.4795 507.937C38.4382 510.424 45.8544 511.371 53.2152 510.711C56.0253 510.453 58.8101 509.971 61.5431 509.268C61.6415 509.235 61.7479 509.233 61.8474 509.263C61.9469 509.293 62.0346 509.353 62.0984 509.435C63.0313 510.599 64.114 511.635 65.3184 512.515C67.4908 514.216 70.0973 515.274 72.8414 515.567C74.842 515.653 76.8404 515.352 78.7264 514.679C81.132 513.796 83.4701 512.739 85.7219 511.516C98.8717 504.973 112.45 499.328 126.362 494.618C126.502 494.572 126.655 494.581 126.789 494.642C126.923 494.704 127.028 494.814 127.084 494.951C127.13 495.091 127.121 495.243 127.059 495.377C126.998 495.511 126.887 495.617 126.751 495.672C112.888 500.418 99.3493 506.063 86.2216 512.57C83.903 513.79 81.511 514.865 79.0595 515.789C77.3419 516.276 75.5701 516.546 73.7853 516.594V516.594Z" fill="#0A9CE5"/>
<path fill-rule="evenodd" clip-rule="evenodd" d="M60.8215 486.044C46.5543 486.073 32.3465 484.207 18.5713 480.495C13.1084 479.001 7.73319 477.204 2.47073 475.112C2.43682 475.102 2.40524 475.086 2.37805 475.064C2.35087 475.042 2.32871 475.014 2.31299 474.982C2.29727 474.951 2.28824 474.917 2.28673 474.882C2.28521 474.846 2.29123 474.811 2.30418 474.779C2.31342 474.745 2.32968 474.713 2.35196 474.686C2.37424 474.659 2.40202 474.637 2.43346 474.621C2.4649 474.605 2.49932 474.596 2.53444 474.595C2.56956 474.593 2.60461 474.599 2.63728 474.612C7.87883 476.695 13.236 478.473 18.6823 479.94C35.3232 484.485 52.5949 486.284 69.8158 485.267C71.7867 482.27 73.6189 479.107 75.3677 476C81.6175 464.354 86.3652 451.963 89.4973 439.124C89.5168 439.053 89.5611 438.991 89.6223 438.951C89.6835 438.91 89.7574 438.893 89.8304 438.902C89.9013 438.921 89.9629 438.966 90.0037 439.027C90.0445 439.088 90.0618 439.162 90.0525 439.235C86.8866 452.066 82.0915 464.44 75.784 476.055C74.0629 479.274 72.1752 482.437 70.2321 485.517C70.197 485.532 70.1593 485.54 70.1211 485.54C70.0829 485.54 70.045 485.532 70.0099 485.517C66.9841 485.988 63.9306 486.044 60.8215 486.044Z" fill="#0A9CE5"/>
<path fill-rule="evenodd" clip-rule="evenodd" d="M53.2709 515.706C53.2257 515.651 53.201 515.582 53.201 515.511C53.201 515.44 53.2257 515.372 53.2709 515.317C55.1579 511.514 56.8444 507.615 58.3231 503.636C60.5145 497.783 62.2591 491.772 63.542 485.656C63.5614 485.585 63.6058 485.523 63.667 485.482C63.7282 485.442 63.8021 485.424 63.8751 485.434C63.946 485.453 64.0074 485.497 64.0482 485.559C64.089 485.62 64.1065 485.694 64.0972 485.767C62.8215 491.909 61.0577 497.94 58.8228 503.802C57.3238 507.742 55.6582 511.71 53.7705 515.484C53.4929 515.65 53.3819 515.706 53.2709 515.706Z" fill="#0A9CE5"/>
<path fill-rule="evenodd" clip-rule="evenodd" d="M516.663 524.973L448.208 487.598C445.728 486.218 442.94 485.483 440.102 485.462L190.043 485.184C186.224 485.179 182.502 486.384 179.411 488.625L128.444 525.14C127.891 525.54 127.479 526.105 127.268 526.755C127.057 527.404 127.058 528.104 127.271 528.753C127.485 529.402 127.899 529.966 128.454 530.364C129.009 530.762 129.676 530.973 130.36 530.967H515.137C515.824 530.925 516.48 530.667 517.011 530.228C517.542 529.79 517.919 529.194 518.089 528.527C518.259 527.86 518.213 527.156 517.956 526.518C517.7 525.879 517.247 525.338 516.663 524.973V524.973Z" fill="#81DCFC"/>
<path fill-rule="evenodd" clip-rule="evenodd" d="M239.733 502.415H177.884C177.716 502.427 177.547 502.403 177.388 502.345C177.23 502.287 177.085 502.196 176.965 502.078C176.844 501.96 176.75 501.818 176.688 501.66C176.627 501.503 176.599 501.335 176.607 501.166C176.599 500.997 176.627 500.827 176.688 500.669C176.75 500.51 176.844 500.366 176.964 500.246C177.084 500.126 177.228 500.032 177.386 499.971C177.545 499.91 177.714 499.882 177.884 499.89H239.733C239.903 499.882 240.072 499.91 240.231 499.971C240.389 500.032 240.533 500.126 240.653 500.246C240.774 500.366 240.867 500.51 240.929 500.669C240.99 500.827 241.018 500.997 241.01 501.166C241.003 501.5 240.865 501.818 240.626 502.051C240.387 502.284 240.067 502.415 239.733 502.415V502.415Z" fill="#A2E9FC"/>
<path fill-rule="evenodd" clip-rule="evenodd" d="M244.285 494.951H188.239C188.068 494.963 187.896 494.939 187.736 494.879C187.575 494.819 187.429 494.726 187.308 494.605C187.187 494.483 187.093 494.338 187.034 494.177C186.974 494.017 186.949 493.845 186.962 493.675C186.953 493.506 186.981 493.338 187.043 493.181C187.104 493.023 187.198 492.881 187.319 492.763C187.44 492.645 187.584 492.554 187.743 492.496C187.901 492.438 188.07 492.414 188.239 492.426H244.369C244.537 492.414 244.706 492.438 244.865 492.496C245.023 492.554 245.167 492.645 245.288 492.763C245.409 492.881 245.503 493.023 245.565 493.181C245.626 493.338 245.654 493.506 245.646 493.675C245.66 493.853 245.634 494.033 245.569 494.2C245.505 494.367 245.404 494.517 245.273 494.64C245.142 494.762 244.985 494.854 244.815 494.908C244.644 494.962 244.463 494.976 244.285 494.951Z" fill="#A2E9FC"/>
<path d="M190.82 525.5C206.151 525.5 218.58 522.432 218.58 518.647C218.58 514.862 206.151 511.793 190.82 511.793C175.489 511.793 163.06 514.862 163.06 518.647C163.06 522.432 175.489 525.5 190.82 525.5Z" fill="#A2E9FC"/>
<path fill-rule="evenodd" clip-rule="evenodd" d="M495.733 542.454L516.525 531.05H129.083L144.295 541.705C146.767 543.494 149.737 544.465 152.789 544.479H488.682C491.148 544.307 493.551 543.617 495.733 542.454V542.454Z" fill="#0A9CE5"/>
<path fill-rule="evenodd" clip-rule="evenodd" d="M500.063 525.362H350.633L336.309 501.805H457.979L500.063 525.362Z" fill="#A2E9FC"/>
<path fill-rule="evenodd" clip-rule="evenodd" d="M340.889 525.362H236.068L250.642 501.805H328.342L340.889 525.362Z" fill="#A2E9FC"/>
<path fill-rule="evenodd" clip-rule="evenodd" d="M440.852 494.951H255.306C255.136 494.959 254.967 494.931 254.808 494.87C254.65 494.808 254.506 494.715 254.385 494.595C254.265 494.474 254.172 494.331 254.11 494.172C254.049 494.014 254.021 493.844 254.029 493.675C254.021 493.506 254.048 493.338 254.11 493.181C254.172 493.023 254.266 492.881 254.387 492.763C254.507 492.645 254.652 492.554 254.81 492.496C254.969 492.438 255.138 492.414 255.306 492.426H440.852C441.02 492.414 441.189 492.438 441.348 492.496C441.506 492.554 441.651 492.645 441.771 492.763C441.892 492.881 441.986 493.023 442.048 493.181C442.11 493.338 442.137 493.506 442.129 493.675C442.137 493.844 442.109 494.014 442.048 494.172C441.986 494.331 441.893 494.474 441.772 494.595C441.652 494.715 441.508 494.808 441.35 494.87C441.191 494.931 441.022 494.959 440.852 494.951Z" fill="#A2E9FC"/>
<path d="M178.523 448.586C150.427 448.556 123.49 437.389 103.621 417.534C83.7519 397.68 72.5729 370.758 72.5361 342.675C72.5729 314.59 83.751 287.666 103.619 267.806C123.488 247.947 150.425 236.774 178.523 236.737C206.618 236.774 233.552 247.948 253.416 267.808C273.28 287.668 284.452 314.593 284.481 342.675C284.452 370.755 273.279 397.677 253.414 417.533C233.55 437.388 206.616 448.556 178.523 448.586V448.586ZM178.523 240.483C151.456 240.513 125.506 251.275 106.369 270.408C87.2326 289.541 76.4722 315.482 76.4502 342.537C76.4502 369.606 87.2007 395.568 106.34 414.719C125.479 433.87 151.441 444.644 178.523 444.673C205.585 444.644 231.53 433.885 250.666 414.758C269.802 395.631 280.566 369.698 280.595 342.648C280.566 315.598 269.802 289.664 250.666 270.537C231.53 251.41 205.585 240.651 178.523 240.622V240.483Z" fill="#0A9CE5"/>
<path d="M178.523 349.723C182.417 349.723 185.574 346.568 185.574 342.676C185.574 338.783 182.417 335.628 178.523 335.628C174.628 335.628 171.472 338.783 171.472 342.676C171.472 346.568 174.628 349.723 178.523 349.723Z" fill="#0A9CE5"/>
<path d="M109.484 406.577L108.596 405.605C93.0224 388.34 84.3989 365.922 84.3895 342.675C84.4555 317.741 94.3942 293.847 112.033 276.216C129.672 258.585 153.577 248.651 178.523 248.585C189.736 248.564 200.861 250.566 211.362 254.495L212.667 254.995L211.307 258.63L210.002 258.158C199.929 254.427 189.265 252.547 178.523 252.608C154.614 252.638 131.692 262.14 114.78 279.034C97.8688 295.927 88.3476 318.833 88.3036 342.731C88.2725 365.022 96.5455 386.526 111.511 403.053L112.482 404.163L109.484 406.577Z" fill="#0A9CE5"/>
<path fill-rule="evenodd" clip-rule="evenodd" d="M323.484 409.379C313.212 419.673 306.078 426.777 301.276 431.577C301.023 431.849 300.867 432.196 300.831 432.565C300.796 432.934 300.882 433.305 301.078 433.62C301.273 433.936 301.567 434.178 301.914 434.31C302.26 434.442 302.641 434.457 302.997 434.352C313.351 430.106 327.981 426.333 339.085 428.608C339.365 428.662 339.654 428.645 339.926 428.558C340.198 428.471 340.443 428.316 340.639 428.108L369.62 399.39C370.564 398.447 369.62 396.949 368.454 396.782C360.348 395.894 339.223 393.785 323.484 409.379Z" fill="#BF2652"/>
<path fill-rule="evenodd" clip-rule="evenodd" d="M375.478 461.793C365.068 471.976 357.906 479.079 353.27 483.741C352.996 484.006 352.64 484.171 352.261 484.209C351.881 484.247 351.5 484.156 351.179 483.951C350.858 483.745 350.615 483.437 350.491 483.077C350.367 482.717 350.368 482.325 350.494 481.965C354.824 471.699 358.655 457.132 356.49 445.894C356.435 445.614 356.453 445.325 356.54 445.053C356.627 444.781 356.782 444.536 356.99 444.34L385.971 415.622C386.189 415.392 386.471 415.232 386.78 415.162C387.09 415.091 387.413 415.114 387.71 415.227C388.006 415.339 388.263 415.537 388.447 415.795C388.632 416.053 388.736 416.359 388.747 416.676C389.385 424.89 391.217 446.116 375.478 461.793Z" fill="#BF2652"/>
<path d="M288.617 496.31C314.6 489.706 334.393 470.089 333.838 457.298C333.865 456.516 333.731 455.736 333.446 455.007C333.16 454.279 332.728 453.616 332.177 453.06C331.626 452.504 330.967 452.066 330.241 451.774C329.514 451.482 328.736 451.341 327.953 451.36C315.156 450.694 295.419 470.367 288.562 496.255C288.562 496.255 288.617 496.366 288.617 496.31Z" fill="#F9C973"/>
<path fill-rule="evenodd" clip-rule="evenodd" d="M304.829 480.411C321.485 477.637 333.533 465.733 332.422 457.298C332.33 456.205 331.857 455.179 331.086 454.398C330.316 453.617 329.295 453.132 328.203 453.025C319.68 451.804 307.772 463.624 304.829 480.411V480.411Z" fill="#FFF9B0"/>
<path fill-rule="evenodd" clip-rule="evenodd" d="M463.059 326.36C464.17 324.085 462.338 322.143 459.978 323.308C433.051 334.463 408.541 350.726 387.803 371.2L346.469 412.071C344.31 414.222 342.443 416.647 340.917 419.285L328.98 440.012C328.423 440.955 328.196 442.057 328.337 443.143C328.478 444.228 328.978 445.236 329.757 446.006L339.307 455.634C340.075 456.413 341.079 456.917 342.163 457.068C343.248 457.218 344.351 457.007 345.303 456.466L366.123 444.674C368.778 443.147 371.223 441.282 373.396 439.124L414.591 398.281C435.201 377.627 451.654 353.212 463.059 326.36V326.36Z" fill="#F95070"/>
<path fill-rule="evenodd" clip-rule="evenodd" d="M462.56 323.419C461.949 322.809 461.116 322.698 459.784 323.419C432.857 334.574 408.347 350.837 387.609 371.311L346.469 412.071C344.31 414.222 342.443 416.647 340.917 419.285L328.98 440.012C328.423 440.955 328.196 442.057 328.337 443.143C328.478 444.228 328.978 445.236 329.757 446.006L334.199 450.528C334.199 450.528 430.636 355.883 462.56 323.419Z" fill="#FC6C85"/>
<path d="M445.266 360.045C452.166 349.356 458.12 338.085 463.06 326.36C464.17 324.085 462.338 322.143 459.978 323.308C448.215 328.099 436.908 333.94 426.195 340.761L445.266 360.045Z" fill="#F9C973"/>
<path fill-rule="evenodd" clip-rule="evenodd" d="M462.782 323.53C462.401 323.209 461.932 323.011 461.437 322.962C460.941 322.912 460.443 323.014 460.006 323.252C448.243 328.043 436.936 333.884 426.222 340.705L435.772 350.306C435.772 350.306 457.757 328.358 462.782 323.53Z" fill="#FFF9B0"/>
<path d="M425.973 341.094C425.938 341.109 425.9 341.117 425.861 341.117C425.823 341.117 425.785 341.109 425.75 341.094C425.705 341.039 425.681 340.971 425.681 340.9C425.681 340.829 425.705 340.76 425.75 340.705C436.54 333.867 447.921 328.007 459.756 323.197C460.246 322.92 460.808 322.799 461.368 322.848C461.928 322.898 462.46 323.116 462.893 323.475C463.257 323.91 463.48 324.447 463.529 325.012C463.579 325.578 463.454 326.145 463.17 326.638C463.116 326.683 463.047 326.707 462.976 326.707C462.905 326.707 462.837 326.683 462.782 326.638C462.615 326.638 462.615 326.416 462.782 326.249C463.02 325.868 463.133 325.422 463.103 324.974C463.073 324.525 462.902 324.098 462.615 323.752C462.271 323.451 461.837 323.271 461.38 323.241C460.924 323.211 460.47 323.332 460.089 323.585C448.29 328.396 436.946 334.256 426.195 341.094C426.195 341.094 426.028 341.094 425.973 341.094Z" fill="#F9C973"/>
<path fill-rule="evenodd" clip-rule="evenodd" d="M445.099 360.6C445.073 360.612 445.044 360.619 445.016 360.619C444.987 360.619 444.958 360.612 444.932 360.6C444.881 360.548 444.853 360.478 444.853 360.406C444.853 360.333 444.881 360.263 444.932 360.211C451.856 349.42 457.846 338.058 462.837 326.249C462.849 326.211 462.869 326.175 462.896 326.146C462.923 326.116 462.956 326.092 462.993 326.076C463.03 326.06 463.07 326.053 463.11 326.054C463.151 326.055 463.19 326.065 463.226 326.083C463.264 326.095 463.3 326.115 463.33 326.142C463.36 326.168 463.383 326.201 463.399 326.238C463.415 326.275 463.423 326.315 463.421 326.356C463.42 326.396 463.41 326.435 463.393 326.471C458.435 338.314 452.444 349.697 445.488 360.489C445.436 360.537 445.374 360.572 445.307 360.591C445.239 360.61 445.168 360.614 445.099 360.6V360.6Z" fill="#BF2652"/>
<path fill-rule="evenodd" clip-rule="evenodd" d="M342.721 457.354C342.029 457.353 341.344 457.215 340.706 456.948C340.068 456.682 339.488 456.291 339.001 455.8L329.452 446.172C328.632 445.358 328.106 444.296 327.955 443.151C327.804 442.006 328.038 440.843 328.619 439.846L340.556 419.119C342.088 416.468 343.954 414.025 346.108 411.849L361.959 396.116C362.011 396.065 362.08 396.037 362.153 396.037C362.226 396.037 362.295 396.065 362.347 396.116C362.398 396.168 362.427 396.238 362.427 396.311C362.427 396.383 362.398 396.453 362.347 396.505L346.497 412.237C344.342 414.372 342.476 416.778 340.945 419.396L329.008 440.123C328.516 441.003 328.32 442.018 328.45 443.017C328.58 444.017 329.029 444.948 329.73 445.672L339.279 455.301C340 456.006 340.928 456.463 341.927 456.602C342.926 456.742 343.944 456.558 344.831 456.077L365.623 444.285C368.266 442.753 370.701 440.888 372.868 438.736L414.064 397.892C425.49 386.336 435.721 373.656 444.599 360.045C444.651 359.994 444.721 359.966 444.794 359.966C444.866 359.966 444.936 359.994 444.988 360.045C445.039 360.097 445.067 360.167 445.067 360.239C445.067 360.312 445.039 360.382 444.988 360.434C436.131 374.094 425.899 386.813 414.452 398.392L373.257 439.235C371.077 441.408 368.611 443.275 365.928 444.785L345.109 456.577C344.388 457.027 343.569 457.294 342.721 457.354V457.354Z" fill="#BF2652"/>
<path fill-rule="evenodd" clip-rule="evenodd" d="M362.292 396.56C362.22 396.586 362.141 396.586 362.07 396.56C362.019 396.508 361.99 396.439 361.99 396.366C361.99 396.293 362.019 396.224 362.07 396.172L387.386 371.033C393.568 365.017 400.054 359.321 406.818 353.969C406.87 353.918 406.94 353.889 407.013 353.889C407.085 353.889 407.155 353.918 407.207 353.969C407.258 354.02 407.286 354.09 407.286 354.163C407.286 354.235 407.258 354.305 407.207 354.357C400.572 359.601 394.021 365.317 387.775 371.366L362.458 396.505C362.458 396.505 362.347 396.56 362.292 396.56Z" fill="#F95070"/>
<path d="M419.532 373.114C423.242 373.114 426.25 370.108 426.25 366.399C426.25 362.691 423.242 359.685 419.532 359.685C415.822 359.685 412.814 362.691 412.814 366.399C412.814 370.108 415.822 373.114 419.532 373.114Z" fill="#F9C973"/>
<path d="M404.403 388.042C408.113 388.042 411.121 385.036 411.121 381.327C411.121 377.619 408.113 374.612 404.403 374.612C400.693 374.612 397.685 377.619 397.685 381.327C397.685 385.036 400.693 388.042 404.403 388.042Z" fill="#F9C973"/>
<path fill-rule="evenodd" clip-rule="evenodd" d="M414.73 371.088C414.104 370.467 413.607 369.728 413.268 368.913C412.929 368.099 412.754 367.226 412.754 366.344C412.754 365.462 412.929 364.588 413.268 363.774C413.607 362.96 414.104 362.22 414.73 361.599C415.354 360.972 416.096 360.475 416.913 360.136C417.73 359.796 418.606 359.622 419.491 359.622C420.375 359.622 421.251 359.796 422.068 360.136C422.885 360.475 423.627 360.972 424.251 361.599C420.67 365.206 418.006 367.87 414.73 371.088Z" fill="#FFF9B0"/>
<path fill-rule="evenodd" clip-rule="evenodd" d="M399.656 386.1C399.03 385.478 398.533 384.739 398.194 383.925C397.855 383.11 397.681 382.237 397.681 381.355C397.681 380.473 397.855 379.6 398.194 378.785C398.533 377.971 399.03 377.232 399.656 376.61C400.28 375.983 401.022 375.486 401.839 375.147C402.656 374.807 403.532 374.633 404.417 374.633C405.302 374.633 406.178 374.807 406.995 375.147C407.812 375.486 408.554 375.983 409.178 376.61C405.292 380.495 402.71 382.992 399.656 386.1Z" fill="#FFF9B0"/>
<path fill-rule="evenodd" clip-rule="evenodd" d="M328.564 459.13C328.255 459.435 327.837 459.605 327.402 459.603C326.967 459.6 326.551 459.425 326.246 459.116C325.94 458.807 325.77 458.389 325.773 457.955C325.775 457.52 325.95 457.104 326.26 456.799L350.355 430.689L375.7 405.55C376.042 405.218 376.5 405.032 376.977 405.032C377.454 405.032 377.912 405.218 378.254 405.55L380.086 407.382C380.418 407.723 380.604 408.181 380.604 408.658C380.604 409.135 380.418 409.593 380.086 409.934L354.741 435.073L328.564 459.13Z" fill="#BF2652"/>
<path fill-rule="evenodd" clip-rule="evenodd" d="M178.523 435.35V434.24C202.818 434.24 226.119 424.593 243.299 407.422C260.478 390.25 270.13 366.96 270.13 342.675H271.24C271.211 367.245 261.433 390.8 244.051 408.174C226.67 425.548 203.104 435.321 178.523 435.35Z" stroke="#0A9CE5" stroke-width="3" stroke-miterlimit="10"/>
<path d="M220.884 386.904C220.629 386.905 220.377 386.854 220.143 386.754C219.909 386.654 219.699 386.506 219.524 386.321L176.635 343.452V262.792C176.627 262.535 176.672 262.279 176.767 262.04C176.862 261.8 177.005 261.583 177.187 261.401C177.369 261.219 177.586 261.077 177.826 260.982C178.065 260.887 178.321 260.842 178.578 260.849C178.835 260.842 179.092 260.887 179.331 260.982C179.57 261.077 179.787 261.219 179.969 261.401C180.151 261.583 180.294 261.8 180.389 262.04C180.484 262.279 180.529 262.535 180.521 262.792V342.009L222.161 383.63C222.527 383.999 222.732 384.498 222.732 385.017C222.732 385.537 222.527 386.036 222.161 386.405C221.806 386.714 221.355 386.891 220.884 386.904V386.904Z" fill="#0A9CE5"/>
<path fill-rule="evenodd" clip-rule="evenodd" d="M199.87 301.415C207.514 291.085 214.522 280.299 220.856 269.118C229.805 252.313 237.237 234.745 243.064 216.621C269.043 231.159 296.205 243.477 324.261 253.441C341.611 259.628 358.517 263.763 373.951 267.675C366.296 287.183 353.119 304.037 336.031 316.177C314.218 330.931 287.743 337.162 261.635 333.685C241.426 323.058 220.245 311.932 199.87 301.415Z" fill="#A2E9FC"/>
<path fill-rule="evenodd" clip-rule="evenodd" d="M374.006 267.731C366.338 287.239 353.152 304.092 336.059 316.233C314.254 330.957 287.801 337.167 261.718 333.686C252.474 328.858 243.064 323.919 233.542 319.007C280.012 297.365 317.96 313.708 374.006 267.731Z" fill="#81DCFC"/>
<path fill-rule="evenodd" clip-rule="evenodd" d="M370.342 268.979C348.44 272.448 326.26 276.221 304.441 280.217L279.457 284.795C279.37 284.8 279.283 284.782 279.205 284.743C279.127 284.704 279.061 284.646 279.013 284.573C274.548 273.365 269.498 262.399 263.884 251.721C257.666 239.958 250.76 228.571 243.203 217.62C243.064 217.398 243.203 217.231 243.203 217.037C243.203 216.843 243.591 217.037 243.786 217.037C251.389 228.004 258.323 239.42 264.55 251.221C270.276 261.821 275.383 272.744 279.846 283.935C287.951 282.381 296.168 280.855 304.413 279.44C326.232 275.5 348.412 271.754 370.314 268.202C370.366 268.186 370.42 268.18 370.473 268.187C370.527 268.194 370.578 268.213 370.623 268.242C370.669 268.271 370.707 268.311 370.735 268.357C370.763 268.402 370.781 268.454 370.786 268.508C370.787 268.628 370.741 268.744 370.658 268.832C370.575 268.92 370.462 268.972 370.342 268.979V268.979Z" fill="#0A9CE5"/>
<path fill-rule="evenodd" clip-rule="evenodd" d="M202.923 300.389C202.923 300.389 202.507 300.389 202.479 300.167C202.458 300.067 202.467 299.963 202.507 299.869C202.547 299.774 202.615 299.695 202.701 299.64C211.251 296.699 219.857 293.73 228.379 290.65C243.786 285.101 259.276 279.135 274.516 273.031C274.608 272.993 274.711 272.992 274.804 273.028C274.897 273.064 274.973 273.135 275.015 273.225C275.015 273.475 275.015 273.641 274.821 273.752C259.609 279.856 244.119 285.794 228.712 291.371C220.162 294.387 211.566 297.392 202.923 300.389Z" fill="#0A9CE5"/>
<path fill-rule="evenodd" clip-rule="evenodd" d="M298.222 315.844C298.12 315.861 298.014 315.84 297.927 315.783C297.84 315.727 297.777 315.64 297.751 315.539C296.418 309.99 293.753 297.392 292.698 291.815C292.115 288.652 291.505 285.434 291.005 282.27C290.987 282.221 290.982 282.168 290.989 282.116C290.996 282.064 291.015 282.014 291.044 281.971C291.074 281.927 291.114 281.892 291.16 281.867C291.206 281.842 291.258 281.828 291.31 281.826C291.358 281.809 291.408 281.803 291.459 281.809C291.509 281.814 291.557 281.831 291.6 281.857C291.643 281.884 291.679 281.92 291.706 281.963C291.732 282.006 291.749 282.054 291.754 282.104C292.282 285.267 292.892 288.486 293.475 291.649C294.503 297.198 297.195 309.823 298.5 315.289C298.529 315.4 298.516 315.517 298.465 315.619C298.414 315.721 298.328 315.801 298.222 315.844V315.844Z" fill="#0A9CE5"/>
<path fill-rule="evenodd" clip-rule="evenodd" d="M258.332 332.77C261.718 332.77 271.018 333.824 277.458 329.995C286.008 324.806 291.81 315.677 294.253 311.821C298.048 313.763 302.066 315.235 306.217 316.205C327.453 320.45 339.529 314.068 344.109 310.655C319.681 333.685 276.154 339.984 258.332 332.77Z" fill="#0A9CE5"/>
<path fill-rule="evenodd" clip-rule="evenodd" d="M270.046 333.685C267.84 334.167 265.569 334.27 263.328 333.991C260.902 333.681 258.552 332.939 256.388 331.799C250.198 328.58 240.982 323.918 234.708 320.7L199.759 302.692C199.667 302.646 199.585 302.581 199.519 302.502C199.454 302.422 199.405 302.33 199.376 302.231C199.348 302.132 199.34 302.029 199.353 301.926C199.366 301.824 199.4 301.726 199.453 301.638C199.558 301.463 199.725 301.334 199.921 301.277C200.116 301.221 200.326 301.24 200.508 301.332L235.458 319.34C241.648 322.587 250.892 327.304 257.138 330.439C259.133 331.511 261.305 332.216 263.55 332.52C266.638 332.857 269.761 332.487 272.683 331.438C276.635 330.033 280.214 327.746 283.149 324.751C287.353 320.923 290.866 316.399 293.531 311.377C293.582 311.286 293.654 311.209 293.741 311.151C293.828 311.093 293.927 311.056 294.031 311.044C294.213 311.001 294.403 311.001 294.586 311.044C296.559 312.158 298.631 313.087 300.776 313.819C306.111 315.771 311.751 316.757 317.432 316.732C322.771 317.087 328.128 316.437 333.227 314.817C337.967 313.017 342.347 310.386 346.163 307.048C359.321 295.783 369.426 276.083 373.146 268.202C373.241 268.024 373.397 267.887 373.586 267.815C373.775 267.744 373.984 267.743 374.173 267.814C374.351 267.909 374.489 268.065 374.56 268.254C374.632 268.443 374.632 268.652 374.561 268.841C370.786 276.915 360.682 296.865 347.135 308.352C343.196 311.846 338.639 314.575 333.699 316.399C328.435 318.097 322.897 318.784 317.377 318.425C311.529 318.434 305.725 317.43 300.221 315.456C298.25 314.714 296.331 313.842 294.475 312.847C291.792 317.768 288.28 322.189 284.093 325.916C280.964 329.065 277.17 331.473 272.989 332.964L270.046 333.685Z" fill="#0A9CE5"/>
<path d="M368.174 288.514C379.136 281.19 383.767 268.891 378.519 261.043C373.271 253.195 360.131 252.77 349.169 260.094C338.207 267.418 333.576 279.716 338.824 287.564C344.072 295.412 357.213 295.837 368.174 288.514Z" fill="#BF2652"/>
<path fill-rule="evenodd" clip-rule="evenodd" d="M335.254 282.27L341.222 278.274L344.997 283.935L339.029 287.903L335.254 282.27Z" fill="#BF2652"/>
<path fill-rule="evenodd" clip-rule="evenodd" d="M368.871 259.462L374.839 255.467L378.143 260.406L372.146 264.374L368.871 259.462Z" fill="#BF2652"/>
<path d="M364.846 283.474C375.807 276.15 380.439 263.851 375.191 256.003C369.943 248.156 356.802 247.731 345.841 255.054C334.879 262.378 330.247 274.677 335.496 282.525C340.744 290.373 353.884 290.798 364.846 283.474Z" fill="#FC6C85"/>
<path fill-rule="evenodd" clip-rule="evenodd" d="M363.263 263.402L361.764 265.317L357.434 263.347L354.491 267.176C354.847 267.093 355.209 267.038 355.574 267.009C355.986 267.042 356.39 267.145 356.768 267.314C357.09 267.438 357.378 267.635 357.61 267.891C357.841 268.146 358.009 268.452 358.1 268.785C358.14 269.176 358.096 269.572 357.972 269.945C357.847 270.318 357.645 270.66 357.378 270.949L354.602 274.584C354.26 275.048 353.825 275.435 353.325 275.722C352.88 276.008 352.393 276.223 351.882 276.36C351.393 276.486 350.887 276.533 350.383 276.499C349.895 276.471 349.416 276.358 348.967 276.166C348.574 276.007 348.223 275.76 347.94 275.444C347.677 275.129 347.487 274.76 347.385 274.362C347.274 273.944 347.274 273.504 347.385 273.086C347.551 272.566 347.804 272.078 348.134 271.643L348.578 271.06L350.771 272.032L350.383 272.503C350.176 272.772 350.077 273.109 350.105 273.447C350.15 273.601 350.232 273.742 350.343 273.858C350.454 273.974 350.591 274.061 350.744 274.113C350.887 274.195 351.05 274.239 351.216 274.239C351.381 274.239 351.544 274.195 351.687 274.113C351.877 274.068 352.055 273.985 352.212 273.871C352.369 273.757 352.502 273.613 352.604 273.447L355.157 270.117C355.332 269.863 355.428 269.564 355.435 269.257C355.431 269.11 355.376 268.969 355.28 268.858C355.184 268.747 355.052 268.672 354.907 268.646C354.765 268.537 354.586 268.488 354.408 268.508C354.269 268.508 354.103 268.508 353.964 268.508C353.817 268.51 353.678 268.57 353.575 268.674C353.497 268.745 353.401 268.793 353.298 268.813L351.354 267.953L357.239 260.322L363.263 263.402Z" fill="#BF2652"/>
</g>
<path d="M617.832 159.839C617.832 159.839 615.833 141.165 616.055 140L611.281 140.777C611.152 140.752 611.02 140.752 610.892 140.777L597.318 150.433C597.22 150.496 597.14 150.582 597.085 150.684C597.029 150.786 597 150.9 597 151.016C597 151.131 597.029 151.246 597.085 151.347C597.14 151.449 597.22 151.535 597.318 151.598L612.447 160.45C612.514 160.488 612.591 160.509 612.669 160.509C612.747 160.509 612.823 160.488 612.891 160.45V160.45L617.832 159.839Z" fill="#F9C973"/>
<path fill-rule="evenodd" clip-rule="evenodd" d="M615.667 140.111L602.092 149.767C601.995 149.83 601.915 149.916 601.859 150.018C601.804 150.119 601.775 150.234 601.775 150.349C601.775 150.465 601.804 150.579 601.859 150.681C601.915 150.783 601.995 150.869 602.092 150.932L617.221 159.783C617.333 159.842 617.459 159.87 617.585 159.864C617.711 159.859 617.833 159.821 617.94 159.754C618.047 159.686 618.134 159.592 618.193 159.48C618.252 159.369 618.281 159.244 618.276 159.117L616.722 140.61C616.695 140.501 616.645 140.4 616.575 140.313C616.504 140.226 616.415 140.156 616.314 140.108C616.213 140.06 616.102 140.036 615.99 140.036C615.878 140.037 615.767 140.062 615.667 140.111V140.111Z" fill="#FFF9B0"/>
<defs>
<clipPath id="clip0_2_2">
<rect width="597" height="626" fill="white"/>
</clipPath>
</defs>
</svg>
