<svg width="149" height="182" viewBox="0 0 149 182" fill="none" xmlns="http://www.w3.org/2000/svg">
<g clip-path="url(#clip0_90_375)">
<path fill-rule="evenodd" clip-rule="evenodd" d="M42.8519 69.3596C41.1706 58.0279 38.8988 46.7928 36.046 35.7008C34.0825 28.0002 31.9598 20.7266 29.8371 14.0135C28.2583 9.02209 26.6531 4.31093 25.1009 -0.0532227C36.2715 4.76025 47.4289 9.56483 58.5731 14.3605C61.9959 25.2909 65.4984 37.636 68.5764 50.942C69.452 54.7189 70.2346 58.3624 70.9643 61.8858C72.7421 70.5741 74.0821 78.4616 75.0771 85.5083C64.3487 80.1432 53.6069 74.7603 42.8519 69.3596Z" fill="#A2E9FC"/>
<path fill-rule="evenodd" clip-rule="evenodd" d="M42.8519 69.3593C42.5998 67.5842 41.9763 63.8207 41.9763 63.8207C41.9763 63.8207 61.8765 70.8273 68.51 51.0352C69.3856 54.7987 70.1684 58.4556 70.8981 61.9789C72.6758 70.6672 74.0157 78.5547 75.024 85.6014C64.3309 80.1562 53.6069 74.7422 42.8519 69.3593Z" fill="#81DCFC"/>
<path fill-rule="evenodd" clip-rule="evenodd" d="M58.8518 14.6006C63.4023 29.0144 67.2098 43.2946 70.1949 57.0677C72.3043 66.7837 74.0157 76.3928 75.3291 85.6817C75.3291 85.8685 75.3291 85.9619 75.1168 85.8685L59.1966 77.8609C53.8899 75.1917 48.5831 72.5225 43.1305 69.8533C43.0441 69.7956 42.9701 69.7209 42.9131 69.6338C42.8561 69.5466 42.8173 69.4488 42.7988 69.3461C42.7988 69.1593 42.7988 69.0258 42.9978 69.1192C48.3974 71.7884 53.7174 74.4576 59.0507 77.1936C64.384 79.9295 69.4652 82.4386 74.7189 85.0544C73.3922 75.8857 71.6941 66.3699 69.6245 56.8676C66.6527 43.0811 62.8451 28.8409 58.3344 14.5072C58.2548 14.267 58.3344 14.1335 58.4803 14.2002C58.6485 14.2837 58.7806 14.4261 58.8518 14.6006V14.6006Z" fill="#0A9CE5"/>
<path fill-rule="evenodd" clip-rule="evenodd" d="M52.8949 44.7625C52.9042 44.7811 52.9091 44.8017 52.9091 44.8226C52.9091 44.8434 52.9042 44.864 52.8949 44.8826C52.1121 47.9656 51.2365 50.9684 50.2415 53.7978C48.374 59.2093 45.988 64.4255 43.1172 69.3726C43.1172 69.4393 43.0112 69.3726 42.9316 69.3059C42.8992 69.2703 42.8751 69.2278 42.8613 69.1816C42.8475 69.1354 42.8444 69.0866 42.8519 69.039C45.7525 64.1187 48.1357 58.9079 49.9629 53.4908C50.9447 50.7015 51.8203 47.6986 52.6163 44.6824C48.8485 37.7692 44.9083 30.8559 40.8353 24.1562C36.1654 16.4155 31.2434 8.79491 26.2418 1.4012C26.2208 1.35988 26.2099 1.31413 26.2099 1.26774C26.2099 1.22134 26.2208 1.1756 26.2418 1.13428C26.2418 1.13428 26.3613 1.13428 26.4541 1.24105C31.4955 8.63476 36.4175 16.2954 41.0477 24.0361C45.1604 30.8159 49.1537 37.7692 52.9878 44.7225L52.8949 44.7625Z" fill="#0A9CE5"/>
<path fill-rule="evenodd" clip-rule="evenodd" d="M74.3607 84.0932C74.3607 84.1733 74.3607 84.2534 74.3607 84.2801C74.3607 84.3068 74.2147 84.2134 74.1484 84.0932C71.8134 79.4488 69.3193 74.751 66.7322 70.2534C62.2613 62.3659 57.4454 54.5985 52.2846 47.2048C52.2846 47.1247 52.1918 47.0046 52.2846 46.9378C52.3775 46.8711 52.3908 46.9379 52.4837 47.0446C57.5914 54.4784 62.4604 62.2458 66.9446 70.1333C69.5183 74.6576 72.0125 79.3287 74.374 84.0132C74.2546 84.0532 74.2811 84.0532 74.3607 84.0932Z" fill="#0A9CE5"/>
<path fill-rule="evenodd" clip-rule="evenodd" d="M58.1885 15.6818C58.1931 15.7173 58.1931 15.7531 58.1885 15.7886C57.2175 22.0738 55.6036 28.2412 53.3726 34.1928C52.5484 36.3831 51.605 38.5261 50.5468 40.6122C50.5468 40.679 50.4406 40.6122 50.361 40.6122C50.3378 40.5692 50.3256 40.521 50.3256 40.4721C50.3256 40.4231 50.3378 40.375 50.361 40.332C51.3693 38.3167 52.3112 36.1413 53.1603 33.9259C55.3635 27.9765 56.9679 21.8198 57.9496 15.5484C57.9496 15.5484 58.0425 15.4549 58.1088 15.5484C58.1396 15.5901 58.1663 15.6348 58.1885 15.6818V15.6818Z" fill="#0A9CE5"/>
<path fill-rule="evenodd" clip-rule="evenodd" d="M53.6246 75.8854C58.9471 72.9786 63.6918 69.1105 67.6212 64.4745C79.3226 51.0484 85.0273 33.098 87.2031 25.2104C89.8723 30.8681 91.9186 36.8023 93.3058 42.9073C97.1267 59.4297 96.3704 75.2848 95.5744 83.9864C92.5185 90.1281 89.0016 96.0264 85.0539 101.63C75.4487 115.149 66.0158 122.343 59.5416 126.24C59.5416 119.941 59.1834 112.894 58.467 105.42C57.5203 95.4762 55.9024 85.6085 53.6246 75.8854V75.8854Z" fill="#A2E9FC"/>
<path fill-rule="evenodd" clip-rule="evenodd" d="M85.0406 101.67C75.4354 115.203 66.0025 122.397 59.5416 126.28C59.5416 119.981 59.1834 112.934 58.4538 105.46C57.8833 99.5481 57.1271 94.143 56.3045 89.1782C59.409 94.7435 67.0242 112.374 85.0406 101.67Z" fill="#81DCFC"/>
<path fill-rule="evenodd" clip-rule="evenodd" d="M84.9742 48.473C83.7485 55.9669 82.1232 63.3891 80.1052 70.7075C79.1367 74.2709 78.0224 77.8476 76.8549 81.3843C76.8549 81.4644 76.8549 81.5045 76.7223 81.5312C73.4514 81.3979 70.1955 81.0097 66.9843 80.37C62.4178 79.4881 57.9511 78.1467 53.6512 76.3662C53.6512 76.3662 53.5451 76.2061 53.6512 76.126C53.7573 76.0459 53.7706 75.9258 53.8104 75.9792C58.0886 77.7563 62.5331 79.0976 67.0773 79.983C70.2636 80.6082 73.4921 80.9919 76.7356 81.1308C77.8632 77.7409 78.9643 74.2042 79.9328 70.6942C83.8641 56.2762 86.3224 41.4923 87.2694 26.5721C87.2694 26.4387 87.2693 26.3453 87.4153 26.3186C87.5612 26.2919 87.5348 26.3986 87.5348 26.5321C86.9776 33.8991 86.1284 41.2661 84.9742 48.473Z" fill="#0A9CE5"/>
<path fill-rule="evenodd" clip-rule="evenodd" d="M73.8831 81.2106C71.1257 92.6393 67.7733 103.914 63.84 114.989C62.7787 117.939 61.6776 120.875 60.5499 123.771C60.5499 123.905 60.4172 123.931 60.3774 123.865C60.35 123.823 60.3354 123.774 60.3354 123.724C60.3354 123.675 60.35 123.626 60.3774 123.584C61.4918 120.742 62.5931 117.805 63.6544 114.856C67.5776 103.821 70.921 92.5857 73.6708 81.1972C73.6708 81.0638 73.7902 80.997 73.8566 81.0638C73.9229 81.1305 73.9097 81.0771 73.8831 81.2106Z" fill="#0A9CE5"/>
<path fill-rule="evenodd" clip-rule="evenodd" d="M93.9161 83.4261C93.9161 83.5596 93.8099 83.6396 93.7569 83.6263C88.3459 82.0052 83.0927 79.8922 78.0623 77.3136C77.9827 77.3136 77.9561 77.1535 78.0623 77.02C78.1684 76.8865 78.1817 76.8198 78.248 76.8865C83.2702 79.4596 88.5144 81.5681 93.9161 83.1859C93.9161 83.1859 93.9293 83.346 93.9161 83.4261Z" fill="#0A9CE5"/>
<path fill-rule="evenodd" clip-rule="evenodd" d="M95.7867 83.346C101.098 82.2072 106.346 80.7861 111.508 79.0886C119.942 76.3047 128.123 72.7951 135.959 68.5986C137.564 72.1887 146.705 87.1363 149 91.9943C143.278 95.4045 137.282 98.3285 131.077 100.736C123.345 103.85 115.353 106.266 107.196 107.956C103.402 99.7439 99.5987 91.5405 95.7867 83.346Z" fill="#A2E9FC"/>
<path fill-rule="evenodd" clip-rule="evenodd" d="M95.7867 83.3462C96.8879 83.1193 98.0023 82.8524 99.13 82.5854C107.355 94.5035 116.377 88.8181 130.97 100.736C123.239 103.85 115.247 106.267 107.09 107.956C103.367 99.744 99.5987 91.5406 95.7867 83.3462Z" fill="#81DCFC"/>
<path fill-rule="evenodd" clip-rule="evenodd" d="M107.316 107.89C107.283 107.889 107.252 107.878 107.226 107.859C107.2 107.84 107.18 107.813 107.17 107.783L95.8529 83.4129C95.8444 83.3928 95.8402 83.3712 95.8403 83.3494C95.8404 83.3276 95.8449 83.306 95.8536 83.286C95.8623 83.266 95.875 83.248 95.8908 83.2331C95.9067 83.2182 95.9255 83.2067 95.9459 83.1994C95.965 83.1905 95.9857 83.1855 96.0068 83.1847C96.0279 83.1839 96.0489 83.1873 96.0687 83.1948C96.0884 83.2022 96.1064 83.2135 96.1218 83.2281C96.1371 83.2426 96.1496 83.2601 96.1582 83.2795L107.395 107.543C113.62 106.334 119.749 104.666 125.73 102.551C133.728 99.7115 141.433 96.0955 148.735 91.7542C148.766 91.727 148.806 91.712 148.847 91.712C148.889 91.712 148.929 91.727 148.96 91.7542C148.987 91.7857 149.002 91.826 149.002 91.8676C149.002 91.9093 148.987 91.9496 148.96 91.9811C141.631 96.3204 133.9 99.932 125.876 102.765C119.845 104.907 113.663 106.588 107.382 107.796L107.316 107.89Z" fill="#0A9CE5"/>
<path fill-rule="evenodd" clip-rule="evenodd" d="M124.045 88.2439C121.219 88.0304 118.354 87.7368 115.568 87.3764C109.04 86.5196 102.575 85.2402 96.2112 83.5461C96.2018 83.5299 96.1969 83.5115 96.1969 83.4927C96.1969 83.474 96.2018 83.4556 96.2112 83.4394C96.2253 83.4312 96.2413 83.4268 96.2576 83.4268C96.2739 83.4268 96.29 83.4312 96.3041 83.4394C102.659 85.1334 109.115 86.4128 115.634 87.2697C118.433 87.63 121.259 87.937 124.072 88.1505C126.507 85.2742 128.724 82.2183 130.705 79.0085C132.699 75.7255 134.442 72.2946 135.919 68.7454C135.926 68.7369 135.935 68.73 135.946 68.7254C135.956 68.7207 135.967 68.7183 135.979 68.7183C135.99 68.7183 136.001 68.7207 136.011 68.7254C136.022 68.73 136.031 68.7369 136.038 68.7454C136.051 68.7601 136.059 68.7791 136.059 68.7988C136.059 68.8185 136.051 68.8375 136.038 68.8521C134.576 72.419 132.828 75.8603 130.811 79.1419C128.842 82.3764 126.624 85.451 124.178 88.3374L124.045 88.2439Z" fill="#0A9CE5"/>
<path fill-rule="evenodd" clip-rule="evenodd" d="M148.775 92.0077C140.798 90.8258 132.909 89.1092 125.16 86.8695C125.146 86.8548 125.139 86.8358 125.139 86.8161C125.139 86.7964 125.146 86.7774 125.16 86.7627C125.172 86.7505 125.188 86.7437 125.206 86.7437C125.223 86.7437 125.24 86.7505 125.252 86.7627C132.974 88.9734 140.832 90.672 148.775 91.8476V91.941C148.775 91.941 148.814 92.0077 148.775 92.0077Z" fill="#0A9CE5"/>
<path fill-rule="evenodd" clip-rule="evenodd" d="M107.382 107.769C107.37 107.752 107.363 107.731 107.363 107.709C107.363 107.688 107.37 107.667 107.382 107.649C112.652 101.456 117.48 94.8955 121.83 88.0171C121.83 88.0171 121.829 88.0171 121.936 88.0171C121.948 88.0348 121.954 88.0557 121.954 88.0771C121.954 88.0986 121.948 88.1195 121.936 88.1372C117.597 95.0133 112.783 101.574 107.528 107.769H107.382Z" fill="#0A9CE5"/>
<path fill-rule="evenodd" clip-rule="evenodd" d="M114.161 65.8759C112.514 60.8204 110.455 55.9102 108.005 51.1953C103.657 42.8355 98.1345 35.1493 91.6076 28.3736C99.4748 21.7005 107.355 15.0275 115.209 8.35449C118.632 14.7072 123.302 22.1543 127.15 28.0666C127.605 28.781 127.928 29.5722 128.105 30.4022C128.105 30.4022 132.085 41.9331 127.083 52.3964C124.348 58.184 119.811 62.9165 114.161 65.8759V65.8759Z" fill="#A2E9FC"/>
<path fill-rule="evenodd" clip-rule="evenodd" d="M120.224 17.1631C121.219 18.8447 127.242 27.3862 128.052 30.002C130.667 37.2982 130.349 45.3335 127.163 52.3966C124.965 56.9907 121.624 60.9353 117.465 63.8476C125 52.37 125.186 30.696 120.224 17.1631Z" fill="#81DCFC"/>
<path fill-rule="evenodd" clip-rule="evenodd" d="M124.35 57.7618C125.98 55.2856 127.078 52.4946 127.574 49.5674C128.109 46.6344 128.073 43.6248 127.468 40.7056C127.139 39.1619 126.645 37.6584 125.995 36.2213C126.424 35.7685 126.798 35.2669 127.11 34.7266C127.693 33.7427 128.039 32.635 128.119 31.4923C128.2 30.3496 128.013 29.2039 127.574 28.147C133.796 40.4253 128.158 53.3843 124.35 57.7618Z" fill="#0A9CE5"/>
<path fill-rule="evenodd" clip-rule="evenodd" d="M128.33 30.3621C128.343 30.5131 128.343 30.6649 128.33 30.8159C128.379 32.1385 128.067 33.4493 127.428 34.6062C127.131 35.1903 126.766 35.7369 126.34 36.2344C126.814 37.3899 127.195 38.5814 127.481 39.7978C128.251 43.1006 128.318 46.5297 127.68 49.8607C127.296 51.7107 126.681 53.5044 125.849 55.1991C123.269 59.9882 119.148 63.753 114.161 65.8759C114.132 65.8889 114.1 65.8958 114.068 65.8961C114.035 65.8963 114.003 65.89 113.974 65.8776C113.944 65.8651 113.917 65.8467 113.894 65.8235C113.872 65.8003 113.854 65.7727 113.843 65.7425C113.823 65.6819 113.826 65.6164 113.85 65.5577C113.875 65.499 113.919 65.4509 113.975 65.4222C118.856 63.3274 122.891 59.6357 125.425 54.9455C126.23 53.2811 126.832 51.5243 127.216 49.7139C127.854 46.459 127.786 43.1039 127.017 39.8778C126.725 38.6322 126.331 37.4134 125.836 36.2344C125.809 36.1977 125.795 36.1532 125.795 36.1076C125.795 36.062 125.809 36.0175 125.836 35.9808C126.288 35.4928 126.672 34.945 126.977 34.3526C127.597 33.2813 127.9 32.0545 127.853 30.8159C127.759 29.9187 127.493 29.0484 127.07 28.2534C126.525 27.2407 125.908 26.2684 125.226 25.344C121.484 19.9272 118.107 14.2647 115.116 8.39453C115.087 8.33389 115.082 8.26443 115.102 8.20008C115.121 8.13574 115.165 8.08124 115.223 8.04753C115.281 8.01898 115.348 8.01415 115.41 8.03404C115.471 8.05392 115.523 8.097 115.554 8.1543C118.553 14.0017 121.92 19.6497 125.637 25.0637C126.321 26.0186 126.95 27.0123 127.521 28.0399C127.891 28.7747 128.163 29.5555 128.33 30.3621V30.3621Z" fill="#0A9CE5"/>
<path fill-rule="evenodd" clip-rule="evenodd" d="M115.66 38.1432C116.586 44.4833 116.671 50.9189 115.912 57.2814C115.609 59.8088 115.166 62.3172 114.586 64.7952C114.586 64.8753 114.506 64.9153 114.453 64.8886C114.438 64.8872 114.423 64.8824 114.41 64.8747C114.396 64.8669 114.385 64.8563 114.376 64.8436C114.367 64.8309 114.361 64.8164 114.358 64.8011C114.356 64.7858 114.356 64.7702 114.36 64.7552C114.95 62.2881 115.393 59.788 115.687 57.268C116.623 49.5765 116.309 41.783 114.758 34.1927C113.299 33.5254 111.786 32.9249 110.301 32.3777C104.773 30.349 99.0147 29.0264 93.1599 28.4406C93.1271 28.4373 93.0966 28.4218 93.0745 28.3971C93.0525 28.3724 93.0402 28.3403 93.0404 28.3071C93.0404 28.2271 93.0405 28.2004 93.1732 28.187C99.0688 28.7734 104.865 30.119 110.42 32.1908C111.959 32.7514 113.471 33.392 114.957 34.0593C114.965 34.0853 114.965 34.1133 114.957 34.1394C115.236 35.4072 115.488 36.7685 115.66 38.1432Z" fill="#0A9CE5"/>
<path fill-rule="evenodd" clip-rule="evenodd" d="M129.259 39.5846C129.259 39.5846 129.166 39.6646 129.1 39.5846C127.296 38.9956 125.462 38.5011 123.607 38.1032C120.876 37.5075 118.104 37.1194 115.315 36.942C115.236 36.942 115.209 36.9421 115.196 36.8086C115.202 36.7766 115.218 36.7475 115.242 36.7257C115.266 36.704 115.297 36.6909 115.329 36.6885C118.128 36.857 120.91 37.2497 123.647 37.8629C125.502 38.2671 127.335 38.766 129.14 39.3577C129.219 39.4911 129.259 39.5312 129.259 39.5846Z" fill="#0A9CE5"/>
<path fill-rule="evenodd" clip-rule="evenodd" d="M115.262 10.3429C115.407 16.1516 115.003 21.961 114.055 27.6928C113.75 29.5212 113.392 31.3897 112.954 33.2181C112.952 33.2339 112.948 33.2492 112.94 33.2632C112.932 33.2771 112.922 33.2894 112.91 33.2993C112.897 33.3093 112.883 33.3166 112.868 33.321C112.853 33.3254 112.837 33.3267 112.821 33.3248C112.804 33.324 112.788 33.319 112.773 33.3104C112.759 33.3019 112.746 33.2899 112.737 33.2755C112.728 33.2612 112.723 33.2448 112.721 33.2278C112.719 33.2109 112.722 33.1938 112.728 33.178C113.14 31.363 113.524 29.5079 113.803 27.6528C114.741 21.9515 115.137 16.1732 114.984 10.3963C114.981 10.3787 114.983 10.3606 114.988 10.3438C114.994 10.3269 115.004 10.3118 115.018 10.2999C115.031 10.2879 115.047 10.2795 115.064 10.2754C115.081 10.2712 115.099 10.2715 115.116 10.2762C115.145 10.2698 115.174 10.2729 115.201 10.2849C115.227 10.2969 115.249 10.3173 115.262 10.3429V10.3429Z" fill="#0A9CE5"/>
<path fill-rule="evenodd" clip-rule="evenodd" d="M37.9829 108.797L52.5765 86.6824C48.9016 83.2524 44.8286 79.7291 40.3046 76.1924C33.8312 71.1275 27.0376 66.4911 19.9666 62.3125L4.86893 83.7462C10.9609 87.3711 16.8432 91.3413 22.4873 95.6376C27.8884 99.735 33.0614 104.128 37.9829 108.797V108.797Z" fill="#A2E9FC"/>
<path fill-rule="evenodd" clip-rule="evenodd" d="M37.9829 108.797L52.5765 86.6824C48.9015 83.2524 44.8286 79.7291 40.3046 76.1924C43.2366 90.0189 39.6678 98.3869 36.4838 107.369C36.9746 107.769 37.4788 108.316 37.9829 108.797Z" fill="#81DCFC"/>
<path fill-rule="evenodd" clip-rule="evenodd" d="M52.5898 86.5756C52.6133 86.6137 52.6257 86.6576 52.6257 86.7024C52.6257 86.7472 52.6133 86.7911 52.5898 86.8292L38.1953 108.997C38.1766 109.017 38.1541 109.033 38.129 109.044C38.1039 109.055 38.0767 109.061 38.0493 109.061C38.0219 109.061 37.9948 109.055 37.9697 109.044C37.9446 109.033 37.9221 109.017 37.9034 108.997C37.8833 108.978 37.8673 108.956 37.8563 108.93C37.8453 108.905 37.8396 108.878 37.8396 108.85C37.8396 108.823 37.8453 108.795 37.8563 108.77C37.8673 108.745 37.8833 108.722 37.9034 108.703L52.2184 86.6824C47.4821 82.2915 42.4804 78.0742 37.3329 74.1771C31.7638 69.9625 25.9806 66.0424 20.0065 62.4326C19.9729 62.3937 19.9543 62.344 19.9543 62.2925C19.9543 62.241 19.9729 62.1912 20.0065 62.1523C20.0342 62.106 20.0783 62.0719 20.13 62.057C20.1817 62.0422 20.2371 62.0476 20.285 62.0723C26.2774 65.6831 32.0743 69.6124 37.6513 73.8435C42.8651 77.8473 47.9067 82.0513 52.696 86.4822C52.5766 86.5623 52.5765 86.5623 52.5898 86.5756Z" fill="#0A9CE5"/>
<path fill-rule="evenodd" clip-rule="evenodd" d="M52.3113 86.6826C52.3113 86.6826 52.3113 86.7894 52.1919 86.776C47.6812 86.3223 43.0908 86.0954 38.5403 86.0954C35.8869 86.0954 33.0346 86.1621 30.3149 86.3223C30.3149 86.3223 30.1954 86.3223 30.2086 86.2288C30.2219 86.1354 30.2087 86.1087 30.3016 86.1221C32.955 85.9619 35.8073 85.8818 38.527 85.8818C43.0775 85.8818 47.6679 86.1221 52.2185 86.5758C52.2848 86.6426 52.298 86.6693 52.3113 86.6826Z" fill="#0A9CE5"/>
<path fill-rule="evenodd" clip-rule="evenodd" d="M20.2186 62.1791C21.5453 66.1829 22.8721 70.3068 23.9998 74.3774C24.7958 77.2601 25.5519 80.1963 26.2418 83.1057C26.2425 83.1334 26.2336 83.1605 26.2167 83.1824C26.1998 83.2043 26.1759 83.2197 26.149 83.2258C26.149 83.2258 26.056 83.2258 26.0295 83.1457C25.3396 80.2363 24.5967 77.3002 23.7875 74.4041C22.6465 70.3335 21.3729 66.2363 20.0197 62.2325C20.0057 62.2157 19.9979 62.1944 19.9979 62.1724C19.9979 62.1505 20.0057 62.1292 20.0197 62.1124C20.0354 62.0976 20.0548 62.0874 20.0758 62.0828C20.0967 62.0782 20.1186 62.0794 20.1389 62.0862C20.1593 62.0931 20.1774 62.1053 20.1914 62.1216C20.2054 62.138 20.2148 62.1578 20.2186 62.1791V62.1791Z" fill="#0A9CE5"/>
<path fill-rule="evenodd" clip-rule="evenodd" d="M29.1075 83.0656L38.1024 108.797C38.1113 108.805 38.1182 108.816 38.123 108.827C38.1278 108.839 38.1303 108.851 38.1303 108.863C38.1303 108.876 38.1278 108.888 38.123 108.9C38.1182 108.911 38.1113 108.922 38.1024 108.93C38.0857 108.944 38.0645 108.952 38.0427 108.952C38.0208 108.952 37.9997 108.944 37.9829 108.93L28.9881 83.2658L5.51898 83.6929C5.51898 83.6929 5.4129 83.6929 5.4129 83.5861C5.4129 83.4793 5.41284 83.4793 5.51898 83.4793L29.0544 83.0522L29.1075 83.0656Z" fill="#0A9CE5"/>
<path fill-rule="evenodd" clip-rule="evenodd" d="M43.3162 45.9506L42.8652 41.4529L35.2899 41.6531C32.4906 40.9191 31.0975 38.6236 32.2783 36.4882L34.1886 33.0182C34.4947 32.4504 34.6372 31.808 34.6 31.1631V31.1631L34.1488 26.4253L32.8221 26.5454C32.8221 26.5454 25.1673 28.267 23.9865 30.4291L22.076 33.9124C20.935 36.0478 17.6848 37.1822 14.8722 36.4482L10.2288 35.2604C8.04019 34.871 5.81585 34.7233 3.59536 34.82L2.26868 34.9401L2.67986 39.2775C2.67986 40.9191 3.94031 42.3872 6.08954 42.961L10.7329 44.1488C13.5455 44.8829 14.9253 47.1784 13.7445 49.3138L11.0912 50.0478L11.4891 54.4253C11.5792 55.3195 11.9659 56.1573 12.5868 56.8037C13.2076 57.45 14.0265 57.8674 14.9119 57.9887V57.9887C17.7244 58.7227 20.9749 57.575 22.1158 55.4529L24.0263 51.9696C25.1673 49.8476 28.4308 48.6998 31.2302 49.4339L35.8736 50.5816C38.6861 51.3157 41.9366 50.1679 43.0775 48.0459C43.39 47.3946 43.4741 46.6561 43.3162 45.9506V45.9506Z" fill="#BF2652"/>
<path fill-rule="evenodd" clip-rule="evenodd" d="M23.4956 25.5577L21.5718 29.041C20.4308 31.163 17.1806 32.3108 14.368 31.5767L9.72458 30.3889C6.92528 29.6549 3.66156 30.8027 2.52061 32.9247C1.39293 35.0601 2.73291 37.3956 5.53221 38.0896L10.1756 39.2774C12.9882 40.0114 14.368 42.307 13.1872 44.4423L11.2767 47.9123C10.1358 50.0477 11.4757 52.3832 14.2883 53.0772C17.1009 53.8113 20.3513 52.6635 21.4923 50.5415L23.4026 47.0582C24.5436 44.9228 27.8073 43.775 30.6066 44.5224L35.25 45.7102C38.0626 46.4442 41.3128 45.2965 42.4538 43.1611C43.5947 41.0391 42.2549 38.7035 39.4424 38.0095L34.799 36.8217C31.9997 36.0877 30.6066 33.7922 31.7874 31.6568L33.711 28.1735C34.8519 26.0515 33.4987 23.7159 30.6994 23.0219C27.9266 22.3546 24.6631 23.4357 23.4956 25.5577Z" fill="#BF2652"/>
<path fill-rule="evenodd" clip-rule="evenodd" d="M23.4956 25.5577L21.5718 29.041C20.4308 31.163 17.1806 32.3108 14.368 31.5767L9.72458 30.3889C6.92528 29.6549 3.66156 30.8027 2.52061 32.9247C1.39293 35.0601 2.73291 37.3956 5.53221 38.0896L10.1756 39.2774C12.9882 40.0114 14.368 42.307 13.1872 44.4423L11.2767 47.9123C10.1358 50.0477 11.4757 52.3832 14.2883 53.0772C17.1009 53.8113 20.3513 52.6635 21.4923 50.5415L23.4026 47.0582C24.5436 44.9228 27.8073 43.775 30.6066 44.5224L35.25 45.7102C38.0626 46.4442 41.3128 45.2965 42.4538 43.1611C43.5947 41.0391 42.2549 38.7035 39.4424 38.0095L34.799 36.8217C31.9997 36.0877 30.6066 33.7922 31.7874 31.6568L33.711 28.1735C34.8519 26.0515 33.4987 23.7159 30.6994 23.0219C27.9266 22.3546 24.6631 23.4357 23.4956 25.5577Z" fill="#FC6C85"/>
<path fill-rule="evenodd" clip-rule="evenodd" d="M0.543915 104.126L1.98996 102.885C2.29863 102.604 2.70171 102.451 3.11777 102.458H144.503C144.785 102.455 145.066 102.51 145.328 102.617C145.59 102.725 145.828 102.884 146.028 103.085L147.156 104.126H0.543915Z" fill="#006A9F"/>
<path fill-rule="evenodd" clip-rule="evenodd" d="M140.695 176.955C143.056 153.146 145.422 129.346 147.793 105.554C147.82 105.358 147.808 105.158 147.755 104.968C147.702 104.777 147.61 104.599 147.485 104.446C147.361 104.293 147.205 104.168 147.03 104.078C146.855 103.989 146.662 103.937 146.466 103.926H1.39294C1.19644 103.937 1.00435 103.989 0.828868 104.078C0.653389 104.168 0.498385 104.293 0.37363 104.446C0.248875 104.599 0.157058 104.777 0.104147 104.968C0.0512354 105.158 0.0383609 105.358 0.0662507 105.554C2.50735 129.363 4.93961 153.164 7.36302 176.955C7.38492 177.302 7.53177 177.629 7.77599 177.875C8.0202 178.12 8.34503 178.268 8.6897 178.29H139.368C139.715 178.274 140.043 178.128 140.288 177.881C140.534 177.634 140.679 177.304 140.695 176.955Z" fill="#28C4EE"/>
<path fill-rule="evenodd" clip-rule="evenodd" d="M140.695 176.955C143.056 153.146 145.422 129.346 147.793 105.554C147.821 105.358 147.808 105.158 147.755 104.968C147.702 104.777 147.61 104.599 147.485 104.446C147.361 104.293 147.206 104.168 147.03 104.078C146.855 103.989 146.662 103.937 146.466 103.926H123.116C68.9213 167.453 47.6943 138.545 6.02313 164.49C6.44767 168.654 6.89874 172.831 7.34982 176.995C7.37172 177.342 7.51857 177.669 7.76279 177.915C8.007 178.16 8.33182 178.308 8.6765 178.33H139.368C139.716 178.299 140.042 178.143 140.285 177.89C140.529 177.638 140.674 177.306 140.695 176.955Z" fill="#00AEEE"/>
<path fill-rule="evenodd" clip-rule="evenodd" d="M138.864 182H9.03478C8.80083 182.002 8.56881 181.957 8.35233 181.867C8.13584 181.778 7.93928 181.646 7.77385 181.48C7.60842 181.314 7.47745 181.116 7.38873 180.898C7.30002 180.68 7.2553 180.447 7.25707 180.211V180.038C7.2553 179.803 7.30002 179.569 7.38873 179.351C7.47745 179.134 7.60842 178.936 7.77385 178.769C7.93928 178.603 8.13584 178.471 8.35233 178.382C8.56881 178.293 8.80083 178.248 9.03478 178.25H138.864C139.098 178.248 139.33 178.293 139.547 178.382C139.763 178.471 139.96 178.603 140.125 178.769C140.291 178.936 140.421 179.134 140.51 179.351C140.599 179.569 140.644 179.803 140.642 180.038V180.211C140.632 180.683 140.441 181.132 140.11 181.465C139.779 181.798 139.332 181.99 138.864 182V182Z" fill="#006A9F"/>
<path d="M75.4751 148.128C79.549 148.128 82.8515 145.833 82.8515 143.003C82.8515 140.172 79.549 137.878 75.4751 137.878C71.4013 137.878 68.0988 140.172 68.0988 143.003C68.0988 145.833 71.4013 148.128 75.4751 148.128Z" fill="#006A9F"/>
<path fill-rule="evenodd" clip-rule="evenodd" d="M75.4618 137.878C71.4021 137.878 68.0855 140.173 68.0855 143.003C68.1022 143.996 68.4851 144.947 69.16 145.672C73.4599 144.191 77.6347 142.366 81.6442 140.213C80.8184 139.432 79.8468 138.823 78.7856 138.422C77.7244 138.022 76.5946 137.836 75.4618 137.878V137.878Z" fill="#00AEEE"/>
<path fill-rule="evenodd" clip-rule="evenodd" d="M101.014 63.4738C100.078 64.1723 99.4189 65.1811 99.1519 66.3218C98.8848 67.4624 99.0274 68.6613 99.5545 69.7064L101.266 73.3899C101.772 74.4381 101.902 75.6304 101.634 76.7641C101.365 77.8979 100.715 78.9032 99.7933 79.6091L96.7817 81.571C95.8591 82.2672 95.2079 83.2664 94.9414 84.3952C94.6748 85.524 94.8096 86.711 95.3224 87.7502V87.7502C95.618 88.5032 96.1431 89.1425 96.8224 89.5765C97.5017 90.0105 98.3003 90.2168 99.1034 90.1659L103.256 90.0057L103.548 87.7502C105.379 86.5624 107.7 87.4166 108.762 89.6721L110.46 93.3556C110.764 94.1293 111.311 94.7823 112.017 95.2157C112.723 95.6491 113.55 95.8394 114.374 95.7579L118.486 95.5977V94.4499C118.255 92.5762 117.81 90.7356 117.16 88.9647L115.488 85.2679C114.982 84.2186 114.85 83.0259 115.116 81.8906C115.382 80.7553 116.029 79.7469 116.947 79.0353L119.959 77.0734C121.79 75.8856 122.44 69.3327 122.44 69.3327V68.1849L117.929 68.3451C117.334 68.3683 116.757 68.5527 116.257 68.8789L113.246 70.8541C111.415 72.0419 109.093 71.1744 108.032 68.919L107.263 62.6196L102.991 62.7798C102.267 62.7452 101.559 62.9939 101.014 63.4738V63.4738Z" fill="#BF2652"/>
<path fill-rule="evenodd" clip-rule="evenodd" d="M126.009 70.6407C125.835 70.1371 125.552 69.6786 125.18 69.2984C124.809 68.9181 124.358 68.6255 123.86 68.4417C123.363 68.2578 122.831 68.1874 122.303 68.2353C121.775 68.2832 121.265 68.4484 120.808 68.7188L117.796 70.6807C115.966 71.8685 113.644 71.0144 112.583 68.7589L110.871 65.0754C110.695 64.5714 110.411 64.1128 110.038 63.7326C109.665 63.3523 109.214 63.0598 108.715 62.8761C108.217 62.6923 107.684 62.6219 107.155 62.6699C106.627 62.7179 106.115 62.883 105.657 63.1535V63.1535C104.723 63.8498 104.064 64.8563 103.797 65.9946C103.53 67.133 103.672 68.3298 104.198 69.3728L105.909 73.0563C106.409 74.108 106.536 75.3002 106.268 76.4343C106 77.5685 105.354 78.5759 104.437 79.2889L101.425 81.2508C100.491 81.947 99.8318 82.9535 99.5646 84.0919C99.2975 85.2302 99.4396 86.427 99.9658 87.47V87.47C100.14 87.9732 100.423 88.4314 100.795 88.8118C101.166 89.1921 101.616 89.4852 102.113 89.6701C102.61 89.855 103.141 89.9272 103.669 89.8814C104.197 89.8356 104.708 89.673 105.166 89.4052L108.178 87.43C110.022 86.2422 112.33 87.1097 113.392 89.3518L115.103 93.0487C115.279 93.5526 115.563 94.0112 115.936 94.3915C116.309 94.7717 116.761 95.0642 117.259 95.248C117.757 95.4317 118.29 95.5021 118.819 95.4541C119.348 95.4062 119.859 95.241 120.317 94.9705V94.9705C121.252 94.272 121.912 93.2631 122.179 92.1225C122.446 90.9819 122.303 89.783 121.776 88.7379L120.065 85.0811C119.566 84.0314 119.44 82.8413 119.708 81.7095C119.976 80.5777 120.622 79.5726 121.538 78.8618L124.549 76.9C125.489 76.1986 126.151 75.185 126.418 74.0391C126.685 72.8932 126.54 71.6892 126.009 70.6407V70.6407Z" fill="#FC6C85"/>
</g>
<defs>
<clipPath id="clip0_90_375">
<rect width="149" height="182" fill="white"/>
</clipPath>
</defs>
</svg>
