<svg width="154" height="160" viewBox="0 0 154 160" fill="none" xmlns="http://www.w3.org/2000/svg">
<g clip-path="url(#clip0_90_1323)">
<path d="M142.529 83.5495C142.529 84.7036 142.529 85.8228 142.529 87.0468V88.4807C142.529 88.9703 142.529 89.4599 142.529 89.9495C142.529 90.4391 142.355 91.6632 142.25 92.5375C142.146 93.4118 142.25 93.237 142.25 93.6217C142.25 94.0064 142.006 95.1255 141.867 95.9299L141.693 96.8741C141.693 97.6785 141.344 98.4829 141.1 99.2872C140.856 100.092 140.716 100.861 140.472 101.665C140.16 102.849 139.787 104.017 139.357 105.163C139.008 106.107 138.694 107.016 138.311 107.925L137.788 109.184C137.439 110.024 137.021 110.863 136.637 111.703C136.254 112.542 135.835 113.346 135.417 114.151C134.685 115.515 133.918 116.809 133.081 118.103C132.732 118.697 132.384 119.257 132 119.816C130.221 122.482 128.227 124.996 126.038 127.335L124.643 128.804C124.016 129.469 123.353 130.133 122.691 130.763L121.68 131.672L119.518 133.525C118.786 134.155 118.089 134.68 117.322 135.239C114.549 137.358 111.598 139.23 108.501 140.835L107.002 141.604C105.467 142.374 103.864 143.073 102.225 143.703C94.4937 146.889 86.2126 148.517 77.8542 148.494C76.9128 148.494 75.9365 148.494 74.9603 148.494H73.4611L71.683 148.319H69.9397C69.3819 148.319 68.8241 148.319 68.2662 148.109L64.7797 147.515H64.2915H63.5595H62.9317H62.6879C62.0873 147.396 61.4936 147.244 60.9097 147.06L59.8638 146.78H59.3756L58.1901 146.395C57.6442 146.258 57.1085 146.082 56.5864 145.871L55.4707 145.486C54.7734 145.241 54.111 144.997 53.4834 144.717H53.3091C52.8559 144.542 52.3677 144.367 51.9493 144.157L49.7528 143.143L48.1838 142.339C47.6316 142.094 47.0961 141.814 46.5801 141.499L44.2091 140.1C42.8145 139.261 41.4199 138.317 40.095 137.338L38.8748 136.393C38.317 135.974 37.7243 135.519 37.1665 135.029L34.8303 133.001C34.0284 132.301 33.2964 131.567 32.5642 130.833C31.832 130.098 31.2044 129.434 30.542 128.699C29.8795 127.93 29.1822 127.16 28.5197 126.356L26.5673 123.908C24.7164 121.391 23.0389 118.75 21.5467 116.004C20.5312 114.165 19.612 112.274 18.7924 110.339C17.9905 108.38 17.2583 106.387 16.6307 104.358C15.99 102.312 15.4546 100.234 15.0269 98.1331C14.16 93.8271 13.7162 89.4463 13.702 85.0534C13.712 80.8373 14.1325 76.6323 14.9573 72.4982C14.9573 71.7637 15.2362 71.0643 15.4105 70.3998C15.5849 69.7353 15.6893 69.1058 15.8636 68.4763C16.0379 67.8468 16.2473 67.0774 16.4565 66.3779C16.6173 65.7832 16.8152 65.1991 17.0491 64.6293C17.1876 64.055 17.3741 63.4934 17.6069 62.9506C17.8858 62.1113 18.2345 61.2719 18.5483 60.4326L19.2805 58.7539C19.5246 58.2293 19.7337 57.7047 20.0126 57.2151C20.2915 56.7255 20.8495 55.5364 21.2679 54.6971C21.6863 53.8577 22.1394 53.0533 22.6275 52.249C23.1156 51.4446 23.3946 50.92 23.8479 50.2555C23.9728 50.0812 24.0779 49.8936 24.1616 49.696L24.3361 49.4162C24.8242 48.7867 25.2773 48.0872 25.7305 47.4577C26.1838 46.8282 26.916 45.814 27.5436 45.0446C28.1712 44.2752 28.3803 43.9605 28.8336 43.4009L29.1126 43.0862L29.3218 42.8413C29.9842 42.0719 30.6465 41.3375 31.3438 40.638C31.6881 40.2165 32.0609 39.8192 32.4595 39.449C32.8082 39.0643 33.1917 38.6796 33.5752 38.3299C33.685 38.1948 33.8142 38.0769 33.9587 37.9801C33.9587 37.9801 33.9587 37.9801 34.1679 37.7703C34.5608 37.3695 34.9803 36.9956 35.4232 36.6512C35.8177 36.2628 36.2369 35.9007 36.6783 35.567L36.9573 35.2872C40.2699 32.6017 43.8443 30.2583 47.626 28.2927C49.4257 27.3089 51.2761 26.4217 53.1695 25.6348H53.5879C54.2154 25.39 54.8083 25.1102 55.4707 24.9003L56.1332 24.6206L58.4691 23.8512L58.9922 23.6763H59.515L61.3281 23.1867C61.7711 23.0333 62.2259 22.9164 62.6879 22.837C62.8256 22.8055 62.9685 22.8055 63.1062 22.837C63.4044 22.7505 63.707 22.6804 64.0128 22.6271V22.6271C64.6752 22.6271 65.3724 22.3474 66.0348 22.2075H66.523C67.2551 22.2075 68.0222 21.9277 68.7544 21.8228L71.2995 21.508L74.5768 21.2632C75.6925 21.2632 76.7734 21.2632 78.0634 21.2632H80.783H81.0617H82.3171H82.6307H84.095H84.9666L87.477 21.578C88.4184 21.578 89.3598 21.8577 90.3011 22.0676L92.0444 22.4173L93.1601 22.6621H93.4738L95.0428 23.0468L97.3091 23.7113C99.3313 24.3408 101.318 25.0752 103.271 25.8796C105.223 26.6839 107.106 27.6282 108.919 28.6424C109.791 29.0971 110.628 29.5867 111.464 30.1113C113.277 31.1954 114.951 32.4195 116.799 33.6085C117.635 34.238 118.437 34.9025 119.239 35.567L121.575 37.5954L123.842 39.7637C124.574 40.4982 125.306 41.2676 126.003 42.037C126.7 42.8064 127.258 43.4708 127.886 44.2402L128.095 44.485L129.49 46.2337V46.5135C130.152 47.3528 130.78 48.2271 131.372 49.1014L132.732 51.1648C133.081 51.7244 133.43 52.284 133.743 52.8785C134.22 53.6086 134.651 54.3678 135.033 55.1517C135.417 55.8861 135.8 56.6206 136.149 57.355C136.498 58.0894 136.951 59.0687 137.334 59.943C137.718 60.8173 137.718 60.7823 137.857 61.202C137.997 61.6217 137.857 61.4468 138.032 61.5517C138.022 61.6798 138.022 61.8084 138.032 61.9364V61.9364C138.047 62.029 138.047 62.1236 138.032 62.2162C138.346 62.9506 138.624 63.6851 138.868 64.4545C139.113 65.2239 139.391 65.9933 139.635 66.7976C139.879 67.602 140.089 68.4063 140.333 69.2107C140.577 70.0151 140.716 70.8195 140.891 71.6588C141.065 72.4982 141.239 73.2676 141.379 74.1069C141.518 74.9462 141.623 75.4708 141.727 76.1353C141.745 76.3448 141.745 76.5554 141.727 76.7648C141.727 77.5342 141.937 78.2687 142.041 79.0381C142.146 79.8075 142.041 81.2063 142.285 82.3255C142.529 83.4446 142.529 82.4654 142.529 83.5495Z" fill="url(#paint0_linear_90_1323)"/>
<path d="M141.867 74.0371C141.901 74.2455 141.901 74.4582 141.867 74.6666C141.884 74.4571 141.884 74.2466 141.867 74.0371Z" fill="#FC6C85"/>
<path d="M153.791 78.4088C153.809 78.211 153.809 78.012 153.791 77.8143C153.791 77.1847 153.791 76.5552 153.791 75.9257C151.905 57.0436 143.089 39.5389 129.055 26.8128C115.021 14.0867 96.7726 7.0481 77.8542 7.06452C67.2107 7.05015 56.6842 9.29064 46.9636 13.6394L45.1156 14.4787L44.6973 14.6886C42.8146 15.5979 40.9666 16.6121 39.1885 17.6962C37.4104 18.7804 36.4342 19.3749 35.0744 20.2842C32.6363 21.9262 30.3071 23.7252 28.1014 25.67C27.9343 25.764 27.7816 25.8818 27.6481 26.0197C26.8811 26.6842 26.1491 27.3836 25.4169 28.1181C17.8933 35.2216 11.8992 43.795 7.80378 53.3101C3.7084 62.8253 1.59838 73.0808 1.60383 83.4448C1.60225 99.9881 6.9455 116.086 16.8329 129.327C26.7203 142.568 40.6193 152.238 56.4469 156.887C57.2836 157.132 58.1205 157.377 58.9573 157.552L61.2932 158.146C62.4089 158.391 63.4897 158.601 64.7797 158.776C65.7586 158.981 66.7479 159.133 67.7432 159.231C68.0209 159.267 68.3024 159.267 68.5801 159.231C68.9629 159.265 69.3478 159.265 69.7305 159.231C70.637 159.231 71.5436 159.44 72.4501 159.51C74.2631 159.51 75.9367 159.51 77.924 159.51C87.5853 159.532 97.1606 157.691 106.13 154.09C117.951 149.438 128.413 141.872 136.548 132.092C144.683 122.312 150.23 110.632 152.675 98.1334C153.024 96.2798 153.337 94.3563 153.582 92.4328V91.2088C153.862 88.5251 154.002 85.8285 154 83.1301C153.965 81.8361 153.93 80.0875 153.791 78.4088ZM142.46 86.9421V88.376C142.46 88.8656 142.46 89.3552 142.46 89.8448C142.46 90.3345 142.285 91.5585 142.181 92.4328C142.076 93.3072 142.181 93.1323 142.181 93.517C142.181 93.9017 141.937 95.0208 141.797 95.8252L141.623 96.7694C141.623 97.5738 141.274 98.3782 141.03 99.1825C140.786 99.9869 140.647 100.756 140.403 101.561C140.09 102.745 139.718 103.912 139.287 105.058C138.938 106.002 138.624 106.912 138.241 107.821L137.718 109.08C137.369 109.919 136.951 110.759 136.567 111.598C136.184 112.437 135.765 113.242 135.347 114.046C134.615 115.41 133.848 116.704 133.011 117.998C132.662 118.592 132.314 119.152 131.93 119.712C130.151 122.377 128.157 124.892 125.968 127.231L124.574 128.699C123.946 129.364 123.284 130.028 122.621 130.658L121.61 131.567L119.448 133.421C118.716 134.05 118.019 134.575 117.252 135.134C114.479 137.253 111.528 139.126 108.431 140.73L106.932 141.499C105.398 142.269 103.794 142.968 102.155 143.598C94.4529 146.811 86.1961 148.475 77.8542 148.494C76.9129 148.494 75.9366 148.494 74.9603 148.494H73.4612L71.683 148.319C71.103 148.371 70.5197 148.371 69.9397 148.319C69.3819 148.319 68.8241 148.319 68.2663 148.109L64.7797 147.515H64.2916H63.5595H62.9318H62.6879C62.0873 147.396 61.4936 147.244 60.9097 147.06L59.8638 146.78H59.3757L58.1901 146.396C57.6442 146.258 57.1085 146.083 56.5865 145.871L55.4708 145.486C54.7734 145.242 54.111 144.997 53.4834 144.717H53.3091C52.8559 144.542 52.3677 144.367 51.9493 144.157L49.7528 143.143L48.1838 142.339C47.6317 142.094 47.0961 141.814 46.5801 141.499L44.2091 140.101C42.8145 139.261 41.4199 138.317 40.095 137.338L38.8748 136.393C38.317 135.974 37.7243 135.519 37.1665 135.03L34.8303 133.001C34.0284 132.302 33.2964 131.567 32.5642 130.833C31.8321 130.098 31.2044 129.434 30.542 128.699C29.8795 127.965 29.1822 127.161 28.5197 126.356L26.5673 123.908C24.7164 121.391 23.039 118.751 21.5467 116.004C20.5313 114.165 19.612 112.274 18.7924 110.339C17.9905 108.38 17.2583 106.387 16.6308 104.359C15.99 102.312 15.4546 100.235 15.0269 98.1334C14.16 93.8274 13.7162 89.4465 13.702 85.0536C13.712 80.8375 14.1325 76.6325 14.9573 72.4984C14.9573 71.764 15.2362 71.0645 15.4106 70.4C15.5849 69.7356 15.6893 69.106 15.8636 68.4765C16.0379 67.847 16.2473 67.0776 16.4565 66.3782C16.6173 65.7834 16.8152 65.1994 17.0491 64.6295C17.1876 64.0552 17.3741 63.4937 17.6069 62.9509C17.8858 62.1115 18.2345 61.2722 18.5483 60.4328L19.2806 58.7541C19.5246 58.2295 19.7337 57.7049 20.0126 57.2153C20.2915 56.7257 20.8495 55.5367 21.2679 54.6973C21.6863 53.858 22.1394 53.0536 22.6275 52.2492C23.1156 51.4448 23.3947 50.9203 23.8479 50.2558C23.9728 50.0815 24.0779 49.8938 24.1616 49.6962L24.3361 49.4164C24.8242 48.7869 25.2773 48.0875 25.7306 47.458C26.2842 46.6165 26.8898 45.8106 27.5436 45.0449C27.9271 44.4853 28.3804 43.9607 28.8336 43.4011L29.1126 43.0864L29.3218 42.8416C29.9398 42.0573 30.6156 41.3208 31.3438 40.6383C31.6881 40.2168 32.0609 39.8195 32.4595 39.4492C32.8082 39.0645 33.1917 38.6798 33.5752 38.3301C33.685 38.195 33.8142 38.0771 33.9587 37.9804C33.9587 37.9804 33.9587 37.9804 34.1679 37.7705C34.5608 37.3697 34.9803 36.9958 35.4232 36.6514C35.8177 36.2631 36.2369 35.9009 36.6783 35.5673L36.9573 35.2875C40.27 32.6019 43.8443 30.2586 47.6261 28.2929C49.4257 27.3092 51.2761 26.422 53.1695 25.635H53.5879C54.2155 25.3902 54.8083 25.1104 55.4708 24.9006L56.1332 24.6208L58.4691 23.8514L58.9922 23.6765H59.515L61.3281 23.1869C61.7711 23.0336 62.2259 22.9166 62.6879 22.8372C62.8256 22.8057 62.9686 22.8057 63.1063 22.8372C63.4044 22.7507 63.707 22.6807 64.0128 22.6274V22.6274C64.6752 22.6274 65.3724 22.3476 66.0348 22.2077H66.523C67.2552 22.2077 68.0223 21.9279 68.7544 21.823L71.2995 21.5082L74.5769 21.2634C75.6926 21.2634 76.7734 21.2634 78.0634 21.2634H80.783H81.0618H82.3171H82.6307H84.095H84.9667L87.4771 21.5782C88.4184 21.5782 89.3598 21.858 90.3011 22.0678L92.0444 22.4175L93.1601 22.6623H93.4738L95.0428 23.047L97.3091 23.7115C99.3313 24.341 101.318 25.0754 103.271 25.8798C105.223 26.6842 107.106 27.6284 108.919 28.6427C109.791 29.0973 110.628 29.5869 111.464 30.1115C113.277 31.1957 114.951 32.4197 116.799 33.6088C117.635 34.2383 118.437 34.9028 119.239 35.5673L121.575 37.5957L123.842 39.764C124.574 40.4984 125.306 41.2678 126.003 42.0372C126.7 42.8066 127.258 43.4711 127.886 44.2405L128.095 44.4853L129.49 46.2339V46.5137C130.152 47.353 130.78 48.2274 131.372 49.1017L132.732 51.1651C133.081 51.7246 133.43 52.2842 133.743 52.8787C134.22 53.6088 134.651 54.368 135.033 55.152C135.417 55.8864 135.8 56.6208 136.149 57.3552C136.498 58.0896 136.951 59.0689 137.334 59.9432C137.718 60.8175 137.718 60.7826 137.857 61.2022C137.997 61.6219 137.857 61.447 138.032 61.552C138.022 61.68 138.022 61.8086 138.032 61.9367V61.9367C138.047 62.0293 138.047 62.1238 138.032 62.2164C138.346 62.9508 138.624 63.6853 138.868 64.4547C139.113 65.2241 139.391 65.9935 139.635 66.7979C139.879 67.6022 140.089 68.4066 140.333 69.211C140.577 70.0153 140.716 70.8197 140.891 71.6591C141.065 72.4984 141.239 73.2678 141.379 74.1071C141.518 74.9465 141.623 75.4711 141.727 76.1356C141.745 76.345 141.745 76.5556 141.727 76.7651C141.727 77.5345 141.937 78.2689 142.041 79.0383C142.146 79.8077 142.041 81.2066 142.285 82.3257C142.529 83.4448 142.285 84.564 142.285 85.823C142.285 87.082 142.529 85.823 142.46 86.9421Z" fill="#FC6C85"/>
<path d="M40.7879 101.581C45.527 98.8825 44.7531 88.5385 39.0594 78.4768C33.3657 68.4151 24.9084 62.4458 20.1693 65.1441C15.4302 67.8424 16.204 78.1864 21.8977 88.2481C27.5913 98.3098 36.0488 104.279 40.7879 101.581Z" fill="#F2A900"/>
<path d="M23.6769 63.1322L20.1597 65.1348L40.7611 101.541L44.2783 99.5385L23.6769 63.1322Z" fill="#F2A900"/>
<path fill-rule="evenodd" clip-rule="evenodd" d="M25.5562 86.1378C31.2392 96.1749 39.7114 102.155 44.4531 99.4623C49.1948 96.7695 48.3929 86.3826 42.7098 76.3804C37.0268 66.3782 28.5546 60.3629 23.8478 63.0558C19.141 65.7487 19.6988 76.1006 25.5562 86.1378Z" fill="#F2A900"/>
<path fill-rule="evenodd" clip-rule="evenodd" d="M27.0555 85.1932C31.9715 93.9014 39.1188 99.1823 42.9191 97.084C46.7195 94.9856 45.8131 86.0326 40.8971 77.3244C35.9811 68.6162 28.8337 63.3353 24.9985 65.4337C21.1634 67.5321 22.0697 76.485 27.0555 85.1932Z" fill="#FFD573"/>
<path d="M39.0492 80.682L37.6198 81.5213C37.5848 81.763 37.4887 81.9917 37.3408 82.1858L39.0841 84.8787C39.3113 84.598 39.4756 84.2716 39.5659 83.9216C39.6561 83.5716 39.6702 83.2062 39.6071 82.8503C39.5158 82.1063 39.3281 81.3774 39.0492 80.682V80.682ZM35.7718 82.5705L34.97 83.0251L34.2726 83.4098C34.286 83.6195 34.286 83.8297 34.2726 84.0393C34.2876 84.1871 34.2632 84.3361 34.202 84.4713C34.1407 84.6064 34.0448 84.7229 33.9241 84.8087C33.7769 84.8983 33.608 84.9456 33.4359 84.9456C33.2638 84.9456 33.0949 84.8983 32.9477 84.8087C32.7924 84.727 32.6511 84.6207 32.5294 84.494L31.3788 85.1235L31.6926 85.5082C32.1727 86.1451 32.7632 86.6901 33.4359 87.1169C33.7478 87.3875 34.1314 87.5613 34.5399 87.6172C34.9485 87.6731 35.3642 87.6086 35.7369 87.4317C36.0061 87.2644 36.2237 87.0254 36.3653 86.7413C36.5069 86.4572 36.5671 86.1393 36.539 85.8229C36.4752 84.7021 36.2155 83.6012 35.7718 82.5705V82.5705ZM39.2584 79.4229L38.3867 77.9891L37.8639 78.2688L37.6545 77.9191C37.585 77.7947 37.5034 77.6775 37.4106 77.5694L36.1553 78.3038C36.395 78.4692 36.5972 78.6838 36.7482 78.9333L34.9351 79.9126C34.8326 79.642 34.7624 79.3603 34.7259 79.0732L33.3312 79.8776C33.445 80.126 33.5383 80.3833 33.6102 80.647L31.4486 81.871C31.3564 81.5995 31.2978 81.3176 31.2743 81.0317L29.9843 81.7661C29.9843 82.0459 30.2282 82.2557 30.3328 82.5355L29.3914 83.0601L30.263 84.6688L31.2743 84.1443C31.4552 84.4355 31.653 84.7158 31.8669 84.9836V84.9836L33.0175 84.3541C32.7503 84.1185 32.5157 83.8479 32.3202 83.5497L34.3424 82.3606C34.49 82.6991 34.6066 83.0503 34.691 83.4098L35.3884 83.0251L36.1902 82.5705C36.1902 82.2207 35.9462 81.906 35.8067 81.5213L37.8639 80.3672C37.9993 80.7361 38.0586 81.1287 38.0382 81.5213L39.4675 80.682L39.0143 79.7377L39.2584 79.4229ZM35.4233 75.4361C35.1448 75.1944 34.8039 75.0366 34.4399 74.9809C34.0759 74.9252 33.7037 74.9739 33.3661 75.1213C33.0753 75.3218 32.8419 75.5951 32.689 75.9142C32.5361 76.2332 32.4689 76.5868 32.4945 76.9399C32.5124 77.6037 32.618 78.2623 32.8084 78.8984C32.8084 79.2131 33.0174 79.5279 33.122 79.8776L34.5167 79.0732C34.4824 78.9236 34.4824 78.7682 34.5167 78.6186C34.5014 78.4981 34.5193 78.3757 34.5684 78.2647C34.6176 78.1537 34.6963 78.0584 34.7957 77.9891C34.9211 77.9298 35.058 77.8991 35.1966 77.8991C35.3352 77.8991 35.4721 77.9298 35.5975 77.9891L35.9461 78.2339L37.2014 77.4994C36.6861 76.6943 36.0236 75.9943 35.249 75.4361H35.4233ZM29.6006 76.6601C29.3208 76.9969 29.1144 77.3887 28.9943 77.8103C28.8742 78.2318 28.8433 78.6739 28.9035 79.1082C28.9579 79.7276 29.0866 80.3383 29.2869 80.9268C29.2869 81.2066 29.496 81.5213 29.6355 81.836L30.9255 81.1016C30.9079 80.9389 30.9079 80.7747 30.9255 80.612C30.9027 80.2196 31.0272 79.8329 31.2743 79.5279L29.6006 76.6601Z" fill="#F2A900"/>
<path d="M103.738 68.494C106.126 63.5807 99.6568 55.4876 89.2892 50.4176C78.9215 45.3477 68.581 45.2207 66.1931 50.134C63.8051 55.0474 70.274 63.1403 80.6416 68.2103C91.0093 73.2802 101.35 73.4073 103.738 68.494Z" fill="#F2A900"/>
<path d="M67.9583 46.4829L66.186 50.1294L103.699 68.4741L105.472 64.8276L67.9583 46.4829Z" fill="#F2A900"/>
<path fill-rule="evenodd" clip-rule="evenodd" d="M82.2124 64.4197C92.672 69.4557 102.922 69.5956 105.293 64.6995C107.664 59.8033 101.214 51.6546 90.8589 46.6186C80.5039 41.5825 70.149 41.4426 67.7781 46.3388C65.4073 51.235 71.8923 59.5235 82.2124 64.4197Z" fill="#F2A900"/>
<path fill-rule="evenodd" clip-rule="evenodd" d="M83.049 62.6711C92.0443 67.0777 100.935 67.4274 102.852 63.4755C104.77 59.5235 99.0173 52.7389 90.0221 48.3323C81.0268 43.9258 72.1362 43.576 70.2186 47.5279C68.301 51.4798 74.0538 58.2995 83.049 62.6711Z" fill="#FFD573"/>
<path d="M83.6071 56.6905C83.3809 56.3763 83.2699 55.9932 83.2933 55.6063L80.2251 54.3124C80.1815 54.7458 80.227 55.1837 80.3589 55.5988C80.4909 56.0139 80.7065 56.3973 80.9922 56.7255C81.3683 57.1645 81.7889 57.5631 82.2473 57.9146V57.9146L83.0492 58.4392L83.7116 57.1102C83.6654 56.9734 83.6306 56.833 83.6071 56.6905V56.6905ZM84.3392 49.9757C83.9669 49.9343 83.5906 49.9974 83.252 50.158C82.9134 50.3185 82.626 50.5702 82.4216 50.885C82.2863 51.2223 82.2473 51.5907 82.3088 51.9489C82.3704 52.3071 82.5301 52.6411 82.7702 52.9135C83.1534 53.4536 83.6113 53.9364 84.13 54.3473V54.3473L84.8622 54.9069L85.5943 53.4381C85.4712 53.3396 85.3653 53.2214 85.2806 53.0883C85.2251 52.9739 85.1963 52.8483 85.1963 52.7211C85.1963 52.5939 85.2251 52.4683 85.2806 52.3539C85.2806 52.144 85.6293 52.0391 85.978 51.9692H86.3963L87.0239 50.6752C86.1785 50.2811 85.2689 50.0441 84.3392 49.9757V49.9757ZM89.4645 51.6544L89.7433 51.0949L88.1047 50.2905L87.8257 50.8151L87.0588 50.5353L86.4312 51.8293C86.7085 51.7866 86.9907 51.7866 87.268 51.8293L86.3614 53.7178C86.1285 53.5465 85.9177 53.3468 85.7339 53.1233L85.0016 54.5921C85.2098 54.7719 85.4312 54.9356 85.6641 55.0818L84.5484 57.355L83.9557 56.7255L83.2933 58.0544L83.9906 58.4741L83.5024 59.4534L85.1759 60.2577L85.6641 59.2785C85.9917 59.4209 86.3298 59.5378 86.6753 59.6282V59.6282L87.268 58.4042C86.9037 58.3851 86.5474 58.2898 86.222 58.1244L87.2331 56.026C87.5405 56.2243 87.8319 56.4465 88.1047 56.6905L88.4533 55.991L88.8716 55.1167L87.9653 54.5222L89.0112 52.3889C89.3263 52.6323 89.5974 52.928 89.813 53.2632L90.5104 51.7594L89.4645 51.6544ZM91.2426 57.8096C90.5794 56.9681 89.7774 56.2466 88.8716 55.6763L88.4533 56.5506L88.1047 57.2501L88.5231 57.7047C88.6031 57.8364 88.6454 57.9876 88.6454 58.1419C88.6454 58.2961 88.6031 58.4474 88.5231 58.579C88.4243 58.7165 88.2927 58.8268 88.1404 58.9001C87.9882 58.9734 87.8201 59.0073 87.6514 58.9987H87.1284L86.5357 60.2227H86.9192C87.6649 60.5045 88.459 60.6352 89.2553 60.6074C89.6615 60.6412 90.0688 60.5609 90.4321 60.3757C90.7954 60.1904 91.1001 59.9074 91.3122 59.5583C91.4451 59.2836 91.5083 58.9802 91.4961 58.6752C91.4839 58.3701 91.3969 58.0728 91.2426 57.8096V57.8096ZM92.0794 53.6129C91.6007 53.0491 91.0357 52.5651 90.4057 52.179L89.7086 53.6829C89.7609 53.9131 89.7609 54.1521 89.7086 54.3823L92.672 55.6063C92.7447 54.8894 92.5317 54.1728 92.0794 53.6129V53.6129Z" fill="#F2A900"/>
<path d="M79.7369 86.3477L75.7275 85.6483L44.3487 80.2275L42.0824 79.8428L39.4326 79.4231H38.9446L37.3756 79.1783C37.3756 79.1783 37.3756 78.7237 37.3756 77.9193C37.3756 77.115 37.3756 76.6603 37.3756 75.821C37.3756 74.9816 37.3756 73.5127 37.3756 72.0789C37.3756 71.0996 37.3757 70.0155 37.1665 68.8964C36.7336 60.9878 35.4239 53.1523 33.2616 45.5346C32.5294 43.2614 31.6926 41.0931 30.821 39.0297C29.2519 35.3266 27.4468 31.7286 25.4169 28.2581C18.8715 17.2697 10.2351 7.68009 -6.10352e-05 0.0351562L40.1648 8.00892C42.5705 9.86247 44.767 11.8209 46.8938 13.7794C49.8563 16.576 52.6175 19.5795 55.1569 22.7674V22.7674C68.3404 40.0727 76.6704 60.5996 79.2836 82.2209C79.6671 84.8089 79.7369 86.3477 79.7369 86.3477Z" fill="#54D391"/>
<path d="M71.0554 56.2011C67.0011 44.3662 60.9902 33.3002 53.2742 23.4666C50.7455 20.3131 47.9959 17.3446 45.046 14.5836C43.2679 12.9049 41.385 11.0863 39.3977 9.68741C32.9824 8.39342 27.9271 7.30926 23.0111 6.19014C18.0951 5.07101 13.1094 3.98686 6.65931 2.69287C6.65931 2.69287 6.65925 2.69287 6.38032 2.69287C6.35183 2.73392 6.33649 2.78274 6.33649 2.83277C6.33649 2.88279 6.35183 2.93161 6.38032 2.97266C14.942 9.11438 22.1764 16.9302 27.6481 25.9497C29.7189 29.3006 31.5259 32.8085 33.0524 36.4415C34.8248 40.6278 36.2816 44.9415 37.4105 49.3464C39.3139 56.9155 40.274 64.6922 40.2693 72.4983V72.4983C40.2693 74.3869 40.2693 75.471 40.2693 75.506C40.2693 75.541 40.2693 75.506 40.2693 75.506L42.5007 75.9257L76.8083 82.2907H77.0174C76.0154 73.3968 74.0153 64.6448 71.0554 56.2011V56.2011ZM42.2566 75.8208L40.6879 75.541C40.6879 75.2262 40.6879 74.4918 40.6879 73.5125C40.7797 65.3786 39.8187 57.2672 37.8289 49.3814C36.6928 44.913 35.2123 40.54 33.4009 36.3016C31.8884 32.6684 30.0932 29.1603 28.0317 25.8098C22.7374 17.0346 15.7569 9.40259 7.49604 3.35736C13.4231 4.51146 18.1997 5.59561 22.802 6.60982C27.4042 7.62403 32.6688 8.77813 39.1189 10.1071C41.0104 11.5998 42.8257 13.1872 44.5579 14.8634C47.5155 17.604 50.2658 20.5615 52.786 23.7115C60.5051 33.5043 66.517 44.5364 70.5672 56.3409C73.5306 64.7518 75.5537 73.4668 76.5991 82.3256L42.2566 75.8208Z" fill="white" fill-opacity="0.3"/>
<path d="M59.3055 45.2739C61.8719 42.2148 58.5657 35.1881 51.921 29.5794C45.2762 23.9708 37.8092 21.9041 35.2428 24.9633C32.6765 28.0225 35.9826 35.0491 42.6273 40.6578C49.2721 46.2664 56.7392 48.3331 59.3055 45.2739Z" fill="white" fill-opacity="0.3"/>
<path d="M61.4283 59.2658C62.4553 57.8417 61.1377 55.1272 58.4854 53.2027C55.8331 51.2783 52.8505 50.8726 51.8235 52.2968C50.7965 53.7209 52.114 56.4356 54.7663 58.36C57.4186 60.2844 60.4014 60.6899 61.4283 59.2658Z" fill="white" fill-opacity="0.3"/>
<path d="M39.3516 20.4279C40.2206 19.2229 39.1165 16.9337 36.8854 15.3149C34.6544 13.6961 32.1412 13.3607 31.2723 14.5658C30.4033 15.7708 31.5075 18.0599 33.7386 19.6786C35.9696 21.2974 38.4826 21.633 39.3516 20.4279Z" fill="white" fill-opacity="0.3"/>
<path d="M142.46 80.2272C142.46 81.3463 142.46 82.4654 142.46 83.7245C142.46 84.9835 142.46 85.9977 142.46 87.2217V88.6556C142.46 89.1452 142.46 89.6348 142.46 90.1245C142.46 90.6141 142.285 91.8381 142.181 92.7124C142.076 93.5868 142.181 93.4119 142.181 93.7966C142.181 94.1813 141.937 95.3004 141.797 96.1048L141.623 97.0491C141.623 97.8534 141.274 98.6578 141.03 99.4622C140.786 100.267 140.647 101.036 140.403 101.84C140.09 103.024 139.718 104.192 139.287 105.338C138.938 106.282 138.624 107.191 138.241 108.1L137.718 109.359C137.369 110.199 136.951 111.038 136.567 111.877C136.184 112.717 135.765 113.521 135.347 114.326C127.816 119.519 119.602 123.638 110.941 126.566C105.226 125.266 99.6099 123.56 94.1362 121.46L92.0444 120.656L90.9287 120.166C90.4146 119.992 89.9136 119.782 89.4295 119.536C88.4184 119.117 87.4421 118.697 86.5007 118.242L84.6181 117.368C84.2215 117.21 83.837 117.023 83.4674 116.809C82.3518 116.284 81.3059 115.759 80.2599 115.2L79.3185 114.71L77.7148 113.836L76.2852 113.032C74.1468 111.819 72.1944 110.653 70.4279 109.534C73.2911 109.095 76.1304 108.512 78.935 107.786C79.702 107.786 80.5039 107.366 81.3407 107.121L84.1299 106.247C85.9778 105.652 87.8954 104.953 89.8828 104.114C90.9984 103.659 92.149 103.169 93.3693 102.61L94.9034 101.875H95.1821L96.8558 101.001C104.311 97.0291 110.986 91.7322 116.555 85.3682C121.195 80.0612 124.994 74.0689 127.816 67.6021L142.32 72.3234C142.32 72.9879 142.564 73.6873 142.669 74.3518C142.686 74.5613 142.686 74.7718 142.669 74.9813C142.669 75.7507 142.878 76.4851 142.983 77.2545C143.087 78.0239 142.39 79.1081 142.46 80.2272Z" fill="#54D391"/>
<path d="M110.279 123.838C105.052 122.555 99.9339 120.859 94.973 118.767L94.4152 118.557L91.7654 117.473L90.3011 116.844L88.2789 115.969L87.2679 115.55L84.1299 114.116L80.0158 112.157H79.7021L78.0983 111.318L76.634 110.618C77.3392 110.506 78.0376 110.355 78.7258 110.164C79.5374 110.007 80.3403 109.809 81.1315 109.569V109.569C83.0491 109.045 85.1759 108.345 87.4072 107.541C88.9762 106.911 90.58 106.282 92.2536 105.478L93.0205 105.163L94.7291 104.323C95.531 103.904 96.3676 103.519 97.2044 103.029C104.701 99.1191 111.405 93.8413 116.973 87.4666C121.384 82.3296 125.111 76.6397 128.06 70.5398C132.593 72.0436 137.23 73.5125 141.797 74.9464C141.815 74.7369 141.815 74.5263 141.797 74.3169C137.265 72.883 132.593 71.4141 128.13 69.9453C128.078 69.8961 128.009 69.8687 127.938 69.8687C127.867 69.8687 127.798 69.8961 127.746 69.9453C124.814 76.1062 121.074 81.8459 116.624 87.0119C111.121 93.3172 104.501 98.5463 97.0999 102.435L94.7291 103.659L92.9858 104.463L92.637 104.673C90.9635 105.408 89.3596 106.107 87.7907 106.702C85.5593 107.541 83.4675 108.24 81.5499 108.765L79.0397 109.464L76.9477 109.884L75.5879 110.094C75.5879 110.094 75.3787 110.094 75.3787 110.339C75.3541 110.388 75.3414 110.441 75.3414 110.496C75.3414 110.551 75.3541 110.605 75.3787 110.653L76.1807 111.073L77.645 111.843L79.2836 112.647H79.5974L83.6766 114.605L86.8146 116.039L87.8256 116.494L89.8479 117.333C90.336 117.578 90.8241 117.753 91.347 117.963L94.1013 119.117H94.5546C99.6105 121.238 104.821 122.968 110.139 124.293C119.855 120.708 128.941 115.597 137.055 109.15L137.578 107.891L137.125 108.485C129.052 115.01 119.988 120.193 110.279 123.838V123.838Z" fill="white" fill-opacity="0.3"/>
<path d="M123.842 107.401C131.563 107.401 137.822 104.128 137.822 100.092C137.822 96.0547 131.563 92.7822 123.842 92.7822C116.12 92.7822 109.861 96.0547 109.861 100.092C109.861 104.128 116.12 107.401 123.842 107.401Z" fill="white" fill-opacity="0.3"/>
<path d="M107.838 111.773C109.802 111.773 111.395 110.927 111.395 109.884C111.395 108.841 109.802 107.996 107.838 107.996C105.874 107.996 104.282 108.841 104.282 109.884C104.282 110.927 105.874 111.773 107.838 111.773Z" fill="white" fill-opacity="0.3"/>
<path d="M135.521 90.3342C137.485 90.3342 139.078 89.4887 139.078 88.4457C139.078 87.4027 137.485 86.5571 135.521 86.5571C133.557 86.5571 131.965 87.4027 131.965 88.4457C131.965 89.4887 133.557 90.3342 135.521 90.3342Z" fill="white" fill-opacity="0.3"/>
<path d="M102.764 114.919C107.076 106.133 107.21 97.3509 103.064 95.3035C98.9181 93.2562 92.0615 98.7187 87.7498 107.505C83.438 116.29 83.3038 125.072 87.4499 127.12C91.5961 129.167 98.4527 123.704 102.764 114.919Z" fill="#F2A900"/>
<path d="M99.9915 93.8035L84.3772 125.62L87.474 127.149L103.088 95.3326L99.9915 93.8035Z" fill="#F2A900"/>
<path fill-rule="evenodd" clip-rule="evenodd" d="M99.68 113.451C104.003 104.673 104.108 95.9649 99.9936 93.8315C95.8795 91.6982 88.9764 97.3288 84.6879 106.037C80.3995 114.745 80.2599 123.523 84.3741 125.622C88.4882 127.72 95.2869 122.194 99.68 113.451Z" fill="#F2A900"/>
<path fill-rule="evenodd" clip-rule="evenodd" d="M98.2158 112.717C101.981 105.093 102.295 97.5388 98.9827 95.8951C95.6705 94.2514 89.8829 99.1475 86.1523 106.737C82.4217 114.326 82.073 121.915 85.42 123.558C88.7671 125.202 94.4852 120.341 98.2158 112.717Z" fill="#FFD573"/>
<path d="M90.6149 104.988C90.1408 105.404 89.7298 105.887 89.3947 106.422L90.6498 107.016C90.8331 106.972 91.0244 106.972 91.2077 107.016L92.2885 104.498C91.6893 104.446 91.0921 104.621 90.6149 104.988V104.988ZM95.6355 105.548C95.4076 105.416 95.1491 105.346 94.886 105.346C94.6228 105.346 94.3642 105.416 94.1363 105.548V105.548C93.4253 106.106 92.8126 106.78 92.3234 107.541L93.0206 107.926L93.6134 108.205L93.9969 107.856C94.2758 107.681 94.52 107.611 94.7291 107.856C94.8499 107.933 94.9465 108.043 95.0081 108.173C95.0698 108.303 95.0938 108.447 95.0777 108.59C95.0952 108.73 95.0952 108.871 95.0777 109.01L96.0887 109.534C96.1041 109.418 96.1041 109.301 96.0887 109.185V109.185C96.2921 108.515 96.4094 107.821 96.4375 107.121C96.4724 106.422 96.1933 105.827 95.6355 105.583V105.548ZM95.6355 110.584C95.6355 110.269 95.8448 109.989 95.9493 109.709L94.9383 109.185C94.8856 109.506 94.8039 109.822 94.6942 110.129L92.9161 109.22C93.1253 108.905 93.3344 108.695 93.4738 108.485L92.8812 108.205L92.1838 107.821C92.1838 108.066 91.8353 108.345 91.661 108.59L89.8828 107.716C90.0806 107.448 90.3294 107.222 90.6149 107.051L89.3598 106.457C89.1935 106.704 89.0422 106.961 88.9065 107.226L88.4532 106.981L88.1047 107.611L87.8606 108.136V108.38L88.3138 108.625C88.2026 108.822 88.1204 109.034 88.0698 109.255L89.1506 109.814C89.1374 109.581 89.1374 109.348 89.1506 109.115L90.7545 109.884C90.6083 110.085 90.4449 110.272 90.2663 110.444L91.4865 111.038C91.6425 110.865 91.7827 110.677 91.9051 110.479L93.8226 111.423C93.6662 111.615 93.4909 111.791 93.2996 111.948L94.4502 112.507L94.7987 111.913L95.6008 112.297L95.81 111.878L96.0887 111.318L96.2979 110.933L95.6355 110.584ZM91.4169 111.003L90.1965 110.409L89.8828 110.619C89.6039 110.619 89.4296 110.619 89.2902 110.619C89.1899 110.556 89.1078 110.469 89.0527 110.364C88.9975 110.26 88.9711 110.142 88.9763 110.024C88.9574 109.908 88.9574 109.79 88.9763 109.674L87.8955 109.115C87.7246 109.532 87.5962 109.966 87.512 110.409C87.4629 110.745 87.4629 111.087 87.512 111.423C87.512 112.262 87.7908 112.822 88.2789 113.032C88.5511 113.16 88.855 113.205 89.1525 113.162C89.45 113.118 89.7281 112.988 89.9524 112.787C90.276 112.585 90.5695 112.337 90.824 112.052C90.9592 111.917 91.0765 111.764 91.1728 111.598V111.598C91.3403 111.4 91.4919 111.19 91.6261 110.968L91.4169 111.003ZM94.52 112.507L93.3693 111.948L93.0206 112.192C92.7534 112.375 92.4376 112.473 92.1143 112.472V112.787L91.1379 115.025C91.5058 115.077 91.8806 115.048 92.236 114.939C92.5913 114.83 92.9188 114.645 93.1951 114.396C93.4799 114.158 93.7478 113.901 93.9969 113.626L94.2759 113.242C94.4451 113.079 94.5864 112.89 94.6942 112.682L94.52 112.507Z" fill="#F2A900"/>
<path d="M104.684 22.0577C112.999 16.9265 117.777 9.56629 115.355 5.61805C112.934 1.66981 104.23 2.62869 95.9153 7.7599C87.6003 12.8911 82.8226 20.2515 85.2441 24.1997C87.6656 28.1479 96.3693 27.189 104.684 22.0577Z" fill="#F2A900"/>
<path d="M113.364 2.19266L83.2495 20.769L85.0576 23.7183L115.172 5.1419L113.364 2.19266Z" fill="#F2A900"/>
<path fill-rule="evenodd" clip-rule="evenodd" d="M102.748 18.8504C111.046 13.7444 115.858 6.36513 113.417 2.41322C110.976 -1.53869 102.295 -0.559455 93.997 4.54656C85.699 9.65257 80.9225 17.0668 83.3282 20.9837C85.7339 24.9007 94.4851 23.9564 102.748 18.8504Z" fill="#F2A900"/>
<path fill-rule="evenodd" clip-rule="evenodd" d="M101.911 17.5565C109.129 13.115 113.417 7.06469 111.464 3.56742C109.512 0.0701537 102.051 1.4341 94.8686 5.87563C87.6863 10.3172 83.3631 16.3674 85.3155 19.8647C87.268 23.362 94.6943 21.8931 101.911 17.5565Z" fill="#FFD573"/>
<path d="M99.5752 6.85488C98.9498 6.96401 98.3408 7.15201 97.7623 7.41443L98.4944 8.60352H99.0523L101.284 7.06471C100.764 6.77213 100.15 6.69675 99.5752 6.85488ZM103.515 10.0374C103.359 9.81542 103.149 9.6376 102.905 9.52117C102.661 9.40474 102.39 9.35368 102.121 9.37292V9.37292C101.227 9.47877 100.356 9.72668 99.5403 10.1073L99.924 10.8068L100.273 11.3664H100.761C101.109 11.3664 101.319 11.3663 101.423 11.6461C101.504 11.771 101.547 11.9168 101.547 12.0658C101.547 12.2148 101.504 12.3606 101.423 12.4855C101.366 12.6094 101.296 12.7267 101.214 12.8352L101.772 13.8144C101.772 13.8144 101.772 13.8144 102.016 13.5696C102.565 13.1273 103.037 12.5953 103.411 11.9959C103.609 11.7119 103.724 11.3778 103.742 11.0316C103.761 10.6854 103.682 10.341 103.515 10.0374V10.0374ZM100.935 14.339C101.214 14.339 101.423 13.9893 101.702 13.8144L101.144 12.8352L100.412 13.4647L99.4009 11.786L100.273 11.4363L99.924 10.8767L99.5403 10.1773L98.6687 10.562L97.6576 8.84833C97.9685 8.78793 98.2882 8.78793 98.5991 8.84833L97.8668 7.65924L97.065 8.07892L96.786 7.65924L96.1934 8.00896L95.7052 8.32373H95.4611L95.7401 8.77836C95.5357 8.87739 95.3475 9.00712 95.1821 9.16307L95.8099 10.2123L96.2979 9.68766L97.2393 11.1915L96.5419 11.4013L97.2742 12.5904L97.9366 12.3106L99.0523 14.1642H98.3201L98.9825 15.2483L99.6101 14.8986L100.098 15.703L100.482 15.4232L101.005 15.1434L101.388 14.8986L100.935 14.339ZM97.1695 12.4855L96.4374 11.2964H96.0538C95.74 11.2964 95.5657 11.2964 95.496 11.0516C95.4379 10.9506 95.4073 10.836 95.4073 10.7193C95.4073 10.6027 95.4379 10.4881 95.496 10.3871C95.4845 10.2825 95.4845 10.177 95.496 10.0724L94.8685 9.02317C94.5096 9.28815 94.1716 9.58045 93.8575 9.89749C93.6263 10.1601 93.4163 10.4407 93.2297 10.7369C93.033 10.9784 92.909 11.271 92.872 11.5807C92.8349 11.8903 92.8864 12.2041 93.0205 12.4855C93.186 12.7424 93.4226 12.9454 93.7013 13.0696C93.9799 13.1938 94.2885 13.2339 94.5895 13.1849C94.9671 13.1728 95.3419 13.1141 95.7052 13.0101C95.8903 13.0359 96.0781 13.0359 96.2632 13.0101V13.0101L96.9603 12.7303L97.1695 12.4855ZM98.9476 15.3882L98.2852 14.3041H97.8668C97.5421 14.3143 97.2232 14.2158 96.9603 14.0243L96.6815 14.2341L94.6593 15.633C94.9459 15.8622 95.2763 16.0301 95.6301 16.1263C95.9839 16.2226 96.3534 16.2451 96.7162 16.1926C97.0832 16.1444 97.445 16.0625 97.797 15.9478H98.2852C98.5018 15.8867 98.7119 15.8047 98.9127 15.703L98.9476 15.3882Z" fill="#F2A900"/>
<path fill-rule="evenodd" clip-rule="evenodd" d="M73.3913 148.354L71.6133 148.179H69.87C69.3122 148.179 68.7542 148.179 68.1964 147.969L64.7098 147.375H64.2219H63.4896H62.8621H62.618C62.0174 147.256 61.4238 147.104 60.8398 146.92L59.7939 146.64H59.3058L58.1205 146.256C57.5745 146.118 57.0386 145.943 56.5166 145.731L55.4009 145.346C54.3923 141.265 54.5128 136.984 55.7494 132.966C55.9027 132.618 56.0775 132.279 56.2725 131.952C56.6048 131.323 57.041 130.756 57.5625 130.273C58.0127 129.893 58.5343 129.608 59.0966 129.434C63.4896 128.07 69.5562 134.61 72.2409 143.948C72.7253 145.388 73.1096 146.86 73.3913 148.354V148.354Z" fill="#F2A900"/>
<path fill-rule="evenodd" clip-rule="evenodd" d="M64.7448 147.2H64.2566H63.5246H62.8971H62.653C62.0524 147.081 61.4587 146.93 60.8748 146.745L60.4913 145.381L59.6893 142.793L56.5515 132.302L56.3424 131.637L55.8891 130.098L59.1664 129.119L59.6197 130.623L60.4913 133.421L63.6989 143.913V144.227L64.6054 147.27L64.7448 147.2Z" fill="#F2A900"/>
<path fill-rule="evenodd" clip-rule="evenodd" d="M69.8701 148.005C69.3123 148.005 68.7543 148.005 68.1964 147.795L64.7099 147.2H64.222H63.4897H62.8622H62.6181C62.0175 147.082 61.4238 146.93 60.8399 146.746L59.794 146.466H59.3058L58.1205 146.081C57.5746 145.943 57.0387 145.768 56.5167 145.557L55.4009 145.172C54.7036 144.927 54.0412 144.682 53.4136 144.402H53.2393C52.7861 144.228 52.2979 144.053 51.8795 143.843C51.0427 136.848 52.6117 131.532 56.0285 130.448C56.6049 130.343 57.1954 130.343 57.7718 130.448C58.4701 130.542 59.1444 130.767 59.7591 131.113C64.4977 134.457 67.8377 139.439 69.1379 145.102C69.4326 146.056 69.6771 147.025 69.8701 148.005V148.005Z" fill="#F2A900"/>
<path fill-rule="evenodd" clip-rule="evenodd" d="M68.1964 147.795L64.7098 147.2H64.2219H63.4896H62.8621H62.618C62.0174 147.081 61.4237 146.93 60.8398 146.745L59.7939 146.466H59.3057L58.1204 146.081C57.5745 145.943 57.0386 145.768 56.5166 145.556L55.4008 145.172C54.7035 144.927 54.0411 144.682 53.4135 144.402C52.5767 138.842 53.4134 134.26 55.7494 132.791L56.4817 132.442C57.1341 132.218 57.8295 132.149 58.5131 132.24C59.1966 132.331 59.8498 132.579 60.4215 132.966C63.8247 136.1 66.2472 140.158 67.3945 144.647C67.7206 145.68 67.9883 146.731 68.1964 147.795V147.795Z" fill="#FFD573"/>
<path d="M64.613 146.955H64.7797H64.8844C64.8496 146.957 64.8145 146.957 64.7797 146.955H64.613C64.6109 146.99 64.6084 147.025 64.6054 147.06H64.2219H63.4897C63.5069 146.944 63.5069 146.827 63.4897 146.711H62.897H62.653C62.0524 146.592 61.4587 146.44 60.8748 146.256L59.8289 145.976V145.172L60.5958 144.927L61.2583 144.717C61.2261 145.031 61.2261 145.347 61.2583 145.661L63.1411 145.067C63.0301 144.785 62.8897 144.515 62.7226 144.262L63.8034 143.913C63.9344 144.186 64.0509 144.466 64.1521 144.752L65.0587 144.472L65.5119 145.976L64.6054 146.361C64.6223 146.559 64.6249 146.757 64.613 146.955Z" fill="#F2A900"/>
<path d="M123.604 29.5449L23.9202 129.466L32.0037 137.58L131.688 37.659L123.604 29.5449Z" fill="#FC6C85"/>
</g>
<defs>
<linearGradient id="paint0_linear_90_1323" x1="24.6845" y1="38.12" x2="82.1166" y2="86.9773" gradientUnits="userSpaceOnUse">
<stop stop-color="#28C4EE"/>
<stop offset="1" stop-color="#00AEEE"/>
</linearGradient>
<clipPath id="clip0_90_1323">
<rect width="154" height="160" fill="white"/>
</clipPath>
</defs>
</svg>
