<svg width="542" height="513" viewBox="0 0 542 513" fill="none" xmlns="http://www.w3.org/2000/svg">
<g clip-path="url(#clip0_283_723)">
<g style="mix-blend-mode:multiply">
<g style="mix-blend-mode:multiply">
<path d="M324.89 512.85C414.819 512.85 487.72 508.731 487.72 503.65C487.72 498.569 414.819 494.45 324.89 494.45C234.962 494.45 162.06 498.569 162.06 503.65C162.06 508.731 234.962 512.85 324.89 512.85Z" fill="#979695"/>
</g>
</g>
<g style="mix-blend-mode:multiply">
<path d="M160.22 492.72C171.901 492.72 181.37 490.848 181.37 488.54C181.37 486.231 171.901 484.36 160.22 484.36C148.539 484.36 139.07 486.231 139.07 488.54C139.07 490.848 148.539 492.72 160.22 492.72Z" fill="#979695"/>
</g>
<path fill-rule="evenodd" clip-rule="evenodd" d="M179.08 449.63L134.08 449.57L139.34 486.63H139.4C139.36 486.732 139.34 486.841 139.34 486.95C139.34 489.24 147.14 491.08 156.75 491.08C166.36 491.08 174.17 489.24 174.17 486.95C174.172 486.84 174.148 486.73 174.1 486.63H174.21L179.08 449.63Z" fill="#A2E9FC"/>
<path fill-rule="evenodd" clip-rule="evenodd" d="M179.08 449.63H160.35C152.65 472.52 168.54 478.63 156.72 491.1C166.35 491.1 174.14 489.26 174.14 486.97C174.142 486.86 174.118 486.75 174.07 486.65H174.18L179.08 449.63Z" fill="#A2E9FC"/>
<path d="M156.57 453.02C169.002 453.02 179.08 451.489 179.08 449.6C179.08 447.711 169.002 446.18 156.57 446.18C144.138 446.18 134.06 447.711 134.06 449.6C134.06 451.489 144.138 453.02 156.57 453.02Z" fill="#C8F5FC"/>
<path d="M156.57 451.87C167.406 451.87 176.19 450.787 176.19 449.45C176.19 448.114 167.406 447.03 156.57 447.03C145.734 447.03 136.95 448.114 136.95 449.45C136.95 450.787 145.734 451.87 156.57 451.87Z" fill="#353437"/>
<path d="M150.57 360.46C147.88 348.71 140.69 331.13 139.5 293.31C139.37 290.44 139.27 287.64 139.14 284.89L138.44 285.14C136.032 286.036 133.756 287.25 131.67 288.75C133.401 286.041 135.539 283.616 138.01 281.56C138.31 281.3 138.61 281.07 138.9 280.86C138.63 276.55 138.2 272.22 137.48 267.62C134.781 268.414 132.199 269.561 129.8 271.03C131.239 267.784 133.275 264.836 135.8 262.34C136.01 262.13 136.2 261.93 136.41 261.74C135.65 257.97 134.65 253.96 133.34 249.61C131.124 241.273 127.186 233.492 121.78 226.77C118.381 229.03 115.257 231.678 112.47 234.66C95.6 252.66 96.37 277.55 96.66 287.13C96.79 291.13 97.8501 315.83 113.02 338.49C116.33 343.41 117.6 344.21 132.21 364.15C141.21 376.41 143.77 380.27 146.32 384.75C151.237 393.383 155.117 402.567 157.88 412.11C156.997 394.709 154.55 377.423 150.57 360.46Z" fill="#29AA63"/>
<path d="M159.48 450.82C159.451 450.82 159.422 450.814 159.395 450.802C159.368 450.791 159.344 450.773 159.324 450.752C159.304 450.73 159.289 450.704 159.28 450.677C159.271 450.649 159.267 450.619 159.27 450.59C159.833 440.157 159.598 429.697 158.57 419.3C156.26 394.36 141.75 358.81 134.77 341.71C133.39 338.34 132.31 335.71 131.69 334.01C125.105 316.047 121.128 297.232 119.88 278.14C118.905 263.349 119.424 248.497 121.43 233.81C121.43 233.754 121.452 233.701 121.492 233.662C121.531 233.622 121.584 233.6 121.64 233.6C121.696 233.6 121.749 233.622 121.788 233.662C121.828 233.701 121.85 233.754 121.85 233.81C119.87 248.473 119.358 263.296 120.32 278.06C121.566 297.115 125.54 315.893 132.12 333.82C132.71 335.46 133.81 338.13 135.19 341.5C142.19 358.62 156.7 394.21 159.01 419.22C160.029 429.638 160.263 440.117 159.71 450.57C159.711 450.602 159.707 450.633 159.696 450.663C159.685 450.692 159.668 450.72 159.647 450.743C159.626 450.766 159.6 450.785 159.571 450.798C159.543 450.811 159.512 450.819 159.48 450.82Z" fill="#828282" fill-opacity="0.3"/>
<path d="M118.12 229.54C116.061 232.21 114.221 235.043 112.62 238.01C106.62 249.01 105.33 259.54 104.44 267.07C104.05 270.36 104.01 271.82 103.74 276.23C103.21 284.23 102.23 295.64 100.21 309.96C97.7691 301.229 96.488 292.215 96.3999 283.15C96.1565 275.104 97.1069 267.067 99.22 259.3C100.248 255.358 101.669 251.529 103.46 247.87C107.028 240.813 112.02 234.572 118.12 229.54Z" fill="#54D391"/>
<path d="M145.23 439.77C133.64 406.89 106.98 407.45 88.15 401.93C82.15 400.19 78.7899 398.54 76.7999 397.05C77.8599 396.48 79.3601 395.67 81.2101 394.85C85.8685 392.669 90.7994 391.125 95.87 390.26C102.906 389.341 110.06 390.211 116.67 392.79C135.32 400.17 141.56 419.26 142.67 422.79C144.461 428.269 145.326 434.007 145.23 439.77Z" fill="#54D391"/>
<path d="M145.84 450.33C145.812 450.331 145.784 450.327 145.758 450.317C145.732 450.307 145.708 450.292 145.688 450.272C145.669 450.252 145.653 450.228 145.643 450.202C145.633 450.176 145.629 450.148 145.63 450.12V450.06C145.52 443.55 145.27 428.3 136.68 415.76C131.647 408.336 124.456 402.636 116.08 399.43C106.94 396.113 97.0448 395.465 87.5499 397.56C87.5223 397.566 87.4938 397.566 87.4661 397.561C87.4385 397.555 87.4121 397.544 87.3887 397.528C87.3654 397.512 87.3457 397.492 87.3304 397.468C87.3151 397.444 87.3047 397.418 87.2999 397.39C87.2941 397.362 87.2942 397.334 87.2996 397.306C87.3051 397.279 87.316 397.252 87.3319 397.229C87.3477 397.206 87.3682 397.186 87.3919 397.17C87.4156 397.155 87.4422 397.145 87.47 397.14C97.65 395.08 107.6 395.72 116.23 399.02C124.686 402.257 131.943 408.013 137.02 415.51C145.67 428.15 145.93 443.51 146.02 450.04V450.1C146.026 450.128 146.026 450.157 146.019 450.185C146.012 450.213 145.999 450.239 145.981 450.261C145.963 450.283 145.939 450.301 145.913 450.313C145.887 450.325 145.859 450.331 145.83 450.33H145.84Z" fill="#828282" fill-opacity="0.3"/>
<path d="M150.8 303.7C152.531 297.918 153.775 292 154.52 286.01C148.45 287.3 135.52 290.78 123.91 300.39C115.367 307.313 109.174 316.709 106.18 327.29C104.784 333.183 104.219 339.241 104.5 345.29C106.497 346.103 108.379 347.172 110.1 348.47C113.016 350.66 115.424 353.453 117.16 356.66C114.697 355.362 112.027 354.499 109.27 354.11C108.034 353.942 106.787 353.872 105.54 353.9C106.755 360.23 108.824 366.366 111.69 372.14C112.771 372.137 113.849 372.238 114.91 372.44C117.894 372.992 120.702 374.25 123.1 376.11C120.119 375.51 117.04 375.603 114.1 376.38H113.97C120.69 388.38 131.32 400.73 146.97 413.38C146.34 411.53 137.22 392.19 134.58 385.46C131.868 378.384 130.449 370.878 130.39 363.3C130.3 342.79 138.02 334.83 145.17 318.71C147.341 313.822 149.221 308.81 150.8 303.7Z" fill="#54D391"/>
<path d="M154.81 450.19C154.757 450.175 154.71 450.144 154.676 450.101C154.642 450.058 154.622 450.005 154.62 449.95C155.294 445.02 155.365 440.027 154.83 435.08C153.83 424.5 147.83 415.08 140.83 404.26C130.55 388.26 118.9 370.09 120.28 342.47C121.38 328.47 127.34 314.73 137.5 302.58C137.52 302.56 137.543 302.544 137.569 302.533C137.595 302.523 137.622 302.517 137.65 302.517C137.678 302.517 137.706 302.523 137.731 302.533C137.757 302.544 137.78 302.56 137.8 302.58C137.821 302.599 137.838 302.622 137.85 302.648C137.862 302.674 137.868 302.702 137.868 302.73C137.868 302.758 137.862 302.787 137.85 302.812C137.838 302.838 137.821 302.861 137.8 302.88C127.7 314.97 121.8 328.67 120.68 342.53C119.33 369.99 130.93 388.09 141.17 404.04C148.17 414.94 154.22 424.36 155.24 435.04C155.774 440.03 155.703 445.067 155.03 450.04C155.012 450.084 154.982 450.122 154.943 450.148C154.904 450.175 154.857 450.19 154.81 450.19Z" fill="#828282" fill-opacity="0.3"/>
<path d="M164.4 441.7C171.87 418.49 185.17 415.06 193.46 409.25C200.65 404.52 212.08 398.6 220.27 382.73C211.521 382.006 202.759 383.974 195.16 388.37C186.52 393.374 179.174 400.334 173.71 408.69C167.527 418.582 164.297 430.035 164.4 441.7Z" fill="#29AA63"/>
<path d="M164.65 450.76C164.598 450.757 164.548 450.736 164.508 450.702C164.468 450.668 164.441 450.621 164.43 450.57C163.393 441.441 164.327 432.196 167.17 423.46C169.626 416.198 173.539 409.515 178.67 403.82C184.548 397.338 191.655 392.09 199.58 388.38C206.07 385.38 212.94 383.48 217.91 383.38C217.965 383.382 218.017 383.405 218.056 383.444C218.095 383.483 218.118 383.535 218.12 383.59C218.123 383.619 218.12 383.648 218.11 383.675C218.101 383.702 218.086 383.727 218.066 383.748C218.046 383.769 218.022 383.786 217.995 383.796C217.968 383.807 217.939 383.811 217.91 383.81C212.99 383.87 206.2 385.69 199.75 388.73C191.869 392.405 184.801 397.617 178.96 404.06C173.874 409.719 169.992 416.354 167.55 423.56C164.723 432.231 163.798 441.409 164.84 450.47C164.846 450.527 164.829 450.584 164.794 450.628C164.758 450.673 164.707 450.702 164.65 450.71C164.65 450.71 164.7 450.76 164.65 450.76Z" fill="#828282" fill-opacity="0.3"/>
<path d="M157.53 382.16C158.59 394.16 162.53 404.98 165.76 418.81C167.6 426.64 169.05 433.07 169.98 437.25C170.981 433.123 171.65 428.923 171.98 424.69C172.6 416.69 171.79 411.69 171.45 406.07C169.61 384.62 174.02 375.56 178.83 365.66C176.026 364.908 173.111 364.657 170.22 364.92C173.19 362.33 177.044 360.984 180.98 361.16C182.847 357.168 184.366 353.023 185.52 348.77C187.929 341.579 189.735 334.2 190.92 326.71C186.38 327.7 153.56 338.7 157.53 382.16Z" fill="#54D391"/>
<path d="M169.28 450.59C169.227 450.579 169.179 450.55 169.145 450.508C169.11 450.466 169.091 450.414 169.09 450.36C170.09 442.64 170.47 432.47 166.54 410.36L166.29 408.36C163.93 390.26 161.03 367.74 175.07 344.64C176.583 342.104 178.253 339.666 180.07 337.34C180.104 337.295 180.156 337.265 180.212 337.258C180.268 337.25 180.325 337.265 180.37 337.3C180.415 337.334 180.445 337.385 180.452 337.442C180.46 337.498 180.445 337.555 180.41 337.6C178.599 339.914 176.929 342.335 175.41 344.85C161.41 367.85 164.36 390.26 166.69 408.29C166.78 408.97 166.86 409.65 166.95 410.29C170.87 432.39 170.49 442.62 169.49 450.36C169.47 450.5 169.39 450.59 169.28 450.59Z" fill="#828282" fill-opacity="0.3"/>
<path d="M437.04 139.6C424.35 139.6 414.04 149.6 414.04 162.01V327.22C413.971 333.009 411.69 338.552 407.664 342.711C403.638 346.871 398.173 349.332 392.39 349.59C391.95 349.59 391.51 349.59 391.06 349.59C385.266 349.656 379.666 347.506 375.404 343.58C371.142 339.655 368.54 334.25 368.13 328.47C368.13 328.05 368.13 327.61 368.13 327.18V254.7C368.13 241.91 357.5 231.55 344.39 231.55H320.65V231.46H275.44V160.63C275.44 155.061 277.652 149.719 281.591 145.781C285.529 141.843 290.87 139.63 296.44 139.63L437.04 139.6Z" fill="#C8F5FC"/>
<path d="M404.52 231.6H335.99V235.22H404.52V231.6Z" fill="#A2E9FC"/>
<path d="M404.52 221.61H335.99V225.23H404.52V221.61Z" fill="#A2E9FC"/>
<path d="M365.17 211.59H335.99V215.21H365.17V211.59Z" fill="#A2E9FC"/>
<path d="M404.52 231.6H335.99V235.22H404.52V231.6Z" fill="#00AEEE"/>
<path d="M404.52 221.61H335.99V225.23H404.52V221.61Z" fill="#00AEEE"/>
<path d="M365.17 211.59H335.99V215.21H365.17V211.59Z" fill="#81DCFC"/>
<path d="M404.52 241.8H335.99V245.42H404.52V241.8Z" fill="#00AEEE"/>
<path d="M404.52 175.56H335.99V179.18H404.52V175.56Z" fill="#A2E9FC"/>
<path d="M404.52 165.57H335.99V169.19H404.52V165.57Z" fill="#A2E9FC"/>
<path d="M365.17 155.55H335.99V159.17H365.17V155.55Z" fill="#A2E9FC"/>
<path d="M404.52 175.56H335.99V179.18H404.52V175.56Z" fill="#00AEEE"/>
<path d="M404.52 165.57H335.99V169.19H404.52V165.57Z" fill="#00AEEE"/>
<path d="M365.17 155.55H335.99V159.17H365.17V155.55Z" fill="#81DCFC"/>
<path d="M404.52 185.76H335.99V189.38H404.52V185.76Z" fill="#00AEEE"/>
<path d="M404.52 295.41H335.99V299.03H404.52V295.41Z" fill="#A2E9FC"/>
<path d="M404.52 285.42H335.99V289.04H404.52V285.42Z" fill="#A2E9FC"/>
<path d="M365.17 275.4H335.99V279.02H365.17V275.4Z" fill="#A2E9FC"/>
<path d="M404.52 295.41H335.99V299.03H404.52V295.41Z" fill="#00AEEE"/>
<path d="M404.52 285.42H335.99V289.04H404.52V285.42Z" fill="#00AEEE"/>
<path d="M365.17 275.4H335.99V279.02H365.17V275.4Z" fill="#81DCFC"/>
<path d="M404.52 305.62H335.99V309.24H404.52V305.62Z" fill="#00AEEE"/>
<path d="M328.36 275.4H294.53V309.23H328.36V275.4Z" fill="#00AEEE"/>
<path d="M328.36 228.505C328.36 219.163 320.787 211.59 311.445 211.59C302.103 211.59 294.53 219.163 294.53 228.505C294.53 237.847 302.103 245.42 311.445 245.42C320.787 245.42 328.36 237.847 328.36 228.505Z" fill="#00AEEE"/>
<path d="M391.08 349.63H320.65V254.7C320.65 241.91 331.27 231.55 344.38 231.55C357.49 231.55 368.12 241.91 368.12 254.7V328.51C368.53 334.295 371.136 339.704 375.405 343.63C379.673 347.557 385.281 349.703 391.08 349.63Z" fill="#A2E9FC"/>
<path d="M340.37 501.33L191.48 501.42C189.163 501.417 186.941 500.496 185.303 498.857C183.664 497.219 182.743 494.997 182.74 492.68V266.08C182.74 256.898 186.387 248.092 192.88 241.6C199.373 235.107 208.178 231.46 217.36 231.46H320.65V231.55H344.38C331.27 231.55 320.65 241.91 320.65 254.7V480.28C320.707 485.62 322.764 490.744 326.415 494.641C330.066 498.538 335.045 500.925 340.37 501.33Z" fill="#C8F5FC"/>
<path d="M460.02 162.01V187.64C460.02 190.083 459.049 192.425 457.322 194.152C455.595 195.88 453.252 196.85 450.81 196.85H414.06V162.01C414.06 149.64 424.35 139.6 437.06 139.6C449.77 139.6 460.02 149.64 460.02 162.01Z" fill="#A2E9FC"/>
<path d="M306.71 333.75H238.18V337.37H306.71V333.75Z" fill="#A2E9FC"/>
<path d="M306.71 323.76H238.18V327.38H306.71V323.76Z" fill="#A2E9FC"/>
<path d="M267.36 313.74H238.18V317.36H267.36V313.74Z" fill="#A2E9FC"/>
<path d="M306.71 333.75H238.18V337.37H306.71V333.75Z" fill="#00AEEE"/>
<path d="M306.71 323.76H238.18V327.38H306.71V323.76Z" fill="#00AEEE"/>
<path d="M267.36 313.74H238.18V317.36H267.36V313.74Z" fill="#81DCFC"/>
<path d="M306.71 343.95H238.18V347.57H306.71V343.95Z" fill="#00AEEE"/>
<path d="M306.71 277.7H238.18V281.32H306.71V277.7Z" fill="#A2E9FC"/>
<path d="M306.71 267.71H238.18V271.33H306.71V267.71Z" fill="#A2E9FC"/>
<path d="M267.36 257.69H238.18V261.31H267.36V257.69Z" fill="#A2E9FC"/>
<path d="M306.71 277.7H238.18V281.32H306.71V277.7Z" fill="#00AEEE"/>
<path d="M306.71 267.71H238.18V271.33H306.71V267.71Z" fill="#00AEEE"/>
<path d="M267.36 257.69H238.18V261.31H267.36V257.69Z" fill="#81DCFC"/>
<path d="M306.71 287.9H238.18V291.52H306.71V287.9Z" fill="#00AEEE"/>
<path d="M306.71 397.56H238.18V401.18H306.71V397.56Z" fill="#A2E9FC"/>
<path d="M306.71 387.57H238.18V391.19H306.71V387.57Z" fill="#A2E9FC"/>
<path d="M267.36 377.55H238.18V381.17H267.36V377.55Z" fill="#A2E9FC"/>
<path d="M306.71 397.56H238.18V401.18H306.71V397.56Z" fill="#00AEEE"/>
<path d="M306.71 387.57H238.18V391.19H306.71V387.57Z" fill="#00AEEE"/>
<path d="M267.36 377.55H238.18V381.17H267.36V377.55Z" fill="#81DCFC"/>
<path d="M306.71 407.76H238.18V411.38H306.71V407.76Z" fill="#00AEEE"/>
<path d="M306.71 461.37H271.18V464.99H306.71V461.37Z" fill="#A2E9FC"/>
<path d="M306.71 451.38H271.18V455H306.71V451.38Z" fill="#A2E9FC"/>
<path d="M286.31 441.36H271.18V444.98H286.31V441.36Z" fill="#A2E9FC"/>
<path d="M306.71 461.37H271.18V464.99H306.71V461.37Z" fill="#00AEEE"/>
<path d="M306.71 451.38H271.18V455H306.71V451.38Z" fill="#00AEEE"/>
<path d="M286.31 441.36H271.18V444.98H286.31V441.36Z" fill="#81DCFC"/>
<path d="M306.71 471.57H271.18V475.19H306.71V471.57Z" fill="#00AEEE"/>
<path d="M354.76 442.97C357.203 442.97 359.545 443.941 361.272 445.668C363 447.395 363.97 449.738 363.97 452.18V480.28C363.91 485.621 361.851 490.745 358.198 494.642C354.546 498.539 349.566 500.925 344.24 501.33H340.37C335.043 500.928 330.062 498.542 326.409 494.645C322.756 490.747 320.697 485.622 320.64 480.28V442.97H354.76Z" fill="#A2E9FC"/>
<path d="M328.36 155.55H294.53V189.38H328.36V155.55Z" fill="#00AEEE"/>
<path d="M230.55 257.69H196.72V291.52H230.55V257.69Z" fill="#00AEEE"/>
<path d="M230.55 313.86H196.72V347.69H230.55V313.86Z" fill="#00AEEE"/>
<path d="M230.55 377.55H196.72V411.38H230.55V377.55Z" fill="#00AEEE"/>
<path d="M264.38 441.36H196.72V475.19H264.38V441.36Z" fill="#00AEEE"/>
<path d="M14.1599 187C17.8713 187 20.8799 183.991 20.8799 180.28C20.8799 176.569 17.8713 173.56 14.1599 173.56C10.4486 173.56 7.43994 176.569 7.43994 180.28C7.43994 183.991 10.4486 187 14.1599 187Z" fill="#A2E9FC"/>
<path d="M2.87 157.12C4.45506 157.12 5.74 155.835 5.74 154.25C5.74 152.665 4.45506 151.38 2.87 151.38C1.28494 151.38 0 152.665 0 154.25C0 155.835 1.28494 157.12 2.87 157.12Z" fill="#A2E9FC"/>
<path d="M446.14 411.57C451.906 411.57 456.58 406.896 456.58 401.13C456.58 395.364 451.906 390.69 446.14 390.69C440.374 390.69 435.7 395.364 435.7 401.13C435.7 406.896 440.374 411.57 446.14 411.57Z" fill="#A2E9FC"/>
<path d="M502.11 405.04C504.269 405.04 506.02 403.29 506.02 401.13C506.02 398.971 504.269 397.22 502.11 397.22C499.95 397.22 498.2 398.971 498.2 401.13C498.2 403.29 499.95 405.04 502.11 405.04Z" fill="#A2E9FC"/>
<path d="M472.82 392.69C475.344 392.69 477.39 390.644 477.39 388.12C477.39 385.596 475.344 383.55 472.82 383.55C470.296 383.55 468.25 385.596 468.25 388.12C468.25 390.644 470.296 392.69 472.82 392.69Z" fill="#A2E9FC"/>
<path d="M137.72 97.28C144.833 97.28 150.6 91.5135 150.6 84.4C150.6 77.2866 144.833 71.52 137.72 71.52C130.607 71.52 124.84 77.2866 124.84 84.4C124.84 91.5135 130.607 97.28 137.72 97.28Z" fill="#A2E9FC"/>
<path d="M128.49 302.24C131.014 302.24 133.06 300.194 133.06 297.67C133.06 295.146 131.014 293.1 128.49 293.1C125.966 293.1 123.92 295.146 123.92 297.67C123.92 300.194 125.966 302.24 128.49 302.24Z" fill="#A2E9FC"/>
<path d="M64.4299 455.37C65.9432 455.37 67.1699 454.143 67.1699 452.63C67.1699 451.117 65.9432 449.89 64.4299 449.89C62.9167 449.89 61.6899 451.117 61.6899 452.63C61.6899 454.143 62.9167 455.37 64.4299 455.37Z" fill="#A2E9FC"/>
<path d="M40.1 456.44C44.5293 456.44 48.12 452.849 48.12 448.42C48.12 443.991 44.5293 440.4 40.1 440.4C35.6706 440.4 32.08 443.991 32.08 448.42C32.08 452.849 35.6706 456.44 40.1 456.44Z" fill="#A2E9FC"/>
<path d="M472.44 220.15L450 237.5L452.06 242.2C452.098 242.437 452.22 242.652 452.404 242.806C452.587 242.96 452.82 243.043 453.06 243.04L481.96 242.42C482.125 242.419 482.288 242.377 482.433 242.298C482.579 242.218 482.702 242.104 482.792 241.965C482.882 241.827 482.936 241.668 482.95 241.503C482.964 241.338 482.936 241.172 482.87 241.02L473.87 220.34C473.812 220.207 473.721 220.09 473.605 220.003C473.49 219.915 473.353 219.858 473.209 219.839C473.065 219.82 472.918 219.839 472.783 219.893C472.648 219.948 472.53 220.036 472.44 220.15Z" fill="#F9C973"/>
<path fill-rule="evenodd" clip-rule="evenodd" d="M470.32 215.7L450.23 236.47C450.09 236.613 449.996 236.795 449.96 236.991C449.924 237.188 449.948 237.391 450.029 237.574C450.109 237.758 450.243 237.912 450.413 238.018C450.582 238.125 450.78 238.177 450.98 238.17L479.88 237.65C480.045 237.649 480.208 237.607 480.353 237.528C480.499 237.448 480.622 237.334 480.712 237.195C480.802 237.056 480.857 236.897 480.87 236.733C480.884 236.568 480.856 236.402 480.79 236.25L471.99 215.99C471.926 215.833 471.823 215.695 471.691 215.589C471.559 215.483 471.402 215.412 471.235 215.383C471.068 215.354 470.897 215.368 470.737 215.423C470.577 215.479 470.433 215.574 470.32 215.7Z" fill="#FFF9B0"/>
<path d="M379.03 86.5797L377.95 84.3896L365.23 91.1396L366.23 93.4597C366.295 93.5582 366.384 93.6376 366.49 93.6897L378.07 98.5797C378.157 98.6255 378.255 98.6476 378.353 98.6436C378.452 98.6396 378.547 98.6096 378.63 98.5569C378.714 98.5041 378.781 98.4304 378.827 98.3431C378.872 98.2558 378.894 98.1581 378.89 98.0597L379.05 86.7697C379.06 86.6997 379.06 86.6097 379.03 86.5797Z" fill="#F9C973"/>
<path fill-rule="evenodd" clip-rule="evenodd" d="M377.33 84.2L365.43 90.5199C365.349 90.558 365.281 90.6181 365.234 90.6934C365.186 90.7686 365.161 90.8559 365.161 90.945C365.161 91.0341 365.186 91.1213 365.234 91.1966C365.281 91.2718 365.349 91.332 365.43 91.37L377.07 96.2C377.141 96.2288 377.218 96.2402 377.294 96.2333C377.37 96.2264 377.444 96.2013 377.508 96.1602C377.573 96.1191 377.627 96.0631 377.665 95.997C377.704 95.9308 377.726 95.8564 377.73 95.7799L377.99 84.59C377.984 84.5152 377.96 84.443 377.92 84.3794C377.88 84.3158 377.825 84.2627 377.761 84.2245C377.696 84.1863 377.623 84.1642 377.548 84.1599C377.473 84.1557 377.398 84.1694 377.33 84.2Z" fill="#FFF9B0"/>
<path d="M109.1 470.16C109.1 470.16 87.29 464.69 86.1 463.98C85.71 465.98 85.4101 467.65 85.0001 469.63C84.9503 469.787 84.9503 469.954 85.0001 470.11L90.2501 489.34C90.286 489.472 90.3541 489.593 90.4486 489.692C90.5431 489.791 90.6607 489.865 90.7909 489.906C90.9211 489.948 91.0596 489.956 91.194 489.931C91.3283 489.906 91.454 489.847 91.5599 489.76L107.73 476.43C107.884 476.304 107.986 476.126 108.02 475.93C108.37 474 109.1 470.16 109.1 470.16Z" fill="#F9C973"/>
<path fill-rule="evenodd" clip-rule="evenodd" d="M86.0801 464.45L91.3301 483.68C91.3647 483.813 91.4321 483.935 91.5261 484.035C91.62 484.135 91.7375 484.21 91.8679 484.252C91.9982 484.295 92.1373 484.305 92.2722 484.28C92.4071 484.255 92.5336 484.197 92.6401 484.11L108.81 470.77C108.924 470.673 109.01 470.546 109.058 470.404C109.106 470.262 109.115 470.109 109.083 469.962C109.051 469.816 108.98 469.68 108.878 469.571C108.775 469.461 108.645 469.381 108.5 469.34L87.0801 463.47C86.9428 463.426 86.7962 463.42 86.6557 463.453C86.5153 463.486 86.3865 463.556 86.2834 463.657C86.1804 463.758 86.1069 463.886 86.071 464.025C86.0352 464.165 86.0383 464.312 86.0801 464.45Z" fill="#FFF9B0"/>
<path d="M283.48 3.93018L279.93 0.240234L258.79 21.8702L262.32 25.8702C262.515 26.0245 262.752 26.1182 263 26.1401L289.62 28.4802C289.784 28.4895 289.948 28.4581 290.098 28.3888C290.247 28.3195 290.377 28.2143 290.476 28.0828C290.575 27.9512 290.64 27.7972 290.665 27.6345C290.69 27.4718 290.674 27.3054 290.62 27.1501L283.62 4.32019C283.612 4.17928 283.564 4.04365 283.48 3.93018Z" fill="#F9C973"/>
<path fill-rule="evenodd" clip-rule="evenodd" d="M278.59 0.310042L258.86 20.5901C258.735 20.7258 258.65 20.8932 258.615 21.0741C258.579 21.2549 258.594 21.4421 258.659 21.6149C258.723 21.7876 258.833 21.9394 258.978 22.0532C259.123 22.1671 259.297 22.2387 259.48 22.2601L285.83 24.4801C285.992 24.495 286.156 24.4698 286.307 24.4067C286.458 24.3437 286.591 24.2447 286.694 24.1184C286.798 23.9921 286.869 23.8425 286.901 23.6824C286.934 23.5223 286.926 23.3567 286.88 23.2001L280.26 0.700056C280.207 0.535666 280.112 0.387753 279.985 0.270735C279.859 0.153718 279.703 0.071601 279.535 0.0323318C279.367 -0.00693732 279.192 -0.00205834 279.026 0.046614C278.86 0.0952864 278.71 0.186062 278.59 0.310042Z" fill="#FFF9B0"/>
<path d="M464.65 477.85L462.86 475.99L452.22 486.88L453.99 488.88C454.09 488.96 454.212 489.006 454.34 489.01L467.73 490.2C467.816 490.212 467.904 490.2 467.985 490.167C468.065 490.134 468.136 490.081 468.189 490.012C468.243 489.943 468.278 489.862 468.29 489.775C468.302 489.689 468.292 489.601 468.26 489.52L464.75 478.03C464.731 477.963 464.697 477.901 464.65 477.85Z" fill="#F9C973"/>
<path fill-rule="evenodd" clip-rule="evenodd" d="M462.14 476.03L452.2 486.24C452.136 486.308 452.092 486.393 452.074 486.485C452.056 486.577 452.064 486.673 452.097 486.76C452.131 486.848 452.188 486.924 452.263 486.981C452.337 487.037 452.427 487.072 452.52 487.08L465.78 488.19C465.861 488.198 465.944 488.187 466.02 488.155C466.096 488.124 466.163 488.075 466.216 488.012C466.268 487.948 466.304 487.873 466.32 487.793C466.337 487.712 466.333 487.629 466.31 487.55L462.97 476.22C462.945 476.137 462.898 476.063 462.835 476.004C462.772 475.945 462.694 475.903 462.61 475.884C462.526 475.865 462.438 475.868 462.355 475.894C462.273 475.919 462.198 475.966 462.14 476.03Z" fill="#FFF9B0"/>
<path d="M155.65 381.49L152.94 381.06L151.01 397.14L153.82 397.7C153.947 397.699 154.071 397.665 154.18 397.6L166.18 390.03C166.271 389.972 166.346 389.892 166.398 389.798C166.449 389.704 166.476 389.598 166.476 389.49C166.476 389.382 166.449 389.276 166.398 389.182C166.346 389.088 166.271 389.008 166.18 388.95L155.84 381.58C155.83 381.49 155.73 381.49 155.65 381.49Z" fill="#F9C973"/>
<path fill-rule="evenodd" clip-rule="evenodd" d="M152.4 381.52L150.61 396.59C150.599 396.691 150.616 396.792 150.66 396.884C150.703 396.975 150.772 397.052 150.858 397.106C150.943 397.16 151.042 397.19 151.143 397.19C151.244 397.191 151.344 397.163 151.43 397.11L163.36 389.48C163.432 389.431 163.491 389.366 163.532 389.289C163.573 389.213 163.595 389.127 163.595 389.04C163.595 388.953 163.573 388.867 163.532 388.791C163.491 388.714 163.432 388.648 163.36 388.6L153.21 381.19C153.14 381.137 153.057 381.103 152.969 381.092C152.882 381.081 152.793 381.092 152.712 381.126C152.63 381.159 152.558 381.213 152.504 381.282C152.449 381.351 152.413 381.433 152.4 381.52Z" fill="#FFF9B0"/>
<path fill-rule="evenodd" clip-rule="evenodd" d="M517.41 30.57L496.11 63.57L500.97 68.7601C501.135 69.0556 501.399 69.283 501.716 69.402C502.033 69.521 502.381 69.5238 502.7 69.41L540.14 55.2601C540.354 55.18 540.545 55.0484 540.696 54.8769C540.847 54.7054 540.954 54.4992 541.006 54.2767C541.059 54.0542 541.056 53.8222 540.997 53.6012C540.938 53.3803 540.826 53.1773 540.67 53.0101L519.37 30.1399C518.72 29.4299 517.83 29.7 517.41 30.57Z" fill="#BF2652"/>
<path fill-rule="evenodd" clip-rule="evenodd" d="M512.58 25.7001L495.95 62.14C495.835 62.3903 495.798 62.6692 495.842 62.9409C495.887 63.2126 496.012 63.4647 496.202 63.6647C496.391 63.8647 496.636 64.0035 496.904 64.0633C497.173 64.123 497.454 64.1011 497.71 64.0001L535.22 49.9401C535.433 49.859 535.623 49.7266 535.774 49.5546C535.924 49.3826 536.029 49.1763 536.08 48.9539C536.132 48.7315 536.128 48.4998 536.068 48.2794C536.009 48.059 535.896 47.8566 535.74 47.6901L514.87 25.3101C514.71 25.1484 514.513 25.0277 514.296 24.9582C514.079 24.8886 513.848 24.8723 513.624 24.9105C513.399 24.9488 513.187 25.0405 513.005 25.1779C512.824 25.3153 512.678 25.4944 512.58 25.7001Z" fill="#F95070"/>
<path fill-rule="evenodd" clip-rule="evenodd" d="M359.12 395.56L342.29 383.17L339.35 385.55C339.186 385.621 339.055 385.751 338.983 385.914C338.911 386.077 338.903 386.261 338.96 386.43L345.22 406.78C345.259 406.894 345.324 406.997 345.411 407.081C345.497 407.165 345.603 407.227 345.718 407.262C345.833 407.297 345.955 407.305 346.073 407.283C346.192 407.262 346.304 407.213 346.4 407.14L359.25 396.61C359.65 396.28 359.58 395.82 359.12 395.56Z" fill="#BF2652"/>
<path fill-rule="evenodd" clip-rule="evenodd" d="M361.86 393.18L343.07 383.18C342.945 383.121 342.805 383.099 342.668 383.117C342.53 383.135 342.401 383.193 342.295 383.282C342.19 383.372 342.113 383.49 342.072 383.623C342.032 383.756 342.031 383.897 342.07 384.03L348.27 404.42C348.307 404.534 348.372 404.637 348.457 404.721C348.543 404.805 348.647 404.867 348.762 404.903C348.876 404.938 348.998 404.945 349.116 404.924C349.234 404.903 349.345 404.853 349.44 404.78L362 394.47C362.106 394.392 362.189 394.288 362.242 394.168C362.295 394.048 362.316 393.916 362.301 393.785C362.287 393.654 362.239 393.53 362.162 393.423C362.084 393.317 361.98 393.233 361.86 393.18Z" fill="#F95070"/>
<path fill-rule="evenodd" clip-rule="evenodd" d="M70.7602 369.92L74.9001 369.49L71.6701 345.06L67.37 345.32C67.1705 345.373 66.9879 345.476 66.84 345.62L51.9401 361.47C51.8402 361.567 51.7673 361.689 51.7289 361.823C51.6906 361.957 51.688 362.099 51.7214 362.235C51.7547 362.37 51.8229 362.494 51.9191 362.595C52.0154 362.696 52.1365 362.77 52.2702 362.81L70.4001 369.81C70.4459 369.857 70.5029 369.892 70.5658 369.911C70.6288 369.931 70.6958 369.934 70.7602 369.92Z" fill="#BF2652"/>
<path fill-rule="evenodd" clip-rule="evenodd" d="M75.55 368.7L72.55 345.86C72.5275 345.709 72.4632 345.567 72.3642 345.45C72.2652 345.333 72.1356 345.247 71.9899 345.2C71.8443 345.153 71.6884 345.148 71.54 345.185C71.3915 345.222 71.2565 345.3 71.1501 345.41L56.4401 361.16C56.3514 361.257 56.2873 361.374 56.2533 361.501C56.2194 361.628 56.2164 361.762 56.2448 361.89C56.2732 362.019 56.3322 362.139 56.4167 362.239C56.5011 362.34 56.6087 362.419 56.7301 362.47L74.4701 369.54C74.5986 369.586 74.7365 369.599 74.8713 369.578C75.0061 369.556 75.1334 369.501 75.2411 369.417C75.3489 369.333 75.4337 369.224 75.4877 369.098C75.5417 368.973 75.5631 368.836 75.55 368.7Z" fill="#F95070"/>
<path d="M178.59 222.48C178.59 222.48 178.36 222.74 177.9 223.2" stroke="#00AEEE" stroke-linecap="round" stroke-linejoin="round"/>
<path d="M171.98 228.51C157.9 239.93 122.77 261.36 80.41 234.84C33.55 205.51 56.2801 156.84 89.9301 154.53C111.23 153.09 141.61 176.22 119.24 217.7C97.8301 257.4 55.58 276.48 20.16 265.76" stroke="#00AEEE" stroke-linecap="round" stroke-linejoin="round" stroke-dasharray="1.99 7.96"/>
<path d="M16.38 264.5L15.4501 264.15" stroke="#00AEEE" stroke-linecap="round" stroke-linejoin="round"/>
<path d="M199.59 200.06L187.85 214.84L180.21 199.58L230.55 159.4L199.59 200.06Z" fill="#A2E9FC"/>
<path d="M199.59 200.06L187.85 214.84L184.64 200.75L230.55 159.4L199.59 200.06Z" fill="#C8F5FC"/>
<path d="M230.55 159.4L184.64 200.75L205.08 206.31L230.55 159.4Z" fill="#C8F5FC"/>
<path d="M230.55 159.4L163.47 195.17L180.21 199.58L230.55 159.4Z" fill="#C8F5FC"/>
<path d="M213.63 274.61V461.37" stroke="#00AEEE" stroke-width="2" stroke-miterlimit="10"/>
<path d="M311.44 172.46V221.61" stroke="#00AEEE" stroke-width="2" stroke-miterlimit="10"/>
<path d="M184.64 200.75L196.48 203.97L187.85 214.84L184.64 200.75Z" fill="#9ACBDE"/>
</g>
<defs>
<clipPath id="clip0_283_723">
<rect width="541.04" height="512.85" fill="white"/>
</clipPath>
</defs>
</svg>
