<svg width="527" height="441" viewBox="0 0 527 441" fill="none" xmlns="http://www.w3.org/2000/svg">
<g clip-path="url(#clip0_289_1673)">
<g style="mix-blend-mode:multiply">
<g style="mix-blend-mode:multiply">
<path d="M247.214 425.772C364.175 425.772 458.992 420.889 458.992 414.866C458.992 408.843 364.175 403.96 247.214 403.96C130.252 403.96 35.4353 408.843 35.4353 414.866C35.4353 420.889 130.252 425.772 247.214 425.772Z" fill="#979695"/>
</g>
</g>
<path fill-rule="evenodd" clip-rule="evenodd" d="M153.199 179.127H44.6127C43.6511 179.122 42.7302 178.738 42.0509 178.058C41.3717 177.378 40.9894 176.457 40.9873 175.496V107.506C40.9894 106.546 41.3721 105.626 42.0515 104.947C42.731 104.268 43.6519 103.886 44.6127 103.884H153.199C154.161 103.886 155.082 104.268 155.763 104.946C156.444 105.625 156.828 106.545 156.832 107.506V175.496C156.837 175.974 156.745 176.448 156.564 176.891C156.383 177.333 156.116 177.735 155.778 178.073C155.439 178.411 155.037 178.678 154.594 178.859C154.152 179.04 153.677 179.131 153.199 179.127Z" fill="#C8F5FC"/>
<path fill-rule="evenodd" clip-rule="evenodd" d="M290.277 226.554H197.151C196.19 226.55 195.269 226.166 194.59 225.486C193.91 224.806 193.528 223.885 193.526 222.924V165.015C193.528 164.055 193.911 163.134 194.59 162.456C195.27 161.777 196.19 161.394 197.151 161.392H290.277C291.238 161.394 292.159 161.777 292.838 162.456C293.518 163.134 293.9 164.055 293.902 165.015V222.963C293.901 223.437 293.807 223.906 293.624 224.344C293.441 224.781 293.173 225.178 292.836 225.511C292.499 225.845 292.1 226.109 291.661 226.288C291.222 226.467 290.751 226.557 290.277 226.554Z" fill="#C8F5FC"/>
<path fill-rule="evenodd" clip-rule="evenodd" d="M354.62 106.783H246.034C245.072 106.779 244.152 106.395 243.472 105.715C242.793 105.035 242.411 104.114 242.409 103.153V35.1623C242.411 34.2023 242.793 33.2821 243.473 32.6033C244.152 31.9244 245.073 31.5421 246.034 31.54H354.62C355.582 31.5421 356.504 31.9242 357.184 32.6028C357.865 33.2814 358.249 34.2015 358.254 35.1623V103.153C358.256 103.63 358.163 104.103 357.981 104.545C357.799 104.986 357.532 105.387 357.194 105.724C356.856 106.062 356.455 106.329 356.013 106.511C355.571 106.693 355.098 106.785 354.62 106.783Z" fill="#C8F5FC"/>
<path d="M94.329 130.096H56.6682V133.718H94.329V130.096Z" fill="#A2E9FC"/>
<path d="M94.329 140.067H56.6682V143.69H94.329V140.067Z" fill="#A2E9FC"/>
<path d="M72.7108 150.038H56.6682V153.661H72.7108V150.038Z" fill="#A2E9FC"/>
<path d="M94.3134 130.096H56.6997V133.718H94.3134V130.096Z" fill="#A2E9FC"/>
<path d="M94.3134 140.067H56.6997V143.69H94.3134V140.067Z" fill="#A2E9FC"/>
<path d="M94.3134 150.038H56.6997V153.661H94.3134V150.038Z" fill="#A2E9FC"/>
<path d="M94.3136 119.944H56.7V123.567H94.3136V119.944Z" fill="#A2E9FC"/>
<path d="M77.3271 160.19H56.6997V163.812H77.3271V160.19Z" fill="#A2E9FC"/>
<path d="M278.591 188.367H208.727V191.989H278.591V188.367Z" fill="#A2E9FC"/>
<path d="M278.591 198.338H208.727V201.961H278.591V198.338Z" fill="#A2E9FC"/>
<path d="M238.485 208.309H208.727V211.932H238.485V208.309Z" fill="#A2E9FC"/>
<path d="M278.56 188.367H208.766V191.989H278.56V188.367Z" fill="#A2E9FC"/>
<path d="M278.56 198.338H208.766V201.961H278.56V198.338Z" fill="#A2E9FC"/>
<path d="M257.869 208.309H208.766V211.932H257.869V208.309Z" fill="#A2E9FC"/>
<path d="M278.56 178.215H208.766V181.838H278.56V178.215Z" fill="#A2E9FC"/>
<path d="M342.683 57.7524H258.341V61.3747H342.683V57.7524Z" fill="#A2E9FC"/>
<path d="M342.683 67.7236H258.341V71.3459H342.683V67.7236Z" fill="#A2E9FC"/>
<path d="M294.272 77.6946H258.341V81.3169H294.272V77.6946Z" fill="#A2E9FC"/>
<path d="M342.612 57.7524H258.381V61.3747H342.612V57.7524Z" fill="#A2E9FC"/>
<path d="M342.612 67.7236H258.381V71.3459H342.612V67.7236Z" fill="#A2E9FC"/>
<path d="M342.612 77.6946H258.381V81.3169H342.612V77.6946Z" fill="#A2E9FC"/>
<path d="M342.612 47.6006H258.381V51.2229H342.612V47.6006Z" fill="#A2E9FC"/>
<path d="M314.341 87.8152H258.381V91.4375H314.341V87.8152Z" fill="#A2E9FC"/>
<path d="M7.86403 374.84C12.2072 374.84 15.7281 371.322 15.7281 366.983C15.7281 362.643 12.2072 359.125 7.86403 359.125C3.52085 359.125 0 362.643 0 366.983C0 371.322 3.52085 374.84 7.86403 374.84Z" fill="#A2E9FC"/>
<path d="M390.284 441C396.829 441 402.135 435.699 402.135 429.159C402.135 422.619 396.829 417.318 390.284 417.318C383.739 417.318 378.433 422.619 378.433 429.159C378.433 435.699 383.739 441 390.284 441Z" fill="#A2E9FC"/>
<path d="M408.12 436.671C409.392 436.671 410.424 435.64 410.424 434.368C410.424 433.097 409.392 432.066 408.12 432.066C406.847 432.066 405.815 433.097 405.815 434.368C405.815 435.64 406.847 436.671 408.12 436.671Z" fill="#A2E9FC"/>
<path d="M431.491 83.6898C435.305 83.6898 438.396 80.6011 438.396 76.7909C438.396 72.9808 435.305 69.8921 431.491 69.8921C427.678 69.8921 424.587 72.9808 424.587 76.7909C424.587 80.6011 427.678 83.6898 431.491 83.6898Z" fill="#A2E9FC"/>
<path d="M19.4078 387.756C20.6029 385.76 19.9522 383.174 17.9545 381.98C15.9568 380.786 13.3685 381.436 12.1733 383.432C10.9782 385.428 11.6288 388.014 13.6265 389.209C15.6242 390.403 18.2126 389.753 19.4078 387.756Z" fill="#A2E9FC"/>
<path fill-rule="evenodd" clip-rule="evenodd" d="M489.245 368.185L447.565 378.722V386.501C447.478 386.857 447.518 387.233 447.679 387.563C447.84 387.893 448.111 388.157 448.446 388.308L488.946 404.895C489.178 404.993 489.431 405.031 489.681 405.007C489.932 404.983 490.173 404.897 490.382 404.757C490.591 404.616 490.762 404.426 490.879 404.203C490.996 403.981 491.056 403.732 491.053 403.481V369.34C491.124 368.185 490.251 367.729 489.245 368.185Z" fill="#BF2652"/>
<path fill-rule="evenodd" clip-rule="evenodd" d="M489.017 360.673L448.517 377.386C448.238 377.499 447.999 377.692 447.831 377.941C447.663 378.19 447.573 378.484 447.573 378.785C447.573 379.085 447.663 379.379 447.831 379.628C447.999 379.877 448.238 380.071 448.517 380.183L489.017 396.888C489.249 396.986 489.503 397.025 489.754 397C490.006 396.976 490.247 396.889 490.456 396.748C490.665 396.607 490.836 396.415 490.953 396.192C491.069 395.968 491.128 395.718 491.124 395.466V362.056C491.12 361.808 491.055 361.564 490.935 361.347C490.815 361.129 490.644 360.944 490.436 360.808C490.228 360.672 489.991 360.588 489.743 360.565C489.496 360.541 489.246 360.578 489.017 360.673Z" fill="#F95070"/>
<path d="M525.105 248.484L526.945 244.076L500.6 234.074L498.524 238.56C498.482 238.671 498.464 238.789 498.471 238.906C498.478 239.024 498.509 239.139 498.564 239.244L506.31 262.62C506.362 262.799 506.458 262.963 506.59 263.095C506.722 263.228 506.885 263.325 507.064 263.378C507.243 263.431 507.433 263.439 507.616 263.4C507.799 263.361 507.969 263.276 508.11 263.154L524.908 248.822C524.996 248.724 525.063 248.609 525.105 248.484Z" fill="#F9C973"/>
<path fill-rule="evenodd" clip-rule="evenodd" d="M526.426 242.961L501.725 233.61C501.562 233.548 501.385 233.533 501.214 233.568C501.043 233.603 500.886 233.686 500.761 233.808C500.636 233.929 500.549 234.084 500.509 234.254C500.469 234.423 500.479 234.601 500.538 234.765L508.402 258.141C508.447 258.285 508.528 258.414 508.636 258.519C508.744 258.624 508.876 258.701 509.021 258.742C509.166 258.783 509.319 258.788 509.466 258.756C509.613 258.723 509.75 258.655 509.864 258.558L526.662 244.532C526.783 244.429 526.876 244.297 526.932 244.148C526.988 243.999 527.005 243.838 526.981 243.681C526.958 243.523 526.894 243.375 526.797 243.249C526.7 243.123 526.572 243.023 526.426 242.961Z" fill="#FFF9B0"/>
<path fill-rule="evenodd" clip-rule="evenodd" d="M196.742 6.63171L191.025 8.93399L205.637 42.3439L211.66 40.1988C211.926 40.0488 212.14 39.8213 212.274 39.5466L227.003 10.8826C227.109 10.7059 227.167 10.5045 227.17 10.2985C227.174 10.0925 227.124 9.88916 227.024 9.7087C226.925 9.52825 226.78 9.37697 226.604 9.26998C226.427 9.163 226.226 9.10405 226.02 9.09896L197.332 6.52956C197.232 6.50406 197.128 6.49996 197.026 6.51757C196.925 6.53517 196.828 6.57408 196.742 6.63171Z" fill="#BF2652"/>
<path fill-rule="evenodd" clip-rule="evenodd" d="M190.49 10.4268L204.182 41.6525C204.272 41.857 204.419 42.0319 204.604 42.1573C204.79 42.2827 205.007 42.3535 205.23 42.3617C205.454 42.3699 205.676 42.315 205.87 42.2035C206.064 42.092 206.223 41.9284 206.328 41.731L220.79 13.3027C220.879 13.1287 220.923 12.9359 220.919 12.7409C220.915 12.546 220.864 12.3549 220.769 12.1844C220.675 12.0139 220.539 11.8691 220.376 11.7627C220.212 11.6563 220.025 11.5916 219.831 11.5741L191.678 8.7768C191.472 8.75289 191.263 8.78448 191.073 8.86821C190.883 8.95194 190.72 9.08476 190.599 9.25303C190.478 9.42129 190.404 9.61889 190.385 9.82526C190.366 10.0316 190.402 10.2393 190.49 10.4268Z" fill="#F95070"/>
<path fill-rule="evenodd" clip-rule="evenodd" d="M329.259 142.896L327.018 148.396L355.871 152.922L358.387 147.225C358.466 146.969 358.466 146.696 358.387 146.44L350.775 121.374C350.46 120.526 349.642 120.754 349.116 121.312L329.573 142.385C329.413 142.514 329.302 142.695 329.259 142.896Z" fill="#BF2652"/>
<path fill-rule="evenodd" clip-rule="evenodd" d="M327.56 149.551L354.55 153.755C354.755 153.76 354.959 153.718 355.147 153.634C355.335 153.55 355.501 153.425 355.635 153.269C355.768 153.112 355.865 152.928 355.918 152.729C355.971 152.531 355.979 152.323 355.941 152.121L348.298 127.378C348.093 126.718 347.26 126.686 346.725 127.299L327.379 147.846C326.719 148.475 326.829 149.449 327.56 149.551Z" fill="#F95070"/>
<path d="M82.6588 12.9491L81.7388 16.3985L102.374 21.113L103.443 17.5536C103.474 17.3819 103.446 17.2049 103.365 17.0507L95.2019 0.502913C95.1544 0.366655 95.0703 0.246022 94.9588 0.154354C94.8473 0.0626854 94.7128 0.00343273 94.5698 -0.016857C94.4269 -0.0371467 94.2811 -0.0176681 94.1484 0.03935C94.0158 0.0963681 93.9014 0.188814 93.8178 0.306477L82.8082 12.6897C82.7588 12.7113 82.7176 12.7481 82.6907 12.7948C82.6638 12.8415 82.6526 12.8956 82.6588 12.9491Z" fill="#F9C973"/>
<path fill-rule="evenodd" clip-rule="evenodd" d="M82.2734 17.1607L101.603 21.5294C101.733 21.5605 101.87 21.5537 101.996 21.5099C102.122 21.466 102.233 21.3869 102.316 21.2819C102.399 21.1769 102.45 21.0505 102.463 20.9175C102.476 20.7845 102.45 20.6506 102.39 20.5315L94.1009 3.98369C94.0464 3.88536 93.9697 3.80108 93.8769 3.73757C93.7841 3.67405 93.6777 3.63302 93.5662 3.61777C93.4548 3.60251 93.3414 3.61347 93.2349 3.64971C93.1284 3.68594 93.0318 3.74652 92.9528 3.82658L81.9432 15.9742C81.8545 16.0628 81.7909 16.1733 81.7591 16.2944C81.7272 16.4156 81.7282 16.543 81.7618 16.6637C81.7954 16.7844 81.8604 16.894 81.9503 16.9813C82.0402 17.0686 82.1517 17.1305 82.2734 17.1607Z" fill="#FFF9B0"/>
<path fill-rule="evenodd" clip-rule="evenodd" d="M73.2456 255.1L76.1789 252.594C76.7996 252.037 77.6094 251.736 78.4438 251.753H364.348C364.923 251.744 365.493 251.851 366.026 252.067C366.558 252.283 367.041 252.604 367.447 253.01C368.233 253.678 368.957 254.433 369.712 255.1H73.2456Z" fill="#0A9CE5"/>
<path fill-rule="evenodd" clip-rule="evenodd" d="M356.634 401.367C361.415 353.536 366.194 305.731 370.97 257.953C371.026 257.559 371 257.159 370.893 256.776C370.786 256.393 370.6 256.037 370.348 255.729C370.096 255.422 369.783 255.17 369.428 254.991C369.073 254.811 368.685 254.706 368.288 254.684H74.8419C74.4442 254.705 74.0551 254.809 73.6996 254.988C73.3441 255.168 73.0298 255.419 72.7769 255.727C72.5239 256.034 72.3378 256.391 72.2303 256.774C72.1228 257.157 72.0963 257.559 72.1525 257.953C77.0964 305.789 82.0166 353.594 86.9133 401.367C86.9576 402.064 87.2541 402.721 87.7475 403.215C88.2409 403.71 88.8976 404.008 89.5949 404.054H353.952C354.653 404.018 355.315 403.723 355.811 403.227C356.306 402.73 356.6 402.067 356.634 401.367Z" fill="#A2E9FC"/>
<path fill-rule="evenodd" clip-rule="evenodd" d="M356.634 401.367C361.415 353.536 366.194 305.731 370.97 257.953C371.026 257.559 371 257.159 370.893 256.776C370.786 256.393 370.6 256.037 370.348 255.729C370.096 255.422 369.783 255.17 369.428 254.991C369.073 254.811 368.685 254.706 368.288 254.684H321.104C211.503 382.274 168.613 324.183 84.3103 376.325C85.1518 384.701 86.0719 393.077 86.9133 401.469C86.9578 402.165 87.2545 402.821 87.7481 403.314C88.2417 403.808 88.8983 404.104 89.5949 404.149H353.952C354.658 404.082 355.317 403.765 355.809 403.255C356.301 402.744 356.594 402.075 356.634 401.367Z" fill="#81DCFC"/>
<path fill-rule="evenodd" clip-rule="evenodd" d="M352.946 411.503H90.4366C89.9621 411.507 89.4915 411.417 89.0522 411.238C88.6129 411.059 88.2137 410.794 87.8778 410.459C87.5418 410.124 87.276 409.726 87.0956 409.287C86.9152 408.849 86.8238 408.379 86.827 407.905V407.567C86.8238 407.092 86.9152 406.622 87.0956 406.184C87.276 405.745 87.5418 405.347 87.8778 405.012C88.2137 404.677 88.6129 404.412 89.0522 404.233C89.4915 404.054 89.9621 403.964 90.4366 403.968H352.946C353.42 403.964 353.89 404.054 354.329 404.233C354.768 404.413 355.167 404.678 355.502 405.013C355.837 405.348 356.102 405.746 356.282 406.184C356.461 406.623 356.552 407.093 356.547 407.567V407.905C356.527 408.853 356.141 409.756 355.47 410.427C354.799 411.098 353.895 411.483 352.946 411.503Z" fill="#0A9CE5"/>
<path d="M224.746 343.481C232.99 343.481 239.672 338.869 239.672 333.18C239.672 327.491 232.99 322.879 224.746 322.879C216.503 322.879 209.82 327.491 209.82 333.18C209.82 338.869 216.503 343.481 224.746 343.481Z" fill="#0A9CE5"/>
<path fill-rule="evenodd" clip-rule="evenodd" d="M224.746 322.879C216.528 322.879 209.804 327.483 209.804 333.18C209.835 335.176 210.612 337.087 211.983 338.539C220.674 335.549 229.113 331.871 237.219 327.538C234.56 324.718 229.952 322.879 224.746 322.879Z" fill="#81DCFC"/>
<path d="M389.647 167.191L315.041 187.872C299.038 252.633 305.368 321.449 352.568 352.093C411.595 323.806 445.364 255.886 455.343 191.015L389.647 167.191Z" fill="#C8F5FC"/>
<path d="M461.194 235.567C461.343 235.064 461.485 234.561 461.634 234.05C462.02 232.699 462.421 231.347 462.775 229.996C462.948 229.375 463.113 228.746 463.278 228.126C463.443 227.505 463.561 227.088 463.695 226.554C463.828 226.02 463.938 225.54 464.072 225.038C464.402 223.71 464.733 222.374 465.047 221.046C465.259 220.158 465.472 219.278 465.668 218.39C465.983 217.031 466.274 215.672 466.565 214.312C466.746 213.471 466.927 212.623 467.1 211.782C467.399 210.297 467.682 208.82 467.957 207.335C468.091 206.62 468.232 205.905 468.358 205.19C468.751 202.997 469.144 200.813 469.451 198.621L455.343 190.952C455.013 193.136 454.643 195.321 454.25 197.513C454.124 198.228 453.982 198.943 453.849 199.658C453.576 201.146 453.291 202.628 452.992 204.105C452.819 204.954 452.638 205.795 452.457 206.635C452.166 207.995 451.875 209.362 451.56 210.721C451.364 211.601 451.151 212.481 450.939 213.369C450.625 214.697 450.294 216.033 449.956 217.361C449.697 218.39 449.437 219.412 449.17 220.433C449.005 221.062 448.84 221.682 448.667 222.303C448.297 223.663 447.88 225.014 447.526 226.366C447.377 226.868 447.235 227.371 447.086 227.882C446.562 229.71 446.003 231.544 445.411 233.382C445.308 233.704 445.198 234.019 445.096 234.333C444.64 235.753 444.168 237.172 443.681 238.592C442.989 240.629 442.273 242.654 441.534 244.666C441.447 244.901 441.369 245.145 441.274 245.388C440.488 247.628 439.576 249.859 438.687 252.075C438.341 252.939 437.979 253.788 437.625 254.645C437.154 255.768 436.69 256.9 436.202 258.015C435.824 258.903 435.416 259.791 435.03 260.671C434.543 261.763 434.055 262.863 433.552 263.948C433.048 265.032 432.592 265.975 432.105 266.989C431.727 267.774 431.318 268.56 430.957 269.346C430.438 270.407 429.895 271.452 429.384 272.489C428.991 273.275 428.598 274.005 428.212 274.76C427.426 276.245 426.639 277.722 425.853 279.183C425.727 279.411 425.609 279.639 425.483 279.859C424.54 281.556 423.564 283.238 422.574 284.911L421.834 286.122C421.095 287.347 420.345 288.565 419.585 289.775C419.255 290.302 418.917 290.828 418.579 291.347C417.819 292.541 417.032 293.722 416.22 294.89C415.96 295.268 415.708 295.676 415.433 296.038C414.419 297.531 413.38 299 412.327 300.461C410.825 302.552 409.268 304.594 407.687 306.614C407.27 307.148 406.838 307.675 406.413 308.185C405.191 309.704 403.951 311.203 402.693 312.68C402.127 313.34 401.577 314 401.01 314.644L400.051 315.721C398.966 316.938 397.865 318.133 396.748 319.319L396.331 319.767C395.089 321.072 393.823 322.344 392.541 323.602L391.526 324.584C390.478 325.6 389.429 326.593 388.381 327.562L387.429 328.442C386.103 329.647 384.753 330.825 383.379 331.978C383.041 332.268 382.695 332.543 382.349 332.826C381.269 333.722 380.176 334.602 379.07 335.466C378.598 335.844 378.126 336.205 377.646 336.574C376.687 337.305 375.704 338.028 374.729 338.743L372.873 340.079C371.877 340.781 370.87 341.464 369.853 342.129C369.271 342.522 368.689 342.915 368.099 343.3C367.51 343.685 366.692 344.172 365.992 344.612C364.852 345.32 363.704 346.027 362.548 346.703C361.761 347.15 361.014 347.575 360.251 347.999C359.134 348.62 358.01 349.241 356.877 349.83C355.462 350.616 354.039 351.307 352.592 352.006L366.707 359.675C367.808 359.151 368.902 358.609 369.987 358.049C370.325 357.876 370.647 357.679 370.986 357.507C372.118 356.909 373.242 356.299 374.359 355.676C375.146 355.244 375.932 354.819 376.656 354.379C377.812 353.704 378.96 352.996 380.1 352.289C380.635 351.951 381.185 351.645 381.72 351.307C381.885 351.197 382.042 351.079 382.215 350.977C382.805 350.592 383.379 350.191 383.961 349.806C384.976 349.13 385.982 348.455 386.981 347.755C387.602 347.315 388.216 346.86 388.837 346.412C389.458 345.964 389.946 345.626 390.488 345.225L391.754 344.243L393.186 343.143C394.287 342.279 395.377 341.399 396.457 340.503L397.487 339.654L397.818 339.379C399.076 338.319 400.31 337.226 401.537 336.118L402.489 335.238C403.102 334.681 403.723 334.123 404.329 333.549C404.777 333.125 405.21 332.693 405.65 332.261L406.665 331.278C407.899 330.06 409.126 328.835 410.322 327.577L410.455 327.436C410.597 327.295 410.73 327.137 410.872 326.996C411.989 325.807 413.09 324.607 414.175 323.397L415.134 322.321L415.968 321.378C416.259 321.04 416.526 320.694 416.817 320.356C418.075 318.879 419.315 317.379 420.537 315.854C420.812 315.516 421.103 315.194 421.37 314.848C421.52 314.66 421.661 314.456 421.811 314.267C423.384 312.248 424.956 310.205 426.458 308.115L426.616 307.902C427.614 306.512 428.59 305.105 429.557 303.691L430.343 302.536C430.823 301.821 431.31 301.114 431.782 300.399L432.671 299C433.009 298.473 433.347 297.947 433.678 297.428C434.438 296.218 435.187 295 435.927 293.775L436.666 292.557L436.902 292.164C437.814 290.624 438.705 289.073 439.576 287.512L439.945 286.829C440.658 285.551 441.363 284.259 442.061 282.955L442.336 282.413C442.737 281.627 443.122 280.896 443.508 280.134C444.042 279.089 444.585 278.036 445.08 276.991C445.474 276.205 445.867 275.42 446.236 274.634C446.606 273.848 446.936 273.212 447.267 272.489C447.408 272.198 447.534 271.892 447.676 271.601C448.179 270.509 448.666 269.417 449.154 268.324C449.547 267.437 449.94 266.556 450.334 265.669C450.813 264.545 451.277 263.421 451.749 262.298C452.032 261.614 452.323 260.946 452.599 260.271L452.811 259.728C453.699 257.512 454.572 255.281 455.406 253.034C455.492 252.798 455.571 252.554 455.658 252.319C456.444 250.299 457.12 248.28 457.812 246.245L458.056 245.553C458.457 244.367 458.843 243.196 459.22 241.986C459.322 241.664 459.432 241.35 459.534 241.035C460.101 239.228 460.651 237.397 461.194 235.567Z" fill="#BBD8E0"/>
<path d="M387.445 178.16L322.134 196.232C315.647 226.012 314.616 254.307 319.162 278.508C324.352 306.064 336.384 326.8 354.943 340.228C378.7 327.735 398.903 307.706 415.048 280.621C429.203 256.837 439.497 228.762 444.931 198.943L387.445 178.16Z" fill="#81DCFC"/>
<path d="M409.535 187.503C395.82 216.41 380.249 244.603 360.243 269.668C350.419 281.92 339.691 293.422 328.15 304.076C334.442 318.526 343.399 330.147 355.045 338.759C378.291 326.352 398.109 306.543 413.955 279.993C427.827 256.727 438.034 229.014 443.508 199.8L409.535 187.503Z" fill="#A2E9FC"/>
<path d="M400.664 225.926L407.954 237.35L359.882 282.24L358.128 281.156L350.382 239.527L352.136 240.611L364.38 259.807L398.911 224.849L400.664 225.926Z" fill="#D1AA62"/>
<path d="M398.911 224.849L406.201 236.274L358.128 281.156L338.594 250.535L350.382 239.527L362.626 258.73L398.911 224.849Z" fill="#F9C973"/>
<path d="M88.541 348.887C88.1651 349.486 87.7219 350.039 87.2199 350.537C86.203 351.203 85.1532 351.816 84.0743 352.376C73.1039 357.97 64.4141 363.376 53.5303 369.073H53.4754C52.5216 369.611 51.5045 370.028 50.4477 370.314C48.7333 370.691 46.665 369.898 45.682 367.171L8.27298 264.914C7.98555 264.22 7.84354 263.474 7.85598 262.722C7.86841 261.97 8.03492 261.229 8.34517 260.545C8.65542 259.86 9.10294 259.246 9.65994 258.741C10.2169 258.235 10.8717 257.849 11.5837 257.607C12.0249 257.431 12.4836 257.302 12.952 257.222L13.235 257.175C19.3218 256.138 36.6306 253.655 47.1369 251.337C47.7221 251.225 48.327 251.279 48.8827 251.494C49.6424 251.81 50.3261 252.284 50.8887 252.884C51.4513 253.484 51.8799 254.197 52.1462 254.975C62.3695 282.877 84.027 337.478 87.9354 347.268C88.0691 347.622 88.1872 347.913 88.2816 348.148L88.541 348.887Z" fill="#A2E9FC"/>
<path d="M89.9724 348.353C89.7053 349.157 89.1434 349.831 88.3996 350.239C77.1225 355.982 64.894 363.172 53.6485 369.002C53.5944 369.034 53.5362 369.057 53.4755 369.073H53.4204C51.7532 369.725 49.7165 368.287 48.7728 365.694C36.269 331.498 23.891 296.989 11.3951 262.832C10.6716 260.844 10.876 258.958 11.7961 257.953C12.1191 257.588 12.5527 257.34 13.0306 257.245H13.1802C25.5739 254.653 39.0842 251.863 51.4386 249.184C53.3181 248.783 55.5673 250.417 56.4481 252.83C67.6779 283.552 78.656 313.544 89.8936 344.275C90.3981 345.583 90.426 347.026 89.9724 348.353Z" fill="#00AEEE"/>
<path d="M14.4068 259.061C17.3008 258.44 21.5552 257.489 24.4492 256.853C24.6615 256.806 24.9289 257.018 25.039 257.316L25.5739 258.77C26.1008 260.216 27.3746 261.198 28.4205 260.962C33.4902 259.81 38.56 258.647 43.6296 257.473C44.6677 257.238 45.1002 255.902 44.5969 254.535L44.0856 253.144C43.9834 252.861 44.0856 252.586 44.2901 252.539C47.1841 251.902 49.2131 251.51 52.0992 250.873C53.2552 250.622 54.655 251.659 55.1976 253.128C66.4668 283.945 77.4763 314.031 88.7533 344.864C89.3038 346.357 88.8871 348.007 87.8333 348.549C76.5327 354.238 64.8624 361.05 53.5854 366.826C52.5395 367.368 51.179 366.456 50.5735 364.806C38.1168 330.736 25.8411 296.549 13.4002 262.518C12.7946 260.86 13.2508 259.312 14.4068 259.061Z" fill="#A2E9FC"/>
<path d="M30.0879 257.167C30.0171 256.971 29.8441 256.837 29.7026 256.868C29.561 256.9 29.498 257.088 29.5687 257.285C29.6395 257.481 29.8204 257.615 29.9619 257.583C30.1035 257.552 30.1587 257.395 30.0879 257.167ZM39.7684 255.03C39.6976 254.833 39.5246 254.7 39.383 254.731L31.236 256.531C31.0866 256.531 31.0314 256.751 31.1022 256.947C31.173 257.143 31.3538 257.277 31.4954 257.246L39.6426 255.43C39.7842 255.399 39.8391 255.218 39.7684 255.038V255.03Z" fill="#A2E9FC"/>
<path d="M394.483 351.441C394.483 351.441 404.069 336.229 404.911 335.498C403.495 334.712 402.308 334.044 400.885 333.243C400.785 333.168 400.663 333.127 400.538 333.125L384.629 332.339C384.521 332.334 384.414 332.356 384.316 332.403C384.218 332.449 384.133 332.519 384.069 332.606C384.004 332.693 383.962 332.794 383.946 332.901C383.93 333.008 383.941 333.117 383.977 333.219L390.071 348.816C390.143 348.955 390.249 349.074 390.378 349.162C391.762 349.909 394.483 351.441 394.483 351.441Z" fill="#F9C973"/>
<path fill-rule="evenodd" clip-rule="evenodd" d="M404.533 335.388L388.624 334.602C388.516 334.599 388.408 334.622 388.311 334.669C388.213 334.716 388.128 334.787 388.064 334.874C388 334.962 387.958 335.063 387.942 335.171C387.926 335.278 387.936 335.388 387.972 335.49L394.066 351.079C394.109 351.191 394.181 351.289 394.276 351.363C394.371 351.436 394.485 351.481 394.604 351.493C394.723 351.505 394.844 351.484 394.951 351.432C395.059 351.38 395.15 351.298 395.214 351.197L405.037 336.409C405.108 336.315 405.152 336.203 405.163 336.085C405.175 335.968 405.153 335.849 405.101 335.743C405.049 335.637 404.968 335.548 404.868 335.485C404.767 335.422 404.652 335.389 404.533 335.388Z" fill="#FFF9B0"/>
<path fill-rule="evenodd" clip-rule="evenodd" d="M88.2345 348.266C88.1071 348.4 87.9582 348.512 87.794 348.596C76.4934 354.285 64.8232 361.098 53.554 366.873C52.5002 367.415 51.1478 366.503 50.5422 364.846C45.8238 351.949 41.1289 339.044 36.4576 326.132C29.1991 306.103 20.6668 282.531 13.3611 262.557C13.1564 262.105 13.0617 261.611 13.085 261.115C13.1082 260.619 13.2486 260.136 13.4947 259.705C17.584 261.276 51.706 275.577 55.3234 305.773C58.1387 329.346 77.6731 342.2 87.8885 347.418C88.0222 347.756 88.1401 348.031 88.2345 348.266Z" fill="#81DCFC"/>
<path d="M60.7024 188.336C56.5738 184.572 52.4767 180.785 48.348 177.029L48.6861 171.662C48.7491 170.421 47.1763 168.983 45.9967 169.21L40.9951 170.287L29.0812 159.389C27.8387 160.724 26.5647 162.068 25.3221 163.412L25.2513 163.475C25.1402 163.635 25.0724 163.821 25.0545 164.015C25.0366 164.209 25.0692 164.405 25.1492 164.582L27.9016 174.011C27.9577 174.197 27.9815 174.391 27.9722 174.585C26.9971 174.986 25.9905 175.371 25.0153 175.795C23.8751 177.068 22.6561 178.341 21.4923 179.614C21.3895 179.678 21.3077 179.771 21.2565 179.881L21.1935 179.952C20.8239 180.737 21.5631 182.128 22.7663 182.67L32.4704 186.827C33.0644 187.089 33.5581 187.535 33.8781 188.1L39.1548 197.529C39.9412 198.904 41.6714 199.438 42.1747 198.503C43.3464 197.23 44.4238 196.146 45.6978 194.779C45.6978 193.608 45.6978 192.421 45.6978 191.258C45.8286 191.157 45.9805 191.086 46.1424 191.05C46.3044 191.015 46.4722 191.016 46.6335 191.054L55.9997 192.626C56.1833 192.667 56.3742 192.664 56.5563 192.616C56.7384 192.568 56.9061 192.477 57.0455 192.351C58.1858 191.015 59.4599 189.711 60.7024 188.336Z" fill="#F9C973"/>
<path fill-rule="evenodd" clip-rule="evenodd" d="M52.3427 167.741L51.8394 176.227C51.8579 176.816 52.0964 177.377 52.508 177.799L60.1988 186.222C61.3391 187.463 60.9854 188.933 59.5935 188.705L50.2273 187.133C50.0039 187.071 49.7657 187.086 49.5524 187.178C49.3392 187.269 49.1638 187.431 49.0556 187.636L45.8314 194.551C45.3596 195.557 43.5507 195.014 42.7801 193.639L37.5033 184.21C37.1851 183.643 36.6911 183.193 36.0956 182.93L26.3914 178.773C24.9523 178.168 24.2131 176.361 25.086 175.724L31.1964 171.426C31.3791 171.276 31.5073 171.07 31.5614 170.84C31.6154 170.61 31.592 170.369 31.4951 170.153L28.7427 160.724C28.3416 159.318 29.6865 158.744 31.0313 159.75L40.0906 166.531C40.3066 166.713 40.5578 166.848 40.8285 166.927C41.0991 167.007 41.3835 167.03 41.6634 166.995L49.6532 165.29C50.8014 165.054 52.4134 166.5 52.3427 167.741Z" fill="#FFF9B0"/>
<path d="M52.3429 167.741L51.8396 176.227C51.8581 176.816 52.0966 177.377 52.5082 177.799L60.199 186.222C61.3393 187.463 60.9856 188.933 59.5937 188.705L50.2275 187.133C50.0041 187.071 49.7659 187.086 49.5526 187.178C49.3394 187.269 49.164 187.431 49.0557 187.636C40.3267 182.812 46.1696 172.581 29.3484 162.618C29.1136 161.969 28.9115 161.308 28.7429 160.638C28.3418 159.232 29.6867 158.658 31.0315 159.664L40.0908 166.437C40.3056 166.621 40.5565 166.757 40.8273 166.839C41.0982 166.92 41.3831 166.944 41.6636 166.908L49.6534 165.195C50.3362 165.216 50.9876 165.487 51.4835 165.956C51.9794 166.426 52.2853 167.061 52.3429 167.741Z" fill="white" fill-opacity="0.3"/>
<path d="M33.5795 334.005L36.3791 333.895L35.1129 317.339H32.2033C32.0681 317.356 31.9444 317.423 31.8573 317.528L21.3115 327.491C21.2308 327.562 21.169 327.652 21.1316 327.753C21.0942 327.854 21.0825 327.963 21.0973 328.069C21.1121 328.176 21.153 328.277 21.2165 328.364C21.28 328.451 21.3638 328.521 21.4609 328.568L33.312 333.966C33.3973 333.998 33.4886 334.011 33.5795 334.005Z" fill="#F9C973"/>
<path fill-rule="evenodd" clip-rule="evenodd" d="M36.843 333.313L35.6556 317.795C35.6446 317.694 35.6058 317.598 35.5434 317.517C35.481 317.437 35.3975 317.375 35.3021 317.339C35.2067 317.303 35.1032 317.295 35.0032 317.314C34.9031 317.334 34.8105 317.38 34.7355 317.449L24.2212 327.491C24.1585 327.553 24.1118 327.629 24.0851 327.713C24.0584 327.797 24.0525 327.886 24.068 327.972C24.0835 328.059 24.1199 328.141 24.174 328.21C24.2281 328.28 24.2984 328.335 24.3787 328.371L36.0724 333.816C36.1547 333.866 36.2493 333.891 36.3454 333.889C36.4415 333.888 36.5353 333.859 36.6157 333.806C36.6962 333.754 36.7602 333.68 36.8004 333.593C36.8406 333.505 36.8553 333.409 36.843 333.313Z" fill="#FFF9B0"/>
<path d="M98.9058 103.876V69.8921H242.409" stroke="#0A9CE5" stroke-width="2" stroke-miterlimit="10"/>
<path d="M300.327 106.775V131.911H243.714V161.392" stroke="#0A9CE5" stroke-width="2" stroke-miterlimit="10"/>
<path d="M119.557 407.323L116.954 404.18L99.0083 425.128L101.58 428.483C101.647 428.555 101.731 428.61 101.824 428.643C101.917 428.676 102.017 428.685 102.115 428.672L122.836 429.127C123.012 429.117 123.183 429.068 123.339 428.985C123.494 428.902 123.629 428.786 123.735 428.646C123.841 428.505 123.916 428.344 123.953 428.172C123.991 428 123.991 427.822 123.953 427.65L119.746 407.582C119.698 407.486 119.634 407.398 119.557 407.323Z" fill="#F9C973"/>
<path fill-rule="evenodd" clip-rule="evenodd" d="M115.924 404.329L99.1183 423.973C98.6307 424.554 98.8666 425.45 99.5194 425.442L120.304 425.757C120.446 425.745 120.583 425.704 120.707 425.635C120.832 425.566 120.94 425.472 121.024 425.358C121.109 425.244 121.169 425.114 121.199 424.975C121.23 424.837 121.23 424.693 121.201 424.554L117.221 404.588C117.194 404.449 117.126 404.322 117.026 404.221C116.926 404.121 116.799 404.053 116.66 404.025C116.521 403.997 116.376 404.011 116.245 404.065C116.114 404.12 116.002 404.211 115.924 404.329Z" fill="#FFF9B0"/>
<path d="M108.311 136.358H146.759V162.594C146.759 163.811 146.275 164.979 145.413 165.839C144.552 166.7 143.384 167.183 142.166 167.183H112.912C111.694 167.183 110.526 166.7 109.664 165.839C108.803 164.979 108.319 163.811 108.319 162.594V136.358H108.311Z" fill="#82CDEC"/>
<path d="M143.353 136.39H139.681V129.192C139.681 125.973 138.401 122.885 136.122 120.608C133.844 118.332 130.753 117.053 127.531 117.053C124.309 117.053 121.218 118.332 118.94 120.608C116.661 122.885 115.381 125.973 115.381 129.192V136.39H111.716V129.192C111.808 125.062 113.516 121.131 116.472 118.242C119.429 115.353 123.4 113.736 127.535 113.736C131.67 113.736 135.641 115.353 138.598 118.242C141.554 121.131 143.261 125.062 143.353 129.192V136.39Z" fill="#82CDEC"/>
</g>
<defs>
<clipPath id="clip0_289_1673">
<rect width="527" height="441" fill="white"/>
</clipPath>
</defs>
</svg>
