<svg width="389" height="500" viewBox="0 0 389 500" fill="none" xmlns="http://www.w3.org/2000/svg">
<path fill-rule="evenodd" clip-rule="evenodd" d="M382.517 30.5984L328.054 22.6649L324.319 31.9065C324.039 32.2867 323.906 32.7576 323.946 33.2311C323.986 33.7046 324.196 34.1481 324.536 34.4785L364.541 74.2643C364.772 74.4892 365.054 74.6546 365.361 74.746C365.669 74.8375 365.994 74.8524 366.307 74.7894C366.621 74.7264 366.914 74.5872 367.162 74.3841C367.41 74.1811 367.606 73.9201 367.731 73.6235L384.197 32.8887C384.322 32.6257 384.374 32.3326 384.347 32.0412C384.319 31.7498 384.213 31.4711 384.04 31.2352C383.867 30.9994 383.634 30.8154 383.365 30.7031C383.097 30.5909 382.804 30.5547 382.517 30.5984V30.5984Z" fill="#BF2652"/>
<path fill-rule="evenodd" clip-rule="evenodd" d="M385.837 21.5667L329.796 21.5701C329.415 21.5722 329.043 21.6879 328.728 21.9026C328.413 22.1173 328.168 22.4215 328.024 22.777C327.88 23.1325 327.844 23.5235 327.92 23.9008C327.996 24.2781 328.181 24.6249 328.451 24.8978L368.367 64.786C368.595 65.0118 368.875 65.1778 369.181 65.269C369.487 65.3601 369.81 65.3738 370.122 65.3088C370.434 65.2438 370.724 65.1019 370.967 64.8961C371.211 64.6903 371.4 64.4266 371.518 64.1287L387.659 24.1969C387.777 23.9026 387.82 23.583 387.784 23.2669C387.748 22.9508 387.634 22.6485 387.453 22.3871C387.272 22.1258 387.03 21.914 386.748 21.7707C386.466 21.6274 386.153 21.5573 385.837 21.5667Z" fill="#F95070"/>
<g clip-path="url(#clip0_2_2)">
<path d="M250.434 152.001H59.9422V279.328H250.434V152.001Z" fill="#C8F5FC"/>
<path d="M91.6568 166.743H87.8879V264.959H91.6568V166.743Z" fill="#A2E9FC"/>
<path d="M99.8482 193.848H96.0793V264.972H99.8482V193.848Z" fill="#A2E9FC"/>
<path d="M108.027 181.394H104.258V264.972H108.027V181.394Z" fill="#A2E9FC"/>
<path d="M116.244 202.793H112.475V264.959H116.244V202.793Z" fill="#A2E9FC"/>
<path d="M124.179 202.742H120.41V264.959H124.179V202.742Z" fill="#A2E9FC"/>
<path d="M132.357 188.309H128.589V264.959H132.357V188.309Z" fill="#A2E9FC"/>
<path d="M140.549 177.808H136.78V264.959H140.549V177.808Z" fill="#A2E9FC"/>
<path d="M148.74 170.457H144.971V264.972H148.74V170.457Z" fill="#A2E9FC"/>
<path d="M156.842 168.401H153.073V264.972H156.842V168.401Z" fill="#A2E9FC"/>
<path d="M165.059 177.885H161.29V264.959H165.059V177.885Z" fill="#A2E9FC"/>
<path d="M173.25 211.7H169.482V264.959H173.25V211.7Z" fill="#A2E9FC"/>
<path d="M181.429 202.844H177.66V264.959H181.429V202.844Z" fill="#A2E9FC"/>
<path d="M189.364 190.082H185.595V264.959H189.364V190.082Z" fill="#A2E9FC"/>
<path d="M197.581 202.87H193.812V264.959H197.581V202.87Z" fill="#A2E9FC"/>
<path d="M205.76 177.86H201.991V264.959H205.76V177.86Z" fill="#A2E9FC"/>
<path d="M213.951 177.834H210.182V264.959H213.951V177.834Z" fill="#A2E9FC"/>
<path d="M222.501 202.793H218.733V264.959H222.501V202.793Z" fill="#A2E9FC"/>
<path d="M230.193 264.895H80.0811V265.537H230.193V264.895Z" fill="#A2E9FC"/>
<path fill-rule="evenodd" clip-rule="evenodd" d="M118.269 203.86C117.008 203.87 115.764 203.57 114.647 202.985C113.529 202.4 112.572 201.548 111.86 200.505L101.976 186.368C101.292 185.382 100.377 184.581 99.3113 184.034C98.2454 183.487 97.0616 183.211 95.8644 183.232C94.6671 183.252 93.4933 183.567 92.4465 184.15C91.3996 184.733 90.5121 185.565 89.862 186.574L82.4141 198.076C81.6137 199.35 80.4588 200.361 79.092 200.985C77.7253 201.608 76.2064 201.817 74.7227 201.585C73.2414 201.384 71.8492 200.76 70.7125 199.787C69.5759 198.813 68.7429 197.532 68.3131 196.097L51.7123 141.835C51.2451 140.301 50.2894 138.963 48.9915 138.025C47.6935 137.087 46.1248 136.601 44.5254 136.642C42.926 136.683 41.3839 137.248 40.1353 138.251C38.8866 139.254 38 140.639 37.6113 142.195C33.0861 160.188 26.8817 184.851 22.9719 200.03C22.9461 200.084 22.9025 200.127 22.8483 200.152C22.7942 200.177 22.733 200.183 22.6753 200.168C22.6176 200.152 22.5669 200.118 22.5322 200.069C22.4974 200.02 22.4806 199.961 22.4847 199.901C26.4202 184.774 32.6247 160.124 37.1242 142.067C37.5429 140.406 38.4926 138.928 39.828 137.86C41.1634 136.792 42.8111 136.191 44.5191 136.15C46.2271 136.11 47.9014 136.631 49.286 137.634C50.6707 138.637 51.6895 140.068 52.1866 141.707L68.7618 195.969C69.1622 197.311 69.9396 198.51 71.0012 199.421C72.0627 200.333 73.3635 200.919 74.7483 201.109C76.1278 201.318 77.5381 201.121 78.8079 200.541C80.0777 199.962 81.1524 199.025 81.9014 197.845L89.3493 186.278C90.0463 185.202 90.996 184.314 92.1151 183.692C93.2342 183.07 94.4886 182.732 95.768 182.71C97.0475 182.687 98.313 182.979 99.4535 183.561C100.594 184.143 101.575 184.996 102.309 186.047L112.193 200.184C112.929 201.244 113.932 202.089 115.1 202.634C116.268 203.179 117.559 203.404 118.842 203.287C120.125 203.169 121.354 202.713 122.404 201.965C123.454 201.217 124.287 200.203 124.82 199.027L161.085 119.588C161.724 118.19 162.757 117.011 164.058 116.197C165.358 115.383 166.869 114.969 168.401 115.008C169.934 115.046 171.422 115.535 172.681 116.413C173.939 117.291 174.913 118.52 175.481 119.948L205.875 196.136C206.397 197.44 207.281 198.567 208.423 199.382C209.565 200.197 210.916 200.666 212.316 200.734C213.716 200.801 215.106 200.465 216.321 199.763C217.536 199.062 218.524 198.026 219.168 196.778L224.373 186.689C225.033 185.412 226.031 184.34 227.258 183.593C228.484 182.845 229.892 182.449 231.327 182.449C232.763 182.449 234.171 182.845 235.397 183.593C236.624 184.34 237.621 185.412 238.282 186.689L245.973 201.521C246.004 201.579 246.01 201.646 245.991 201.709C245.972 201.772 245.929 201.824 245.871 201.855C245.813 201.886 245.745 201.892 245.683 201.873C245.62 201.853 245.568 201.81 245.537 201.752L237.846 186.921C237.231 185.726 236.3 184.724 235.154 184.025C234.009 183.325 232.694 182.955 231.353 182.955C230.012 182.955 228.697 183.325 227.552 184.025C226.406 184.724 225.475 185.726 224.86 186.921L219.656 197.01C218.964 198.342 217.906 199.448 216.607 200.196C215.308 200.944 213.822 201.303 212.326 201.23C210.829 201.157 209.385 200.655 208.164 199.784C206.944 198.913 205.998 197.709 205.439 196.316L175.045 120.128C174.515 118.792 173.604 117.642 172.427 116.822C171.249 116.001 169.857 115.546 168.423 115.513C166.99 115.48 165.578 115.871 164.364 116.637C163.151 117.402 162.188 118.509 161.598 119.819L125.409 199.246C124.849 200.514 123.958 201.607 122.83 202.41C121.702 203.213 120.379 203.696 119 203.808C118.757 203.839 118.514 203.856 118.269 203.86V203.86Z" fill="#0A47E5"/>
<g style="mix-blend-mode:multiply">
<path d="M219.733 500C250.48 500 275.406 497.479 275.406 494.37C275.406 491.262 250.48 488.741 219.733 488.741C188.985 488.741 164.059 491.262 164.059 494.37C164.059 497.479 188.985 500 219.733 500Z" fill="#979695"/>
</g>
<path d="M244.666 435.289C246.742 436.24 248.435 437.114 249.665 437.859C250.466 438.223 251.196 438.728 251.819 439.35C252.719 440.354 253.35 441.57 253.652 442.885C254.37 446.329 251.896 450.082 249.204 452.113C248.588 452.588 244.076 456.032 239.859 454.053C237.013 452.768 236.013 449.619 235.654 448.334C235.179 446.973 234.996 445.527 235.115 444.09C235.234 442.653 235.654 441.257 236.346 439.993C239.013 435.546 244.281 435.315 244.666 435.289Z" fill="#F7B2B2"/>
<path fill-rule="evenodd" clip-rule="evenodd" d="M257.421 440.545C258.47 440.747 259.45 441.216 260.267 441.908C261.009 442.608 261.596 443.458 261.99 444.401C262.383 445.345 262.573 446.361 262.548 447.383C262.548 448.668 262.215 449.876 260.497 452.973C258.523 456.521 257.267 458.037 255.267 461.173C254.447 462.458 252.819 465.029 251.152 468.255C248.255 473.935 248.793 474.912 246.717 477.393C245.666 478.678 242.486 482.431 238.525 481.839C236.635 481.444 234.966 480.341 233.859 478.755C234.372 478.292 235.141 477.547 236.013 476.596C239.054 473.25 241.48 469.39 243.179 465.196C245.05 460.839 248.973 453.59 257.421 440.545Z" fill="#BF2652"/>
<path fill-rule="evenodd" clip-rule="evenodd" d="M250.357 437.911C250.051 439.233 249.621 440.524 249.075 441.767C248.114 444.46 246.373 446.805 244.076 448.501C243.025 449.184 241.868 449.687 240.653 449.992C238.448 458.509 236.252 467.025 234.064 475.542C233.624 476.137 233.423 476.875 233.5 477.611C233.597 478.082 233.802 478.522 234.101 478.897C234.4 479.273 234.782 479.572 235.218 479.771C235.892 480.089 236.627 480.254 237.372 480.254C238.116 480.254 238.852 480.089 239.525 479.771C240.869 479.14 241.984 478.107 242.717 476.815C244.319 474.139 245.544 471.254 246.358 468.242C247.454 465.193 248.899 462.282 250.665 459.567C251.793 457.819 254.703 453.629 256.934 450.429C257.866 449.228 258.491 447.816 258.754 446.316C259.008 444.678 258.73 443.002 257.959 441.535C257.148 440.288 256.009 439.289 254.667 438.65C253.326 438.01 251.835 437.754 250.357 437.911V437.911Z" fill="#FC6C85"/>
<path fill-rule="evenodd" clip-rule="evenodd" d="M245.409 448.129C249.516 447.161 253.831 447.642 257.626 449.491C256.934 450.519 256.216 451.547 255.523 452.588C254.025 452.079 252.472 451.746 250.896 451.599C248.755 451.391 246.594 451.504 244.486 451.933C244.845 450.673 245.127 449.414 245.409 448.129Z" fill="#BF2652"/>
<path fill-rule="evenodd" clip-rule="evenodd" d="M243.435 455.184C244.307 455.056 245.255 454.953 246.281 454.901C248.726 454.789 251.176 454.979 253.575 455.467C252.742 456.675 251.921 457.909 251.127 459.117C249.775 458.855 248.401 458.717 247.024 458.706C245.517 458.702 244.013 458.857 242.538 459.168C242.82 457.755 243.127 456.469 243.435 455.184Z" fill="#BF2652"/>
<path fill-rule="evenodd" clip-rule="evenodd" d="M244.281 448.308C244.94 447.987 245.518 447.521 245.973 446.946C245.495 449.998 244.853 453.023 244.05 456.007C242.868 460.29 241.346 464.472 239.5 468.512C240.192 465.504 240.884 462.484 241.615 459.451C242.486 455.698 243.384 451.984 244.281 448.308Z" fill="#BF2652"/>
<path fill-rule="evenodd" clip-rule="evenodd" d="M256.959 450.467C257.892 449.266 258.517 447.854 258.78 446.355C259.034 444.717 258.755 443.04 257.985 441.574C257.25 440.406 256.223 439.451 255.007 438.804C253.79 438.157 252.426 437.84 251.05 437.885C251.547 442.628 253.63 447.062 256.959 450.467V450.467Z" fill="#BF2652"/>
<path fill-rule="evenodd" clip-rule="evenodd" d="M209.798 223.845C208.695 226.415 206.978 230.194 204.67 234.795C197.389 249.344 194.415 251.323 191.018 258.752C184.48 273.197 185.89 287.245 186.582 293.671C187.41 301.964 189.574 310.068 192.992 317.666C210.084 319.028 227.155 320.403 244.204 321.791C240.683 291.803 237.158 261.815 233.628 231.826C225.664 229.144 217.72 226.484 209.798 223.845Z" fill="#BF2652"/>
<path d="M222.361 466.918C222.566 466.404 222.873 465.89 223.386 464.631C223.676 463.754 224.018 462.895 224.412 462.06C225.024 461.037 225.913 460.208 226.975 459.67C228.179 458.951 229.555 458.572 230.956 458.572C232.357 458.572 233.732 458.951 234.936 459.67C236.154 460.474 237.114 461.614 237.701 462.952C238.288 464.291 238.476 465.771 238.243 467.214C238.115 468.139 237.987 469.065 237.91 470.067C237.723 472.156 237.646 474.254 237.679 476.352C237.571 477.208 237.263 478.027 236.782 478.742C234.808 481.595 229.86 482.29 226.437 480.465C222.284 478.228 221.848 473.075 221.771 472.123C221.528 470.366 221.731 468.576 222.361 466.918V466.918Z" fill="#F7B2B2"/>
<path d="M251.78 262.247H245.23V354.796H251.78V262.247Z" fill="#F9C973"/>
<path d="M241.576 262.247H235.026V354.796H241.576V262.247Z" fill="#A2E9FC"/>
<path d="M262.023 286.088H255.472V354.796H262.023V286.088Z" fill="#A2E9FC"/>
<path d="M272.227 279.135H265.676V354.809H272.227V279.135Z" fill="#F9C973"/>
<path d="M282.456 304.57H275.906V354.796H282.456V304.57Z" fill="#A2E9FC"/>
<path d="M354 354.693H235.026V357.122H354V354.693Z" fill="#A2E9FC"/>
<path d="M302.89 262.247H296.34V354.796H302.89V262.247Z" fill="#A2E9FC"/>
<path d="M292.661 262.247H286.11V354.796H292.661V262.247Z" fill="#F9C973"/>
<path d="M313.12 286.088H306.569V354.796H313.12V286.088Z" fill="#F9C973"/>
<path d="M323.324 279.135H316.773V354.809H323.324V279.135Z" fill="#A2E9FC"/>
<path d="M333.554 304.57H327.003V354.796H333.554V304.57Z" fill="#F9C973"/>
<path d="M343.77 279.135H337.22V354.809H343.77V279.135Z" fill="#A2E9FC"/>
<path d="M354 304.57H347.449V354.796H354V304.57Z" fill="#F9C973"/>
<path d="M156.804 332.099H85.0037V334.412H156.804V332.099Z" fill="#A2E9FC"/>
<path d="M156.804 338.474H85.0037V340.787H156.804V338.474Z" fill="#A2E9FC"/>
<path d="M115.59 344.861H85.0037V347.174H115.59V344.861Z" fill="#A2E9FC"/>
<path d="M156.804 332.099H85.0037V334.412H156.804V332.099Z" fill="#A2E9FC"/>
<path d="M156.804 338.474H85.0037V340.787H156.804V338.474Z" fill="#A2E9FC"/>
<path d="M115.59 344.861H85.0037V347.174H115.59V344.861Z" fill="#A2E9FC"/>
<path d="M159.547 388.494H1.987V390.808H159.547V388.494Z" fill="#A2E9FC"/>
<path d="M159.547 394.882H1.987V397.195H159.547V394.882Z" fill="#A2E9FC"/>
<path d="M159.547 401.257H1.987V403.57H159.547V401.257Z" fill="#A2E9FC"/>
<path d="M69.1079 407.644H1.987V409.957H69.1079V407.644Z" fill="#A2E9FC"/>
<path d="M159.547 388.494H1.987V390.808H159.547V388.494Z" fill="#A2E9FC"/>
<path d="M159.547 394.882H1.987V397.195H159.547V394.882Z" fill="#A2E9FC"/>
<path d="M159.547 401.257H1.987V403.57H159.547V401.257Z" fill="#A2E9FC"/>
<path d="M69.1079 407.644H1.987V409.957H69.1079V407.644Z" fill="#A2E9FC"/>
<path fill-rule="evenodd" clip-rule="evenodd" d="M351.372 368.085H2.23056C2.16256 368.085 2.09736 368.058 2.04927 368.01C2.00119 367.962 1.97418 367.896 1.97418 367.828C1.97418 367.76 2.00119 367.695 2.04927 367.646C2.09736 367.598 2.16256 367.571 2.23056 367.571H351.372C351.44 367.571 351.505 367.598 351.553 367.646C351.601 367.695 351.629 367.76 351.629 367.828C351.629 367.896 351.601 367.962 351.553 368.01C351.505 368.058 351.44 368.085 351.372 368.085Z" fill="#C8F5FC"/>
<path fill-rule="evenodd" clip-rule="evenodd" d="M35.5603 287.206C28.5244 287.204 21.6459 289.294 15.7953 293.212C9.94461 297.13 5.3848 302.701 2.69288 309.218C0.0009549 315.735 -0.702076 322.907 0.672736 329.825C2.04755 336.743 5.43841 343.096 10.4162 348.082C15.394 353.067 21.735 356.46 28.6368 357.831C35.5385 359.201 42.6908 358.489 49.1884 355.783C55.686 353.077 61.237 348.499 65.1388 342.629C69.0406 336.759 71.1178 329.861 71.1077 322.807C71.0975 313.361 67.3479 304.306 60.6825 297.631C54.0172 290.956 44.9814 287.206 35.5603 287.206V287.206ZM35.5603 345.247C31.1456 345.249 26.8294 343.939 23.1575 341.482C19.4856 339.025 16.6231 335.531 14.9319 331.443C13.2407 327.354 12.797 322.855 13.6567 318.514C14.5164 314.172 16.6409 310.184 19.7617 307.054C22.8824 303.923 26.8591 301.791 31.1887 300.926C35.5183 300.062 40.0064 300.504 44.0853 302.197C48.1641 303.891 51.6505 306.759 54.1034 310.439C56.5563 314.118 57.8655 318.445 57.8655 322.871C57.8622 328.802 55.5115 334.49 51.3295 338.685C47.1476 342.88 41.4761 345.24 35.5603 345.247Z" fill="#A2E9FC"/>
<path fill-rule="evenodd" clip-rule="evenodd" d="M60.596 297.54L51.238 306.922C53.3843 308.984 55.0984 311.454 56.2797 314.189C57.4611 316.924 58.0859 319.868 58.1176 322.848C58.1493 325.828 57.5872 328.785 56.4643 331.544C55.3414 334.303 53.6802 336.81 51.5783 338.918C49.4763 341.025 46.9759 342.691 44.2235 343.816C41.4712 344.942 38.5223 345.506 35.5499 345.474C32.5774 345.442 29.6412 344.816 26.9135 343.631C24.1857 342.447 21.7212 340.728 19.6645 338.577L10.3066 347.946C13.5877 351.346 17.5111 354.058 21.8481 355.922C26.185 357.787 30.8488 358.768 35.5676 358.807C40.2863 358.847 44.9658 357.944 49.3331 356.152C53.7005 354.36 57.6684 351.714 61.0056 348.369C64.3428 345.024 66.9826 341.047 68.7711 336.669C70.5596 332.291 71.4611 327.599 71.423 322.868C71.3849 318.137 70.4079 313.461 68.5491 309.113C66.6902 304.764 63.9867 300.83 60.596 297.54V297.54Z" fill="#F9C973"/>
<path fill-rule="evenodd" clip-rule="evenodd" d="M57.8655 322.807V323.038H71.1077V322.807C71.1094 318.126 70.1911 313.491 68.4052 309.166C66.6194 304.842 64.001 300.912 60.6998 297.602C57.3986 294.293 53.4792 291.668 49.1656 289.877C44.8521 288.087 40.2289 287.166 35.5603 287.168H35.4577V300.444H35.5859C41.4972 300.451 47.164 302.81 51.3415 307.003C55.519 311.196 57.8655 316.88 57.8655 322.807V322.807Z" fill="#C8F5FC"/>
<path fill-rule="evenodd" clip-rule="evenodd" d="M57.8655 322.897C57.8634 325.852 57.2765 328.778 56.1389 331.505C55.0013 334.232 53.3355 336.705 51.238 338.782L60.596 348.164C63.9218 344.854 66.5625 340.918 68.3664 336.582C70.1703 332.246 71.1019 327.595 71.1077 322.897H57.8655Z" fill="#0AD4E5"/>
<path d="M194.287 306.549C193.005 311.908 191.723 317.229 190.505 322.588C189.428 327.189 192.043 331.855 196.004 332.369L237.654 337.947C241.294 338.435 244.563 335.196 244.82 330.788C245.179 324.593 245.538 318.386 245.897 312.165C246.153 307.898 243.435 304.184 239.859 303.901L200.824 300.958C197.876 300.688 195.107 303.027 194.287 306.549Z" fill="#35489E"/>
<path d="M181.839 391.335C182.369 394.038 183.32 396.641 184.66 399.046C186.496 402.226 188.94 405.013 191.851 407.246C199.543 413.543 220.271 425.239 235.898 450.879C237.322 450.533 238.7 450.016 240 449.337C246.294 446.072 248.858 439.942 249.729 437.526C248.19 435.888 246.735 434.172 245.371 432.385C240.051 425.432 238.961 421.19 236.154 416.204C231.539 408.043 225.322 403.352 217.207 397.208C213.009 394.021 208.554 391.188 203.888 388.739C201.833 387.177 199.489 386.042 196.992 385.397C194.941 384.883 188.826 383.341 184.698 386.939C183.379 388.129 182.393 389.645 181.839 391.335V391.335Z" fill="#35489E"/>
<path d="M200.748 394.509C242.256 417.54 242.871 447.537 243.999 446.458C246.559 443.966 248.5 440.906 249.665 437.525C248.126 435.888 246.671 434.172 245.307 432.385C239.987 425.432 238.897 421.19 236.09 416.204C231.475 408.043 225.258 403.351 217.143 397.208C212.945 394.021 208.49 391.188 203.824 388.739C201.645 387.942 200.004 389.253 200.748 394.509Z" fill="#262F69"/>
<path d="M190.018 322.807C188.121 329.079 186.788 334.31 185.916 337.96C182.711 351.364 179.904 363.458 180.545 378.508C180.692 382.119 181.039 385.719 181.583 389.291C181.737 390.855 182.265 392.358 183.121 393.674C185.583 397.375 190.531 398.815 194.658 398.044C197.012 397.519 199.161 396.316 200.842 394.583C202.523 392.85 203.662 390.662 204.119 388.289C205.016 383.765 205.952 380.012 206.683 377.249C208.909 369.038 211.662 360.98 214.925 353.125C217.759 346.391 218.246 346.314 219.04 343.113C220.169 338.435 221.938 331.097 218.015 324.645C214.387 318.669 206.183 313.836 198.555 316.175C195.021 317.312 191.999 319.66 190.018 322.807Z" fill="#35489E"/>
<path d="M200.824 394.612C202.49 392.844 203.642 390.653 204.157 388.276C205.055 383.752 205.99 379.999 206.721 377.236C208.934 369.022 211.675 360.959 214.925 353.1C217.758 346.365 218.246 346.288 219.04 343.088C220.168 338.41 221.937 331.071 218.015 324.619C217.564 323.906 217.072 323.219 216.541 322.563C214.374 320.018 197.44 381.696 200.824 394.612Z" fill="#262F69"/>
<path d="M189.287 325.287C187.082 332.909 185.518 339.309 184.416 344.026C183.134 349.629 182.442 352.688 181.775 357.122C180.862 363.011 180.403 368.963 180.404 374.922C180.436 380.48 180.894 386.027 181.775 391.515C182.391 382.981 183.134 374.228 184.083 365.245C185.582 351.377 187.352 338.05 189.287 325.287Z" fill="#5067BC"/>
<path d="M239.936 392.89C240.679 394.998 241.615 397.877 242.499 401.347C244.745 410.414 245.864 419.726 245.832 429.069C245.802 441.166 243.992 453.192 240.461 464.759C239.869 466.073 239.438 467.454 239.179 468.872C239.003 469.891 238.918 470.923 238.923 471.957C237.722 472.137 236.496 472.05 235.334 471.699C232.103 470.723 231.334 468.127 228.168 466.302C226.444 465.349 224.52 464.82 222.553 464.759C222.912 463.153 223.399 460.904 223.835 458.089C225.106 449.584 225.449 440.965 224.86 432.385C224.189 420.446 222.474 408.589 219.733 396.951C219.824 394.657 220.733 392.473 222.296 390.795C224.018 389.101 226.297 388.095 228.706 387.968C234.859 387.402 239.282 392.209 239.936 392.89Z" fill="#35489E"/>
<path d="M245.076 324.85C245.076 329.837 244.922 333.847 244.82 336.147C243.974 357.611 241.589 366.813 241.217 386.451C241.141 390.872 241.217 394.381 241.217 396.206C241.082 398.12 240.465 399.968 239.423 401.578C237.654 404.315 234.09 407.117 229.962 406.719C225.54 406.308 223.027 402.465 221.771 400.563C219.966 397.706 218.908 394.44 218.694 391.065C218.053 385.076 217.041 377.531 215.348 367.185C214.479 362.484 213.279 357.85 211.759 353.318C210.272 348.897 209.016 346.146 208.426 341.25C207.992 338.353 208.078 335.402 208.683 332.536C209.454 329.538 210.852 326.739 212.785 324.323C214.067 322.704 221.027 314.569 231.219 315.854C239.705 316.946 244.332 323.719 245.076 324.85Z" fill="#35489E"/>
<path d="M245.076 324.85C245.076 329.837 244.922 333.847 244.82 336.148C243.974 357.611 241.589 366.813 241.217 386.451C241.141 390.872 241.217 394.381 241.217 396.206C241.082 398.12 240.465 399.968 239.423 401.578C236.09 394.149 230.449 354.847 234.218 316.484C238.651 318.011 242.464 320.949 245.076 324.85V324.85Z" fill="#262F69"/>
<path d="M239.936 392.89C240.679 394.998 241.615 397.877 242.499 401.347C244.745 410.415 245.864 419.726 245.832 429.069C245.802 441.166 243.992 453.192 240.461 464.759C239.744 467.101 239.23 469.501 238.923 471.931C237.722 472.112 236.496 472.024 235.333 471.674C235.333 456.251 247.371 443.039 239.179 402.658C238.41 398.802 237.41 394.843 236.615 389.805C237.897 390.627 239.021 391.671 239.936 392.89V392.89Z" fill="#262F69"/>
<path d="M212.708 356.48C212.681 356.48 212.655 356.473 212.633 356.46C212.61 356.446 212.592 356.426 212.58 356.403C210.99 351.994 209.734 347.959 208.836 344.411V344.232C208.475 342.465 207.76 340.79 206.734 339.309C206.714 339.282 206.705 339.248 206.71 339.214C206.714 339.18 206.732 339.15 206.76 339.129C206.787 339.109 206.821 339.1 206.855 339.105C206.888 339.11 206.919 339.128 206.939 339.155C207.985 340.656 208.709 342.359 209.067 344.154V344.334C209.964 347.882 211.221 351.917 212.81 356.3C212.819 356.315 212.824 356.331 212.824 356.348C212.825 356.365 212.821 356.382 212.814 356.398C212.806 356.413 212.795 356.426 212.781 356.436C212.767 356.446 212.75 356.452 212.733 356.454L212.708 356.48Z" fill="#828282" fill-opacity="0.3"/>
<path d="M235.436 397.465C235.408 397.461 235.381 397.449 235.358 397.431C235.336 397.413 235.319 397.389 235.308 397.362C233.436 388.61 232 379.652 230.975 370.758C229.332 356.332 228.809 341.8 229.411 327.292C229.411 327.258 229.425 327.226 229.449 327.201C229.473 327.177 229.505 327.164 229.539 327.164C229.573 327.164 229.606 327.177 229.63 327.201C229.654 327.226 229.667 327.258 229.667 327.292C229.066 341.791 229.589 356.315 231.231 370.733C232.231 379.601 233.693 388.559 235.564 397.311C235.564 397.388 235.564 397.44 235.462 397.465H235.436Z" fill="#828282" fill-opacity="0.3"/>
<path d="M233.039 466.43C233.023 466.426 233.009 466.418 232.996 466.408C232.984 466.398 232.973 466.385 232.966 466.37C232.959 466.356 232.955 466.34 232.954 466.324C232.953 466.307 232.956 466.291 232.962 466.276C236.87 454.618 238.938 442.42 239.09 430.123C239.215 420.982 238.268 411.859 236.269 402.94C236.269 402.863 236.269 402.812 236.372 402.786C236.474 402.76 236.5 402.786 236.526 402.889C238.499 411.838 239.445 420.984 239.346 430.148C239.185 442.472 237.109 454.696 233.193 466.379C233.193 466.379 233.09 466.43 233.039 466.43Z" fill="#828282" fill-opacity="0.3"/>
<path d="M191.12 319.208C190.531 321.175 189.915 323.154 189.326 325.108C191.447 326.152 193.679 326.953 195.979 327.498C208.119 330.326 218.617 324.85 222.514 322.537C221.653 321.967 220.831 321.34 220.053 320.661C219.242 319.964 218.472 319.222 217.746 318.437C209.227 321.775 199.817 322.048 191.12 319.208Z" fill="#262F69"/>
<path d="M207.939 334.091C207.922 334.093 207.904 334.091 207.888 334.086C207.871 334.08 207.856 334.07 207.844 334.058C207.832 334.046 207.822 334.031 207.816 334.014C207.811 333.998 207.809 333.98 207.811 333.963C207.811 332.292 207.811 330.608 207.811 328.963C207.862 327.575 207.965 326.187 208.119 324.799C208.119 324.722 208.195 324.67 208.247 324.696C208.298 324.722 208.375 324.773 208.349 324.825C208.221 326.187 208.119 327.601 208.042 328.963C207.965 330.608 207.965 332.292 208.042 333.963C208.042 334.04 208.042 334.091 207.939 334.091V334.091Z" fill="#828282" fill-opacity="0.3"/>
<path d="M204.388 331.958C204.371 331.96 204.353 331.958 204.337 331.952C204.32 331.946 204.305 331.937 204.293 331.925C204.281 331.912 204.271 331.897 204.266 331.881C204.26 331.864 204.258 331.847 204.26 331.829C204.363 329.76 204.542 327.704 204.824 325.673C204.824 325.639 204.838 325.606 204.862 325.582C204.886 325.558 204.918 325.544 204.952 325.544C204.986 325.544 205.019 325.558 205.043 325.582C205.067 325.606 205.08 325.639 205.08 325.673C204.798 327.704 204.619 329.76 204.516 331.803C204.523 331.823 204.525 331.843 204.522 331.863C204.519 331.883 204.51 331.902 204.497 331.918C204.484 331.933 204.467 331.945 204.448 331.952C204.429 331.959 204.408 331.961 204.388 331.958V331.958Z" fill="#828282" fill-opacity="0.3"/>
<path fill-rule="evenodd" clip-rule="evenodd" d="M210.246 217.29C207.487 224.231 205.195 231.35 203.388 238.599C201.051 247.945 199.508 257.473 198.773 267.08C197.696 279.174 195.133 297.064 188.518 321.766C192.521 324.223 197.145 325.472 201.837 325.364C207.761 325.121 213.402 322.754 217.733 318.694C219.645 318.082 221.611 317.652 223.604 317.409C226.886 317.023 234.436 316.124 240.487 320.763C242.244 322.094 243.728 323.752 244.858 325.647C246.409 318.39 247.182 310.988 247.165 303.567C247.165 286.384 242.833 276.68 240.756 264.818C238.884 253.932 238.371 238.265 244.871 217.83C233.295 217.65 222.463 211.841 210.246 217.29Z" fill="#FFF9B0"/>
<path d="M210.246 217.29C207.487 224.231 205.195 231.35 203.388 238.599C201.051 247.945 199.508 257.473 198.773 267.08C197.696 279.174 195.133 297.064 188.518 321.766C189.005 322.048 189.646 322.434 190.466 322.845C191.851 323.539 201.581 267.697 205.696 255.603C206.721 251.618 209.234 246.825 210.592 243.406C215.925 230.027 216.771 220.478 217.784 215.131C215.181 215.481 212.642 216.209 210.246 217.29V217.29Z" fill="#F9C973"/>
<path d="M200.747 322.948C198.671 322.945 196.605 322.634 194.62 322.023C193.331 321.627 192.082 321.111 190.89 320.481C190.859 320.464 190.836 320.435 190.827 320.401C190.817 320.368 190.821 320.331 190.838 320.301C190.855 320.27 190.884 320.247 190.917 320.238C190.951 320.228 190.987 320.232 191.018 320.249C192.195 320.866 193.427 321.374 194.697 321.766C196.821 322.423 199.038 322.727 201.26 322.665C204.888 322.562 208.425 321.503 211.515 319.594C211.531 319.585 211.549 319.58 211.567 319.579C211.585 319.577 211.603 319.58 211.62 319.586C211.636 319.592 211.652 319.601 211.665 319.614C211.678 319.626 211.688 319.641 211.695 319.658C211.716 319.683 211.727 319.715 211.727 319.748C211.727 319.781 211.716 319.813 211.695 319.838C208.578 321.741 205.023 322.804 201.376 322.923C201.167 322.95 200.957 322.959 200.747 322.948Z" fill="#F9C973"/>
<path d="M222.36 240.553C217.925 268.956 231.398 287.437 223.565 317.486C226.847 317.1 234.398 316.201 240.448 320.84C242.205 322.171 243.689 323.829 244.82 325.724C246.37 318.467 247.144 311.065 247.127 303.644C247.127 286.461 242.794 276.757 240.717 264.895C238.846 254.009 238.333 238.342 244.832 217.907C233.295 217.65 226.283 223.022 222.36 240.553Z" fill="#F9C973"/>
<path d="M201.158 325.544C200.25 325.544 199.342 325.493 198.44 325.39C195.769 325.098 193.168 324.351 190.749 323.18C189.931 322.772 189.143 322.309 188.39 321.791C188.376 321.781 188.365 321.769 188.356 321.754C188.348 321.74 188.342 321.724 188.34 321.707C188.337 321.69 188.338 321.673 188.342 321.657C188.347 321.64 188.354 321.625 188.364 321.612C188.374 321.598 188.387 321.587 188.401 321.578C188.416 321.569 188.432 321.564 188.449 321.561C188.465 321.559 188.482 321.56 188.499 321.564C188.515 321.568 188.53 321.576 188.544 321.586C189.288 322.103 190.067 322.567 190.877 322.974C193.25 324.13 195.804 324.869 198.427 325.159C200.738 325.416 203.074 325.338 205.362 324.927C207.593 324.514 209.752 323.778 211.772 322.743C213.975 321.633 215.995 320.19 217.758 318.463C217.769 318.448 217.783 318.436 217.8 318.427C217.816 318.418 217.834 318.413 217.852 318.412C217.87 318.41 217.889 318.413 217.906 318.419C217.923 318.426 217.939 318.436 217.952 318.449C217.965 318.462 217.975 318.478 217.981 318.495C217.987 318.512 217.99 318.531 217.989 318.549C217.987 318.567 217.982 318.585 217.973 318.601C217.965 318.618 217.953 318.632 217.938 318.643C214.473 322.022 210.089 324.298 205.337 325.184C203.955 325.416 202.558 325.536 201.158 325.544Z" fill="#F9C973"/>
<path d="M221.514 228.15C220.503 228.153 219.498 227.988 218.54 227.662C217.919 227.431 217.322 227.138 216.758 226.788C216.74 226.762 216.73 226.73 216.73 226.698C216.73 226.666 216.74 226.634 216.758 226.608C216.785 226.591 216.816 226.582 216.848 226.582C216.88 226.582 216.911 226.591 216.938 226.608C217.49 226.939 218.069 227.223 218.669 227.456C219.981 227.892 221.373 228.032 222.745 227.868C223.956 227.768 225.146 227.5 226.283 227.071C226.314 227.061 226.347 227.063 226.376 227.077C226.405 227.092 226.427 227.117 226.437 227.148C226.447 227.179 226.445 227.212 226.43 227.241C226.416 227.27 226.391 227.292 226.36 227.302C225.201 227.751 223.984 228.029 222.745 228.125C222.386 228.099 221.976 228.15 221.514 228.15Z" fill="#F9C973"/>
<path d="M221.976 225.709C221.39 225.707 220.806 225.647 220.233 225.529C219.383 225.387 218.571 225.072 217.848 224.603C216.951 224.077 216.253 223.268 215.861 222.303C215.706 221.848 215.628 221.37 215.63 220.889C215.633 220.856 215.648 220.825 215.671 220.801C215.695 220.778 215.726 220.763 215.759 220.761C215.776 220.759 215.794 220.76 215.81 220.766C215.827 220.772 215.842 220.781 215.854 220.794C215.866 220.806 215.876 220.821 215.881 220.838C215.887 220.854 215.889 220.872 215.887 220.889C215.879 221.326 215.948 221.761 216.092 222.174C216.463 223.087 217.126 223.851 217.976 224.346C218.68 224.789 219.464 225.086 220.284 225.22C221.47 225.444 222.687 225.444 223.873 225.22C224.698 225.097 225.506 224.881 226.283 224.578C227.338 224.196 228.345 223.692 229.283 223.074C229.312 223.056 229.345 223.046 229.379 223.046C229.413 223.046 229.446 223.056 229.475 223.074C229.499 223.1 229.513 223.135 229.513 223.17C229.513 223.206 229.499 223.241 229.475 223.267C228.514 223.887 227.486 224.395 226.411 224.783C225.613 225.076 224.789 225.291 223.95 225.426C223.306 225.6 222.643 225.694 221.976 225.709Z" fill="#F9C973"/>
<path fill-rule="evenodd" clip-rule="evenodd" d="M243.281 216.776C248.253 218.322 252.924 220.713 257.087 223.845C258.55 224.987 259.922 226.242 261.19 227.598C261.432 228.442 261.62 229.3 261.754 230.168C263.933 242.622 256.37 254.125 255.344 255.667C253.28 258.7 251.498 260.461 249.716 264.664C248.495 267.127 247.963 269.877 248.178 272.619C248.45 274.622 249.15 276.542 250.229 278.248C252.537 282.387 261.292 304.158 261.241 322.408C259.929 323.696 258.465 324.818 256.882 325.75C248.588 330.608 239.5 328.629 236.372 327.806C237.239 325.031 237.924 322.202 238.423 319.337C239.557 312.462 239.644 305.455 238.679 298.555C236.987 287.438 232.808 283.839 228.693 273.647C222.027 257.017 220.002 240.232 227.924 226.094C230.005 222.932 232.705 220.225 235.859 218.139C238.166 217.29 239.91 215.671 243.281 216.776Z" fill="#F95070"/>
<path fill-rule="evenodd" clip-rule="evenodd" d="M222.719 249.1C223.269 256.253 224.938 263.275 227.668 269.907C229.86 275.961 236.295 288.929 236.885 290.342C239.13 296.021 240.287 302.073 240.294 308.181C239.886 314.83 238.566 321.39 236.372 327.678C239.146 314.871 237.799 301.512 232.526 289.52C223.565 268.468 222.822 258.739 222.719 249.1Z" fill="#BF2652"/>
<path fill-rule="evenodd" clip-rule="evenodd" d="M247.794 243.406C252.408 238.625 260.241 226.557 261.164 227.559C261.406 228.403 261.595 229.262 261.728 230.13C263.907 242.584 256.344 254.086 255.318 255.629C253.254 258.662 251.473 260.422 249.691 264.625C248.469 267.088 247.937 269.838 248.152 272.581C248.424 274.583 249.124 276.503 250.204 278.21C252.511 282.348 261.266 304.12 261.215 322.37C259.903 323.657 258.439 324.779 256.857 325.711C255.424 326.557 253.896 327.23 252.306 327.716C252.921 303.194 250.204 291.64 246.101 281.449C243.21 275.466 241.85 268.855 242.145 262.213C242.441 255.571 244.382 249.107 247.794 243.406V243.406Z" fill="#EA2856"/>
<path fill-rule="evenodd" clip-rule="evenodd" d="M226.796 228.073C227.666 227.415 228.578 226.814 229.526 226.274C231.284 225.082 233.278 224.284 235.372 223.935C237.749 223.726 240.136 224.198 242.256 225.297C244.128 226.34 246.054 227.283 248.024 228.125C248.111 228.16 248.207 228.169 248.299 228.151C248.391 228.134 248.476 228.089 248.544 228.024C248.612 227.959 248.659 227.876 248.681 227.784C248.702 227.692 248.697 227.597 248.665 227.508C248.255 226.428 247.871 225.272 247.512 224.064C246.948 222.2 246.537 220.452 246.23 218.833C244.454 218.417 242.626 218.27 240.807 218.396C236.476 218.663 232.42 220.613 229.501 223.832C229.385 223.986 228.539 225.117 227.565 226.788C227.206 227.328 226.975 227.791 226.796 228.073Z" fill="#EA2856"/>
<path d="M208.349 204.811C208.51 204.785 208.675 204.785 208.836 204.811C209.133 204.869 209.403 205.023 209.605 205.248C209.824 205.679 209.866 206.178 209.722 206.639C209.578 207.1 209.26 207.486 208.836 207.716C208.61 207.56 208.417 207.361 208.269 207.129C208.121 206.898 208.022 206.638 207.976 206.367C207.931 206.096 207.94 205.818 208.004 205.551C208.068 205.284 208.186 205.032 208.349 204.811Z" fill="white" fill-opacity="0.3"/>
<path fill-rule="evenodd" clip-rule="evenodd" d="M214.554 222.251C214.595 224.416 214.354 226.576 213.836 228.677C212.041 236.864 207.965 240.874 204.337 245.604C200.697 250.506 197.407 255.659 194.492 261.026C190.975 267.319 188.793 274.271 188.082 281.449C187.416 289.16 188.723 298.259 191.748 308.528C190.825 312.872 189.39 318.193 188.8 320.442C187.851 316.586 186.775 311.767 185.852 306.073C184.586 299.121 183.909 292.075 183.826 285.009C183.753 274.114 185.371 263.274 188.621 252.878C190.441 247.326 190.979 247.506 194.94 236.954C198.094 228.588 200.427 221.249 201.863 216.571C203.247 216.031 211.926 213.281 216.669 212.175C215.166 215.315 214.44 218.771 214.554 222.251V222.251Z" fill="#F95070"/>
<path fill-rule="evenodd" clip-rule="evenodd" d="M214.169 227.148C214.02 226.193 213.602 225.302 212.964 224.578C211.349 222.843 208.836 223.048 207.631 223.151C206.312 223.277 205.034 223.675 203.875 224.321C203.809 224.367 203.729 224.388 203.649 224.382C203.569 224.375 203.493 224.341 203.436 224.285C203.378 224.228 203.342 224.154 203.333 224.073C203.324 223.993 203.344 223.912 203.388 223.845C203.874 223.073 204.405 222.331 204.978 221.622C205.708 220.773 206.26 220.336 207.836 218.717C209.041 217.509 210.041 216.532 210.682 215.864C211.358 216.669 211.967 217.529 212.503 218.434C213.4 220.025 214.073 221.734 214.502 223.511L214.169 227.148Z" fill="#EA2856"/>
<path fill-rule="evenodd" clip-rule="evenodd" d="M185.89 306.099C184.625 299.147 183.947 292.1 183.865 285.034C183.792 274.14 185.409 263.3 188.659 252.904C189.613 250.066 190.717 247.282 191.966 244.563C192.71 242.866 182.762 272.336 185.89 306.099Z" fill="#EA2856"/>
<path d="M216.015 206.276C216.37 207.34 216.636 208.432 216.81 209.54C216.986 210.762 217.054 211.996 217.015 213.229C216.935 215.544 216.574 217.84 215.938 220.066C215.773 220.607 215.738 221.178 215.836 221.735C215.934 222.291 216.163 222.816 216.502 223.267C217.123 223.989 217.893 224.567 218.758 224.962C219.623 225.357 220.564 225.559 221.514 225.554C227.437 225.966 235.615 219.128 236.115 218.678C235.09 217.059 233.731 207.716 235.936 200.801C229.526 202.883 222.437 204.168 216.015 206.276Z" fill="#F38484"/>
<path d="M216.015 206.276C216.37 207.34 216.636 208.432 216.81 209.541C216.916 210.287 216.984 211.037 217.015 211.79C230.552 212.15 234.475 204.58 234.526 204.194C234.688 202.782 234.945 201.382 235.295 200.004C228.877 202.086 222.45 204.177 216.015 206.276Z" fill="#828282" fill-opacity="0.3"/>
<path d="M245.845 188.99C245.57 188.015 245.108 187.103 244.486 186.304C245.253 184.659 245.46 182.808 245.076 181.034C244.704 179.597 243.92 178.301 242.82 177.307V177.307C238.628 172.256 230.167 170.714 228.719 169.815C227.803 169.544 227.02 168.942 226.522 168.125C226.024 167.307 225.848 166.334 226.027 165.393C225.413 165.778 224.903 166.308 224.54 166.936C224.312 167.37 224.157 167.839 224.078 168.324C223.665 167.947 223.354 167.471 223.174 166.94C222.995 166.409 222.953 165.842 223.053 165.291C222.252 165.97 221.657 166.86 221.335 167.861C220.755 167.746 220.22 167.467 219.793 167.057C219.366 166.647 219.065 166.123 218.925 165.548C214.067 169.223 214.887 176.356 216.835 178.284C216.835 178.284 222.617 186.792 225.437 191.895C227.078 194.876 228.77 197.704 230.449 200.39C230.506 201.802 230.854 203.186 231.472 204.456C232.089 205.726 232.964 206.853 234.039 207.767C235.164 208.659 236.48 209.275 237.884 209.566C237.95 207.904 238.315 206.267 238.961 204.734C240.166 201.829 241.435 201.649 243.409 198.501C244.563 196.573 246.896 192.82 245.845 188.99Z" fill="#353437"/>
<path d="M218.592 177.23C218.43 177.146 218.246 177.116 218.067 177.144C217.887 177.172 217.721 177.256 217.592 177.384C212.092 182.654 213.22 185.893 212.374 186.818C211.323 188.193 207.426 190.609 207.016 191.637C206.503 193 209.195 193.951 209.375 194.491C209.435 194.611 209.467 194.742 209.47 194.876C209.474 195.01 209.447 195.143 209.394 195.266C209.34 195.389 209.26 195.498 209.159 195.586C209.058 195.674 208.939 195.739 208.811 195.776C208.627 195.856 208.47 195.986 208.356 196.15C208.242 196.315 208.176 196.508 208.166 196.708C208.155 196.908 208.2 197.107 208.296 197.283C208.392 197.459 208.534 197.605 208.708 197.704C208.708 197.704 210.272 199.066 210.605 199.49C209.936 199.449 209.267 199.572 208.657 199.85C208.527 199.953 208.426 200.086 208.362 200.239C208.299 200.392 208.275 200.558 208.293 200.722C208.311 200.887 208.37 201.044 208.465 201.179C208.56 201.314 208.688 201.423 208.836 201.495C209.071 201.836 209.225 202.226 209.287 202.636C209.349 203.046 209.318 203.464 209.195 203.86C208.941 204.193 208.667 204.511 208.375 204.811C207.888 205.428 207.272 207.613 210.298 208.435C212.708 209.258 219.053 209.104 224.77 207.536C229.898 205.788 232.116 200.338 232.603 199.439C233.04 199.672 233.548 199.728 234.025 199.597C234.502 199.465 234.91 199.156 235.167 198.732C236.121 197.034 236.854 195.22 237.346 193.334C237.467 192.683 237.382 192.01 237.101 191.411C236.82 190.811 236.359 190.315 235.782 189.992C234.654 189.401 232.321 189.427 230.988 192.074C229.933 192.02 228.937 191.569 228.198 190.812C227.459 190.055 227.032 189.046 227.001 187.987C226.719 181.343 220.617 178.258 218.592 177.23Z" fill="#F7B2B2"/>
<path d="M234.551 197.704C234.531 197.678 234.519 197.647 234.519 197.614C234.519 197.581 234.531 197.549 234.551 197.524C235.16 196.308 235.691 195.055 236.141 193.771C236.322 193.326 236.352 192.833 236.227 192.369C236.102 191.904 235.829 191.494 235.449 191.201C235.208 191.039 234.92 190.963 234.632 190.987C234.343 191.01 234.071 191.131 233.859 191.329C233.835 191.348 233.804 191.357 233.773 191.354C233.742 191.352 233.714 191.339 233.692 191.317C233.67 191.295 233.657 191.266 233.654 191.235C233.652 191.204 233.661 191.174 233.68 191.149C233.928 190.905 234.254 190.756 234.601 190.728C234.947 190.7 235.293 190.794 235.577 190.995C235.992 191.314 236.294 191.759 236.437 192.264C236.58 192.769 236.557 193.306 236.372 193.797C235.934 195.122 235.394 196.411 234.757 197.652C234.757 197.652 234.603 197.704 234.551 197.704Z" fill="#F38484"/>
<path d="M232.872 195.313C232.787 195.327 232.701 195.327 232.616 195.313C232.582 195.313 232.549 195.3 232.525 195.276C232.501 195.251 232.488 195.219 232.488 195.185C232.488 195.151 232.501 195.118 232.525 195.094C232.549 195.07 232.582 195.056 232.616 195.056C232.767 195.094 232.925 195.09 233.074 195.045C233.223 195 233.357 194.915 233.462 194.799C233.641 194.542 233.59 194.131 233.282 193.617C233.099 193.368 232.988 193.073 232.96 192.764C232.933 192.456 232.992 192.146 233.129 191.869C233.146 191.838 233.174 191.816 233.208 191.806C233.241 191.796 233.277 191.8 233.308 191.817C233.339 191.834 233.361 191.863 233.371 191.897C233.381 191.93 233.376 191.967 233.359 191.997C233.242 192.235 233.193 192.501 233.221 192.765C233.248 193.029 233.349 193.28 233.513 193.488C233.975 194.259 233.872 194.773 233.693 194.953C233.59 195.07 233.464 195.162 233.322 195.224C233.18 195.286 233.027 195.317 232.872 195.313V195.313Z" fill="#F38484"/>
<path d="M217.694 189.273C217.652 189.272 217.61 189.26 217.574 189.238C217.537 189.215 217.508 189.183 217.489 189.144C217.427 189.058 217.354 188.98 217.271 188.913C216.81 188.373 215.989 187.473 215.323 187.448C215.046 187.433 214.771 187.495 214.528 187.628C214.47 187.658 214.403 187.665 214.34 187.645C214.278 187.626 214.225 187.583 214.195 187.525C214.164 187.467 214.158 187.399 214.177 187.336C214.196 187.274 214.239 187.221 214.297 187.191C214.627 187.013 215 186.928 215.374 186.947C216.271 186.947 217.117 187.962 217.694 188.604C217.77 188.675 217.838 188.752 217.899 188.836C217.924 188.859 217.944 188.886 217.958 188.917C217.971 188.948 217.978 188.982 217.978 189.016C217.978 189.05 217.971 189.083 217.958 189.114C217.944 189.145 217.924 189.173 217.899 189.196C217.836 189.233 217.767 189.259 217.694 189.273Z" fill="#353437"/>
<path d="M216.116 188.429C216.174 187.822 215.936 187.302 215.583 187.268C215.231 187.234 214.898 187.699 214.84 188.307C214.781 188.914 215.02 189.434 215.372 189.468C215.725 189.502 216.058 189.037 216.116 188.429Z" fill="#353437"/>
<path d="M215.323 185.584L214.759 185.738C214.722 185.75 214.683 185.754 214.644 185.75C214.606 185.746 214.568 185.733 214.535 185.714C214.501 185.695 214.471 185.669 214.448 185.638C214.425 185.606 214.409 185.571 214.4 185.533C214.323 185.199 215.374 184.479 215.374 184.479C215.561 184.404 215.763 184.374 215.963 184.392C216.164 184.41 216.357 184.475 216.528 184.582C216.887 184.813 217.297 185.096 217.617 185.327C218.512 186.062 219.29 186.929 219.925 187.898C219.925 188 219.925 188.078 219.771 188.026C218.778 187.118 217.67 186.345 216.476 185.726C216.303 185.626 216.112 185.563 215.914 185.538C215.716 185.514 215.515 185.53 215.323 185.584Z" fill="#353437"/>
<path d="M210.093 194.799C209.999 194.812 209.904 194.812 209.811 194.799C209.779 194.794 209.748 194.783 209.72 194.766C209.693 194.749 209.669 194.726 209.65 194.7C209.631 194.674 209.617 194.644 209.609 194.613C209.602 194.581 209.6 194.548 209.605 194.516C209.61 194.484 209.622 194.453 209.639 194.426C209.656 194.398 209.678 194.374 209.704 194.355C209.73 194.336 209.76 194.322 209.791 194.314C209.823 194.307 209.855 194.306 209.887 194.311C210.047 194.345 210.212 194.34 210.368 194.295C210.525 194.25 210.668 194.167 210.785 194.054C210.888 193.926 210.958 193.775 210.99 193.613C211.021 193.452 211.012 193.285 210.964 193.128C210.958 193.094 210.957 193.06 210.964 193.026C210.971 192.992 210.984 192.96 211.003 192.931C211.022 192.903 211.047 192.878 211.075 192.859C211.104 192.84 211.136 192.827 211.169 192.82C211.203 192.813 211.238 192.813 211.271 192.82C211.305 192.826 211.337 192.84 211.366 192.859C211.394 192.878 211.419 192.902 211.438 192.931C211.457 192.96 211.47 192.992 211.477 193.025C211.542 193.264 211.547 193.516 211.494 193.757C211.44 193.999 211.329 194.224 211.169 194.413C210.87 194.67 210.487 194.808 210.093 194.799Z" fill="#828282" fill-opacity="0.3"/>
<path d="M208.888 201.495C209.987 201.967 211.203 202.092 212.374 201.855C211.993 202.283 211.522 202.621 210.994 202.843C210.466 203.066 209.895 203.167 209.323 203.14C209.319 202.564 209.169 201.998 208.888 201.495Z" fill="#F38484"/>
<path d="M232.629 199.426C232.232 199.196 231.905 198.863 231.68 198.462C231.424 198.102 230.962 198.102 230.654 198.668C227.309 206.777 219.643 207.883 215.374 208.885C218.549 208.786 221.702 208.32 224.77 207.497C230.065 205.852 232.629 199.426 232.629 199.426Z" fill="#F38484"/>
<path d="M211.528 199.876C211.051 199.877 210.591 199.693 210.246 199.362L209.657 198.783C209.195 198.346 208.606 197.781 208.375 197.601C208.333 197.554 208.309 197.494 208.309 197.431C208.308 197.369 208.33 197.308 208.371 197.26C208.412 197.213 208.469 197.182 208.531 197.174C208.593 197.166 208.656 197.18 208.708 197.215L209.99 198.423C210.221 198.655 210.452 198.86 210.58 198.963C210.798 199.163 211.067 199.296 211.358 199.348C211.648 199.401 211.947 199.37 212.221 199.259C212.289 199.245 212.359 199.259 212.417 199.298C212.475 199.336 212.515 199.396 212.528 199.464C212.542 199.533 212.528 199.603 212.489 199.661C212.451 199.719 212.391 199.759 212.323 199.773C212.062 199.834 211.796 199.868 211.528 199.876V199.876Z" fill="#828282" fill-opacity="0.3"/>
<path fill-rule="evenodd" clip-rule="evenodd" d="M234.551 210.749C235.32 210.71 236.09 210.71 236.859 210.749C237.991 210.739 239.112 210.981 240.141 211.456C240.653 211.713 241.038 211.918 241.217 212.33C241.397 212.741 241.217 213.512 240.602 214.412C239.293 216.131 237.665 217.579 235.808 218.679C235.05 217.584 234.534 216.339 234.295 215.029C234.054 213.601 234.141 212.137 234.551 210.749V210.749Z" fill="#BF2652"/>
<path fill-rule="evenodd" clip-rule="evenodd" d="M234.782 210.852C235.714 210.772 236.653 210.807 237.577 210.954C238.552 211.039 239.477 211.43 240.218 212.072C240.679 212.509 240.73 212.792 240.73 212.921C240.73 213.255 240.602 213.615 239.782 214.386C239.281 214.86 238.74 215.29 238.166 215.671C238.166 215.671 236.372 216.956 235.449 217.625C233.369 219.195 231.506 221.036 229.911 223.1C229.44 223.644 229.012 224.224 228.629 224.835C228.343 225.307 228.086 225.796 227.86 226.3C229.223 224.817 230.843 223.593 232.641 222.688C234.216 221.812 235.97 221.311 237.769 221.223C239.497 221.072 241.229 221.458 242.73 222.329C243.32 222.714 243.679 223.1 244.679 223.704C245.238 224.029 245.821 224.312 246.422 224.552C246.491 224.582 246.567 224.592 246.641 224.582C246.716 224.571 246.786 224.54 246.844 224.493C246.903 224.445 246.947 224.382 246.972 224.311C246.997 224.24 247.002 224.163 246.986 224.089C246.909 223.678 246.807 223.151 246.704 222.586C246.14 219.424 246.268 218.987 245.935 217.548C245.645 215.626 244.788 213.835 243.474 212.407C242.413 211.356 241.129 210.561 239.718 210.08C238.104 209.659 236.427 209.537 234.769 209.721C234.757 210.312 234.782 210.517 234.782 210.852Z" fill="#FC6C85"/>
<path fill-rule="evenodd" clip-rule="evenodd" d="M217.143 212.689C214.349 212.869 212.605 217.985 214.579 221.969C214.579 220.041 215.425 216.622 217.22 216.288C217.591 215.113 217.564 213.848 217.143 212.689Z" fill="#BF2652"/>
<path fill-rule="evenodd" clip-rule="evenodd" d="M214.554 223.678C211.169 219.424 208.759 220.144 207.272 220.683C207.214 220.699 207.151 220.695 207.095 220.673C207.038 220.65 206.991 220.61 206.959 220.558C206.927 220.506 206.913 220.445 206.919 220.384C206.925 220.323 206.95 220.266 206.99 220.221C207.617 219.566 208.199 218.871 208.734 218.139C213.169 212.252 217.707 211.378 217.707 211.378C217.771 211.593 217.787 211.819 217.756 212.041C217.725 212.262 217.647 212.475 217.528 212.664C214.387 214.386 214.028 217.11 214.413 220.375C214.546 221.471 214.593 222.575 214.554 223.678V223.678Z" fill="#FC6C85"/>
<path fill-rule="evenodd" clip-rule="evenodd" d="M244.614 328.963C243.948 328.963 243.409 328.963 242.999 328.963C240.763 328.855 238.547 328.484 236.397 327.858H236.269V327.729C236.5 327.035 241.846 310.803 239.243 298.786C238.419 295.157 237.251 291.615 235.756 288.209C235.603 287.849 235.295 287.258 234.885 286.435C232.475 281.641 226.052 268.879 223.719 257.711C222.65 252.644 222.331 247.448 222.771 242.288C223.066 238.524 223.904 234.823 225.258 231.299C226.447 228.209 228.084 225.312 230.116 222.701C231.68 220.414 235.244 217.689 237.679 215.915C238.502 215.337 239.289 214.71 240.038 214.039C240.196 213.848 240.308 213.624 240.365 213.384C240.423 213.143 240.425 212.892 240.371 212.651C240.166 212.008 239.397 211.571 238.064 211.366C236.998 211.18 235.914 211.115 234.833 211.173C234.799 211.173 234.767 211.159 234.743 211.135C234.719 211.111 234.705 211.078 234.705 211.044C234.705 211.01 234.719 210.977 234.743 210.953C234.767 210.929 234.799 210.916 234.833 210.916C235.931 210.86 237.031 210.92 238.115 211.096C239.551 211.366 240.397 211.88 240.679 212.625C240.753 212.912 240.754 213.213 240.683 213.5C240.611 213.787 240.469 214.052 240.269 214.27C239.508 214.957 238.703 215.593 237.859 216.172C235.474 217.946 231.885 220.645 230.347 222.907C228.335 225.504 226.715 228.384 225.54 231.454C224.191 234.95 223.361 238.627 223.078 242.365C222.637 247.503 222.957 252.679 224.027 257.723C226.36 268.841 232.757 281.577 235.167 286.371L236.064 288.17C237.574 291.591 238.75 295.151 239.577 298.799C242.14 310.456 237.192 326.071 236.628 327.742C238.714 328.359 240.866 328.722 243.038 328.822C246.262 329.027 249.495 328.59 252.55 327.536C255.738 326.449 258.661 324.697 261.126 322.396C261.15 322.377 261.181 322.368 261.212 322.37C261.242 322.372 261.271 322.386 261.293 322.408C261.315 322.429 261.328 322.458 261.33 322.489C261.332 322.52 261.323 322.551 261.305 322.576C258.817 324.922 255.858 326.709 252.626 327.819C250.037 328.642 247.33 329.029 244.614 328.963Z" fill="#EA2856"/>
<path fill-rule="evenodd" clip-rule="evenodd" d="M239.346 483.588C239.884 484.59 240.448 487.443 238.987 489.153C230.911 493.702 210.246 497.198 204.286 496.504C200.799 496.17 198.312 494.936 197.696 493.702C197.408 492.972 197.279 492.187 197.319 491.402C197.359 490.618 197.566 489.85 197.927 489.153C200.85 488.767 203.798 488.343 206.811 487.868C218.002 486.184 239.282 482.997 239.346 483.588Z" fill="#BF2652"/>
<path fill-rule="evenodd" clip-rule="evenodd" d="M220.899 466.918C221.387 466.81 221.888 466.775 222.386 466.815C223.343 466.865 224.258 467.226 224.994 467.842C225.729 468.459 226.244 469.298 226.463 470.234C226.939 470.063 227.454 470.027 227.95 470.131C228.949 470.337 229.501 471.082 230.244 471.956C231.081 473.013 232.036 473.971 233.09 474.809C234.013 475.426 235.551 475.889 238.32 475.144C238.727 476.054 238.994 477.02 239.115 478.01C239.381 479.9 239.442 481.813 239.294 483.716C238.013 486.955 222.232 491.157 213.554 492.905C211.362 493.375 209.129 493.625 206.888 493.651C204.566 493.664 202.263 493.227 200.106 492.365C199.324 492.035 198.562 491.657 197.825 491.234C197.631 490.375 197.711 489.475 198.055 488.664C198.589 487.665 199.423 486.86 200.44 486.364C203.286 484.539 205.132 483.433 205.349 483.33C208.964 481.325 212.092 477.675 216.887 472.11C217.797 470.877 219.233 469.129 220.899 466.918Z" fill="#FC6C85"/>
<path fill-rule="evenodd" clip-rule="evenodd" d="M226.463 470.209C226.939 470.037 227.454 470.002 227.95 470.106C228.622 470.279 229.214 470.678 229.629 471.237C222.489 477.778 214.579 485.695 210.323 487.058C208.118 487.803 203.26 487.058 202.632 484.899L205.196 483.356C210.067 481.917 213.836 481.146 226.463 470.209Z" fill="#BF2652"/>
<path fill-rule="evenodd" clip-rule="evenodd" d="M226.463 470.208C225.309 471.211 223.642 472.65 221.54 474.655C218.438 477.65 217.464 478.858 215.271 480.709C213.862 481.904 212.381 483.011 210.836 484.024C207.759 485.798 204.427 483.922 205.157 483.33C205.734 482.971 206.324 482.559 206.965 482.045C209.107 480.326 211.089 478.416 212.887 476.339C214.502 474.604 216.066 472.933 218.015 470.517C219.194 469.052 220.143 467.741 220.861 466.764C221.843 466.524 222.876 466.605 223.809 466.995C224.464 467.297 225.042 467.742 225.502 468.298C225.961 468.854 226.289 469.507 226.463 470.208V470.208Z" fill="#BF2652"/>
<path fill-rule="evenodd" clip-rule="evenodd" d="M200.414 486.286C200.892 486.704 201.427 487.051 202.004 487.314C202.004 487.314 202.081 487.314 202.106 487.314C202.509 487.48 202.839 487.786 203.037 488.175C203.234 488.564 203.286 489.011 203.183 489.435C203.169 489.555 203.169 489.675 203.183 489.795C203.176 490.416 203.375 491.021 203.747 491.517C204.174 492.15 204.746 492.672 205.415 493.039C206.084 493.405 206.831 493.606 207.593 493.625C205.626 494.341 203.497 494.484 201.452 494.036C199.939 493.64 198.536 492.901 197.35 491.877C197.212 490.732 197.434 489.573 197.986 488.561C198.538 487.549 199.391 486.736 200.427 486.235L200.414 486.286Z" fill="#BF2652"/>
<path fill-rule="evenodd" clip-rule="evenodd" d="M225.309 474.81C227.199 476.109 228.895 477.671 230.347 479.449C231.762 481.188 232.927 483.118 233.808 485.181C234.013 485.772 234.244 486.338 234.449 486.929C233.705 487.263 232.911 487.572 232.116 487.88L231.039 488.266C230.501 486.771 229.8 485.34 228.949 483.999C227.27 481.325 225.063 479.024 222.463 477.239C223.42 476.416 224.369 475.606 225.309 474.81Z" fill="#BF2652"/>
<path fill-rule="evenodd" clip-rule="evenodd" d="M219.592 479.732C220.537 480.472 221.421 481.288 222.232 482.174C224.245 484.32 225.821 486.839 226.873 489.59L222.899 490.695C221.687 487.355 219.591 484.41 216.835 482.174C217.771 481.351 218.694 480.529 219.592 479.732Z" fill="#BF2652"/>
<path fill-rule="evenodd" clip-rule="evenodd" d="M238.5 475.58C238.804 476.342 239.003 477.142 239.089 477.958C239.356 479.848 239.416 481.761 239.269 483.664C238.756 484.95 235.859 486.441 232.013 487.854C232.449 480.76 238.423 475.426 238.5 475.58Z" fill="#BF2652"/>
<path d="M225.905 473.523C226.378 473.117 226.553 472.543 226.296 472.241C226.038 471.939 225.445 472.023 224.972 472.429C224.498 472.835 224.323 473.409 224.581 473.711C224.839 474.013 225.432 473.929 225.905 473.523Z" fill="white"/>
<path d="M222.017 477.147C222.49 476.741 222.665 476.167 222.407 475.865C222.15 475.563 221.557 475.647 221.083 476.053C220.61 476.459 220.435 477.033 220.693 477.336C220.95 477.638 221.543 477.553 222.017 477.147Z" fill="white"/>
<path d="M217.92 481.025C218.394 480.619 218.569 480.045 218.311 479.743C218.053 479.441 217.461 479.525 216.987 479.931C216.514 480.337 216.339 480.911 216.597 481.213C216.854 481.516 217.447 481.431 217.92 481.025Z" fill="white"/>
<path d="M213.124 484.84C213.597 484.434 213.772 483.86 213.515 483.558C213.257 483.256 212.664 483.34 212.191 483.746C211.717 484.152 211.542 484.726 211.8 485.028C212.058 485.33 212.65 485.246 213.124 484.84Z" fill="white"/>
<path fill-rule="evenodd" clip-rule="evenodd" d="M225.335 473.177C225.323 473.183 225.309 473.186 225.296 473.186C225.283 473.186 225.27 473.183 225.258 473.177C223.86 472.169 222.323 471.372 220.694 470.812C219.957 470.556 219.203 470.35 218.438 470.195C218.404 470.195 218.371 470.182 218.347 470.158C218.323 470.134 218.31 470.101 218.31 470.067C218.31 470.033 218.323 470 218.347 469.976C218.371 469.952 218.404 469.938 218.438 469.938C219.215 470.089 219.978 470.304 220.72 470.581C222.375 471.158 223.938 471.972 225.36 472.997C225.384 473.021 225.397 473.054 225.397 473.087C225.397 473.121 225.384 473.153 225.36 473.177H225.335Z" fill="white"/>
<path fill-rule="evenodd" clip-rule="evenodd" d="M221.515 476.802C221.502 476.807 221.489 476.81 221.476 476.81C221.463 476.81 221.45 476.807 221.438 476.802C220.44 475.937 219.316 475.23 218.105 474.707C217.164 474.293 216.179 473.991 215.169 473.807C215.151 473.806 215.134 473.801 215.118 473.792C215.102 473.783 215.089 473.771 215.079 473.756C215.069 473.741 215.063 473.724 215.061 473.706C215.058 473.688 215.06 473.67 215.066 473.653C215.066 473.576 215.143 473.524 215.22 473.55C216.248 473.743 217.25 474.053 218.207 474.476C219.436 475.017 220.577 475.74 221.591 476.622C221.61 476.648 221.62 476.679 221.62 476.712C221.62 476.744 221.61 476.776 221.591 476.802H221.515Z" fill="white"/>
<path fill-rule="evenodd" clip-rule="evenodd" d="M217.489 480.657C217.477 480.663 217.464 480.666 217.451 480.666C217.437 480.666 217.424 480.663 217.412 480.657C216.515 479.855 215.53 479.157 214.477 478.575C213.658 478.121 212.8 477.743 211.913 477.444C211.898 477.439 211.884 477.431 211.872 477.421C211.86 477.41 211.85 477.397 211.843 477.383C211.835 477.369 211.831 477.353 211.83 477.337C211.829 477.321 211.831 477.305 211.836 477.29C211.841 477.275 211.849 477.261 211.859 477.249C211.87 477.236 211.883 477.227 211.897 477.219C211.911 477.212 211.927 477.208 211.943 477.207C211.959 477.206 211.975 477.208 211.99 477.213C212.901 477.524 213.784 477.91 214.631 478.369C215.705 478.962 216.708 479.678 217.617 480.503C217.641 480.527 217.654 480.559 217.654 480.593C217.654 480.627 217.641 480.659 217.617 480.683L217.489 480.657Z" fill="white"/>
<path fill-rule="evenodd" clip-rule="evenodd" d="M212.708 484.307C212.696 484.313 212.683 484.316 212.669 484.316C212.656 484.316 212.643 484.313 212.631 484.307C211.815 483.668 210.959 483.084 210.067 482.559C209.349 482.122 208.606 481.737 207.862 481.377C207.839 481.353 207.825 481.32 207.825 481.287C207.825 481.253 207.839 481.221 207.862 481.197C207.873 481.183 207.887 481.173 207.902 481.165C207.918 481.158 207.935 481.154 207.952 481.154C207.969 481.154 207.986 481.158 208.002 481.165C208.017 481.173 208.031 481.183 208.042 481.197C208.806 481.559 209.551 481.962 210.272 482.405C211.162 482.943 212.018 483.535 212.836 484.178C212.859 484.202 212.873 484.235 212.873 484.268C212.873 484.302 212.859 484.334 212.836 484.358L212.708 484.307Z" fill="white"/>
<path fill-rule="evenodd" clip-rule="evenodd" d="M220.54 470.697C220.507 470.706 220.471 470.706 220.438 470.697C219.044 468.982 217.03 467.891 214.836 467.664C213.812 467.588 212.783 467.719 211.81 468.049C210.839 468.396 209.779 468.404 208.803 468.073C207.826 467.742 206.989 467.09 206.426 466.224C206.152 465.644 206.009 465.009 206.009 464.367C206.009 463.725 206.152 463.09 206.426 462.51C206.832 461.796 207.402 461.191 208.089 460.743C208.776 460.296 209.56 460.021 210.375 459.939C213.887 459.271 217.31 461.662 218.976 464.155C220.225 466.095 220.793 468.397 220.591 470.697C220.59 470.72 220.582 470.741 220.569 470.76C220.555 470.778 220.536 470.792 220.514 470.799C220.514 470.799 220.566 470.697 220.54 470.697ZM214.272 467.329C214.468 467.317 214.665 467.317 214.861 467.329C217.019 467.54 219.014 468.57 220.438 470.208C220.566 468.072 220.009 465.951 218.848 464.155C217.985 462.751 216.744 461.619 215.267 460.892C213.791 460.164 212.139 459.87 210.503 460.042C209.72 460.121 208.968 460.389 208.312 460.823C207.655 461.258 207.114 461.845 206.734 462.536C206.474 463.079 206.339 463.674 206.339 464.277C206.339 464.88 206.474 465.475 206.734 466.018C207.266 466.847 208.065 467.467 208.999 467.776C209.932 468.084 210.942 468.063 211.862 467.715C212.642 467.47 213.454 467.34 214.272 467.329Z" fill="white"/>
<path fill-rule="evenodd" clip-rule="evenodd" d="M220.54 470.607C220.514 470.604 220.489 470.593 220.471 470.574C220.452 470.555 220.44 470.531 220.438 470.504C220.368 468.944 219.686 467.475 218.54 466.417C218.161 466.112 217.726 465.885 217.259 465.749C216.586 465.504 215.955 465.158 215.387 464.721C214.433 464.095 213.684 463.201 213.233 462.15C212.942 461.24 212.931 460.263 213.201 459.347C213.471 458.43 214.009 457.616 214.746 457.009C216.797 455.519 219.681 456.572 221.066 457.806C223.732 460.171 222.989 464.554 222.348 466.944C221.983 468.216 221.421 469.421 220.681 470.517C220.681 470.517 220.591 470.607 220.54 470.607ZM217.117 456.47C216.327 456.458 215.554 456.701 214.913 457.164C214.223 457.73 213.717 458.49 213.462 459.347C213.206 460.203 213.211 461.117 213.477 461.97C213.898 462.977 214.613 463.833 215.528 464.425C216.079 464.845 216.688 465.183 217.335 465.428C217.799 465.596 218.232 465.839 218.617 466.147C219.733 467.134 220.423 468.516 220.54 470.003C221.18 469.012 221.664 467.928 221.976 466.79C223.54 461.328 221.976 458.886 220.822 457.909C219.799 457.001 218.484 456.49 217.117 456.47V456.47Z" fill="white"/>
<path fill-rule="evenodd" clip-rule="evenodd" d="M220.54 470.607C220.507 470.598 220.479 470.577 220.46 470.549C220.441 470.521 220.433 470.486 220.438 470.453C221.058 468.262 221.12 465.951 220.617 463.731C218.694 455.583 209.375 452.704 208.99 452.601C208.975 452.596 208.961 452.588 208.949 452.577C208.937 452.567 208.927 452.554 208.92 452.54C208.913 452.525 208.908 452.51 208.907 452.494C208.906 452.478 208.908 452.462 208.913 452.447C208.918 452.431 208.926 452.417 208.937 452.405C208.947 452.393 208.96 452.383 208.974 452.376C208.989 452.369 209.004 452.365 209.02 452.364C209.036 452.362 209.052 452.364 209.067 452.37C209.477 452.498 218.925 455.403 220.873 463.679C221.39 465.942 221.328 468.298 220.694 470.53C220.694 470.53 220.617 470.607 220.54 470.607Z" fill="white"/>
<path fill-rule="evenodd" clip-rule="evenodd" d="M220.54 470.607C220.524 470.614 220.507 470.618 220.489 470.618C220.471 470.618 220.454 470.614 220.438 470.607C219.067 468.513 217.015 466.96 214.631 466.212C210.477 465.003 205.785 466.726 202.645 470.556C202.624 470.583 202.594 470.601 202.56 470.606C202.527 470.611 202.492 470.602 202.465 470.581C202.438 470.561 202.42 470.53 202.415 470.497C202.41 470.463 202.419 470.429 202.44 470.401C203.828 468.548 205.727 467.142 207.902 466.357C210.077 465.571 212.434 465.44 214.682 465.98C217.126 466.733 219.228 468.326 220.617 470.478C220.641 470.503 220.654 470.535 220.654 470.568C220.654 470.602 220.641 470.634 220.617 470.658L220.54 470.607Z" fill="white"/>
<path d="M267.484 295.072C266.202 296.267 264.92 297.45 263.497 298.606C255.48 305.564 247 311.966 238.115 317.769C237.363 320.148 236.162 322.36 234.577 324.285C232.117 324.794 229.578 324.773 227.127 324.224C224.676 323.674 222.37 322.609 220.361 321.098C219.482 320.384 218.683 319.579 217.976 318.694C218.284 318.231 218.592 317.794 218.874 317.332C217.936 317.828 216.942 318.207 215.912 318.463C214.814 318.831 213.64 318.911 212.502 318.694C211.964 318.566 210.99 318.437 210.785 317.769C210.657 317.332 210.528 316.972 210.785 316.638C211.223 316.267 211.756 316.027 212.323 315.944C213.22 315.61 214.528 315.096 216.066 314.35C218.31 313.271 219.258 312.551 220.386 311.96C222.72 310.829 225.317 310.358 227.898 310.597C229.934 309.555 231.915 308.41 233.834 307.166C241.166 302.405 247.566 296.337 252.716 289.263C253.465 288.394 254.386 287.692 255.421 287.2C256.455 286.709 257.581 286.439 258.725 286.407C259.87 286.376 261.008 286.584 262.068 287.018C263.128 287.452 264.086 288.103 264.881 288.929C266.169 289.92 267.075 291.328 267.445 292.913C267.61 293.622 267.624 294.358 267.484 295.072Z" fill="#F7B2B2"/>
<path fill-rule="evenodd" clip-rule="evenodd" d="M253.306 228.459C243.05 242.596 247.794 257.299 248.383 259.934C249.46 263.97 253.049 278.325 253.729 280.176C254.263 281.535 254.465 283.003 254.318 284.456C265.663 282.31 269.278 290.882 267.304 295.329C268.914 294.319 270.238 292.912 271.15 291.242C272.996 287.823 271.74 284.97 271.406 277.105C271.304 274.714 271.406 272.324 271.406 269.92C271.406 254.073 267.561 229.474 258.754 225.49C257.113 224.937 254.665 226.968 253.306 228.459Z" fill="#FC6C85"/>
<path d="M213.528 318.951C213.165 318.953 212.804 318.91 212.451 318.823C211.913 318.694 210.887 318.411 210.657 317.692C210.598 317.519 210.577 317.335 210.595 317.154C210.612 316.972 210.668 316.796 210.759 316.638C211.085 316.25 211.541 315.994 212.041 315.918L212.374 315.841C213.656 315.378 214.938 314.838 216.118 314.247C217.136 313.767 218.124 313.226 219.079 312.628C219.566 312.345 219.976 312.088 220.438 311.857C222.784 310.735 225.385 310.256 227.975 310.469C229.988 309.44 231.962 308.284 233.859 307.063C241.177 302.303 247.568 296.245 252.716 289.185C252.726 289.172 252.739 289.161 252.753 289.152C252.768 289.143 252.784 289.138 252.801 289.135C252.817 289.133 252.834 289.134 252.85 289.138C252.867 289.142 252.882 289.15 252.896 289.16C252.909 289.17 252.92 289.183 252.929 289.197C252.938 289.212 252.943 289.228 252.946 289.244C252.948 289.261 252.947 289.278 252.943 289.294C252.939 289.311 252.931 289.326 252.921 289.34C247.768 296.445 241.359 302.544 234.013 307.333C232.101 308.588 230.119 309.734 228.078 310.764H228.001C225.446 310.543 222.878 311.014 220.566 312.127C220.13 312.358 219.694 312.615 219.284 312.898C218.321 313.496 217.324 314.037 216.297 314.517C215.068 315.112 213.81 315.644 212.528 316.111C212.406 316.136 212.286 316.171 212.169 316.214C211.726 316.266 211.317 316.475 211.016 316.805C210.955 316.938 210.924 317.083 210.924 317.229C210.924 317.375 210.955 317.52 211.016 317.653C211.195 318.219 212.118 318.476 212.631 318.604C213.753 318.795 214.904 318.716 215.989 318.373C217.008 318.111 217.993 317.731 218.925 317.242C218.925 317.242 219.053 317.242 219.079 317.242C219.09 317.251 219.098 317.263 219.104 317.277C219.11 317.29 219.113 317.304 219.113 317.319C219.113 317.333 219.11 317.348 219.104 317.361C219.098 317.374 219.09 317.386 219.079 317.396L218.181 318.758C218.161 318.786 218.131 318.804 218.097 318.808C218.063 318.813 218.029 318.804 218.002 318.784C217.975 318.764 217.957 318.733 217.952 318.699C217.947 318.666 217.956 318.631 217.976 318.604L218.617 317.627C217.795 318.019 216.936 318.329 216.053 318.553C215.235 318.806 214.385 318.94 213.528 318.951Z" fill="#F38484"/>
<path fill-rule="evenodd" clip-rule="evenodd" d="M246.973 245.411C246.603 250.292 247.098 255.2 248.435 259.908C249.511 263.944 253.101 278.3 253.78 280.151C254.314 281.51 254.516 282.977 254.37 284.43C255.638 284.192 256.926 284.08 258.216 284.096C260.446 268.031 249.178 256.58 246.973 245.411Z" fill="#F95070"/>
<path fill-rule="evenodd" clip-rule="evenodd" d="M270.74 287.438C271.509 287.772 271.483 288.029 272.022 288.826C272.483 286.178 271.688 283.106 271.432 277.092C271.33 274.701 271.432 272.311 271.432 269.907C271.432 258.996 269.586 243.972 265.587 234.345C273.022 264.741 268.458 275.909 270.74 287.438Z" fill="#F95070"/>
<path d="M234.551 324.413C234.539 324.419 234.526 324.422 234.513 324.422C234.5 324.422 234.487 324.419 234.475 324.413C234.456 324.387 234.446 324.356 234.446 324.323C234.446 324.291 234.456 324.26 234.475 324.233C235.141 323.426 235.741 322.567 236.269 321.663C236.972 320.444 237.539 319.151 237.961 317.807V317.807C246.832 312.005 255.303 305.612 263.318 298.67L264.292 297.822C265.164 297.077 265.946 296.408 266.856 295.522C266.88 295.498 266.912 295.485 266.945 295.485C266.979 295.485 267.011 295.498 267.035 295.522C267.059 295.548 267.073 295.582 267.073 295.618C267.073 295.654 267.059 295.688 267.035 295.714C266.061 296.588 265.305 297.231 264.471 298.002C264.164 298.259 263.83 298.542 263.497 298.85C255.489 305.8 247.017 312.194 238.141 317.987C237.708 319.327 237.142 320.618 236.449 321.843C235.91 322.771 235.302 323.656 234.628 324.49C234.61 324.486 234.592 324.477 234.579 324.463C234.565 324.449 234.556 324.432 234.551 324.413V324.413Z" fill="#F38484"/>
<path fill-rule="evenodd" clip-rule="evenodd" d="M252.588 289.263C253.229 288.792 253.927 288.403 254.665 288.106C256.319 287.357 258.172 287.168 259.943 287.567C261.714 287.965 263.308 288.93 264.484 290.317C265.827 291.921 266.526 293.969 266.445 296.061C267.139 296.198 267.858 296.108 268.496 295.804C269.098 295.48 269.599 294.995 269.943 294.403C270.286 293.811 270.46 293.135 270.445 292.45C271.005 292.238 271.481 291.85 271.804 291.345C272.038 290.949 272.183 290.507 272.227 290.05C272.271 289.592 272.214 289.13 272.06 288.697C271.47 286.487 262.279 279.919 254.408 284.379C253.684 285.15 253.284 286.172 253.293 287.232C252.947 287.865 252.709 288.551 252.588 289.263V289.263Z" fill="#BF2652"/>
<path fill-rule="evenodd" clip-rule="evenodd" d="M270.765 284.944C270.753 284.95 270.74 284.953 270.727 284.953C270.714 284.953 270.701 284.95 270.688 284.944C268.987 283.579 267.03 282.569 264.933 281.975C263.268 281.495 261.535 281.295 259.805 281.384C258.603 281.463 257.415 281.687 256.267 282.053C256.236 282.061 256.204 282.058 256.175 282.044C256.147 282.029 256.125 282.005 256.113 281.975C256.113 281.975 256.113 281.847 256.19 281.821C257.361 281.437 258.576 281.204 259.805 281.127C261.535 281.047 263.266 281.247 264.933 281.718C267.066 282.324 269.058 283.351 270.791 284.739C270.815 284.763 270.828 284.795 270.828 284.829C270.828 284.862 270.815 284.895 270.791 284.919C270.783 284.928 270.775 284.937 270.765 284.944V284.944Z" fill="#EA2856"/>
<path fill-rule="evenodd" clip-rule="evenodd" d="M269.56 291.448C269.544 291.455 269.527 291.458 269.509 291.458C269.492 291.458 269.474 291.455 269.458 291.448C268.442 289.718 267.021 288.262 265.317 287.206C263.283 285.993 260.939 285.403 258.574 285.51C257.373 285.54 256.182 285.739 255.036 286.101C255.021 286.106 255.005 286.108 254.989 286.107C254.973 286.106 254.958 286.102 254.944 286.095C254.929 286.087 254.917 286.077 254.906 286.065C254.896 286.053 254.888 286.039 254.883 286.024C254.878 286.009 254.876 285.993 254.877 285.977C254.878 285.961 254.882 285.945 254.889 285.931C254.896 285.917 254.906 285.904 254.918 285.893C254.93 285.883 254.944 285.875 254.96 285.87C256.133 285.511 257.348 285.304 258.574 285.253C260.807 285.13 263.029 285.629 264.995 286.695C266.962 287.762 268.595 289.353 269.714 291.293C269.735 291.319 269.747 291.351 269.747 291.383C269.747 291.416 269.735 291.448 269.714 291.473C269.688 291.48 269.661 291.481 269.635 291.477C269.608 291.472 269.583 291.462 269.56 291.448V291.448Z" fill="#EA2856"/>
<path d="M211.298 317.255C211.264 317.255 211.231 317.241 211.207 317.217C211.183 317.193 211.169 317.16 211.169 317.126C211.169 317.092 211.183 317.06 211.207 317.035C211.231 317.011 211.264 316.998 211.298 316.998C211.574 316.989 211.848 316.954 212.118 316.895C212.432 316.824 212.741 316.73 213.041 316.612C213.113 316.566 213.174 316.504 213.22 316.432C213.27 316.328 213.296 316.214 213.296 316.098C213.296 315.982 213.27 315.868 213.22 315.764C213.212 315.749 213.207 315.732 213.205 315.715C213.203 315.698 213.204 315.68 213.209 315.663C213.214 315.647 213.222 315.631 213.232 315.617C213.243 315.604 213.256 315.592 213.272 315.584C213.287 315.576 213.303 315.57 213.321 315.568C213.338 315.566 213.355 315.568 213.372 315.572C213.389 315.577 213.404 315.585 213.418 315.596C213.431 315.607 213.443 315.62 213.451 315.635C213.522 315.779 213.559 315.938 213.559 316.098C213.559 316.259 213.522 316.417 213.451 316.561C213.377 316.673 213.281 316.77 213.169 316.844C212.861 316.993 212.533 317.096 212.195 317.152C211.899 317.21 211.599 317.245 211.298 317.255V317.255Z" fill="#F38484"/>
<path d="M231.142 324.722C228.378 324.738 225.647 324.122 223.155 322.923C221.118 321.9 219.298 320.49 217.797 318.771C217.778 318.747 217.769 318.716 217.772 318.685C217.774 318.654 217.787 318.625 217.809 318.603C217.831 318.581 217.86 318.568 217.89 318.566C217.921 318.564 217.952 318.573 217.976 318.591C219.462 320.281 221.254 321.672 223.258 322.691C227.43 324.586 232.129 324.968 236.551 323.771H236.628C236.705 323.771 236.756 323.771 236.782 323.874C236.808 323.976 236.782 324.002 236.679 324.028H236.603C234.815 324.468 232.982 324.701 231.142 324.722Z" fill="#828282" fill-opacity="0.3"/>
<path fill-rule="evenodd" clip-rule="evenodd" d="M191.633 308.515C191.603 308.516 191.574 308.506 191.55 308.487C191.527 308.468 191.511 308.442 191.505 308.412C190.659 305.418 189.915 302.385 189.351 299.326C188.612 295.806 188.132 292.236 187.916 288.646C187.698 285.418 187.793 282.177 188.198 278.968C188.532 276.662 189.072 274.391 189.813 272.182C189.89 271.925 189.967 271.719 190.018 271.539C191.633 266.668 194.671 257.582 206.939 242.095C208.913 239.525 213.041 234.037 213.964 227.328C214.408 224.95 214.477 222.517 214.169 220.118C214.125 219.76 214.099 219.399 214.092 219.038C214.043 218.5 214.043 217.957 214.092 217.419C214.232 216.127 214.76 214.908 215.605 213.923C215.94 213.536 216.329 213.198 216.759 212.921C216.785 212.902 216.816 212.892 216.848 212.892C216.881 212.892 216.912 212.902 216.938 212.921C216.959 212.946 216.97 212.978 216.97 213.011C216.97 213.043 216.959 213.075 216.938 213.1C216.525 213.361 216.154 213.681 215.836 214.052C215.028 214.992 214.527 216.158 214.4 217.393C214.35 217.915 214.35 218.44 214.4 218.961C214.4 219.218 214.4 219.578 214.477 220.041C214.797 222.465 214.728 224.925 214.272 227.328C213.349 234.088 209.144 239.576 207.196 242.198C194.953 257.62 191.941 266.694 190.326 271.565C190.326 271.745 190.197 271.951 190.12 272.208C189.379 274.399 188.838 276.653 188.505 278.942C188.1 282.134 188.006 285.358 188.223 288.568C188.433 292.15 188.904 295.711 189.633 299.223C190.223 302.256 190.915 305.315 191.787 308.284C191.795 308.314 191.792 308.347 191.778 308.376C191.764 308.404 191.74 308.426 191.71 308.438C191.71 308.438 191.659 308.515 191.633 308.515Z" fill="#EA2856"/>
<path d="M157.162 231.415C154.599 229.179 152.701 227.2 151.368 225.786C147.021 221.25 143.339 216.118 140.433 210.543C139.998 209.746 139.639 207.202 138.305 203.963C138.075 203.423 137.844 202.909 137.639 202.446C137.382 201.885 137.005 201.387 136.536 200.988C136.066 200.588 135.515 200.296 134.921 200.133L133.947 199.876C132.187 198.068 130.362 196.239 128.473 194.388C125.55 191.535 122.628 188.836 119.769 186.252C119.463 186.019 119.089 185.893 118.705 185.893C118.321 185.893 117.947 186.019 117.641 186.252C117.47 186.445 117.34 186.671 117.259 186.916C117.179 187.161 117.15 187.42 117.174 187.677C117.198 187.934 117.275 188.183 117.399 188.409C117.524 188.635 117.693 188.833 117.897 188.99C119.461 190.609 121.077 192.306 122.679 194.131C123.653 195.21 124.627 196.264 125.525 197.344C125.227 197.428 124.969 197.617 124.799 197.877C124.629 198.137 124.559 198.45 124.602 198.758C123.918 198.505 123.163 198.533 122.5 198.835C122.201 199.001 121.946 199.236 121.754 199.519C121.563 199.803 121.44 200.127 121.397 200.467C121.349 200.929 121.438 201.394 121.652 201.805C121.867 202.217 122.197 202.556 122.602 202.78C122.135 202.958 121.744 203.294 121.5 203.731C121.305 204.13 121.233 204.577 121.292 205.016C121.351 205.455 121.54 205.867 121.833 206.199C121.422 206.652 121.15 207.214 121.051 207.818C121.014 208.555 121.189 209.287 121.555 209.927C121.921 210.568 122.462 211.089 123.115 211.43C124.351 212.437 125.663 213.348 127.037 214.155C128.62 215.084 130.275 215.883 131.986 216.545C133.793 220.684 135.434 224.089 136.69 226.557C139.716 232.546 141.818 236.569 145.394 241.196C146.92 243.154 148.573 245.008 150.343 246.748C154.188 248.251 158.226 247.48 160.329 245.026C163.226 241.658 162.482 234.937 157.162 231.415Z" fill="#F7B2B2"/>
<path fill-rule="evenodd" clip-rule="evenodd" d="M202.106 216.519C199.748 217.496 195.953 219.09 191.351 221.403C182.173 225.966 179.134 228.536 172.674 230.644C168.524 231.992 164.212 232.77 159.854 232.957L157.547 231.158C155.96 233.057 154.581 235.121 153.432 237.314C151.908 240.224 150.786 243.328 150.099 246.542C151.15 248.406 155.56 252.441 163.162 252.441C168.289 251.953 169.789 251.464 174.943 250.899C177.653 250.488 180.403 250.401 183.134 250.642C185.13 250.866 187.098 251.296 189.005 251.927C192.054 247.044 194.63 241.88 196.697 236.504C199.273 230.078 201.089 223.37 202.106 216.519V216.519Z" fill="#FC6C85"/>
<path fill-rule="evenodd" clip-rule="evenodd" d="M151.266 242.275C150.784 243.68 150.39 245.114 150.086 246.568C151.137 248.431 155.547 252.467 163.149 252.467C168.277 251.979 169.776 251.49 174.93 250.925C177.64 250.513 180.39 250.427 183.121 250.668C185.117 250.892 187.085 251.322 188.992 251.953C190.396 249.776 191.68 247.523 192.838 245.205C186.531 238.497 155.214 254.241 151.266 242.275Z" fill="#F95070"/>
<path d="M140.575 230.001C137.165 224.269 135.857 222.534 133.601 220.092C134.78 222.663 135.831 224.809 136.703 226.518C138.856 231.138 141.404 235.563 144.318 239.743C143.587 236.319 142.324 233.032 140.575 230.001V230.001Z" fill="white" fill-opacity="0.3"/>
<path d="M149.933 246.465C149.899 246.477 149.863 246.477 149.83 246.465C148.217 244.843 146.702 243.126 145.292 241.324C145.282 241.311 145.275 241.295 145.27 241.279C145.266 241.262 145.265 241.245 145.268 241.229C145.27 241.212 145.276 241.196 145.284 241.181C145.293 241.167 145.304 241.154 145.318 241.144C145.331 241.134 145.346 241.127 145.363 241.122C145.379 241.118 145.396 241.117 145.413 241.12C145.429 241.122 145.445 241.128 145.46 241.136C145.474 241.145 145.487 241.156 145.497 241.17C146.906 242.972 148.422 244.689 150.035 246.311C150.059 246.335 150.072 246.367 150.072 246.401C150.072 246.434 150.059 246.467 150.035 246.491L149.933 246.465Z" fill="#F38484"/>
<path d="M157.111 231.556C157.099 231.562 157.086 231.565 157.073 231.565C157.059 231.565 157.046 231.562 157.034 231.556C154.47 229.294 152.548 227.238 151.266 225.876C146.905 221.342 143.221 216.199 140.331 210.607C140.077 210.019 139.879 209.408 139.741 208.782C139.328 207.155 138.806 205.558 138.177 204.001C137.972 203.487 137.742 202.973 137.511 202.485C137.263 201.939 136.898 201.456 136.441 201.069C135.984 200.682 135.448 200.402 134.87 200.248L133.87 199.966C132.058 198.106 130.234 196.277 128.396 194.478C125.576 191.727 122.653 189.003 119.692 186.342C119.412 186.13 119.07 186.015 118.718 186.015C118.366 186.015 118.024 186.13 117.744 186.342C117.598 186.489 117.485 186.664 117.41 186.856C117.335 187.048 117.3 187.254 117.308 187.461C117.311 187.737 117.375 188.009 117.495 188.257C117.614 188.506 117.787 188.725 118 188.9C119.641 190.571 121.243 192.293 122.807 194.041L123.807 195.146C124.448 195.866 125.089 196.534 125.679 197.254L125.807 197.408H125.602C125.33 197.481 125.095 197.653 124.943 197.891C124.791 198.129 124.733 198.415 124.781 198.693V198.925L124.576 198.848C123.924 198.616 123.209 198.644 122.577 198.925C122.298 199.084 122.059 199.305 121.877 199.569C121.695 199.834 121.575 200.137 121.525 200.454C121.485 200.888 121.569 201.325 121.769 201.713C121.969 202.1 122.276 202.422 122.653 202.639L122.884 202.767L122.628 202.87C122.315 202.976 122.036 203.161 121.815 203.407C121.595 203.653 121.441 203.952 121.369 204.275C121.297 204.597 121.309 204.933 121.403 205.25C121.498 205.567 121.673 205.854 121.91 206.083L121.987 206.16L121.91 206.238C121.517 206.678 121.259 207.222 121.166 207.806C121.124 208.515 121.288 209.222 121.639 209.84C121.989 210.459 122.511 210.962 123.141 211.288C124.382 212.289 125.693 213.2 127.063 214.013C128.639 214.938 130.285 215.737 131.986 216.404C132.37 217.303 132.781 218.229 133.204 219.128C133.222 219.155 133.232 219.186 133.232 219.218C133.232 219.251 133.222 219.282 133.204 219.308C133.175 219.328 133.142 219.339 133.107 219.339C133.073 219.339 133.039 219.328 133.011 219.308C132.601 218.434 132.216 217.535 131.832 216.635C130.126 215.979 128.48 215.18 126.909 214.244C125.532 213.42 124.213 212.501 122.961 211.494C122.282 211.153 121.719 210.619 121.343 209.958C120.966 209.297 120.793 208.539 120.846 207.78C120.943 207.185 121.195 206.626 121.577 206.16C121.281 205.808 121.097 205.376 121.047 204.918C120.996 204.461 121.083 203.998 121.295 203.59C121.514 203.202 121.845 202.889 122.243 202.69C121.868 202.444 121.569 202.096 121.383 201.686C121.197 201.277 121.131 200.823 121.192 200.377C121.246 200.017 121.38 199.675 121.584 199.374C121.788 199.074 122.057 198.824 122.371 198.642C123.005 198.338 123.73 198.292 124.397 198.513C124.4 198.24 124.482 197.974 124.632 197.747C124.782 197.519 124.994 197.339 125.243 197.228C124.679 196.586 124.115 195.943 123.499 195.275C123.166 194.915 122.833 194.555 122.5 194.169C120.948 192.447 119.333 190.699 117.718 189.028C117.48 188.831 117.287 188.584 117.154 188.304C117.021 188.025 116.951 187.719 116.949 187.409C116.944 187.169 116.989 186.93 117.081 186.709C117.174 186.488 117.313 186.288 117.487 186.124C117.815 185.874 118.216 185.738 118.628 185.738C119.04 185.738 119.441 185.874 119.769 186.124C122.73 188.784 125.679 191.509 128.499 194.259C130.319 196.033 132.165 197.884 133.947 199.722L134.896 199.979C135.51 200.142 136.08 200.442 136.563 200.856C137.047 201.27 137.432 201.787 137.69 202.369C137.921 202.883 138.152 203.397 138.357 203.886C138.982 205.452 139.504 207.058 139.921 208.692C140.05 209.292 140.239 209.878 140.485 210.44C143.377 216.009 147.05 221.134 151.394 225.657C152.676 227.02 154.599 229.076 157.137 231.338C157.153 231.347 157.166 231.36 157.176 231.376C157.185 231.391 157.19 231.409 157.19 231.428C157.19 231.446 157.185 231.464 157.176 231.48C157.166 231.496 157.153 231.509 157.137 231.518C157.137 231.518 157.162 231.556 157.111 231.556Z" fill="#F38484"/>
<path fill-rule="evenodd" clip-rule="evenodd" d="M159.803 232.842C158.848 234.587 157.992 236.385 157.239 238.227C155.697 242.072 154.663 246.103 154.163 250.218C152.98 250.414 151.766 250.167 150.753 249.524C150.1 249.07 149.56 248.471 149.178 247.773C148.795 247.075 148.58 246.297 148.548 245.501C148.068 245.344 147.63 245.08 147.266 244.73C146.62 244.095 146.228 243.244 146.164 242.339C147.259 240.325 148.484 238.385 149.83 236.53C151.562 234.14 153.501 231.908 155.624 229.86C156.52 229.769 157.421 229.977 158.188 230.451C159.015 231.008 159.594 231.865 159.803 232.842V232.842Z" fill="#BF2652"/>
<path fill-rule="evenodd" clip-rule="evenodd" d="M149.317 244.897C149.302 244.893 149.287 244.885 149.274 244.875C149.262 244.865 149.252 244.852 149.244 244.837C149.237 244.823 149.233 244.807 149.232 244.79C149.232 244.774 149.234 244.758 149.24 244.743C150.127 242.21 151.315 239.793 152.778 237.546C153.798 235.958 154.947 234.457 156.214 233.06C156.239 233.042 156.269 233.033 156.3 233.035C156.331 233.037 156.36 233.05 156.381 233.072C156.403 233.094 156.416 233.123 156.419 233.154C156.421 233.185 156.412 233.215 156.393 233.24C155.149 234.631 154.009 236.113 152.983 237.674C151.544 239.914 150.366 242.311 149.471 244.82C149.471 244.82 149.368 244.897 149.317 244.897Z" fill="#EA2856"/>
<path fill-rule="evenodd" clip-rule="evenodd" d="M156.598 248.997C156.565 248.994 156.534 248.98 156.511 248.956C156.488 248.933 156.473 248.901 156.47 248.868C156.756 245.203 157.622 241.607 159.034 238.214C159.504 237.077 160.035 235.965 160.624 234.885C160.641 234.855 160.669 234.832 160.703 234.822C160.736 234.813 160.772 234.817 160.803 234.834C160.834 234.851 160.856 234.879 160.866 234.913C160.876 234.947 160.871 234.983 160.854 235.014C160.265 236.085 159.735 237.188 159.265 238.317C157.861 241.682 157.017 245.255 156.765 248.894C156.752 248.927 156.728 248.954 156.698 248.973C156.668 248.991 156.633 249 156.598 248.997V248.997Z" fill="#EA2856"/>
<path d="M134.165 200.056C131.988 199.901 129.868 199.283 127.948 198.243L127.755 198.141C127.302 197.763 126.751 197.522 126.166 197.447C125.953 197.421 125.738 197.421 125.525 197.447C125.448 197.447 125.397 197.447 125.371 197.344C125.345 197.241 125.371 197.215 125.474 197.19C125.711 197.151 125.954 197.151 126.191 197.19C126.821 197.26 127.417 197.509 127.909 197.909L128.114 198.063C130.003 199.061 132.075 199.66 134.203 199.824C134.236 199.827 134.267 199.842 134.291 199.865C134.314 199.889 134.329 199.92 134.332 199.953C134.272 200.021 134.216 200.056 134.165 200.056Z" fill="#F38484"/>
<path d="M127.499 199.516C127.385 199.508 127.272 199.482 127.166 199.439C126.751 199.294 126.355 199.1 125.986 198.86C125.799 198.753 125.647 198.592 125.551 198.398C125.5 198.275 125.474 198.144 125.474 198.012C125.474 197.978 125.487 197.945 125.511 197.921C125.535 197.897 125.568 197.884 125.602 197.884C125.636 197.884 125.668 197.897 125.692 197.921C125.717 197.945 125.73 197.978 125.73 198.012C125.728 198.112 125.754 198.21 125.807 198.295C125.883 198.443 125.998 198.568 126.14 198.655C126.497 198.883 126.875 199.076 127.268 199.233C127.367 199.272 127.477 199.272 127.576 199.233C127.704 199.233 127.781 199.104 127.884 198.963C127.986 198.823 128.064 198.666 128.114 198.5C128.119 198.485 128.127 198.471 128.138 198.459C128.148 198.447 128.161 198.437 128.175 198.43C128.19 198.423 128.205 198.419 128.221 198.417C128.237 198.416 128.253 198.418 128.268 198.423C128.283 198.428 128.297 198.436 128.309 198.447C128.321 198.457 128.331 198.47 128.339 198.484C128.346 198.499 128.35 198.514 128.351 198.53C128.352 198.546 128.35 198.562 128.345 198.578C128.286 198.785 128.19 198.981 128.063 199.156C127.959 199.329 127.794 199.457 127.602 199.516C127.602 199.516 127.55 199.516 127.499 199.516Z" fill="#F38484"/>
<path d="M129.96 205.505H129.832C129.319 205.325 128.832 205.171 128.55 205.094C128.412 205.066 128.286 204.994 128.191 204.888C128.138 204.825 128.099 204.751 128.077 204.671C128.055 204.591 128.05 204.507 128.063 204.425V204.425L128.243 203.86C128.259 203.748 128.306 203.643 128.378 203.557C128.451 203.471 128.546 203.406 128.653 203.372C128.733 203.335 128.821 203.317 128.909 203.317C128.998 203.317 129.085 203.335 129.166 203.372L130.447 203.757C130.478 203.767 130.503 203.789 130.518 203.818C130.532 203.847 130.535 203.881 130.524 203.911C130.514 203.942 130.492 203.967 130.463 203.982C130.435 203.996 130.401 203.999 130.371 203.988L129.089 203.603C129.041 203.579 128.988 203.567 128.935 203.567C128.881 203.567 128.829 203.579 128.781 203.603C128.718 203.628 128.663 203.67 128.623 203.725C128.582 203.779 128.557 203.844 128.55 203.911L128.371 204.502C128.365 204.603 128.392 204.702 128.448 204.785C128.516 204.842 128.594 204.886 128.678 204.914C128.986 204.991 129.422 205.145 129.96 205.325C130.071 205.345 130.183 205.345 130.294 205.325C130.372 205.29 130.441 205.237 130.494 205.17C130.548 205.103 130.584 205.024 130.601 204.939C130.612 204.909 130.633 204.883 130.662 204.869C130.691 204.855 130.725 204.852 130.755 204.862C130.786 204.873 130.811 204.895 130.825 204.923C130.84 204.952 130.842 204.986 130.832 205.017C130.796 205.134 130.737 205.242 130.658 205.335C130.578 205.428 130.48 205.503 130.371 205.556C130.236 205.522 130.099 205.505 129.96 205.505Z" fill="#F38484"/>
<path d="M130.191 208.898C129.654 208.811 129.123 208.691 128.602 208.538C128.439 208.488 128.296 208.389 128.191 208.255C128.11 208.133 128.066 207.99 128.063 207.844V207.844L128.243 207.201C128.27 207.034 128.351 206.881 128.473 206.764C128.547 206.702 128.633 206.656 128.726 206.629C128.819 206.602 128.916 206.596 129.012 206.61L130.704 207.098C130.72 207.103 130.734 207.11 130.747 207.121C130.759 207.131 130.769 207.144 130.777 207.158C130.784 207.173 130.788 207.189 130.789 207.205C130.789 207.221 130.787 207.238 130.781 207.253C130.781 207.253 130.678 207.355 130.627 207.33L128.935 206.841C128.875 206.835 128.815 206.84 128.757 206.858C128.7 206.876 128.647 206.905 128.602 206.944C128.557 206.977 128.52 207.02 128.494 207.069C128.467 207.118 128.451 207.172 128.448 207.227L128.268 207.87C128.266 207.961 128.293 208.051 128.345 208.127C128.415 208.218 128.515 208.282 128.627 208.307C129.132 208.458 129.646 208.578 130.165 208.666C130.301 208.67 130.434 208.634 130.55 208.564C130.629 208.513 130.696 208.445 130.744 208.365C130.793 208.285 130.823 208.194 130.832 208.101C130.832 208.067 130.846 208.034 130.87 208.01C130.894 207.986 130.926 207.972 130.96 207.972C130.994 207.972 131.027 207.986 131.051 208.01C131.075 208.034 131.088 208.067 131.088 208.101C131.07 208.228 131.026 208.35 130.96 208.461C130.894 208.571 130.807 208.667 130.704 208.744C130.553 208.846 130.374 208.9 130.191 208.898V208.898Z" fill="#F38484"/>
<path d="M128.268 210.594C127.998 210.591 127.731 210.548 127.473 210.466C127.279 210.427 127.105 210.317 126.986 210.157C126.936 210.007 126.936 209.845 126.986 209.695C127.017 209.538 127.06 209.383 127.115 209.232C127.123 209.217 127.134 209.204 127.148 209.193C127.161 209.182 127.177 209.174 127.194 209.169C127.21 209.164 127.228 209.163 127.245 209.165C127.262 209.167 127.279 209.172 127.294 209.181C127.309 209.189 127.323 209.201 127.333 209.214C127.344 209.228 127.352 209.243 127.357 209.26C127.362 209.277 127.363 209.294 127.361 209.311C127.359 209.329 127.354 209.345 127.345 209.361C127.291 209.485 127.248 209.614 127.217 209.746C127.19 209.847 127.19 209.954 127.217 210.055C127.217 210.055 127.217 210.157 127.55 210.235C127.833 210.321 128.128 210.356 128.422 210.337C128.439 210.337 128.456 210.341 128.471 210.347C128.487 210.354 128.501 210.363 128.513 210.375C128.525 210.387 128.534 210.401 128.541 210.417C128.547 210.432 128.55 210.449 128.55 210.466C128.55 210.483 128.547 210.5 128.541 210.515C128.534 210.531 128.525 210.545 128.513 210.557C128.501 210.569 128.487 210.578 128.471 210.585C128.456 210.591 128.439 210.594 128.422 210.594H128.268Z" fill="#F38484"/>
<path d="M124.397 211.713C124.381 211.708 124.367 211.701 124.354 211.69C124.342 211.68 124.331 211.667 124.324 211.653C124.317 211.638 124.313 211.622 124.312 211.606C124.311 211.59 124.314 211.573 124.32 211.558C124.359 211.385 124.359 211.205 124.32 211.031C124.299 210.789 124.21 210.557 124.064 210.363C124.051 210.339 124.045 210.313 124.045 210.286C124.045 210.259 124.051 210.233 124.064 210.209C124.087 210.195 124.114 210.188 124.141 210.188C124.168 210.188 124.194 210.195 124.217 210.209C125.043 210.694 125.978 210.96 126.935 210.98C127.448 210.98 129.037 210.98 129.422 210.209C129.515 209.96 129.515 209.686 129.422 209.438C129.422 209.438 129.422 209.361 129.422 209.335C129.456 209.326 129.491 209.326 129.525 209.335C129.945 209.424 130.383 209.355 130.756 209.142C131.129 208.929 131.412 208.586 131.55 208.178C131.597 207.88 131.537 207.576 131.383 207.317C131.228 207.059 130.988 206.863 130.704 206.764C130.522 206.672 130.334 206.595 130.14 206.533C129.946 206.46 129.758 206.375 129.576 206.276C129.551 206.259 129.531 206.236 129.518 206.209C129.504 206.182 129.498 206.152 129.499 206.122C129.499 206.122 129.601 206.019 129.653 206.045C129.929 206.1 130.216 206.068 130.473 205.953C130.73 205.838 130.945 205.645 131.088 205.402C131.255 205.083 131.306 204.716 131.231 204.364C131.156 204.012 130.96 203.697 130.678 203.474C130.664 203.463 130.651 203.449 130.643 203.433C130.634 203.417 130.629 203.399 130.627 203.381C130.626 203.362 130.629 203.344 130.635 203.327C130.642 203.309 130.652 203.294 130.665 203.281C130.678 203.268 130.693 203.257 130.71 203.251C130.728 203.245 130.746 203.242 130.764 203.243C130.783 203.245 130.8 203.25 130.817 203.259C130.833 203.267 130.847 203.28 130.858 203.294C131.12 203.482 131.322 203.742 131.441 204.042C131.56 204.343 131.59 204.671 131.528 204.988C131.466 205.305 131.314 205.598 131.091 205.831C130.867 206.064 130.582 206.227 130.268 206.302L130.832 206.533C131.165 206.659 131.444 206.897 131.622 207.207C131.8 207.516 131.865 207.877 131.806 208.23C131.671 208.673 131.382 209.053 130.992 209.303C130.602 209.553 130.137 209.655 129.678 209.592C129.724 209.853 129.689 210.123 129.576 210.363C129.114 211.353 127.473 211.327 126.833 211.301C125.977 211.266 125.139 211.051 124.371 210.671C124.42 210.804 124.455 210.942 124.474 211.083C124.512 211.291 124.512 211.504 124.474 211.713C124.448 211.717 124.422 211.717 124.397 211.713V211.713Z" fill="#F38484"/>
<path d="M129.73 206.173C127.937 205.742 126.212 205.067 124.602 204.168C123.845 203.737 123.117 203.256 122.423 202.729C122.396 202.708 122.378 202.678 122.373 202.644C122.368 202.611 122.377 202.576 122.397 202.549C122.418 202.522 122.448 202.504 122.482 202.499C122.515 202.494 122.549 202.503 122.577 202.523C123.262 203.042 123.982 203.514 124.73 203.937C126.334 204.845 128.061 205.512 129.858 205.916C129.891 205.925 129.919 205.946 129.938 205.974C129.957 206.002 129.965 206.037 129.96 206.07C129.974 206.101 129.975 206.136 129.963 206.167C129.951 206.199 129.927 206.224 129.896 206.238C129.866 206.251 129.831 206.252 129.8 206.24C129.768 206.228 129.743 206.204 129.73 206.173V206.173Z" fill="#F38484"/>
<path d="M129.678 209.463C127.584 209.062 125.556 208.37 123.653 207.407C123.012 207.073 122.371 206.713 121.756 206.328C121.729 206.307 121.711 206.277 121.706 206.243C121.701 206.209 121.71 206.175 121.73 206.148C121.751 206.12 121.781 206.102 121.815 206.097C121.849 206.093 121.883 206.101 121.91 206.122C122.5 206.507 123.192 206.867 123.782 207.201C125.647 208.163 127.642 208.847 129.704 209.232C129.737 209.241 129.765 209.262 129.784 209.29C129.803 209.318 129.811 209.353 129.807 209.386C129.774 209.426 129.729 209.454 129.678 209.463V209.463Z" fill="#F38484"/>
<path d="M135.203 205.428C134.193 205.304 133.22 204.971 132.345 204.451C131.853 204.143 131.398 203.781 130.986 203.372C129.777 203.177 128.608 202.787 127.525 202.215C126.884 201.906 126.296 201.499 125.781 201.007C125.251 200.519 124.847 199.911 124.602 199.233C124.602 199.04 124.499 198.86 124.474 198.706C124.474 198.672 124.487 198.639 124.511 198.615C124.535 198.591 124.568 198.578 124.602 198.578C124.636 198.578 124.669 198.591 124.693 198.615C124.717 198.639 124.73 198.672 124.73 198.706C124.762 198.876 124.805 199.043 124.858 199.207C125.071 199.845 125.452 200.414 125.961 200.852C126.451 201.332 127.013 201.731 127.627 202.035C128.707 202.587 129.866 202.969 131.063 203.166V203.166C131.444 203.57 131.874 203.925 132.345 204.22C133.185 204.731 134.125 205.055 135.101 205.171C135.119 205.172 135.136 205.177 135.152 205.186C135.167 205.195 135.181 205.207 135.191 205.222C135.201 205.237 135.207 205.254 135.209 205.272C135.211 205.29 135.209 205.308 135.203 205.325C135.211 205.341 135.215 205.359 135.215 205.376C135.215 205.394 135.211 205.412 135.203 205.428V205.428Z" fill="#F38484"/>
</g>
<defs>
<clipPath id="clip0_2_2">
<rect width="354" height="385" fill="white" transform="translate(0 115)"/>
</clipPath>
</defs>
</svg>
