<svg width="331" height="488" viewBox="0 0 331 488" fill="none" xmlns="http://www.w3.org/2000/svg">
<g clip-path="url(#clip0_2_2)">
<path d="M175.651 13.3799C175.651 13.3799 291.389 124.999 113.366 222.41C-64.657 319.821 259.881 494.547 113.146 647.589" stroke="#00AEEE" stroke-linecap="round" stroke-linejoin="round" stroke-dasharray="2 8"/>
<g clip-path="url(#clip1_2_2)">
<path fill-rule="evenodd" clip-rule="evenodd" d="M158.662 361.34C158.662 361.34 165.971 363.731 166.307 364.024C166.687 363.356 166.952 362.821 167.318 362.168C167.351 362.119 167.373 362.065 167.381 362.012L167.548 355.455C167.548 355.412 167.535 355.371 167.512 355.337C167.488 355.302 167.453 355.276 167.411 355.259C167.369 355.242 167.321 355.236 167.271 355.241C167.22 355.246 167.17 355.261 167.123 355.286L159.837 359.306C159.803 359.324 159.772 359.348 159.746 359.375C159.72 359.403 159.699 359.433 159.685 359.465C159.336 360.067 158.662 361.34 158.662 361.34Z" fill="#BF2652"/>
<path fill-rule="evenodd" clip-rule="evenodd" d="M166.379 363.857L166.548 357.305C166.549 357.26 166.538 357.219 166.514 357.183C166.49 357.148 166.456 357.121 166.413 357.103C166.371 357.086 166.322 357.08 166.271 357.085C166.22 357.089 166.168 357.106 166.121 357.131L158.844 361.152C158.791 361.181 158.746 361.221 158.713 361.267C158.679 361.314 158.659 361.364 158.654 361.415C158.649 361.465 158.66 361.512 158.685 361.552C158.71 361.592 158.748 361.623 158.796 361.641L165.915 364.153C165.96 364.17 166.012 364.174 166.065 364.166C166.118 364.158 166.17 364.138 166.217 364.108C166.264 364.078 166.304 364.039 166.332 363.995C166.361 363.951 166.377 363.904 166.379 363.857Z" fill="#FC6C85"/>
</g>
</g>
<g clip-path="url(#clip2_2_2)">
<path d="M19.8691 37.2156L18.4484 34.3788L0.755136 41.7197L2.11778 44.6971C2.20249 44.8305 2.32961 44.9384 2.4812 45.0058L18.5422 52.211C18.6423 52.2627 18.7543 52.2904 18.8668 52.2911C18.9793 52.2918 19.0884 52.2656 19.1835 52.2152C19.2785 52.1647 19.3561 52.0917 19.4085 52.0035C19.4608 51.9152 19.4861 51.8147 19.4819 51.712L19.9586 37.4788C19.9371 37.3893 19.9071 37.3012 19.8691 37.2156Z" fill="#F9C973"/>
<path fill-rule="evenodd" clip-rule="evenodd" d="M17.603 34.1255L1.08369 41.0092C0.973566 41.0531 0.881266 41.1257 0.817895 41.2182C0.754524 41.3108 0.722706 41.4194 0.726233 41.5312C0.729759 41.643 0.768595 41.7532 0.837897 41.8486C0.907199 41.9441 1.00415 42.0209 1.1172 42.0697L17.0311 49.1576C17.1276 49.202 17.2335 49.2243 17.3392 49.2226C17.4449 49.221 17.5472 49.1954 17.6367 49.1481C17.7262 49.1008 17.8002 49.0333 17.8521 48.9517C17.904 48.8701 17.9322 48.7769 17.934 48.6805L18.5504 34.7085C18.5577 34.6049 18.5338 34.4999 18.4815 34.4047C18.4291 34.3095 18.3501 34.2276 18.2529 34.1678C18.1558 34.108 18.0441 34.0725 17.9296 34.0651C17.8152 34.0576 17.7023 34.0785 17.603 34.1255Z" fill="#FFF9B0"/>
</g>
<g clip-path="url(#clip3_2_2)">
<path d="M26.5039 268.007C32.305 268.007 37.0077 263.529 37.0077 258.004C37.0077 252.479 32.305 248 26.5039 248C20.7027 248 16 252.479 16 258.004C16 263.529 20.7027 268.007 26.5039 268.007Z" fill="#A2E9FC"/>
</g>
<path fill-rule="evenodd" clip-rule="evenodd" d="M171.197 315H56.8268C55.814 314.997 54.8429 314.595 54.126 313.88C53.409 313.164 53.0044 312.195 53 311.182V239.531C53.0022 238.517 53.406 237.545 54.1231 236.828C54.8403 236.111 55.8126 235.707 56.8268 235.705H171.197C172.21 235.709 173.18 236.114 173.896 236.831C174.611 237.548 175.014 238.518 175.016 239.531V311.182C175.02 311.685 174.924 312.183 174.734 312.648C174.544 313.114 174.263 313.536 173.907 313.891C173.552 314.247 173.129 314.528 172.664 314.718C172.198 314.908 171.7 315.004 171.197 315Z" fill="#C8F5FC"/>
<path d="M158.649 263.338H69.5161V267.155H158.649V263.338Z" fill="#A2E9FC"/>
<path d="M158.649 273.846H69.5161V277.663H158.649V273.846Z" fill="#A2E9FC"/>
<path d="M107.485 284.354H69.5161V288.172H107.485V284.354Z" fill="#A2E9FC"/>
<path d="M158.607 263.338H69.5908V267.155H158.607V263.338Z" fill="#A2E9FC"/>
<path d="M158.607 273.846H69.5908V277.663H158.607V273.846Z" fill="#A2E9FC"/>
<path d="M158.607 284.354H69.5908V288.172H158.607V284.354Z" fill="#A2E9FC"/>
<path d="M158.607 252.64H69.5908V256.457H158.607V252.64Z" fill="#A2E9FC"/>
<path d="M118.41 295.053H69.5908V298.87H118.41V295.053Z" fill="#A2E9FC"/>
<path d="M114.012 235.706V199.893H265.151" stroke="#0A9CE5" stroke-width="2" stroke-miterlimit="10"/>
<path d="M158.193 57.9639L158.193 199.561" stroke="#0A9CE5" stroke-width="2" stroke-miterlimit="10"/>
<path fill-rule="evenodd" clip-rule="evenodd" d="M327.173 238.761H212.811C211.798 238.759 210.827 238.357 210.11 237.641C209.393 236.926 208.988 235.956 208.984 234.944V163.292C208.986 162.278 209.39 161.307 210.107 160.59C210.824 159.873 211.796 159.469 212.811 159.467H327.173C328.187 159.469 329.159 159.873 329.877 160.59C330.594 161.307 330.998 162.278 331 163.292V234.944C331.002 235.447 330.905 235.945 330.713 236.409C330.521 236.874 330.239 237.296 329.884 237.651C329.528 238.006 329.105 238.287 328.639 238.478C328.174 238.668 327.676 238.765 327.173 238.761Z" fill="#C8F5FC"/>
<path d="M314.6 187.099H276.755V190.916H314.6V187.099Z" fill="#A2E9FC"/>
<path d="M314.6 197.606H276.755V201.424H314.6V197.606Z" fill="#A2E9FC"/>
<path d="M314.6 208.115H298.481V211.933H314.6V208.115Z" fill="#A2E9FC"/>
<path d="M314.583 187.099H276.788V190.916H314.583V187.099Z" fill="#A2E9FC"/>
<path d="M314.583 197.606H276.788V201.424H314.583V197.606Z" fill="#A2E9FC"/>
<path d="M314.583 208.115H276.788V211.933H314.583V208.115Z" fill="#A2E9FC"/>
<path d="M314.583 176.4H276.788V180.218H314.583V176.4Z" fill="#A2E9FC"/>
<path d="M314.575 218.78H289.469V222.598H314.575V218.78Z" fill="#A2E9FC"/>
<path d="M223.048 193.483H263.544V221.091C263.544 222.373 263.034 223.603 262.127 224.51C261.22 225.417 259.989 225.927 258.706 225.927H227.894C227.258 225.928 226.628 225.803 226.04 225.561C225.452 225.318 224.918 224.962 224.468 224.513C224.018 224.064 223.661 223.53 223.417 222.943C223.174 222.356 223.048 221.726 223.048 221.091V193.483Z" fill="#82CDEC"/>
<path d="M259.966 193.483H256.073V185.898C256.073 182.505 254.724 179.251 252.324 176.851C249.924 174.452 246.669 173.104 243.275 173.104C239.881 173.104 236.626 174.452 234.226 176.851C231.826 179.251 230.478 182.505 230.478 185.898V193.483H226.61V185.898C226.61 181.479 228.366 177.241 231.492 174.117C234.617 170.993 238.855 169.237 243.275 169.237C247.695 169.237 251.934 170.993 255.059 174.117C258.185 177.241 259.941 181.479 259.941 185.898L259.966 193.483Z" fill="#82CDEC"/>
<path fill-rule="evenodd" clip-rule="evenodd" d="M215.826 132.29H101.455C100.442 132.285 99.4724 131.88 98.757 131.164C98.0416 130.447 97.6389 129.476 97.6367 128.464V56.8124C97.6411 55.8014 98.0447 54.833 98.7598 54.118C99.475 53.4031 100.444 52.9995 101.455 52.9951H215.826C216.839 52.9973 217.809 53.3999 218.526 54.1151C219.243 54.8303 219.648 55.7999 219.652 56.8124V128.464C219.658 128.968 219.563 129.468 219.372 129.934C219.182 130.401 218.901 130.825 218.544 131.181C218.188 131.538 217.764 131.819 217.297 132.01C216.83 132.2 216.33 132.295 215.826 132.29Z" fill="#C8F5FC"/>
<path d="M158.732 80.6279H114.145V84.4453H158.732V80.6279Z" fill="#A2E9FC"/>
<path d="M158.732 91.1357H114.145V94.9531H158.732V91.1357Z" fill="#A2E9FC"/>
<path d="M133.137 101.644H114.145V105.461H133.137V101.644Z" fill="#A2E9FC"/>
<path d="M158.715 80.6279H114.186V84.4453H158.715V80.6279Z" fill="#A2E9FC"/>
<path d="M158.715 91.1357H114.186V94.9531H158.715V91.1357Z" fill="#A2E9FC"/>
<path d="M158.715 101.644H114.186V105.461H158.715V101.644Z" fill="#A2E9FC"/>
<path d="M158.715 69.9209H114.186V73.7382H158.715V69.9209Z" fill="#A2E9FC"/>
<path d="M138.604 112.342H114.186V116.159H138.604V112.342Z" fill="#A2E9FC"/>
<path d="M203.137 69.9209H165.748V116.159H203.137V69.9209Z" fill="#A2E9FC"/>
<path d="M279.952 24.4518C281.782 24.4518 283.266 22.8707 283.266 20.9203C283.266 18.9698 281.782 17.3887 279.952 17.3887C278.123 17.3887 276.639 18.9698 276.639 20.9203C276.639 22.8707 278.123 24.4518 279.952 24.4518Z" fill="#A2E9FC"/>
<g clip-path="url(#clip4_2_2)">
<path fill-rule="evenodd" clip-rule="evenodd" d="M63.1562 116.716C63.1562 116.716 77.0991 123.941 77.8628 124.661C78.0525 123.352 78.1374 122.291 78.312 121.008C78.3345 120.912 78.335 120.805 78.3131 120.695L74.1592 106.791C74.1294 106.698 74.0807 106.607 74.0173 106.527C73.9539 106.447 73.8777 106.381 73.7956 106.333C73.7135 106.285 73.6278 106.258 73.5463 106.253C73.4647 106.249 73.3898 106.267 73.3279 106.307L63.7624 112.732C63.717 112.761 63.6803 112.802 63.6546 112.852C63.629 112.903 63.6146 112.962 63.6128 113.027C63.4309 114.205 63.1562 116.716 63.1562 116.716Z" fill="#BF2652"/>
<path fill-rule="evenodd" clip-rule="evenodd" d="M77.8711 124.326L73.7248 110.433C73.6963 110.338 73.6482 110.246 73.5845 110.164C73.5209 110.082 73.4439 110.013 73.3606 109.964C73.2772 109.915 73.1902 109.887 73.1074 109.883C73.0245 109.878 72.9485 109.897 72.8861 109.939L63.3355 116.368C63.2668 116.415 63.2173 116.486 63.1923 116.575C63.1672 116.663 63.1674 116.766 63.193 116.871C63.2187 116.976 63.2689 117.081 63.3379 117.173C63.407 117.265 63.4926 117.341 63.5855 117.394L77.2899 124.821C77.3766 124.869 77.4663 124.893 77.5504 124.892C77.6345 124.891 77.7099 124.864 77.7688 124.813C77.8277 124.763 77.8682 124.692 77.8861 124.607C77.9041 124.521 77.8989 124.424 77.8711 124.326Z" fill="#FC6C85"/>
</g>
<g clip-path="url(#clip5_2_2)">
<path fill-rule="evenodd" clip-rule="evenodd" d="M309.665 87.284C309.665 87.284 313.357 95.1991 313.402 95.739C314.136 95.3854 314.695 95.0711 315.409 94.7202C315.467 94.6977 315.519 94.6628 315.562 94.6178L320.171 88.4073C320.201 88.3649 320.22 88.3158 320.226 88.2644C320.232 88.2129 320.225 88.1607 320.206 88.1124C320.187 88.0641 320.156 88.021 320.116 87.9871C320.076 87.9532 320.028 87.9295 319.977 87.9179L311.914 86.2189C311.877 86.2103 311.838 86.2091 311.8 86.2154C311.762 86.2218 311.726 86.2356 311.694 86.2559C311.028 86.5698 309.665 87.284 309.665 87.284Z" fill="#BF2652"/>
<path fill-rule="evenodd" clip-rule="evenodd" d="M313.569 95.6328L318.177 89.4286C318.209 89.3862 318.229 89.3367 318.235 89.2846C318.242 89.2324 318.236 89.1792 318.217 89.13C318.198 89.0807 318.166 89.037 318.126 89.0025C318.085 88.9681 318.036 88.9441 317.984 88.9329L309.927 87.2414C309.869 87.2294 309.808 87.2331 309.753 87.2521C309.697 87.2711 309.647 87.3048 309.609 87.3495C309.571 87.3942 309.546 87.4484 309.537 87.5061C309.528 87.5638 309.535 87.6228 309.558 87.677L313.028 95.5636C313.05 95.6138 313.084 95.6576 313.128 95.6906C313.172 95.7237 313.224 95.7448 313.279 95.7518C313.334 95.7588 313.389 95.7515 313.44 95.7306C313.491 95.7097 313.535 95.676 313.569 95.6328Z" fill="#FC6C85"/>
</g>
<g clip-path="url(#clip6_2_2)">
<path d="M284.666 288.345L281.498 288.121L278.79 307.085L282.05 307.431C282.208 307.426 282.366 307.371 282.501 307.275L296.902 297.131C296.998 297.072 297.079 296.989 297.137 296.893C297.195 296.796 297.228 296.689 297.233 296.582C297.238 296.474 297.215 296.37 297.166 296.28C297.116 296.19 297.043 296.117 296.952 296.069L284.938 288.402C284.85 288.375 284.759 288.356 284.666 288.345Z" fill="#F9C973"/>
<path fill-rule="evenodd" clip-rule="evenodd" d="M280.848 288.719L278.346 306.44C278.327 306.557 278.343 306.674 278.39 306.775C278.437 306.877 278.515 306.96 278.613 307.014C278.711 307.068 278.826 307.09 278.943 307.079C279.061 307.069 279.176 307.024 279.276 306.952L293.501 296.875C293.588 296.814 293.662 296.734 293.714 296.643C293.767 296.551 293.797 296.45 293.802 296.349C293.807 296.248 293.786 296.149 293.743 296.063C293.699 295.977 293.633 295.905 293.551 295.855L281.833 288.202C281.748 288.142 281.645 288.109 281.536 288.106C281.428 288.102 281.317 288.129 281.216 288.182C281.115 288.235 281.027 288.313 280.962 288.408C280.897 288.502 280.858 288.61 280.848 288.719Z" fill="#FFF9B0"/>
</g>
<g clip-path="url(#clip7_2_2)">
<path d="M222.847 289.133C224.531 289.133 225.895 287.77 225.895 286.089C225.895 284.407 224.531 283.044 222.847 283.044C221.164 283.044 219.8 284.407 219.8 286.089C219.8 287.77 221.164 289.133 222.847 289.133Z" fill="#A2E9FC"/>
</g>
<g clip-path="url(#clip8_2_2)">
<path d="M231.002 302.004C234.317 302.004 237.004 299.317 237.004 296.002C237.004 292.687 234.317 290 231.002 290C227.687 290 225 292.687 225 296.002C225 299.317 227.687 302.004 231.002 302.004Z" fill="#A2E9FC"/>
</g>
<g clip-path="url(#clip9_2_2)">
<path d="M232.002 287.004C234.764 287.004 237.004 284.764 237.004 282.002C237.004 279.239 234.764 277 232.002 277C229.239 277 227 279.239 227 282.002C227 284.764 229.239 287.004 232.002 287.004Z" fill="#A2E9FC"/>
</g>
<defs>
<clipPath id="clip0_2_2">
<rect width="155" height="635" fill="white" transform="translate(58 13)"/>
</clipPath>
<clipPath id="clip1_2_2">
<rect width="7.35361" height="10.7683" fill="white" transform="translate(161.661 366.738) rotate(-119.853)"/>
</clipPath>
<clipPath id="clip2_2_2">
<rect width="18.2812" height="19.6236" fill="white" transform="matrix(0.104972 0.994475 -0.999212 0.0396997 19.6079 34)"/>
</clipPath>
<clipPath id="clip3_2_2">
<rect width="21" height="20" fill="white" transform="translate(16 248)"/>
</clipPath>
<clipPath id="clip4_2_2">
<rect width="18.0094" height="14.9078" fill="white" transform="matrix(-0.582288 -0.812983 0.813142 -0.582065 71.8647 129.079)"/>
</clipPath>
<clipPath id="clip5_2_2">
<rect width="9.13076" height="10.6626" fill="white" transform="matrix(0.185843 -0.982579 0.982648 0.185478 308.157 94.8018)"/>
</clipPath>
<clipPath id="clip6_2_2">
<rect width="18.2966" height="19.6281" fill="white" transform="matrix(0.90922 0.416316 -0.475609 0.879657 281.763 286.93)"/>
</clipPath>
<clipPath id="clip7_2_2">
<rect width="6.09315" height="6.08696" fill="white" transform="translate(219.8 283.044)"/>
</clipPath>
<clipPath id="clip8_2_2">
<rect width="12" height="12" fill="white" transform="translate(225 290)"/>
</clipPath>
<clipPath id="clip9_2_2">
<rect width="10" height="10" fill="white" transform="translate(227 277)"/>
</clipPath>
</defs>
</svg>
