<svg width="410" height="392" viewBox="0 0 410 392" fill="none" xmlns="http://www.w3.org/2000/svg">
<path d="M133 61C135.761 61 138 58.7614 138 56C138 53.2386 135.761 51 133 51C130.239 51 128 53.2386 128 56C128 58.7614 130.239 61 133 61Z" fill="#A2E9FC"/>
<path d="M141.5 63C142.328 63 143 62.3284 143 61.5C143 60.6716 142.328 60 141.5 60C140.672 60 140 60.6716 140 61.5C140 62.3284 140.672 63 141.5 63Z" fill="#A2E9FC"/>
<g clip-path="url(#clip0_2_2)">
<path d="M193.668 291.936C193.668 291.936 193.416 291.379 192.993 290.338" stroke="#00AEEE" stroke-linecap="round" stroke-linejoin="round"/>
<path d="M188.569 277.287C179.847 247.206 169.404 176.871 240.095 127.298C318.294 72.4771 380.452 141.398 361.493 196.486C349.452 231.352 292.195 264.15 241.253 200.647C192.481 139.863 190.553 59.7726 231.43 10.6122" stroke="#00AEEE" stroke-linecap="round" stroke-linejoin="round" stroke-dasharray="1.99 7.96"/>
<path d="M235.994 5.45134L237.177 4.20703" stroke="#00AEEE" stroke-linecap="round" stroke-linejoin="round"/>
</g>
<g clip-path="url(#clip1_2_2)">
<path d="M295.777 81.2803C275.362 73.0262 263.615 54.6877 269.539 40.3202C275.462 25.9527 296.814 20.9968 317.229 29.2509C337.643 37.505 349.391 55.8435 343.467 70.211C337.543 84.5785 316.191 89.5344 295.777 81.2803Z" fill="#C8F5FC"/>
<path fill-rule="evenodd" clip-rule="evenodd" d="M302.353 76.7073L282.87 88.1386C282.733 88.22 282.575 88.2586 282.415 88.2492C282.256 88.2399 282.103 88.1831 281.976 88.0863C281.85 87.9895 281.756 87.8572 281.707 87.7067C281.658 87.5562 281.656 87.3946 281.701 87.2429L287.393 67.7909C287.426 67.6758 287.485 67.5697 287.566 67.4809C287.647 67.3922 287.748 67.3231 287.86 67.2791C287.973 67.2351 288.094 67.2174 288.214 67.2273C288.335 67.2372 288.451 67.2744 288.555 67.3362C293.133 70.0166 297.719 72.6763 302.304 75.3567C302.425 75.422 302.527 75.5174 302.599 75.6334C302.672 75.7493 302.712 75.882 302.717 76.0183C302.722 76.1545 302.691 76.2897 302.627 76.4105C302.563 76.5313 302.469 76.6336 302.353 76.7073Z" fill="#C8F5FC"/>
</g>
<g clip-path="url(#clip2_2_2)">
<path d="M62.4304 58.092L60.5609 58.4509L65.6607 65.0155L67.6248 64.6968C67.7054 64.6709 67.7731 64.6341 67.8228 64.5891L72.4148 59.3109C72.4409 59.2781 72.4519 59.2413 72.4467 59.2037C72.4414 59.166 72.4201 59.1288 72.3848 59.0954C72.3495 59.0619 72.3013 59.0335 72.2444 59.0124C72.1875 58.9912 72.1238 58.9782 72.0591 58.9744L62.6258 58.0967C62.5612 58.0824 62.4924 58.0808 62.4304 58.092Z" fill="#F9C973"/>
<path fill-rule="evenodd" clip-rule="evenodd" d="M60.4186 58.7283L65.1904 64.8783C65.2196 64.9181 65.2666 64.9534 65.326 64.9804C65.3854 65.0074 65.4549 65.0249 65.5269 65.031C65.5988 65.0372 65.6704 65.0318 65.7335 65.0154C65.7967 64.9989 65.8488 64.9721 65.8844 64.9379L70.374 59.7112C70.4 59.6785 70.4117 59.6418 70.4081 59.6043C70.4045 59.5667 70.3856 59.5294 70.3531 59.4952C70.3206 59.461 70.2753 59.431 70.221 59.4076C70.1667 59.3842 70.1048 59.3681 70.0405 59.3606L60.7579 58.4394C60.6963 58.4379 60.6363 58.4449 60.5831 58.4599C60.5298 58.4749 60.4848 58.4974 60.4516 58.5257C60.4185 58.5539 60.3983 58.587 60.3925 58.6222C60.3867 58.6574 60.3957 58.6939 60.4186 58.7283Z" fill="#FFF9B0"/>
</g>
<g clip-path="url(#clip3_2_2)">
<path fill-rule="evenodd" clip-rule="evenodd" d="M15.1145 130.424C15.1145 130.424 1.13171 140.466 0.102051 140.75C1.05544 142.04 1.86885 143.008 2.80953 144.26C2.87425 144.365 2.96106 144.453 3.0637 144.519L16.7799 151.166C16.873 151.208 16.975 151.227 17.0769 151.22C17.1787 151.213 17.2773 151.18 17.3639 151.125C17.4506 151.071 17.5226 150.995 17.5737 150.905C17.6248 150.815 17.6533 150.714 17.6569 150.611L18.0001 134.386C18.0031 134.311 17.9913 134.235 17.9651 134.164C17.9389 134.093 17.899 134.028 17.8478 133.973C16.9961 132.799 15.1145 130.424 15.1145 130.424Z" fill="#BF2652"/>
<path fill-rule="evenodd" clip-rule="evenodd" d="M0.368771 141.033L14.0722 147.681C14.1659 147.726 14.269 147.746 14.3726 147.741C14.4762 147.735 14.5769 147.703 14.6653 147.648C14.7537 147.593 14.827 147.516 14.8788 147.425C14.9306 147.334 14.9593 147.231 14.962 147.126L15.2925 130.914C15.2946 130.797 15.2654 130.682 15.2081 130.581C15.1507 130.479 15.0674 130.396 14.9669 130.339C14.8664 130.282 14.7524 130.254 14.6373 130.257C14.5223 130.261 14.4105 130.296 14.3136 130.359L0.30515 139.962C0.215744 140.022 0.143567 140.105 0.0956645 140.202C0.0477619 140.299 0.0259113 140.408 0.0323535 140.516C0.0387956 140.625 0.0732258 140.73 0.132286 140.82C0.191345 140.911 0.272926 140.985 0.368771 141.033Z" fill="#FC6C85"/>
</g>
<g clip-path="url(#clip4_2_2)">
<path fill-rule="evenodd" clip-rule="evenodd" d="M39.7544 285.135C39.7544 285.135 47.2235 288.533 47.5852 288.892C47.8926 288.191 48.0998 287.625 48.3942 286.939C48.4219 286.888 48.4379 286.831 48.4407 286.773L47.9342 279.526C47.9296 279.477 47.9131 279.43 47.886 279.39C47.859 279.349 47.8222 279.316 47.779 279.294C47.7358 279.271 47.6874 279.259 47.6381 279.259C47.5889 279.259 47.5404 279.271 47.4967 279.295L40.7079 283.002C40.6759 283.019 40.6475 283.042 40.6244 283.069C40.6013 283.097 40.5838 283.129 40.5733 283.163C40.2898 283.794 39.7544 285.135 39.7544 285.135Z" fill="#BF2652"/>
<path fill-rule="evenodd" clip-rule="evenodd" d="M47.6392 288.715L47.1359 281.472C47.1323 281.423 47.1164 281.375 47.0895 281.334C47.0625 281.292 47.0255 281.258 46.9817 281.235C46.9379 281.211 46.8888 281.199 46.8388 281.199C46.7888 281.2 46.7395 281.212 46.6953 281.236L39.9148 284.946C39.866 284.973 39.8253 285.012 39.797 285.06C39.7688 285.108 39.7539 285.162 39.7542 285.217C39.7545 285.272 39.7699 285.326 39.7987 285.373C39.8275 285.419 39.8686 285.457 39.9177 285.482L47.2115 288.995C47.2575 289.018 47.3087 289.028 47.3603 289.025C47.4119 289.022 47.462 289.005 47.5053 288.976C47.5487 288.948 47.5838 288.909 47.6073 288.863C47.6308 288.817 47.6418 288.766 47.6392 288.715Z" fill="#FC6C85"/>
</g>
<g clip-path="url(#clip5_2_2)">
<path fill-rule="evenodd" clip-rule="evenodd" d="M322.662 385.962C322.662 385.962 329.971 388.353 330.307 388.646C330.687 387.978 330.952 387.443 331.318 386.79C331.351 386.741 331.373 386.687 331.381 386.634L331.548 380.078C331.548 380.034 331.535 379.993 331.512 379.959C331.488 379.924 331.453 379.898 331.411 379.881C331.369 379.864 331.321 379.858 331.271 379.863C331.22 379.868 331.17 379.883 331.123 379.908L323.837 383.928C323.803 383.946 323.772 383.97 323.746 383.997C323.72 384.025 323.699 384.055 323.685 384.088C323.336 384.689 322.662 385.962 322.662 385.962Z" fill="#BF2652"/>
<path fill-rule="evenodd" clip-rule="evenodd" d="M330.379 388.479L330.548 381.927C330.549 381.882 330.538 381.841 330.514 381.805C330.49 381.77 330.456 381.743 330.413 381.725C330.371 381.708 330.322 381.702 330.271 381.707C330.22 381.712 330.168 381.728 330.121 381.754L322.844 385.774C322.791 385.803 322.746 385.843 322.713 385.889C322.679 385.936 322.659 385.986 322.654 386.037C322.649 386.087 322.66 386.134 322.685 386.174C322.71 386.214 322.748 386.245 322.796 386.263L329.915 388.775C329.96 388.792 330.012 388.796 330.065 388.788C330.118 388.78 330.17 388.76 330.217 388.73C330.264 388.7 330.304 388.662 330.332 388.617C330.361 388.573 330.377 388.526 330.379 388.479Z" fill="#FC6C85"/>
</g>
<g clip-path="url(#clip6_2_2)">
<path d="M307 106.256H162V330.256H307V106.256Z" fill="#C8F5FC"/>
<path d="M296.962 160.038H257.481V275.512H296.962V160.038Z" fill="#A2E9FC"/>
<path d="M243.512 160.038H172.038V217.267H243.512V160.038Z" fill="#A2E9FC"/>
<path d="M296.97 307.157H172.038V310.648H296.97V307.157Z" fill="#A2E9FC"/>
<path d="M296.97 297.507H172.038V300.998H296.97V297.507Z" fill="#A2E9FC"/>
<path d="M296.962 287.83H243.756V291.321H296.962V287.83Z" fill="#A2E9FC"/>
<path d="M296.97 307.157H172.038V310.648H296.97V307.157Z" fill="#00AEEE"/>
<path d="M296.97 297.507H172.038V300.998H296.97V297.507Z" fill="#00AEEE"/>
<path d="M296.962 287.83H243.756V291.321H296.962V287.83Z" fill="#81DCFC"/>
<path d="M296.97 317H172.038V320.491H296.97V317Z" fill="#00AEEE"/>
<path d="M212.034 236.41H172.038V239.901H212.034V236.41Z" fill="#A2E9FC"/>
<path d="M212.034 246.052H172.038V249.543H212.034V246.052Z" fill="#A2E9FC"/>
<path d="M189.074 255.729H172.038V259.219H189.074V255.729Z" fill="#A2E9FC"/>
<path d="M212.034 236.41H172.038V239.901H212.034V236.41Z" fill="#00AEEE"/>
<path d="M212.034 246.052H172.038V249.543H212.034V246.052Z" fill="#00AEEE"/>
<path d="M189.074 255.729H172.038V259.219H189.074V255.729Z" fill="#00AEEE"/>
<path d="M212.034 226.559H172.038V230.05H212.034V226.559Z" fill="#81DCFC"/>
<path d="M296.97 135.339H172.038V138.83H296.97V135.339Z" fill="#A2E9FC"/>
<path d="M296.97 125.688H172.038V129.179H296.97V125.688Z" fill="#A2E9FC"/>
<path d="M225.243 116.012H172.038V119.503H225.243V116.012Z" fill="#A2E9FC"/>
<path d="M296.97 135.339H172.038V138.83H296.97V135.339Z" fill="#00AEEE"/>
<path d="M296.97 125.688H172.038V129.179H296.97V125.688Z" fill="#00AEEE"/>
<path d="M225.243 116.012H172.038V119.503H225.243V116.012Z" fill="#81DCFC"/>
<path d="M296.97 145.182H172.038V148.673H296.97V145.182Z" fill="#00AEEE"/>
</g>
<path d="M110.411 219.567C127.531 219.567 141.409 217.734 141.409 215.472C141.409 213.211 127.531 211.378 110.411 211.378C93.2906 211.378 79.4121 213.211 79.4121 215.472C79.4121 217.734 93.2906 219.567 110.411 219.567Z" fill="#979695"/>
<g clip-path="url(#clip7_2_2)">
<path d="M93.2559 167.965L98.9641 172.427L102.961 171.68L99.6188 167.033L96.8738 166.113L93.2559 167.965Z" fill="#C8F5FC"/>
<path d="M92.211 212.107L86.4683 207.633L87.0767 206.402L91.3953 206.644C92.1925 207.134 92.9596 207.672 93.6924 208.254C93.8417 208.507 94.3931 210.773 94.3931 210.773L92.211 212.107Z" fill="#C8F5FC"/>
<path d="M111.541 190.036L105.913 185.631C105.913 185.631 106.556 187.931 106.556 188.138C107.324 188.706 108.134 189.213 108.98 189.656C109.265 189.831 109.588 189.937 109.921 189.967C110.459 190.023 111 190.046 111.541 190.036Z" fill="#C8F5FC"/>
<path d="M101.502 156.269C106.021 153.221 110.863 150.683 115.94 148.701C119.435 147.341 122.805 145.679 126.012 143.733C128.281 142.276 129.999 140.102 130.894 137.556C131.571 135.849 131.811 133.999 131.592 132.176C131.374 130.352 130.703 128.611 129.642 127.113C127.459 123.87 123.906 121.355 118.983 119.569C114.639 117.89 109.944 117.328 105.327 117.935C100.919 118.578 96.7222 120.244 93.0721 122.8L78.7153 105.445C85.2864 100.531 93.0754 97.5119 101.238 96.7156C109.699 95.8109 118.857 97.145 128.711 100.718C140.266 104.92 148.646 110.755 153.853 118.223C159.06 125.691 160.07 133.803 156.885 142.56C155.617 146.315 153.583 149.766 150.913 152.692C148.653 155.151 146.002 157.218 143.068 158.811C140.327 160.267 136.881 161.839 132.731 163.526C128.847 164.983 125.106 166.796 121.556 168.943C118.948 170.693 116.997 173.263 116.009 176.247L93.2443 167.966C95.1432 162.736 97.8958 158.837 101.502 156.269ZM82.1035 202.274C81.2224 200.548 80.7121 198.656 80.6053 196.721C80.4984 194.786 80.7975 192.85 81.4832 191.037C82.0932 189.226 83.0817 187.566 84.3829 186.168C85.6841 184.77 87.2682 183.665 89.0292 182.929C92.8274 181.489 97.0149 181.46 100.833 182.846C104.651 184.232 107.847 186.942 109.841 190.485C110.72 192.181 111.228 194.045 111.33 195.953C111.433 197.86 111.129 199.768 110.438 201.549C109.809 203.385 108.801 205.067 107.479 206.486C106.157 207.905 104.551 209.029 102.766 209.784C99.0044 211.332 94.8016 211.42 90.9786 210.032C87.1557 208.643 83.9872 205.877 82.092 202.274H82.1035Z" fill="#C8F5FC"/>
<path d="M93.0719 122.8L98.8146 127.251L98.3205 122.8L95.3115 119.258C95.3115 119.258 93.198 119.258 93.1176 119.258C93.0372 119.258 93.0719 122.8 93.0719 122.8Z" fill="#C8F5FC"/>
<path d="M107.211 160.731C111.724 157.681 116.563 155.143 121.636 153.163C125.132 151.803 128.502 150.14 131.709 148.194C133.984 146.744 135.704 144.569 136.59 142.018C137.269 140.312 137.511 138.463 137.295 136.639C137.078 134.815 136.409 133.074 135.35 131.575C133.168 128.332 129.611 125.817 124.68 124.03C120.336 122.35 115.641 121.789 111.024 122.397C106.617 123.037 102.421 124.699 98.7689 127.251L84.4121 109.907C90.9859 104.99 98.7794 101.971 106.946 101.178C115.369 100.273 124.527 101.607 134.42 105.18C145.974 109.382 154.351 115.217 159.55 122.685C164.749 130.153 165.763 138.265 162.593 147.021C161.321 150.775 159.288 154.225 156.621 157.154C154.356 159.608 151.707 161.674 148.777 163.273C146.028 164.722 142.582 166.289 138.44 167.976C134.556 169.438 130.815 171.256 127.264 173.405C124.651 175.144 122.698 177.712 121.717 180.697L98.9526 172.427C100.874 167.198 103.627 163.299 107.211 160.731ZM87.8118 206.735C86.9242 205.01 86.4103 203.116 86.3034 201.178C86.1966 199.239 86.4991 197.301 87.1915 195.487C87.8124 193.689 88.8057 192.042 90.106 190.655C91.4064 189.268 92.9846 188.171 94.7375 187.437C98.5377 186.005 102.724 185.981 106.54 187.369C110.356 188.757 113.551 191.465 115.549 195.004C116.425 196.701 116.931 198.565 117.034 200.472C117.137 202.379 116.835 204.287 116.146 206.068C115.512 207.903 114.501 209.584 113.177 211.003C111.854 212.421 110.247 213.545 108.463 214.303C104.701 215.854 100.498 215.944 96.674 214.555C92.8503 213.166 89.682 210.398 87.7888 206.793L87.8118 206.735Z" fill="#A2E9FC"/>
</g>
<g clip-path="url(#clip8_2_2)">
<path d="M303.021 270.939L300.82 274.637L322.183 287.489L324.587 283.743C324.677 283.55 324.707 283.333 324.673 283.122L321.133 260.664C321.118 260.519 321.068 260.38 320.986 260.261C320.905 260.142 320.795 260.048 320.667 259.988C320.54 259.927 320.4 259.903 320.26 259.916C320.121 259.93 319.988 259.982 319.874 260.066L303.256 270.641C303.169 270.733 303.091 270.833 303.021 270.939Z" fill="#F9C973"/>
<path fill-rule="evenodd" clip-rule="evenodd" d="M301.15 275.721L321.129 287.698C321.26 287.779 321.411 287.819 321.563 287.814C321.715 287.808 321.863 287.757 321.988 287.667C322.113 287.576 322.21 287.449 322.269 287.302C322.327 287.155 322.344 286.994 322.317 286.837L318.75 264.625C318.73 264.489 318.678 264.361 318.599 264.251C318.519 264.142 318.415 264.054 318.295 263.997C318.176 263.94 318.044 263.915 317.913 263.924C317.782 263.933 317.655 263.976 317.543 264.049L301.122 274.274C300.998 274.347 300.895 274.453 300.825 274.582C300.754 274.711 300.719 274.858 300.722 275.007C300.725 275.155 300.766 275.3 300.841 275.426C300.917 275.552 301.023 275.654 301.15 275.721Z" fill="#FFF9B0"/>
</g>
<g clip-path="url(#clip9_2_2)">
<path d="M109.875 259.983L108.46 259.503L105.637 267.687L107.083 268.233C107.155 268.25 107.231 268.245 107.301 268.218L114.673 265.394C114.722 265.378 114.765 265.351 114.8 265.315C114.834 265.278 114.858 265.234 114.87 265.187C114.881 265.139 114.879 265.09 114.864 265.043C114.85 264.997 114.822 264.955 114.786 264.923L109.994 260.042C109.956 260.019 109.916 259.999 109.875 259.983Z" fill="#F9C973"/>
<path fill-rule="evenodd" clip-rule="evenodd" d="M108.115 259.693L105.49 267.345C105.472 267.395 105.469 267.449 105.482 267.5C105.495 267.552 105.523 267.598 105.563 267.634C105.603 267.67 105.653 267.694 105.707 267.703C105.761 267.712 105.817 267.706 105.868 267.686L113.156 264.87C113.2 264.854 113.24 264.827 113.272 264.792C113.303 264.757 113.325 264.715 113.336 264.67C113.347 264.626 113.346 264.579 113.333 264.535C113.321 264.491 113.297 264.451 113.264 264.419L108.605 259.579C108.571 259.542 108.528 259.515 108.479 259.5C108.43 259.486 108.378 259.484 108.327 259.496C108.277 259.508 108.231 259.532 108.194 259.567C108.156 259.602 108.129 259.645 108.115 259.693Z" fill="#FFF9B0"/>
</g>
<defs>
<clipPath id="clip0_2_2">
<rect width="283.599" height="199.11" fill="white" transform="translate(412.836 77.541) rotate(112.92)"/>
</clipPath>
<clipPath id="clip1_2_2">
<rect width="77" height="63" fill="white" transform="matrix(-1 0 0 1 345 25.2559)"/>
</clipPath>
<clipPath id="clip2_2_2">
<rect width="6.65813" height="12.0859" fill="white" transform="translate(59.8706 64.5381) rotate(-85.0962)"/>
</clipPath>
<clipPath id="clip3_2_2">
<rect width="18" height="21" fill="white" transform="translate(0 130.256)"/>
</clipPath>
<clipPath id="clip4_2_2">
<rect width="8.57994" height="10.0099" fill="white" transform="translate(43.271 291.424) rotate(-119.853)"/>
</clipPath>
<clipPath id="clip5_2_2">
<rect width="7.35361" height="10.7683" fill="white" transform="translate(325.661 391.36) rotate(-119.853)"/>
</clipPath>
<clipPath id="clip6_2_2">
<rect width="145" height="224" fill="white" transform="translate(162 106.256)"/>
</clipPath>
<clipPath id="clip7_2_2">
<rect width="85.6813" height="119.118" fill="white" transform="translate(78.7153 96.4395)"/>
</clipPath>
<clipPath id="clip8_2_2">
<rect width="25.2271" height="25.1346" fill="white" transform="matrix(0.767919 -0.640547 0.607391 0.794403 299.536 273.716)"/>
</clipPath>
<clipPath id="clip9_2_2">
<rect width="8.7608" height="8.72868" fill="white" transform="matrix(0.786237 0.617925 -0.650725 0.759313 108.68 259)"/>
</clipPath>
</defs>
</svg>
